<?xml version="1.0" encoding="utf-8"?>
<!-- Generator: Adobe Illustrator 22.0.0, SVG Export Plug-In . SVG Version: 6.00 Build 0)  -->
<svg version="1.1" xmlns="http://www.w3.org/2000/svg" xmlns:xlink="http://www.w3.org/1999/xlink" x="0px" y="0px"
	 viewBox="0 0 1079 192" style="enable-background:new 0 0 1079 192;" xml:space="preserve">
<style type="text/css">
	.st0{display:none;}
	.st1{fill:#252525;}
	.st2{fill:#D10A2C;}
</style>
<g id="Layer_1" class="st0">
	
		<image style="display:inline;overflow:visible;enable-background:new    ;" width="1079" height="192" id="TO_THE_NEXT_LEVEL" xlink:href="877918F5DDDE9007.png" >
	</image>
</g>
<g id="Layer_3">
	<g>
		<path class="st1" d="M42.5,132.6V191H21.2v-58.4H-0.4V114h64.5v18.6H42.5z"/>
		<path class="st1" d="M100.5,192.2c-20.9,0-35.5-14-35.5-39.6c0-25.6,14.9-39.8,35.8-39.8c20.9,0,35.5,14,35.5,39.6
			S121.4,192.2,100.5,192.2z M100.5,131.4c-8.6,0-13.4,7.1-13.4,21s5.1,21.2,13.6,21.2s13.4-7.2,13.4-21
			C114.1,138.8,109.1,131.4,100.5,131.4z"/>
		<path class="st1" d="M215.4,132.6V191h-21.3v-58.4h-21.6V114H237v18.6H215.4z"/>
		<path class="st1" d="M290.6,191v-30.4h-24V191h-21.8v-77h21.8v28h24v-28h21.8v77H290.6z"/>
		<path class="st1" d="M323.3,191v-77h59v17.9h-37.8v10.2h22.8v17.7h-22.8v13.2h38.6V191H323.3z"/>
		<path class="st1" d="M473.9,191l-18.4-25.4c-3.4-4.7-10-14.6-12-18c0.5,3.4,0.7,13.6,0.7,19.9V191h-20.5v-77h18.8l16.9,22.8
			c3.5,4.7,10.3,15,12,18.2c-0.5-3.4-0.7-13.6-0.7-19.9v-21h20.5v77H473.9z"/>
		<path class="st1" d="M502.3,191v-77h59v17.9h-37.8v10.2h22.8v17.7h-22.8v13.2H562V191H502.3z"/>
		<path class="st1" d="M615.8,191l-5.2-8.9c-2.8-4.8-5.5-10-7.4-14.2c-1.8,4.1-4.6,9.4-7.5,14.2l-5.2,8.9h-24.2l25.2-38.9L567.3,114
			h24.8l4.3,7.5c2.8,4.8,5.7,10,7.4,14.1c1.8-4.1,4.7-9.2,7.5-14.1l4.3-7.5h24.2l-24.3,37.6l25.2,39.4H615.8z"/>
		<path class="st1" d="M685.6,132.6V191h-21.3v-58.4h-21.6V114h64.5v18.6H685.6z"/>
		<path class="st1" d="M746.6,191v-77h21.6v58.4h34.1V191H746.6z"/>
		<path class="st1" d="M809.7,191v-77h59v17.9h-37.8v10.2h22.8v17.7h-22.8v13.2h38.6V191H809.7z"/>
		<path class="st1" d="M920.8,191h-21.6l-26.5-77h24l5.6,20.7c2.6,9.6,6.4,25.2,7.8,32.6c1.4-7.4,5.2-22.9,7.8-32.6l5.6-20.7h23.8
			L920.8,191z"/>
		<path class="st1" d="M953.6,191v-77h59v17.9h-37.8v10.2h22.8v17.7h-22.8v13.2h38.6V191H953.6z"/>
		<path class="st1" d="M1022.4,191v-77h21.6v58.4h34.1V191H1022.4z"/>
	</g>
</g>
<g id="Layer_2">
	<g>
		<path class="st2" d="M53.8,25.8V98H27.4V25.8H0.7v-23h79.7v23H53.8z"/>
		<path class="st2" d="M139.4,98l-5.2-16.7h-28.6L100.5,98H72.2l34.5-95.2h26.7L168,98H139.4z M126.1,54.1
			c-3.4-12.2-4.9-17.4-6.1-23.8c-1.2,6.4-2.7,11.7-6.1,23.8l-1.8,6.3h15.8L126.1,54.1z"/>
		<path class="st2" d="M233.3,98l-19.9-40.5l-9.8,11.8V98h-26.9V2.8h26.9V14c0,8-0.1,16.6-0.4,23.5c3.9-6.3,12.2-17.3,18.4-25
			l7.6-9.7h32.1l-28.7,33.6l32,61.6H233.3z"/>
		<path class="st2" d="M271.6,98V2.8h72.9V25h-46.8v12.6h28.2v21.9h-28.2v16.3h47.7V98H271.6z"/>
		<path class="st2" d="M391.8,99.5c-15.4,0-30.2-5-40.1-11.6l12.8-20.7c6.9,4.8,19,9.5,27.9,9.5c9.4,0,12.4-1.6,12.4-6.1
			c0-3.5-3.4-5.7-16.2-8.7c-23-5.3-34-11.6-34-30.6c0-18,14.6-30.1,37.5-30.1c16.2,0,27.9,3.9,37.9,11L417.3,33
			c-8.4-5.7-16.9-9-26.5-9c-7.9,0-9.8,2.4-9.8,5.8c0,3.5,3.4,5.2,15.6,8c23.9,5.7,34.5,13.1,34.5,30.9
			C431.2,90.5,414.7,99.5,391.8,99.5z"/>
		<path class="st2" d="M522.3,99.5c-28.3,0-43.4-20.9-43.4-49.1c0-30.6,18-49.1,43.5-49.1c23.4,0,32.6,10.1,39.2,28l-23.9,9.4
			c-3.4-8.8-6.7-14.4-15.4-14.4c-11,0-15.8,11-15.8,26.1c0,14.6,4.6,26.1,16,26.1c8.3,0,11.8-4.5,17-13.5l22.3,11.8
			C555.5,87.4,544.8,99.5,522.3,99.5z"/>
		<path class="st2" d="M571.2,98V2.8h26.7V75H640v23H571.2z"/>
		<path class="st2" d="M711.4,98l-5.2-16.7h-28.6L672.5,98h-28.3l34.5-95.2h26.7L740,98H711.4z M698.1,54.1
			c-3.4-12.2-4.9-17.4-6.1-23.8c-1.2,6.4-2.7,11.7-6.1,23.8l-1.8,6.3h15.8L698.1,54.1z"/>
		<path class="st2" d="M781.8,99.5c-15.4,0-30.2-5-40.1-11.6l12.8-20.7c6.9,4.8,19,9.5,27.9,9.5c9.4,0,12.4-1.6,12.4-6.1
			c0-3.5-3.4-5.7-16.2-8.7c-23-5.3-34-11.6-34-30.6c0-18,14.6-30.1,37.5-30.1c16.2,0,27.9,3.9,37.9,11L807.2,33
			c-8.4-5.7-16.9-9-26.5-9c-7.9,0-9.8,2.4-9.8,5.8c0,3.5,3.4,5.2,15.6,8c23.9,5.7,34.5,13.1,34.5,30.9
			C821.1,90.5,804.6,99.5,781.8,99.5z"/>
		<path class="st2" d="M867.2,99.5c-15.4,0-30.2-5-40.1-11.6l12.8-20.7c6.9,4.8,19,9.5,27.9,9.5c9.4,0,12.4-1.6,12.4-6.1
			c0-3.5-3.4-5.7-16.2-8.7c-23-5.3-34-11.6-34-30.6c0-18,14.6-30.1,37.5-30.1c16.2,0,27.9,3.9,37.9,11L892.6,33
			c-8.4-5.7-16.9-9-26.5-9c-7.9,0-9.8,2.4-9.8,5.8c0,3.5,3.4,5.2,15.6,8c23.9,5.7,34.5,13.1,34.5,30.9
			C906.5,90.5,890,99.5,867.2,99.5z"/>
		<path class="st2" d="M918.2,98V2.8h72.9V25h-46.8v12.6h28.2v21.9h-28.2v16.3H992V98H918.2z"/>
		<path class="st2" d="M1038.4,99.5c-15.4,0-30.2-5-40.1-11.6l12.8-20.7c6.9,4.8,19,9.5,27.9,9.5c9.4,0,12.4-1.6,12.4-6.1
			c0-3.5-3.4-5.7-16.2-8.7c-23-5.3-34-11.6-34-30.6c0-18,14.6-30.1,37.5-30.1c16.2,0,27.9,3.9,37.9,11L1063.8,33
			c-8.4-5.7-16.9-9-26.5-9c-7.9,0-9.8,2.4-9.8,5.8c0,3.5,3.4,5.2,15.6,8c23.9,5.7,34.5,13.1,34.5,30.9
			C1077.7,90.5,1061.2,99.5,1038.4,99.5z"/>
	</g>
</g>
</svg>
