<svg id="Layer_1" data-name="Layer 1" xmlns="http://www.w3.org/2000/svg" viewBox="0 0 532.8 129.97"><defs><style>.cls-1{fill:#d10a2c;}.cls-2{fill:#231f20;}.cls-3{fill:#636466;}.cls-4{fill:#a7a9ac;}</style></defs><title>Keiser_PowerED</title><path class="cls-1" d="M35.31,37,40.43,8h8.83L47.32,19,57.08,8H68.7l-11,12.46L64.77,37H55.29s-3.83-9-4.2-9.8A2,2,0,0,0,49.23,26H46.09L44.15,37Z" transform="translate(-21.6 -8.02)"/><path class="cls-1" d="M98.51,8H76.32a7.26,7.26,0,0,0-7.14,6c-.59,3.31-1.58,8.91-2.56,14.5A7.11,7.11,0,0,0,73.76,37H93.39l1.23-7h-17a2,2,0,0,1-2-2.38c.16-.87.3-1.68.3-1.68H95.34l1.23-7H77.13s.28-1.28.42-2.38a2,2,0,0,1,2-1.68H97.28l1.23-7Z" transform="translate(-21.6 -8.02)"/><polygon class="cls-1" points="90.22 0 81.39 0 76.27 29.01 85.11 29.01 90.22 0 90.22 0"/><path class="cls-1" d="M143.52,8H121.91a7.38,7.38,0,0,0-7.14,6c-.19,1.1-.36,2.08-.61,3.48-.94,5.34,3.71,8.51,7.14,8.51h8.38c1.78,0,2,2,2,2s-.18,2-2,2H112.53l-1.23,7h21.6a7.31,7.31,0,0,0,7.15-6c.36-2.05-.33,2.08.61-3.48A7.17,7.17,0,0,0,133.52,19h-8.38c-1.87,0-2-2-2-2a2.07,2.07,0,0,1,2-2h17.15l1.23-7Z" transform="translate(-21.6 -8.02)"/><path class="cls-1" d="M176,8H153.83a7.26,7.26,0,0,0-7.14,6c-.59,3.31-1.58,8.91-2.56,14.5A7.11,7.11,0,0,0,151.27,37h19.64l1.22-7h-17a2,2,0,0,1-2-2.38c.16-.87.3-1.68.3-1.68h19.44l1.23-7H154.64s.28-1.28.42-2.38a2,2,0,0,1,2-1.68h17.73L176,8Z" transform="translate(-21.6 -8.02)"/><path class="cls-1" d="M196.3,19h-8.9l.72-4.06h8.18s2.11.14,2,2a2.07,2.07,0,0,1-2,2m3.84-11H180.51l-5.12,29h8.84l1.94-11h3.14a2,2,0,0,1,1.86,1.23l4.21,9.8h9.47L199.7,25c2.06.08,6.44-1.52,7.14-6,.32-1.79.36-1.95.44-2.51.45-2.94-1.35-8.51-7.14-8.51" transform="translate(-21.6 -8.02)"/><path class="cls-1" d="M211.41,13.27a2.38,2.38,0,1,1,2.34-2.37,2.36,2.36,0,0,1-2.34,2.37m0-5.25a2.88,2.88,0,1,0,2.88,2.88A2.88,2.88,0,0,0,211.41,8" transform="translate(-21.6 -8.02)"/><path class="cls-1" d="M211.41,10.69h-.75v-.9h.84s.56,0,.53.44-.62.46-.62.46m.78.81a2.06,2.06,0,0,0-.31-.4l-.2-.12a.76.76,0,0,0,.74-.76c0-.69-.55-.75-.94-.75h-1.21v2.8h.39V11h.53c.19,0,.41.24.66.67l.35.59h.45l-.46-.77Z" transform="translate(-21.6 -8.02)"/><path class="cls-1" d="M544.72,43.57v-1h-6.53v1h2.71V51.9H542V43.57Zm9.68,8.33V42.59h-1.19L551,48.17c-.11.28-.23.58-.34.91s-.21.59-.27.79c-.06-.2-.15-.47-.27-.79s-.24-.63-.36-.91l-2.19-5.58h-1.21V51.9h1V44.72a6.25,6.25,0,0,0,.23.73c.11.3.22.58.32.83l2.38,5.87,2.45-5.87.33-.84c.11-.3.18-.54.23-.72V51.9Z" transform="translate(-21.6 -8.02)"/><path class="cls-1" d="M469.51,42.21H419.6a16.32,16.32,0,0,0-16.06,13.47c-1.31,7.44-3.54,20-5.75,32.62-1.87,10.61,5.88,19.14,16.06,19.14H458l2.76-15.65H422.49a4.56,4.56,0,0,1-4.5-5.36c.35-2,.66-3.78.66-3.78h43.73L465.14,67H421.42s.63-2.89.94-5.36a4.61,4.61,0,0,1,4.5-3.78h39.89l2.76-15.65Z" transform="translate(-21.6 -8.02)"/><path class="cls-1" d="M520.44,42.21H476.29l-11.51,65.23h49.91A16.34,16.34,0,0,0,530.76,94c1.31-7.44,3.54-20,5.75-32.62a16,16,0,0,0-16.07-19.14Zm-4.14,21c-.34,2-.67,3.78-.67,3.78l-2.75,15.65s-.64,2.89-.95,5.36a4.61,4.61,0,0,1-4.5,3.78H487.52l5.86-33.93H511.8a4.56,4.56,0,0,1,4.5,5.36Z" transform="translate(-21.6 -8.02)"/><path class="cls-2" d="M327.2,42.21H277.29a16.32,16.32,0,0,0-16.06,13.47c-1.31,7.44-3.54,20-5.75,32.62-1.87,10.61,5.88,19.14,16.06,19.14H315.7l2.76-15.65H280.18a4.56,4.56,0,0,1-4.5-5.36c.35-2,.67-3.78.67-3.78h43.72L322.83,67H279.11s.63-2.89.94-5.36a4.61,4.61,0,0,1,4.5-3.78h39.89l2.76-15.65Z" transform="translate(-21.6 -8.02)"/><path class="cls-2" d="M256.15,42.15l-8.94,51.24c-1.48,8.48-10,14-19.25,14s-25,0-40.68,0c-13.23,0-22.22-9.51-20.39-20l7.9-45.34h19.53l-7.24,44.05c-.67,3.88,3.45,5.59,5.71,5.59h4.71l8.2-49.64h19.53s-6.67,40.72-7.18,44.35,3.12,5.3,5.66,5.3c1.43.15,4.72,0,4.72,0l8.19-49.68Z" transform="translate(-21.6 -8.02)"/><path class="cls-2" d="M371.24,67h-20l1.61-9.14h18.41s4.73.31,4.56,4.57c-.17,4.45-4.56,4.57-4.56,4.57m8.64-24.79H335.72l-11.5,65.23h19.87l4.37-24.79h7.05a4.59,4.59,0,0,1,4.19,2.77l9.46,22h21.3l-11.58-27c4.64.17,14.48-3.43,16.06-13.47.73-4,.81-4.39,1-5.65,1-6.62-3-19.14-16.06-19.14" transform="translate(-21.6 -8.02)"/><path class="cls-2" d="M68.62,67h-20l1.61-9.14H68.62s4.73.31,4.57,4.57C73,66.88,68.62,67,68.62,67m8.64-24.79H33.1L21.6,107.44H41.47l4.37-24.79,29.65.09c7.74,0,15.25-5.7,16.84-15.74.72-4,.8-4.39,1-5.65,1-6.62-3-19.14-16.06-19.14" transform="translate(-21.6 -8.02)"/><path class="cls-2" d="M149,42.14H115.24A16.32,16.32,0,0,0,99.18,55.61c-1.31,7.44-3.54,20-5.75,32.62a16,16,0,0,0,16.06,19.15H143.2A16.34,16.34,0,0,0,159.27,93.9c1.31-7.44,3.54-20,5.75-32.62A16,16,0,0,0,149,42.14Zm-4.14,21c-.34,2-4.06,22.33-4.37,24.8a4.61,4.61,0,0,1-4.5,3.77H118.13a4.56,4.56,0,0,1-4.5-5.36c.35-2,4.06-22.32,4.37-24.79a4.6,4.6,0,0,1,4.5-3.77h17.81a4.55,4.55,0,0,1,4.5,5.35Z" transform="translate(-21.6 -8.02)"/><path class="cls-3" d="M408.08,119.64v-1.78H395.83v1.78H401v15.72h1.95V119.64Zm16.29,5.69a4.35,4.35,0,0,1-2.89.81h-4.65v-6.5h4.9a3.88,3.88,0,0,1,2.66.81,3.7,3.7,0,0,1,0,4.88Zm2.46-4.72a4.45,4.45,0,0,0-1.15-1.54,4.84,4.84,0,0,0-1.73-.91,7.4,7.4,0,0,0-2.15-.3h-6.92v17.5h1.95v-7.45H421l3.75,7.45H427l-3.85-7.6a5.35,5.35,0,0,0,3-1.65,4.73,4.73,0,0,0,1.12-3.3,5.3,5.3,0,0,0-.42-2.2Zm16.92,8.53h-6l1.92-5.7.33-1c.12-.34.22-.67.32-1l.27-.88.18-.67c.05.18.12.41.19.68s.16.57.26.88l.32,1c.1.34.21.64.31.93l1.92,5.75Zm4.15,6.22-6.07-17.5h-2.15l-6.08,17.5h2l1.53-4.45h7.22l1.5,4.45Zm8.85,0v-17.5H454.8v17.5Zm20.77,0v-17.5h-1.9v14.4q-.08-.16-.24-.45c-.11-.18-.22-.38-.34-.59l-.34-.62q-.18-.32-.33-.54l-7.55-12.2h-1.9v17.5h1.87V121.19q.07.16.24.45l.34.58c.11.21.23.42.35.63a6,6,0,0,0,.32.54l7.63,12Zm10.11,0v-17.5h-1.95v17.5Zm20.77,0v-17.5h-1.9v14.4q-.08-.16-.24-.45c-.11-.18-.22-.38-.33-.59s-.24-.41-.35-.62-.23-.39-.33-.54l-7.55-12.2h-1.9v17.5h1.87V121.19q.07.16.24.45l.34.58c.11.21.23.42.35.63a6,6,0,0,0,.32.54l7.63,12Zm20.88-8.65h-5v1.78h3.15v.15a5.75,5.75,0,0,1-1.17,3.9,4.23,4.23,0,0,1-3.36,1.32,4.08,4.08,0,0,1-2.05-.54,5,5,0,0,1-1.64-1.5,7.66,7.66,0,0,1-1.08-2.3,10.08,10.08,0,0,1-.4-2.93,10.77,10.77,0,0,1,.38-2.93,7.58,7.58,0,0,1,1.07-2.27,5,5,0,0,1,1.62-1.49,4.14,4.14,0,0,1,2.08-.54,4.55,4.55,0,0,1,2.32.53,6.17,6.17,0,0,1,1.75,1.67l1.55-1.17a6.5,6.5,0,0,0-5.57-2.8,6.29,6.29,0,0,0-2.9.68,6.88,6.88,0,0,0-2.27,1.89,9.18,9.18,0,0,0-1.46,2.86,12.93,12.93,0,0,0,0,7.19,8.66,8.66,0,0,0,1.42,2.85,6.78,6.78,0,0,0,2.24,1.89,6.13,6.13,0,0,0,2.91.69,7.14,7.14,0,0,0,2.56-.45,5.53,5.53,0,0,0,2.07-1.36,6.39,6.39,0,0,0,1.36-2.27,9.43,9.43,0,0,0,.49-3.15v-1.7Z" transform="translate(-21.6 -8.02)"/><polygon class="cls-4" points="356.94 129.97 356.94 107.35 355.13 107.35 355.13 129.97 356.94 129.97 356.94 129.97"/><path class="cls-3" d="M228.56,131.56a6.59,6.59,0,0,1-1.87,1.7,4.78,4.78,0,0,1-2.45.6,4.05,4.05,0,0,1-2.05-.54,4.89,4.89,0,0,1-1.65-1.5,7.21,7.21,0,0,1-1.09-2.3,11.2,11.2,0,0,1,0-5.86,7.57,7.57,0,0,1,1.06-2.27,4.92,4.92,0,0,1,1.63-1.49,4.1,4.1,0,0,1,2.07-.54,4.59,4.59,0,0,1,2.33.53,6.17,6.17,0,0,1,1.75,1.67l1.55-1.17a6.5,6.5,0,0,0-5.58-2.8,6.29,6.29,0,0,0-2.9.68,6.85,6.85,0,0,0-2.26,1.89,9,9,0,0,0-1.46,2.86,12,12,0,0,0-.53,3.62,12.37,12.37,0,0,0,.5,3.57,8.67,8.67,0,0,0,1.43,2.85,6.74,6.74,0,0,0,2.23,1.89,6.2,6.2,0,0,0,2.92.69,6.78,6.78,0,0,0,3.35-.8,7.48,7.48,0,0,0,2.37-2.1l-1.35-1.18Zm19.28-1.94a7.44,7.44,0,0,1-1.1,2.28,5,5,0,0,1-1.68,1.45,4.62,4.62,0,0,1-4.22,0,4.85,4.85,0,0,1-1.69-1.48,7.48,7.48,0,0,1-1.13-2.3,11.2,11.2,0,0,1,0-6,7.33,7.33,0,0,1,1.1-2.28,5.2,5.2,0,0,1,1.66-1.45,4.4,4.4,0,0,1,2.09-.51,4.53,4.53,0,0,1,2.13.51,5.29,5.29,0,0,1,1.7,1.48,7.37,7.37,0,0,1,1.13,2.3,10,10,0,0,1,.42,3,10.58,10.58,0,0,1-.4,3Zm1.82-6.66a8.94,8.94,0,0,0-1.47-2.85,6.72,6.72,0,0,0-2.29-1.86,7,7,0,0,0-5.94,0,6.74,6.74,0,0,0-2.3,1.88,8.88,8.88,0,0,0-1.47,2.86,12,12,0,0,0-.53,3.64,12.23,12.23,0,0,0,.51,3.62,8.55,8.55,0,0,0,1.47,2.85,6.59,6.59,0,0,0,2.28,1.86,6.48,6.48,0,0,0,3,.67,6.55,6.55,0,0,0,3-.68,6.84,6.84,0,0,0,2.31-1.87,8.78,8.78,0,0,0,1.49-2.87,12.7,12.7,0,0,0,0-7.26Zm16.07,6.18h-6l1.93-5.7c.1-.3.21-.62.32-1s.23-.67.33-1,.19-.61.26-.88.14-.49.19-.67c0,.18.11.41.19.68s.16.57.26.88.2.63.31,1,.21.64.31.93l1.93,5.75Zm4.15,6.22-6.08-17.5h-2.15l-6.07,17.5h2l1.52-4.45h7.23l1.5,4.45Zm16.85-3.8a6.46,6.46,0,0,1-1.87,1.7,4.78,4.78,0,0,1-2.45.6,4.05,4.05,0,0,1-2.05-.54,4.89,4.89,0,0,1-1.65-1.5,7.21,7.21,0,0,1-1.09-2.3,11.2,11.2,0,0,1,0-5.86,7.57,7.57,0,0,1,1.06-2.27,4.92,4.92,0,0,1,1.63-1.49,4.1,4.1,0,0,1,2.07-.54,4.59,4.59,0,0,1,2.33.53,6.17,6.17,0,0,1,1.75,1.67l1.55-1.17a6.5,6.5,0,0,0-5.58-2.8,6.32,6.32,0,0,0-2.9.68,6.85,6.85,0,0,0-2.26,1.89,9,9,0,0,0-1.46,2.86,12,12,0,0,0-.53,3.62,12.37,12.37,0,0,0,.5,3.57,8.87,8.87,0,0,0,1.43,2.85,6.74,6.74,0,0,0,2.23,1.89,6.2,6.2,0,0,0,2.92.69,6.78,6.78,0,0,0,3.35-.8,7.48,7.48,0,0,0,2.37-2.1l-1.35-1.18Zm20.8,3.8v-17.5h-1.95v7.48h-8.7v-7.48h-1.95v17.5h1.95v-8.25h8.7v8.25Zm10.11,0v-17.5h-1.95v17.5Zm20.77,0v-17.5h-1.9v14.4q-.08-.16-.24-.45c-.11-.18-.22-.38-.33-.59s-.24-.41-.35-.62-.23-.39-.33-.54l-7.55-12.2h-1.9v17.5h1.87V121.19q.07.16.24.45l.34.58c.11.21.23.42.35.63a6,6,0,0,0,.32.54l7.63,12Zm20.88-8.65h-5.05v1.78h3.15v.15a5.75,5.75,0,0,1-1.17,3.9,4.23,4.23,0,0,1-3.36,1.32,4.08,4.08,0,0,1-2.05-.54,5,5,0,0,1-1.64-1.5,7.42,7.42,0,0,1-1.08-2.3,10.08,10.08,0,0,1-.4-2.93,10.39,10.39,0,0,1,.38-2.93,7.58,7.58,0,0,1,1.07-2.27,5,5,0,0,1,1.62-1.49,4.14,4.14,0,0,1,2.08-.54,4.55,4.55,0,0,1,2.32.53,6.17,6.17,0,0,1,1.75,1.67l1.55-1.17a6.5,6.5,0,0,0-5.57-2.8,6.29,6.29,0,0,0-2.9.68,6.88,6.88,0,0,0-2.27,1.89,9.18,9.18,0,0,0-1.46,2.86,12.93,12.93,0,0,0,0,7.19,8.66,8.66,0,0,0,1.42,2.85A6.78,6.78,0,0,0,349.9,135a6.13,6.13,0,0,0,2.91.69,7.14,7.14,0,0,0,2.56-.45,5.61,5.61,0,0,0,2.07-1.36,6.39,6.39,0,0,0,1.36-2.27,9.43,9.43,0,0,0,.49-3.15v-1.7Z" transform="translate(-21.6 -8.02)"/><polygon class="cls-4" points="177.89 129.97 177.89 107.35 176.09 107.35 176.09 129.97 177.89 129.97 177.89 129.97"/><path class="cls-3" d="M33.18,135.36v-1.77h-9v-6.68h5v-1.77h-5v-5.5h8.63v-1.78H22.23v17.5Zm17.12-5.59A5.41,5.41,0,0,1,49.07,132a4.66,4.66,0,0,1-1.92,1.24,7.76,7.76,0,0,1-2.55.39H42v-14h2.53a5.83,5.83,0,0,1,4.6,1.77,7.54,7.54,0,0,1,1.57,5.15,10.77,10.77,0,0,1-.42,3.21Zm1.77-7.16a7.22,7.22,0,0,0-1.66-2.68,6.59,6.59,0,0,0-2.52-1.57,9.92,9.92,0,0,0-3.19-.5H40.07v17.5h4.28a10.47,10.47,0,0,0,3.27-.49,6.63,6.63,0,0,0,2.65-1.56A7.3,7.3,0,0,0,52,130.55a11.62,11.62,0,0,0,.63-4.06,11.26,11.26,0,0,0-.6-3.88Zm20.37-4.75h-2v10.4a7.39,7.39,0,0,1-1,4.23,3.73,3.73,0,0,1-3.25,1.37q-4.48,0-4.48-5.65V117.86H59.84v10.4a8.27,8.27,0,0,0,1.59,5.51,5.87,5.87,0,0,0,4.74,1.87,5.75,5.75,0,0,0,4.72-1.89,8.51,8.51,0,0,0,1.55-5.54V117.86Zm18.62,13.7a6.49,6.49,0,0,1-1.88,1.7,4.76,4.76,0,0,1-2.45.6,4.11,4.11,0,0,1-2-.54,5.09,5.09,0,0,1-1.65-1.5,7.42,7.42,0,0,1-1.08-2.3,11.2,11.2,0,0,1,0-5.86A7.57,7.57,0,0,1,83,121.39a5,5,0,0,1,1.62-1.49,4.16,4.16,0,0,1,2.08-.54,4.55,4.55,0,0,1,2.32.53,6,6,0,0,1,1.75,1.67l1.55-1.17a6.48,6.48,0,0,0-5.57-2.8,6.29,6.29,0,0,0-2.9.68,6.85,6.85,0,0,0-2.26,1.89A9,9,0,0,0,80.13,123a12,12,0,0,0-.52,3.62,12.37,12.37,0,0,0,.5,3.57,8.85,8.85,0,0,0,1.42,2.85A6.88,6.88,0,0,0,83.77,135a6.19,6.19,0,0,0,2.91.69,6.75,6.75,0,0,0,3.35-.8,7.52,7.52,0,0,0,2.38-2.1l-1.35-1.18Zm17.48-2.42h-6l1.92-5.7.33-1c.12-.34.22-.67.32-1l.27-.88.18-.67c0,.18.12.41.19.68s.16.57.26.88l.32,1c.1.34.21.64.31.93l1.92,5.75Zm4.15,6.22-6.07-17.5h-2.15l-6.08,17.5h2l1.53-4.45h7.22l1.5,4.45Zm15.93-15.72v-1.78H116.37v1.78h5.15v15.72h2V119.64Zm8.81,15.72v-17.5h-2v17.5ZM157,129.62a7.44,7.44,0,0,1-1.1,2.28,5,5,0,0,1-1.68,1.45,4.62,4.62,0,0,1-4.22,0,4.85,4.85,0,0,1-1.69-1.48,7.48,7.48,0,0,1-1.13-2.3,11.2,11.2,0,0,1,0-6,7.33,7.33,0,0,1,1.1-2.28,5.2,5.2,0,0,1,1.66-1.45,4.4,4.4,0,0,1,2.09-.51,4.53,4.53,0,0,1,2.13.51,5.29,5.29,0,0,1,1.7,1.48,7.37,7.37,0,0,1,1.13,2.3,10,10,0,0,1,.42,3,10.58,10.58,0,0,1-.4,3Zm1.82-6.66a8.94,8.94,0,0,0-1.47-2.85,6.72,6.72,0,0,0-2.29-1.86,7,7,0,0,0-5.94,0,6.74,6.74,0,0,0-2.3,1.88,8.88,8.88,0,0,0-1.47,2.86,12,12,0,0,0-.53,3.64,12.23,12.23,0,0,0,.51,3.62,8.55,8.55,0,0,0,1.47,2.85,6.59,6.59,0,0,0,2.28,1.86,6.48,6.48,0,0,0,3,.67,6.55,6.55,0,0,0,3-.68,6.84,6.84,0,0,0,2.31-1.87,8.78,8.78,0,0,0,1.49-2.87,12.7,12.7,0,0,0,0-7.26Zm20.45,12.4v-17.5h-1.9v14.4c0-.11-.13-.26-.23-.45s-.22-.38-.34-.59-.23-.41-.35-.62-.22-.39-.32-.54l-7.56-12.2h-1.9v17.5h1.88V121.19c0,.11.13.26.23.45l.34.58.35.63c.12.21.22.39.32.54l7.63,12Z" transform="translate(-21.6 -8.02)"/></svg>