<?xml version="1.0" encoding="UTF-8" standalone="no"?>
<!-- Generator: Adobe Illustrator 22.0.0, SVG Export Plug-In . SVG Version: 6.00 Build 0)  -->
<svg style="enable-background:new 0 0 1079 192" xmlns="http://www.w3.org/2000/svg" xml:space="preserve" version="1.1" y="0px" x="0px" xmlns:xlink="http://www.w3.org/1999/xlink" viewBox="0 0 1079 192">
<style type="text/css">
	.st0{display:none;}
	.st1{fill:#252525;}
	.st2{fill:#D10A2C;}
</style>
<g id="Layer_1" class="st0">
		<image id="TO_THE_NEXT_LEVEL" style="enable-background:new" xlink:href="877918F5DDDE9007.png" width="1079" height="192">
	</image>
</g>
<g id="Layer_3">
		<path class="st1" d="m42.5 132.6v58.4h-21.3v-58.4h-21.6v-18.6h64.5v18.6h-21.6z"/>
		<path class="st1" d="m100.5 192.2c-20.9 0-35.5-14-35.5-39.6s14.9-39.8 35.8-39.8 35.5 14 35.5 39.6-14.9 39.8-35.8 39.8zm0-60.8c-8.6 0-13.4 7.1-13.4 21s5.1 21.2 13.6 21.2 13.4-7.2 13.4-21c0-13.8-5-21.2-13.6-21.2z"/>
		<path class="st1" d="m215.4 132.6v58.4h-21.3v-58.4h-21.6v-18.6h64.5v18.6h-21.6z"/>
		<path class="st1" d="m290.6 191v-30.4h-24v30.4h-21.8v-77h21.8v28h24v-28h21.8v77h-21.8z"/>
		<path class="st1" d="m323.3 191v-77h59v17.9h-37.8v10.2h22.8v17.7h-22.8v13.2h38.6v18h-59.8z"/>
		<path class="st1" d="m473.9 191l-18.4-25.4c-3.4-4.7-10-14.6-12-18 0.5 3.4 0.7 13.6 0.7 19.9v23.5h-20.5v-77h18.8l16.9 22.8c3.5 4.7 10.3 15 12 18.2-0.5-3.4-0.7-13.6-0.7-19.9v-21h20.5v77h-17.3z"/>
		<path class="st1" d="m502.3 191v-77h59v17.9h-37.8v10.2h22.8v17.7h-22.8v13.2h38.5v18h-59.7z"/>
		<path class="st1" d="m615.8 191l-5.2-8.9c-2.8-4.8-5.5-10-7.4-14.2-1.8 4.1-4.6 9.4-7.5 14.2l-5.2 8.9h-24.2l25.2-38.9-24.2-38.1h24.8l4.3 7.5c2.8 4.8 5.7 10 7.4 14.1 1.8-4.1 4.7-9.2 7.5-14.1l4.3-7.5h24.2l-24.3 37.6 25.2 39.4h-24.9z"/>
		<path class="st1" d="m685.6 132.6v58.4h-21.3v-58.4h-21.6v-18.6h64.5v18.6h-21.6z"/>
		<path class="st1" d="m746.6 191v-77h21.6v58.4h34.1v18.6h-55.7z"/>
		<path class="st1" d="m809.7 191v-77h59v17.9h-37.8v10.2h22.8v17.7h-22.8v13.2h38.6v18h-59.8z"/>
		<path class="st1" d="m920.8 191h-21.6l-26.5-77h24l5.6 20.7c2.6 9.6 6.4 25.2 7.8 32.6 1.4-7.4 5.2-22.9 7.8-32.6l5.6-20.7h23.8l-26.5 77z"/>
		<path class="st1" d="m953.6 191v-77h59v17.9h-37.8v10.2h22.8v17.7h-22.8v13.2h38.6v18h-59.8z"/>
		<path class="st1" d="m1022.4 191v-77h21.6v58.4h34.1v18.6h-55.7z"/>
</g>
<g id="Layer_2">
		<path class="st2" d="m53.8 25.8v72.2h-26.4v-72.2h-26.7v-23h79.7v23h-26.6z"/>
		<path class="st2" d="m139.4 98l-5.2-16.7h-28.6l-5.1 16.7h-28.3l34.5-95.2h26.7l34.6 95.2h-28.6zm-13.3-43.9c-3.4-12.2-4.9-17.4-6.1-23.8-1.2 6.4-2.7 11.7-6.1 23.8l-1.8 6.3h15.8l-1.8-6.3z"/>
		<path class="st2" d="m233.3 98l-19.9-40.5-9.8 11.8v28.7h-26.9v-95.2h26.9v11.2c0 8-0.1 16.6-0.4 23.5 3.9-6.3 12.2-17.3 18.4-25l7.6-9.7h32.1l-28.7 33.6 32 61.6h-31.3z"/>
		<path class="st2" d="m271.6 98v-95.2h72.9v22.2h-46.8v12.6h28.2v21.9h-28.2v16.3h47.7v22.2h-73.8z"/>
		<path class="st2" d="m391.8 99.5c-15.4 0-30.2-5-40.1-11.6l12.8-20.7c6.9 4.8 19 9.5 27.9 9.5 9.4 0 12.4-1.6 12.4-6.1 0-3.5-3.4-5.7-16.2-8.7-23-5.3-34-11.6-34-30.6 0-18 14.6-30.1 37.5-30.1 16.2 0 27.9 3.9 37.9 11l-12.7 20.8c-8.4-5.7-16.9-9-26.5-9-7.9 0-9.8 2.4-9.8 5.8 0 3.5 3.4 5.2 15.6 8 23.9 5.7 34.5 13.1 34.5 30.9 0.1 21.8-16.4 30.8-39.3 30.8z"/>
		<path class="st2" d="m522.3 99.5c-28.3 0-43.4-20.9-43.4-49.1 0-30.6 18-49.1 43.5-49.1 23.4 0 32.6 10.1 39.2 28l-23.9 9.4c-3.4-8.8-6.7-14.4-15.4-14.4-11 0-15.8 11-15.8 26.1 0 14.6 4.6 26.1 16 26.1 8.3 0 11.8-4.5 17-13.5l22.3 11.8c-6.3 12.6-17 24.7-39.5 24.7z"/>
		<path class="st2" d="m571.2 98v-95.2h26.7v72.2h42.1v23h-68.8z"/>
		<path class="st2" d="m711.4 98l-5.2-16.7h-28.6l-5.1 16.7h-28.3l34.5-95.2h26.7l34.6 95.2h-28.6zm-13.3-43.9c-3.4-12.2-4.9-17.4-6.1-23.8-1.2 6.4-2.7 11.7-6.1 23.8l-1.8 6.3h15.8l-1.8-6.3z"/>
		<path class="st2" d="m781.8 99.5c-15.4 0-30.2-5-40.1-11.6l12.8-20.7c6.9 4.8 19 9.5 27.9 9.5 9.4 0 12.4-1.6 12.4-6.1 0-3.5-3.4-5.7-16.2-8.7-23-5.3-34-11.6-34-30.6 0-18 14.6-30.1 37.5-30.1 16.2 0 27.9 3.9 37.9 11l-12.8 20.8c-8.4-5.7-16.9-9-26.5-9-7.9 0-9.8 2.4-9.8 5.8 0 3.5 3.4 5.2 15.6 8 23.9 5.7 34.5 13.1 34.5 30.9 0.1 21.8-16.4 30.8-39.2 30.8z"/>
		<path class="st2" d="m867.2 99.5c-15.4 0-30.2-5-40.1-11.6l12.8-20.7c6.9 4.8 19 9.5 27.9 9.5 9.4 0 12.4-1.6 12.4-6.1 0-3.5-3.4-5.7-16.2-8.7-23-5.3-34-11.6-34-30.6 0-18 14.6-30.1 37.5-30.1 16.2 0 27.9 3.9 37.9 11l-12.8 20.8c-8.4-5.7-16.9-9-26.5-9-7.9 0-9.8 2.4-9.8 5.8 0 3.5 3.4 5.2 15.6 8 23.9 5.7 34.5 13.1 34.5 30.9 0.1 21.8-16.4 30.8-39.2 30.8z"/>
		<path class="st2" d="m918.2 98v-95.2h72.9v22.2h-46.8v12.6h28.2v21.9h-28.2v16.3h47.7v22.2h-73.8z"/>
		<path class="st2" d="m1038.4 99.5c-15.4 0-30.2-5-40.1-11.6l12.8-20.7c6.9 4.8 19 9.5 27.9 9.5 9.4 0 12.4-1.6 12.4-6.1 0-3.5-3.4-5.7-16.2-8.7-23-5.3-34-11.6-34-30.6 0-18 14.6-30.1 37.5-30.1 16.2 0 27.9 3.9 37.9 11l-12.8 20.8c-8.4-5.7-16.9-9-26.5-9-7.9 0-9.8 2.4-9.8 5.8 0 3.5 3.4 5.2 15.6 8 23.9 5.7 34.5 13.1 34.5 30.9 0.1 21.8-16.4 30.8-39.2 30.8z"/>
</g>
</svg>
