<?xml version="1.0" encoding="UTF-8" standalone="no"?>
<!-- Generator: Adobe Illustrator 22.0.0, SVG Export Plug-In . SVG Version: 6.00 Build 0)  -->
<svg id="Layer_3" style="enable-background:new 0 0 1085 173" xmlns="http://www.w3.org/2000/svg" xml:space="preserve" viewBox="0 0 1085 173" version="1.1" y="0px" x="0px" xmlns:xlink="http://www.w3.org/1999/xlink">
<style type="text/css">
	.st0{fill:#D10A2C;}
	.st1{fill:#FFFFFF;}
</style>
	<path class="st0" d="m29.3 66c-10.4 0-20.5-3.4-27.2-7.8l8.7-14c4.7 3.2 12.9 6.5 18.9 6.5 6.4 0 8.4-1.1 8.4-4.2 0-2.4-2.3-3.9-11-5.9-15.6-3.6-23.1-7.9-23.1-20.8 0-12.2 9.9-20.4 25.5-20.4 11 0 18.9 2.7 25.8 7.5l-8.7 14c-5.7-3.9-11.4-6.1-18-6.1-5.4 0-6.6 1.7-6.6 4 0 2.4 2.3 3.5 10.6 5.4 16.2 3.9 23.4 8.9 23.4 21 0 14.7-11.2 20.8-26.7 20.8z"/>
	<path class="st0" d="m90.8 66c-16.2 0-28.2-8.1-28.2-28.6v-37h18.3v37c0 7.9 3.1 12.8 10.2 12.8 7 0 10-4.9 10-12.8v-37h18.3v37c-0.1 20.5-12.4 28.6-28.6 28.6z"/>
	<path class="st0" d="m154.4 44.1h-9v21h-17.6v-64.7h27.8c15.1 0 25.2 5.8 25.2 21.4 0 16.5-10.9 22.3-26.4 22.3zm0.7-29.1h-9.7v14.5h9.4c5.8 0 8.1-2.5 8.1-7.4 0.1-4.3-2.1-7.1-7.8-7.1z"/>
	<path class="st0" d="m186.2 65v-64.6h49.5v15h-31.7v8.6h19.1v14.9h-19.1v11.1h32.4v15h-50.2z"/>
	<path class="st0" d="m278.9 65l-10.5-21.8h-7.2v21.8h-17.6v-64.6h28.9c15.1 0 25.2 5.7 25.2 21 0 9.7-4.5 15.7-11.6 18.9l12.9 24.7h-20.1zm-6.9-50h-10.8v14.1h10.5c5.8 0 8.1-2.6 8.1-7.2 0-4.1-2.2-6.9-7.8-6.9z"/>
	<path class="st0" d="m305.9 65v-64.6h18.3v64.6h-18.3z"/>
	<path class="st0" d="m360.6 66c-17.5 0-29.8-11.7-29.8-33.2s12.5-33.4 30-33.4 29.8 11.7 29.8 33.2c0 21.5-12.4 33.4-30 33.4zm0-51c-7.2 0-11.3 6-11.3 17.6s4.2 17.8 11.4 17.8 11.3-6 11.3-17.6-4.2-17.8-11.4-17.8z"/>
	<path class="st0" d="m432.2 65l-10.5-21.8h-7.2v21.8h-17.6v-64.6h28.9c15.1 0 25.2 5.7 25.2 21 0 9.7-4.5 15.7-11.6 18.9l12.8 24.7h-20zm-7-50h-10.8v14.1h10.6c5.8 0 8.1-2.6 8.1-7.2 0-4.1-2.2-6.9-7.9-6.9z"/>
	<path class="st0" d="m518.2 16v49h-17.9v-49h-18.1v-15.6h54.1v15.6h-18.1z"/>
	<path class="st0" d="m542.5 65v-64.6h49.5v15h-31.8v8.6h19.1v14.9h-19.1v11.1h32.4v15h-50.1z"/>
	<path class="st0" d="m623.4 66c-19.2 0-29.4-14.2-29.4-33.3 0-20.8 12.2-33.3 29.5-33.3 15.9 0 22.2 6.8 26.6 19l-16.2 6.4c-2.3-6-4.5-9.8-10.4-9.8-7.5 0-10.7 7.5-10.7 17.7 0 9.9 3.1 17.7 10.9 17.7 5.6 0 8-3 11.5-9.1l15.1 8c-4.3 8.5-11.5 16.7-26.9 16.7z"/>
	<path class="st0" d="m694.2 65v-25.5h-20.2v25.5h-18.3v-64.6h18.3v23.5h20.1v-23.5h18.3v64.6h-18.2z"/>
	<path class="st0" d="m763.4 65l-15.4-21.3c-2.9-4-8.4-12.3-10.1-15.1 0.5 2.9 0.6 11.4 0.6 16.7v19.7h-17.2v-64.6h15.8l14.2 19.1c3 4 8.7 12.6 10.1 15.2-0.5-2.9-0.6-11.4-0.6-16.7v-17.6h17.2v64.6h-14.6z"/>
	<path class="st0" d="m814 66c-17.5 0-29.8-11.7-29.8-33.2s12.5-33.4 30-33.4 29.8 11.7 29.8 33.2c0 21.5-12.5 33.4-30 33.4zm0-51c-7.2 0-11.3 6-11.3 17.6s4.2 17.8 11.4 17.8 11.3-6 11.3-17.6-4.2-17.8-11.4-17.8z"/>
	<path class="st0" d="m850.2 65v-64.6h18.1v49h28.6v15.6h-46.7z"/>
	<path class="st0" d="m927.4 66c-17.5 0-29.8-11.7-29.8-33.2s12.5-33.4 30-33.4 29.8 11.7 29.8 33.2c0 21.5-12.5 33.4-30 33.4zm0-51c-7.2 0-11.3 6-11.3 17.6s4.2 17.8 11.4 17.8 11.3-6 11.3-17.6-4.2-17.8-11.4-17.8z"/>
	<path class="st0" d="m990.7 66c-17.7 0-29.8-12.2-29.8-33.3 0-19.1 10.5-33.3 30.1-33.3 16.2 0 22.4 6 27 18.1l-16.2 6.4c-2.1-5.5-4.7-8.9-10.9-8.9-8.4 0-11.3 7.5-11.3 17.7 0 12.8 4.2 18.2 12.5 18.2 7.6 0 10.1-3.5 10.8-7.9h-11.7v-13.4h28.4v7.8c0 18.5-10.2 28.6-28.9 28.6z"/>
	<path class="st0" d="m1059.1 40.9v24.1h-18.1v-23.8l-23.9-40.8h20.7l5 9.8c3.4 6.7 6.2 12.9 7.4 16.7 1.2-3.8 4-10 7.4-16.7l5-9.8h20.5l-24 40.5z"/>
	<path class="st1" d="m58.3 172.9l-4.5-14.4h-24.6l-4.5 14.4h-24.3l29.8-82h23l29.8 82h-24.7zm-11.5-37.8c-2.9-10.5-4.2-15-5.3-20.5-1.1 5.5-2.3 10.1-5.3 20.5l-1.5 5.4h13.6l-1.5-5.4z"/>
	<path class="st1" d="m142.5 172.9l-19.6-27.1c-3.6-5-10.7-15.6-12.8-19.2 0.6 3.6 0.7 14.5 0.7 21.2v25.1h-21.7v-82h20l18 24.2c3.7 5 11 15.9 12.8 19.3-0.6-3.6-0.7-14.5-0.7-21.2v-22.3h21.8v82h-18.5z"/>
	<path class="st1" d="m198.7 172.9h-26.6v-82h28.7c25.8 0 42.2 9.7 42.2 40.5s-15.3 41.5-44.3 41.5zm2-62.6h-5.6v43.1h4.9c14.2 0 19.7-5.4 19.7-21.7 0-15-4.8-21.4-19-21.4z"/>
	<path class="st1" d="m318.3 174.2c-24.4 0-37.4-18-37.4-42.3 0-26.4 15.5-42.3 37.5-42.3 20.1 0 28.1 8.7 33.7 24.1l-20.6 8.1c-2.9-7.6-5.7-12.4-13.2-12.4-9.5 0-13.6 9.5-13.6 22.5 0 12.5 4 22.5 13.8 22.5 7.1 0 10.2-3.9 14.6-11.6l19.2 10.2c-5.5 10.8-14.6 21.2-34 21.2z"/>
	<path class="st1" d="m390.8 174.2c-22.3 0-37.8-14.9-37.8-42.2s15.8-42.4 38.1-42.4 37.8 14.9 37.8 42.2c-0.1 27.3-15.9 42.4-38.1 42.4zm0-64.8c-9.1 0-14.3 7.6-14.3 22.4s5.4 22.6 14.5 22.6 14.3-7.6 14.3-22.4-5.4-22.6-14.5-22.6z"/>
	<path class="st1" d="m490 172.9l-19.6-27.1c-3.6-5-10.7-15.6-12.8-19.2 0.6 3.6 0.7 14.5 0.7 21.2v25.1h-21.8v-82h20l18 24.2c3.7 5 11 15.9 12.8 19.3-0.6-3.6-0.7-14.5-0.7-21.2v-22.3h21.8v82h-18.4z"/>
	<path class="st1" d="m565.9 172.9h-23l-28.2-82h25.5l6 22c2.8 10.2 6.8 26.8 8.3 34.7 1.5-7.8 5.5-24.4 8.3-34.7l6-22h25.3l-28.2 82z"/>
	<path class="st1" d="m600.3 172.9v-82h62.8v19.1h-40.3v10.9h24.2v18.9h-24.2v14.1h41.1v19.1h-63.6z"/>
	<path class="st1" d="m726.3 172.9l-19.6-27.1c-3.6-5-10.7-15.6-12.8-19.2 0.6 3.6 0.7 14.5 0.7 21.2v25.1h-21.8v-82h20l18 24.2c3.7 5 11 15.9 12.8 19.3-0.6-3.6-0.7-14.5-0.7-21.2v-22.3h21.8v82h-18.4z"/>
	<path class="st1" d="m756.5 172.9v-82h23.2v82h-23.2z"/>
	<path class="st1" d="m791.4 172.9v-82h62.8v19.1h-40.3v10.9h24.2v18.9h-24.2v14.1h41.1v19.1h-63.6z"/>
	<path class="st1" d="m917.5 172.9l-19.6-27.1c-3.6-5-10.7-15.6-12.8-19.2 0.6 3.6 0.7 14.5 0.7 21.2v25.1h-21.8v-82h20l18 24.2c3.7 5 11 15.9 12.8 19.3-0.6-3.6-0.7-14.5-0.7-21.2v-22.3h21.9v82h-18.5z"/>
	<path class="st1" d="m981.1 174.2c-24.4 0-37.4-18-37.4-42.3 0-26.4 15.5-42.3 37.5-42.3 20.1 0 28.1 8.7 33.7 24.1l-20.6 8.1c-2.9-7.6-5.7-12.4-13.2-12.4-9.5 0-13.6 9.5-13.6 22.5 0 12.5 4 22.5 13.8 22.5 7.1 0 10.2-3.9 14.6-11.6l19.2 10.2c-5.5 10.8-14.6 21.2-34 21.2z"/>
	<path class="st1" d="m1021.9 172.9v-82h62.8v19.1h-40.3v10.9h24.2v18.9h-24.2v14.1h41.1v19.1h-63.6z"/>
</svg>
