<svg id="Layer_3" data-name="Layer 3" xmlns="http://www.w3.org/2000/svg" viewBox="0 0 1077.9 167.81"><defs><style>.cls-1{fill:#d10a2c;}.cls-2{fill:#fff;}</style></defs><title>heading-v-shape-frame</title><path class="cls-1" d="M58.83,93.17H32.75L.68,0h29l6.79,25c3.19,11.57,7.71,30.47,9.44,39.39,1.73-8.92,6.26-27.68,9.45-39.39L62.16,0H90.9Z" transform="translate(-0.68 1.44)"/><path class="cls-1" d="M91.57,58V33h46.31V58Z" transform="translate(-0.68 1.44)"/><path class="cls-1" d="M183.93,94.63c-15,0-29.55-4.92-39.26-11.31L157.18,63.1c6.79,4.65,18.63,9.31,27.28,9.31,9.18,0,12.11-1.6,12.11-6,0-3.46-3.33-5.59-15.84-8.51C158.24,52.72,147.46,46.59,147.46,28c0-17.56,14.24-29.4,36.73-29.4,15.84,0,27.28,3.86,37.13,10.77L208.81,29.56c-8.25-5.59-16.5-8.78-25.95-8.78-7.72,0-9.58,2.39-9.58,5.72s3.33,5.06,15.3,7.85c23.42,5.59,33.8,12.78,33.8,30.21C222.38,85.85,206.28,94.63,183.93,94.63Z" transform="translate(-0.68 1.44)"/><path class="cls-1" d="M288.66,93.17V56.44h-29V93.17H233.3V0h26.35V34h29V0H315V93.17Z" transform="translate(-0.68 1.44)"/><path class="cls-1" d="M388.73,93.17,383.67,76.8H355.73l-5.06,16.37H323L356.79,0h26.09l33.8,93.15Zm-13-43c-3.33-12-4.79-17-6-23.29-1.2,6.25-2.66,11.44-6,23.29L362,56.31h15.44Z" transform="translate(-0.68 1.44)"/><path class="cls-1" d="M463,63H450.08V93.17H424.66V0h40.06c21.82,0,36.33,8.38,36.33,30.87C501.05,54.58,485.34,63,463,63ZM464.05,21h-14v20.9h13.57c8.39,0,11.71-3.6,11.71-10.65C475.36,25.17,472.3,21,464.05,21Z" transform="translate(-0.68 1.44)"/><path class="cls-1" d="M509.7,93.17V0H581V21.71H535.25V34.09h27.54V55.51H535.25v16H582V93.17Z" transform="translate(-0.68 1.44)"/><path class="cls-1" d="M657.41,22v12.9h29.14V56.71H657.41V93.17H631.73V0h73.72V22Z" transform="translate(-0.68 1.44)"/><path class="cls-1" d="M764.94,93.17l-15.17-31.4H739.39v31.4H714V0h41.65C777.45,0,792,8.27,792,30.36c0,14-6.52,22.62-16.77,27.28l18.63,35.53ZM755,21H739.39V41.4h15.17c8.38,0,11.71-3.72,11.71-10.37C766.27,25.17,763.07,21,755,21Z" transform="translate(-0.68 1.44)"/><path class="cls-1" d="M862.08,93.17,857,76.8H829.08L824,93.17H796.34L830.14,0h26.09L890,93.17Zm-13-43c-3.33-12-4.79-17-6-23.29-1.19,6.25-2.66,11.44-6,23.29l-1.73,6.12h15.44Z" transform="translate(-0.68 1.44)"/><path class="cls-1" d="M967.21,93.17V71c0-9.18.14-17.57.54-24.75C965,53.12,960.16,63.89,957,70.55L944.72,96.36,932.48,70.55c-3.19-6.66-8-17.43-10.78-24.35.4,7.18.53,15.57.53,24.75V93.17H898V0H921.7L933.15,24.9c5.59,12,10.24,22.89,11.71,28.08,1.59-5.32,5.85-15.43,11.71-28.08L968,0h23.42V93.17Z" transform="translate(-0.68 1.44)"/><path class="cls-1" d="M1005,93.17V0h71.33V21.71h-45.78V34.09h27.55V55.51h-27.55v16h46.71V93.17Z" transform="translate(-0.68 1.44)"/><path class="cls-2" d="M43.53,164.68V153c0-4.85.07-9.28.28-13.07-1.48,3.65-4,9.34-5.69,12.85l-6.47,13.64-6.46-13.64c-1.69-3.51-4.22-9.2-5.69-12.85.21,3.79.28,8.22.28,13.07v11.73H7V115.49H19.5l6,13.14a131.29,131.29,0,0,1,6.18,14.83,140.79,140.79,0,0,1,6.19-14.83l6-13.14H56.32v49.19Z" transform="translate(-0.68 1.44)"/><path class="cls-2" d="M94.9,164.68,92.23,156H77.47l-2.67,8.64H60.18L78,115.49H91.8l17.85,49.19ZM88,142c-1.76-6.32-2.53-9-3.16-12.29-.64,3.3-1.41,6-3.16,12.29l-.92,3.24h8.15Z" transform="translate(-0.68 1.44)"/><path class="cls-2" d="M132.21,127.37v37.31H118.58V127.37H104.8V115.49H146v11.88Z" transform="translate(-0.68 1.44)"/><path class="cls-2" d="M168.75,165.45c-14.62,0-22.42-10.82-22.42-25.36,0-15.81,9.28-25.37,22.49-25.37,12.09,0,16.86,5.2,20.24,14.48L176.69,134c-1.76-4.56-3.44-7.45-7.94-7.45-5.69,0-8.15,5.7-8.15,13.5,0,7.51,2.39,13.49,8.29,13.49,4.29,0,6.11-2.32,8.78-7l11.53,6.11C185.89,159.2,180.41,165.45,168.75,165.45Z" transform="translate(-0.68 1.44)"/><path class="cls-2" d="M222.64,164.68V145.29H207.33v19.39H193.41V115.49h13.92v17.92h15.31V115.49h13.92v49.19Z" transform="translate(-0.68 1.44)"/><path class="cls-2" d="M243.37,164.68V115.49H281V127H256.87v6.53h14.54v11.31H256.87v8.44h24.66v11.45Z" transform="translate(-0.68 1.44)"/><path class="cls-2" d="M304.86,165.45a39.24,39.24,0,0,1-20.73-6l6.61-10.68c3.58,2.46,9.83,4.92,14.4,4.92,4.85,0,6.39-.84,6.39-3.16,0-1.83-1.75-3-8.36-4.5-11.87-2.74-17.56-6-17.56-15.81,0-9.28,7.51-15.53,19.39-15.53,8.36,0,14.4,2,19.6,5.69L318,131.09c-4.36-3-8.71-4.63-13.7-4.63-4.08,0-5.06,1.26-5.06,3s1.75,2.67,8.08,4.14c12.37,2.95,17.85,6.75,17.85,15.95C325.17,160.82,316.66,165.45,304.86,165.45Z" transform="translate(-0.68 1.44)"/><path class="cls-2" d="M377.52,164.68l-8-16.58H364v16.58H350.6V115.49h22c11.52,0,19.18,4.36,19.18,16,0,7.38-3.44,12-8.85,14.41l9.83,18.76Zm-5.27-38.09H364v10.76h8c4.43,0,6.19-2,6.19-5.48C378.22,128.77,376.53,126.59,372.25,126.59Z" transform="translate(-0.68 1.44)"/><path class="cls-2" d="M398.1,164.68V115.49H412v49.19Z" transform="translate(-0.68 1.44)"/><path class="cls-2" d="M435.14,164.68h-16V115.49H436.4c15.46,0,25.3,5.84,25.3,24.32S452.56,164.68,435.14,164.68Zm1.19-37.52H433V153h3c8.5,0,11.8-3.24,11.8-13C447.71,131,444.83,127.16,436.33,127.16Z" transform="translate(-0.68 1.44)"/><path class="cls-2" d="M466.76,164.68V115.49h37.66V127H480.25v6.53h14.54v11.31H480.25v8.44h24.66v11.45Z" transform="translate(-0.68 1.44)"/><path class="cls-2" d="M537.38,164.68l-8-16.58h-5.48v16.58H510.46V115.49h22c11.52,0,19.18,4.36,19.18,16,0,7.38-3.44,12-8.85,14.41l9.83,18.76Zm-5.28-38.09h-8.22v10.76h8c4.43,0,6.19-2,6.19-5.48C538.08,128.77,536.39,126.59,532.1,126.59Z" transform="translate(-0.68 1.44)"/><path class="cls-2" d="M576.44,165.45a39.2,39.2,0,0,1-20.72-6l6.6-10.68c3.58,2.46,9.84,4.92,14.41,4.92,4.84,0,6.39-.84,6.39-3.16,0-1.83-1.76-3-8.36-4.5-11.88-2.74-17.57-6-17.57-15.81,0-9.28,7.52-15.53,19.39-15.53,8.37,0,14.41,2,19.61,5.69l-6.61,10.68c-4.35-3-8.71-4.63-13.7-4.63-4.07,0-5.06,1.26-5.06,3s1.76,2.67,8.08,4.14c12.37,2.95,17.85,6.75,17.85,15.95C596.75,160.82,588.25,165.45,576.44,165.45Z" transform="translate(-0.68 1.44)"/><path class="cls-2" d="M642.85,165.45c-13.35,0-22.7-8.92-22.7-25.29s9.49-25.44,22.84-25.44,22.69,8.92,22.69,25.3S656.2,165.45,642.85,165.45Zm0-38.86c-5.48,0-8.58,4.57-8.58,13.43s3.24,13.56,8.72,13.56,8.57-4.57,8.57-13.42S648.33,126.59,642.85,126.59Z" transform="translate(-0.68 1.44)"/><path class="cls-2" d="M684,127.09v6.81h15.39v11.53H684v19.25H670.46V115.49h38.93v11.6Z" transform="translate(-0.68 1.44)"/><path class="cls-2" d="M765.32,164.68,762.65,156H747.9l-2.67,8.64H730.61l17.85-49.19h13.77l17.85,49.19ZM758.44,142c-1.76-6.32-2.53-9-3.16-12.29-.64,3.3-1.41,6-3.17,12.29l-.91,3.24h8.15Z" transform="translate(-0.68 1.44)"/><path class="cls-2" d="M784,164.68V115.49h13.77V152.8H819.5v11.88Z" transform="translate(-0.68 1.44)"/><path class="cls-2" d="M824,164.68V115.49h13.77V152.8h21.78v11.88Z" transform="translate(-0.68 1.44)"/><path class="cls-2" d="M902.91,165.45a39.24,39.24,0,0,1-20.73-6l6.61-10.68c3.58,2.46,9.83,4.92,14.4,4.92,4.85,0,6.39-.84,6.39-3.16,0-1.83-1.75-3-8.36-4.5-11.87-2.74-17.56-6-17.56-15.81,0-9.28,7.51-15.53,19.39-15.53,8.36,0,14.4,2,19.6,5.69l-6.6,10.68c-4.36-3-8.72-4.63-13.7-4.63-4.08,0-5.06,1.26-5.06,3s1.75,2.67,8.08,4.14c12.36,2.95,17.85,6.75,17.85,15.95C923.22,160.82,914.71,165.45,902.91,165.45Z" transform="translate(-0.68 1.44)"/><path class="cls-2" d="M929,164.68V115.49h13.91v49.19Z" transform="translate(-0.68 1.44)"/><path class="cls-2" d="M949.71,164.68v-9.77l14.4-17.56c3.09-3.73,7.45-8.51,9.7-11-3.8.14-10,.21-14.62.21h-8.08v-11.1H989.9v9.77l-14.4,17.57c-3.1,3.72-7.45,8.5-9.7,11,3.79-.14,10-.21,14.61-.21H990v11.1Z" transform="translate(-0.68 1.44)"/><path class="cls-2" d="M996.79,164.68V115.49h37.66V127h-24.17v6.53h14.54v11.31h-14.54v8.44h24.66v11.45Z" transform="translate(-0.68 1.44)"/><path class="cls-2" d="M1058.27,165.45a39.24,39.24,0,0,1-20.73-6l6.61-10.68c3.58,2.46,9.84,4.92,14.4,4.92,4.85,0,6.4-.84,6.4-3.16,0-1.83-1.76-3-8.37-4.5-11.87-2.74-17.56-6-17.56-15.81,0-9.28,7.52-15.53,19.39-15.53,8.36,0,14.41,2,19.61,5.69l-6.61,10.68c-4.36-3-8.71-4.63-13.7-4.63-4.08,0-5.06,1.26-5.06,3s1.76,2.67,8.08,4.14c12.37,2.95,17.85,6.75,17.85,15.95C1078.58,160.82,1070.08,165.45,1058.27,165.45Z" transform="translate(-0.68 1.44)"/></svg>