<?xml version="1.0" encoding="UTF-8" standalone="no"?>
<!-- Generator: Adobe Illustrator 22.0.0, SVG Export Plug-In . SVG Version: 6.00 Build 0)  -->
<svg style="enable-background:new 0 0 850 134" xmlns="http://www.w3.org/2000/svg" xml:space="preserve" version="1.1" y="0px" x="0px" xmlns:xlink="http://www.w3.org/1999/xlink" viewBox="0 0 850 134">
<style type="text/css">
	.st0{display:none;}
	.st1{display:inline;}
	.st2{fill:#FFFFFF;}
	.st3{fill:#D10A2C;}
	.st4{fill:#A9A8A9;}
</style>
<g id="Layer_2" class="st0">
	<rect y="-14" x="-12" height="177" class="st1" width="877"/>
</g>
<g id="Layer_1" class="st0">
		<image id="The_Ultimate" style="enable-background:new" xlink:href="CA5309783603D81A.png" width="850" height="134">
	</image>
</g>
<g id="Layer_3">
		<path class="st2" d="m90.6 128.6v-28.7c0-11.9 0.2-22.7 0.7-32-3.6 8.9-9.8 22.9-13.9 31.4l-15.8 33.3-15.9-33.2c-4.1-8.6-10.3-22.5-13.9-31.4 0.5 9.3 0.7 20.1 0.7 32v28.7h-31.3v-120.4h30.6l14.8 32.1c7.2 15.5 13.2 29.6 15.1 36.3 2.1-6.9 7.6-19.9 15.1-36.3l14.8-32.1h30.2v120.3h-31.2z"/>
		<path class="st2" d="m182.7 130.5c-20.4 0-37.8-7-50.7-18.4l17.2-21.7c9.8 7.6 21 12.5 34.2 12.5 13.9 0 19.8-4 19.8-12.2 0-8.4-4.8-11.5-17-11.5h-17.4v-25.9h15.5c10.5 0 13.9-2.2 13.9-10.1 0-6.4-4.8-9.8-16.7-9.8-11.7 0-20.6 3.6-29.9 10.3l-15.9-21.7c11.2-8.6 25.6-15.6 46.6-15.6 28.9 0 48.1 9.1 48.1 34.5 0 13.2-7.7 19.6-16 23.5 11.2 2.6 21 10.7 21 25.9 0 28-20.1 40.2-52.7 40.2z"/>
		<path class="st2" d="m260.5 31.8c-10.1 0-17.7-5.8-17.7-15.3 0-8.8 7.6-14.9 17.7-14.9 10.7 0 18 6.2 18 14.9 0 9.5-7.4 15.3-18 15.3zm-15.5 96.8v-90.2h31v90.2h-31z"/>
		<path class="st3" d="m343.1 18.9v35.6h-13v-35.6h-13.2v-11.3h39.3v11.3h-13.1z"/>
		<path class="st3" d="m394.6 54.5v-18.5h-14.6v18.5h-13.3v-47h13.3v17.1h14.6v-17h13.3v47h-13.3z"/>
		<path class="st3" d="m420.4 54.5v-47h36v10.9h-23.1v6.2h13.9v10.8h-13.9v8.1h23.5v10.9h-36.4z"/>
		<path class="st3" d="m513.4 55.3c-11.8 0-20.5-5.9-20.5-20.8v-26.9h13.3v26.9c0 5.8 2.3 9.3 7.4 9.3s7.2-3.6 7.2-9.3v-26.9h13.3v26.9c0 14.9-8.9 20.8-20.7 20.8z"/>
		<path class="st3" d="m546.3 54.5v-47h13.2v35.6h20.8v11.3h-34z"/>
		<path class="st3" d="m605.9 18.9v35.6h-13v-35.6h-13.1v-11.3h39.3v11.3h-13.2z"/>
		<path class="st3" d="m629.9 54.5v-47h13.3v47h-13.3z"/>
		<path class="st3" d="m690.9 54.5v-11.2c0-4.6 0.1-8.9 0.3-12.5-1.4 3.5-3.8 8.9-5.4 12.3l-6.2 13-6.2-13c-1.6-3.4-4-8.8-5.4-12.3 0.2 3.6 0.3 7.8 0.3 12.5v11.2h-12.3v-47h12l5.8 12.5c2.8 6 5.2 11.5 5.9 14.2 0.8-2.7 3-7.8 5.9-14.2l5.8-12.5h11.8v47h-12.3z"/>
		<path class="st3" d="m745.9 54.5l-2.5-8.3h-14.1l-2.5 8.3h-14l17-47h13.2l17 47h-14.1zm-6.6-21.6c-1.7-6-2.4-8.6-3-11.7-0.6 3.2-1.3 5.8-3 11.7l-0.9 3.1h7.8l-0.9-3.1z"/>
		<path class="st3" d="m787.5 18.9v35.6h-13v-35.6h-13.1v-11.3h39.3v11.3h-13.2z"/>
		<path class="st3" d="m811.2 54.5v-47h36v10.9h-23.1v6.2h13.9v10.8h-13.9v8.1h23.5v10.9h-36.4z"/>
		<path class="st4" d="m322 128.7v-55.4h15.7v55.3h-15.7z"/>
		<path class="st4" d="m385.3 128.7l-13.2-18.3c-2.5-3.4-7.2-10.5-8.6-13 0.4 2.5 0.5 9.8 0.5 14.3v16.9h-14.7v-55.3h13.5l12.2 16.4c2.5 3.4 7.4 10.8 8.6 13-0.4-2.5-0.5-9.8-0.5-14.3v-15.1h14.7v55.3h-12.5z"/>
		<path class="st4" d="m427 128.7h-18v-55.4h19.4c17.4 0 28.5 6.6 28.5 27.4s-10.3 28-29.9 28zm1.3-42.2h-3.8v29.1h3.3c9.6 0 13.3-3.6 13.3-14.6 0-10.3-3.2-14.5-12.8-14.5z"/>
		<path class="st4" d="m489.4 129.6c-15 0-25.5-10-25.5-28.5s10.7-28.6 25.7-28.6 25.5 10 25.5 28.5c-0.1 18.4-10.7 28.6-25.7 28.6zm0-43.8c-6.2 0-9.6 5.1-9.6 15.1s3.6 15.3 9.8 15.3 9.6-5.1 9.6-15.1-3.7-15.3-9.8-15.3z"/>
		<path class="st4" d="m547.2 129.6c-15 0-25.5-10-25.5-28.5s10.7-28.6 25.7-28.6 25.5 10 25.5 28.5c0 18.4-10.7 28.6-25.7 28.6zm0-43.8c-6.2 0-9.6 5.1-9.6 15.1s3.6 15.3 9.8 15.3 9.6-5.1 9.6-15.1-3.6-15.3-9.8-15.3z"/>
		<path class="st4" d="m612.1 128.7l-9-18.7h-6.2v18.7h-15.1v-55.4h24.7c13 0 21.6 4.9 21.6 18 0 8.3-3.9 13.4-10 16.2l11.1 21.1h-17.1zm-5.9-42.9h-9.2v12.1h9c5 0 7-2.2 7-6.2-0.1-3.4-2-5.9-6.8-5.9z"/>
		<path class="st4" d="m691.1 128.7h-26.6v-55.4h26.7c13.8 0 19.4 5.1 19.4 14.4 0 6-2.9 8.7-6.6 10.8 5 2.1 7.9 6 7.9 12.3 0 11.3-6.9 17.9-20.8 17.9zm-0.3-43.3h-11.5v8.7h11.5c3.6 0 4.8-1.7 4.8-4.3 0-2.5-1.2-4.4-4.8-4.4zm0.6 20.4h-12.2v10.8h12.1c3.8 0 5.5-2.3 5.5-5.5 0.1-3.2-1.8-5.3-5.4-5.3z"/>
		<path class="st4" d="m721.6 128.7v-55.4h15.7v55.3h-15.7z"/>
		<path class="st4" d="m781.8 128.7l-11.5-23.6-5.7 6.9v16.7h-15.7v-55.4h15.7v6.5c0 4.7-0.1 9.6-0.2 13.7 2.3-3.6 7.1-10 10.7-14.5l4.4-5.6h18.5l-16.7 19.5 18.6 35.8h-18.1z"/>
		<path class="st4" d="m806.9 128.7v-55.4h42.4v12.9h-27.2v7.4h16.4v12.7h-16.4v9.5h27.7v12.9h-42.9z"/>
</g>
</svg>
