<?xml version="1.0" encoding="UTF-8" standalone="no"?>
<!-- Generator: Adobe Illustrator 22.0.0, SVG Export Plug-In . SVG Version: 6.00 Build 0)  -->
<svg id="Layer_3" style="enable-background:new 0 0 1087 140" xmlns="http://www.w3.org/2000/svg" xml:space="preserve" viewBox="0 0 1087 140" version="1.1" y="0px" x="0px" xmlns:xlink="http://www.w3.org/1999/xlink">
<style type="text/css">
	.st0{fill:#D10A2C;}
	.st1{fill:#FFFFFF;}
</style>
	<path class="st0" d="m37.7 17.4v48.8h-17.8v-48.8h-18v-15.6h53.8v15.5h-18z"/>
	<path class="st0" d="m100.6 66.1v-25.3h-20v25.4h-18.2v-64.4h18.2v23.4h20v-23.4h18.2v64.3h-18.2z"/>
	<path class="st0" d="m128.2 66.1v-64.3h49.2v15h-31.6v8.5h19v14.8h-19v11h32.2v15h-49.8z"/>
	<path class="st0" d="m240 67.2c-16.2 0-28-8.1-28-28.5v-36.9h18.2v36.8c0 7.9 3.1 12.8 10.1 12.8s9.9-4.9 9.9-12.8v-36.8h18.2v36.8c0 20.5-12.2 28.6-28.4 28.6z"/>
	<path class="st0" d="m277.4 66.1v-64.3h18v48.8h28.5v15.5h-46.5z"/>
	<path class="st0" d="m351.3 17.4v48.8h-17.8v-48.8h-18v-15.6h53.8v15.5h-18z"/>
	<path class="st0" d="m376.4 66.1v-64.3h18.2v64.3h-18.2z"/>
	<path class="st0" d="m452.2 66.1v-15.3c0-6.3 0.1-12.1 0.4-17.1-1.9 4.8-5.2 12.2-7.4 16.8l-8.5 17.8-8.5-17.8c-2.2-4.6-5.5-12-7.4-16.8 0.3 5 0.4 10.7 0.4 17.1v15.3h-16.7v-64.3h16.4l7.9 17.2c3.9 8.3 7.1 15.8 8.1 19.4 1.1-3.7 4-10.7 8.1-19.4l7.9-17.2h16.2v64.3h-16.9z"/>
	<path class="st0" d="m519.8 66.1l-3.5-11.3h-19.3l-3.5 11.3h-19.1l23.3-64.3h18l23.3 64.3h-19.2zm-9-29.6c-2.3-8.3-3.3-11.8-4.1-16.1-0.8 4.3-1.8 7.9-4.1 16.1l-1.2 4.2h10.6l-1.2-4.2z"/>
	<path class="st0" d="m569.1 17.4v48.8h-17.8v-48.8h-18v-15.6h53.8v15.5h-18z"/>
	<path class="st0" d="m593.8 66.1v-64.3h49.2v15h-31.6v8.5h19v14.8h-19v11h32.2v15h-49.8z"/>
	<path class="st0" d="m725.8 66.1v-15.3c0-6.3 0.1-12.1 0.4-17.1-1.9 4.8-5.2 12.2-7.4 16.8l-8.5 17.8-8.5-17.8c-2.2-4.6-5.5-12-7.4-16.8 0.3 5 0.4 10.7 0.4 17.1v15.3h-16.8v-64.3h16.4l7.9 17.2c3.9 8.3 7.1 15.8 8.1 19.4 1.1-3.7 4-10.7 8.1-19.4l7.9-17.2h16.2v64.3h-16.8z"/>
	<path class="st0" d="m793.4 66.1l-3.5-11.3h-19.3l-3.5 11.3h-19.1l23.3-64.3h18l23.3 64.3h-19.2zm-9-29.6c-2.3-8.3-3.3-11.8-4.1-16.1-0.8 4.3-1.8 7.9-4.1 16.1l-1.2 4.2h10.7l-1.3-4.2z"/>
	<path class="st0" d="m842.2 67.2c-19.1 0-29.3-14.1-29.3-33.2 0-20.7 12.1-33.2 29.4-33.2 15.8 0 22 6.8 26.5 18.9l-16.2 6.3c-2.3-6-4.5-9.7-10.4-9.7-7.4 0-10.7 7.4-10.7 17.6 0 9.8 3.1 17.6 10.8 17.6 5.6 0 8-3 11.5-9.1l15.1 8c-4.3 8.6-11.4 16.8-26.7 16.8z"/>
	<path class="st0" d="m913.1 66.1v-25.3h-20v25.4h-18.2v-64.4h18.2v23.4h20v-23.4h18.2v64.3h-18.2z"/>
	<path class="st0" d="m941.1 66.1v-64.3h18.2v64.3h-18.2z"/>
	<path class="st0" d="m1011 66.1l-15.3-21.2c-2.8-3.9-8.4-12.2-10-15.1 0.5 2.8 0.6 11.4 0.6 16.6v19.7h-17.1v-64.3h15.7l14.1 19c2.9 4 8.6 12.5 10 15.2-0.5-2.8-0.6-11.4-0.6-16.6v-17.6h17.1v64.3h-14.5z"/>
	<path class="st0" d="m1034.9 66.1v-64.3h49.2v15h-31.6v8.5h19v14.8h-19v11h32.2v15h-49.8z"/>
	<path class="st1" d="m20.2 96.2v7.4h16.8v12.6h-16.8v21h-14.8v-53.7h42.4v12.6h-27.6z"/>
	<path class="st1" d="m73.5 138c-14.6 0-24.7-9.7-24.7-27.6 0-17.8 10.3-27.7 24.9-27.7s24.7 9.7 24.7 27.6-10.3 27.7-24.9 27.7zm0-42.4c-6 0-9.3 5-9.3 14.6s3.5 14.8 9.5 14.8c6 0 9.3-5 9.3-14.6s-3.5-14.8-9.5-14.8z"/>
	<path class="st1" d="m133.3 137.1l-8.7-18.1h-6v18.1h-14.6v-53.6h24c12.6 0 20.9 4.7 20.9 17.5 0 8-3.8 13-9.6 15.7l10.7 20.4h-16.7zm-5.7-41.5h-9v11.7h8.7c4.8 0 6.7-2.1 6.7-6 0.1-3.3-1.7-5.7-6.4-5.7z"/>
	<path class="st1" d="m178.3 137.1v-53.6h15.2v53.6h-15.2z"/>
	<path class="st1" d="m236.6 137.1l-12.8-17.7c-2.4-3.3-7-10.2-8.3-12.6 0.4 2.4 0.5 9.5 0.5 13.9v16.4h-14.2v-53.6h13.1l11.8 15.9c2.5 3.3 7.2 10.4 8.3 12.6-0.4-2.4-0.5-9.5-0.5-13.9v-14.6h14.2v53.6h-12.1z"/>
	<path class="st1" d="m273.9 137.1h-17.4v-53.6h18.8c16.8 0 27.6 6.4 27.6 26.5s-10 27.1-29 27.1zm1.3-40.9h-3.7v28.2h3.2c9.3 0 12.9-3.5 12.9-14.2 0-9.8-3.1-14-12.4-14z"/>
	<path class="st1" d="m331.3 138c-14.6 0-24.7-9.7-24.7-27.6 0-17.8 10.3-27.7 24.9-27.7s24.7 9.7 24.7 27.6-10.4 27.7-24.9 27.7zm0-42.4c-6 0-9.3 5-9.3 14.6s3.5 14.8 9.5 14.8c6 0 9.3-5 9.3-14.6s-3.6-14.8-9.5-14.8z"/>
	<path class="st1" d="m384.3 138c-14.6 0-24.7-9.7-24.7-27.6 0-17.8 10.3-27.7 24.9-27.7s24.7 9.7 24.7 27.6-10.4 27.7-24.9 27.7zm0-42.4c-6 0-9.3 5-9.3 14.6s3.5 14.8 9.5 14.8c6 0 9.3-5 9.3-14.6s-3.6-14.8-9.5-14.8z"/>
	<path class="st1" d="m444.1 137.1l-8.7-18.1h-6v18.1h-14.6v-53.6h24c12.6 0 20.9 4.7 20.9 17.5 0 8-3.8 13-9.6 15.7l10.7 20.4h-16.7zm-5.8-41.5h-9v11.7h8.7c4.8 0 6.7-2.1 6.7-6 0.1-3.3-1.7-5.7-6.4-5.7z"/>
	<path class="st1" d="m511.2 138c-14.7 0-24.7-10.1-24.7-27.6 0-15.9 8.7-27.6 25-27.6 13.4 0 18.6 5 22.4 15l-13.5 5.3c-1.8-4.6-3.9-7.4-9-7.4-7 0-9.3 6.2-9.3 14.7 0 10.6 3.4 15.1 10.3 15.1 6.3 0 8.3-2.9 9-6.6h-9.7v-11.1h23.6v6.5c-0.1 15.2-8.5 23.7-24.1 23.7z"/>
	<path class="st1" d="m570.2 137.1l-8.7-18.1h-6v18.1h-14.6v-53.6h24c12.6 0 20.9 4.7 20.9 17.5 0 8-3.8 13-9.6 15.7l10.7 20.4h-16.7zm-5.8-41.5h-9v11.7h8.7c4.8 0 6.7-2.1 6.7-6 0.2-3.3-1.7-5.7-6.4-5.7z"/>
	<path class="st1" d="m615.1 138c-14.6 0-24.7-9.7-24.7-27.6 0-17.8 10.3-27.7 24.9-27.7s24.7 9.7 24.7 27.6-10.3 27.7-24.9 27.7zm0-42.4c-6 0-9.3 5-9.3 14.6s3.5 14.8 9.5 14.8 9.3-5 9.3-14.6-3.5-14.8-9.5-14.8z"/>
	<path class="st1" d="m668.7 138c-13.5 0-23.4-6.7-23.4-23.7v-30.8h15.2v30.7c0 6.6 2.6 10.6 8.4 10.6s8.3-4.1 8.3-10.6v-30.7h15.2v30.7c-0.1 17-10.3 23.8-23.7 23.8z"/>
	<path class="st1" d="m721.9 119.7h-7.4v17.4h-14.6v-53.6h23.1c12.6 0 20.9 4.8 20.9 17.8-0.1 13.6-9.1 18.4-22 18.4zm0.6-24.1h-8v12h7.8c4.8 0 6.7-2.1 6.7-6.1 0-3.5-1.8-5.9-6.5-5.9z"/>
	<path class="st1" d="m793.2 138c-15.9 0-24.4-11.8-24.4-27.6 0-17.2 10.1-27.6 24.5-27.6 13.2 0 18.4 5.7 22.1 15.8l-13.5 5.3c-1.9-5-3.8-8.1-8.7-8.1-6.2 0-8.9 6.2-8.9 14.7 0 8.2 2.6 14.7 9 14.7 4.7 0 6.7-2.5 9.6-7.6l12.6 6.7c-3.6 6.9-9.6 13.7-22.3 13.7z"/>
	<path class="st1" d="m849 117.1v20h-15v-19.8l-19.8-33.8h17.2l4.1 8.1c2.8 5.6 5.1 10.7 6.1 13.9 1-3.1 3.3-8.3 6.1-13.9l4.1-8.1h17l-19.8 33.6z"/>
	<path class="st1" d="m890.4 138c-15.9 0-24.4-11.8-24.4-27.6 0-17.2 10.1-27.6 24.5-27.6 13.2 0 18.4 5.7 22.1 15.8l-13.5 5.3c-1.9-5-3.8-8.1-8.7-8.1-6.2 0-8.9 6.2-8.9 14.7 0 8.2 2.6 14.7 9 14.7 4.7 0 6.7-2.5 9.6-7.6l12.6 6.7c-3.6 6.9-9.6 13.7-22.3 13.7z"/>
	<path class="st1" d="m917.7 137.1v-53.6h15v40.7h23.7v12.9h-38.7z"/>
	<path class="st1" d="m962.1 137.1v-53.6h15.2v53.6h-15.2z"/>
	<path class="st1" d="m1020.4 137.1l-12.8-17.7c-2.4-3.3-7-10.2-8.3-12.6 0.4 2.4 0.5 9.5 0.5 13.9v16.4h-14.2v-53.6h13.1l11.8 15.9c2.5 3.3 7.2 10.4 8.3 12.6-0.4-2.4-0.5-9.5-0.5-13.9v-14.6h14.2v53.6h-12.1z"/>
	<path class="st1" d="m1062.8 138c-14.7 0-24.7-10.1-24.7-27.6 0-15.9 8.7-27.6 25-27.6 13.4 0 18.6 5 22.4 15l-13.5 5.2c-1.8-4.6-3.9-7.4-9-7.4-7 0-9.3 6.2-9.3 14.7 0 10.6 3.4 15.1 10.3 15.1 6.3 0 8.3-2.9 9-6.6h-9.7v-11.1h23.6v6.5c-0.1 15.3-8.5 23.8-24.1 23.8z"/>
</svg>
