<svg xmlns="http://www.w3.org/2000/svg" width="29" height="28" viewBox="0 0 29 28"><g><g><path fill="none" stroke="#4d4e4f" stroke-miterlimit="20" stroke-width=".75" d="M13.352 22.176a1.413 1.413 0 1 1-2.827.002 1.413 1.413 0 0 1 2.827-.002z"/></g><g><path fill="none" stroke="#4d4e4f" stroke-miterlimit="20" stroke-width=".75" d="M23.04 22.176a1.414 1.414 0 1 1-2.827.001 1.414 1.414 0 0 1 2.827 0z"/></g><g><path fill="none" stroke="#4d4e4f" stroke-miterlimit="20" stroke-width=".75" d="M23.443 18.348v0H12.171a2.02 2.02 0 0 1-1.977-1.612L7.866 5.428a1.01 1.01 0 0 0-.989-.806H4.241v0"/></g><g><path fill="none" stroke="#4d4e4f" stroke-miterlimit="20" stroke-width=".75" d="M12.136 9.101v0H24.05c.627 0 1.102.564.994 1.183L23.78 17.55a1.01 1.01 0 0 1-.995.837H11.938v0"/></g></g></svg>