<svg xmlns="http://www.w3.org/2000/svg" height="100px" width="100px" version="1.1" xmlns:xlink="http://www.w3.org/1999/xlink" viewBox="0 0 100 100"><path id="cart" d="m2.0833 0h14.584c0.966 0 1.808 0.7619 2.033 1.8381l5.504 26.733h73.713c0.675 0 1.304 0.367 1.692 0.991 0.391 0.619 0.491 1.419 0.283 2.148l-12.5 42.857c-0.283 0.966-1.071 1.623-1.975 1.623h-51.409l0.975 4.762h44.184c4.6 0 8.333 4.277 8.333 9.524 0 5.257-3.733 9.524-8.333 9.524-4.592 0-8.333-4.267-8.333-9.524 0-1.738 0.441-3.352 1.162-4.762h-31.483c0.716 1.41 1.154 3.024 1.154 4.762 0 5.257-3.734 9.524-8.334 9.524-4.591 0-8.333-4.267-8.333-9.524 0-4.238 2.45-7.795 5.813-9.028l-15.792-76.686-12.938-0.0001c-1.1455 0-2.083-1.0667-2.083-2.3809 0-1.3143 0.9375-2.381 2.0833-2.381z"/></svg>
