<?xml version="1.0" encoding="UTF-8" standalone="no"?>
<svg
   id="a"
   width="23.47"
   height="20.3"
   viewBox="0 0 23.47 20.3"
   version="1.1"
   xmlns="http://www.w3.org/2000/svg"
   xmlns:svg="http://www.w3.org/2000/svg">
  <path d="m 10.93,18.8 c 0,0.83 -0.67,1.5 -1.5,1.5 -0.83,0 -1.5,-0.67 -1.5,-1.5 0,-0.83 0.67,-1.5 1.5,-1.5 0.83,0 1.5,0.67 1.5,1.5 z"/>
  <path d="m 21.93,18.8 c 0,0.83 -0.67,1.5 -1.5,1.5 -0.83,0 -1.5,-0.67 -1.5,-1.5 0,-0.83 0.67,-1.5 1.5,-1.5 0.83,0 1.5,0.67 1.5,1.5 z"/>
  <path d="M 1,0 A 1,1 0 0 0 0,1 1,1 0 0 0 1,2 h 3.1972656 l 2.1503906,7.0996094 1.6855469,5.5605466 a 1.0001,1.0001 0 0 0 0.9570313,0.708985 H 20.679687 a 1.0001,1.0001 0 0 0 0.986329,-0.828125 L 23.455078,4.1699219 A 1.0001,1.0001 0 0 0 22.470703,3 H 10.820313 A 1,1 0 0 0 9.8203125,4 1,1 0 0 0 10.820313,5 h 10.46289 l -1.445312,8.369141 H 9.7324219 L 8.2636719,8.5195313 5.8964844,0.7109375 A 1.0001,1.0001 0 0 0 4.9394531,0 Z"/>
</svg>