<svg version="1.1" id="Layer_1" xmlns="http://www.w3.org/2000/svg" x="0px" y="0px"
	 width="21.7px" height="20.8px" viewBox="2 -45.9 21.7 20.8" enable-background="new 2 -45.9 21.7 20.8" xml:space="preserve">
<path fill="#FFFFFF" d="M6.9-39.2H2.3v14h4.7V-39.2z M7.2-43.5c0-1.4-1-2.4-2.6-2.4c-1.6,0-2.6,1-2.6,2.4c0,1.3,1,2.4,2.6,2.4h0
	C6.2-41.1,7.2-42.1,7.2-43.5z M23.7-33.2c0-4.3-2.3-6.3-5.4-6.3c-2.5,0-3.6,1.4-4.2,2.4h0v-2H9.5c0,0,0.1,1.3,0,14h4.7V-33
	c0-0.4,0-0.8,0.2-1.1c0.3-0.8,1.1-1.7,2.4-1.7c1.7,0,2.4,1.3,2.4,3.2v7.5h4.7V-33.2z"/>
</svg>
