<svg xmlns="http://www.w3.org/2000/svg" viewBox="0 0 157.47 294.26"><defs><style>.cls-1{fill:#d10a2c;}</style></defs><title>Left Carousel Arrow</title><g id="Layer_2" data-name="Layer 2"><g id="Layer_1-2" data-name="Layer 1"><path class="cls-1" d="M154.13,20,32,146.8,154.13,273.58a13.3,13.3,0,0,1,3.34,8.68,11,11,0,0,1-3.34,8q-4,4-8.67,4a10.09,10.09,0,0,1-8-4L3.33,155.47a12.1,12.1,0,0,1,0-16.68L137.45,3.34a10.89,10.89,0,0,1,8-3.34,13.23,13.23,0,0,1,8.67,3.34A13.29,13.29,0,0,1,157.47,12,11,11,0,0,1,154.13,20Z"/></g></g></svg>
