<svg xmlns="http://www.w3.org/2000/svg" viewBox="0 0 157.47 294.26"><defs><style>.cls-1{fill:#d10a2c;}</style></defs><title>Asset 17</title><g id="Layer_2" data-name="Layer 2"><g id="Layer_1-2" data-name="Layer 1"><path class="cls-1" d="M3.34,274.24,125.44,147.47,3.34,20.69A13.3,13.3,0,0,1,0,12,11,11,0,0,1,3.34,4q4-4,8.67-4a10.09,10.09,0,0,1,8,4L154.14,138.79a12.1,12.1,0,0,1,0,16.68L20,290.92a10.89,10.89,0,0,1-8,3.34,13.23,13.23,0,0,1-8.67-3.34A13.29,13.29,0,0,1,0,282.25,11,11,0,0,1,3.34,274.24Z"/></g></g></svg>
