<svg width="26.384" xmlns="http://www.w3.org/2000/svg" viewBox="0.736608 -42.857194 26.383960 21.428597" height="21.429">
 <path d="m27.121-40.313c-0.971 0.419-2.026 0.72-3.114 0.838 1.121-0.67 1.975-1.725 2.377-2.98-1.038 0.619-2.21 1.071-3.432 1.305-0.988-1.054-2.394-1.707-3.951-1.707-2.997 0-5.407 2.427-5.407 5.407 0 0.419 0.05 0.837 0.134 1.239-4.4869-0.234-8.488-2.377-11.15-5.658-0.4686 0.803-0.7365 1.724-0.7365 2.728 0 1.875 0.9543 3.533 2.4107 4.504-0.8872-0.034-1.7243-0.285-2.4442-0.687v0.067c0 2.629 1.8583 4.805 4.336 5.307-0.452 0.117-0.9375 0.184-1.423 0.184-0.3516 0-0.6864-0.033-1.0212-0.083 0.6864 2.142 2.6786 3.699 5.0558 3.75-1.8583 1.456-4.1853 2.31-6.7132 2.31-0.452 0-0.8705-0.017-1.3058-0.067 2.394 1.54 5.24 2.427 8.3036 2.427 9.9438 0 15.385-8.236 15.385-15.385 0-0.234 0-0.468-0.016-0.703 1.054-0.77 1.975-1.724 2.712-2.796z" fill="#fff"/>
</svg>
