<svg id="Amazon_Image" data-name="Amazon Image" xmlns="http://www.w3.org/2000/svg" xmlns:xlink="http://www.w3.org/1999/xlink" viewBox="0 0 199.06 39.38"><defs><linearGradient id="linear-gradient" x1="52.84" y1="26.65" x2="70.99" y2="8.5" gradientUnits="userSpaceOnUse"><stop offset="0" stop-color="#febb12"/><stop offset="0.8" stop-color="#ffdc00"/></linearGradient><linearGradient id="linear-gradient-2" x1="83.41" y1="26.65" x2="101.55" y2="8.5" xlink:href="#linear-gradient"/><linearGradient id="linear-gradient-3" x1="113.97" y1="26.65" x2="132.11" y2="8.5" xlink:href="#linear-gradient"/><linearGradient id="linear-gradient-4" x1="144.53" y1="26.65" x2="162.68" y2="8.5" xlink:href="#linear-gradient"/><linearGradient id="linear-gradient-5" x1="172.03" y1="23.58" x2="190.18" y2="5.44" xlink:href="#linear-gradient"/></defs><title>AmazonStars_4pt5stars</title><path d="M21.94,17c0,2.07,0,3.8-1,5.65a4.36,4.36,0,0,1-3.69,2.42c-2,0-3.24-1.56-3.24-3.87,0-4.53,4.07-5.36,7.92-5.36Zm5.37,13a1.07,1.07,0,0,1-1.25.12A12.73,12.73,0,0,1,23,26.57c-2.92,3-5,3.87-8.78,3.87-4.48,0-8-2.77-8-8.3a9,9,0,0,1,5.68-8.71c2.89-1.27,6.93-1.5,10-1.84V10.9c0-1.27.1-2.77-.64-3.87a3.57,3.57,0,0,0-3-1.38A4.05,4.05,0,0,0,14,8.85a1.15,1.15,0,0,1-.93,1L7.94,9.27a1,1,0,0,1-.8-1.12C8.33,1.89,14,0,19.05,0c2.59,0,6,.69,8,2.65,2.59,2.42,2.34,5.65,2.34,9.17v8.29c0,2.5,1,3.6,2,4.94a1,1,0,0,1,0,1.42c-1.09.91-3,2.59-4.08,3.53Z" fill="#fff" fill-rule="evenodd"/><path d="M34.27,34.68a27.14,27.14,0,0,1-15.35,4.7A27.78,27.78,0,0,1,.17,32.22c-.39-.35,0-.83.42-.56a37.74,37.74,0,0,0,18.77,5,37.2,37.2,0,0,0,14.31-2.93C34.37,33.42,35,34.18,34.27,34.68Z" fill="#f8991d" fill-rule="evenodd"/><path d="M36,32.71c-.53-.68-3.51-.32-4.85-.16-.4.05-.47-.31-.1-.56,2.38-1.67,6.27-1.19,6.72-.63s-.12,4.47-2.34,6.33c-.35.29-.67.13-.52-.25C35.41,36.19,36.53,33.39,36,32.71Z" fill="#f8991d" fill-rule="evenodd"/><polygon points="61.92 24.47 52.71 29.31 54.47 19.06 47.02 11.8 57.31 10.3 61.92 0.98 66.52 10.3 76.81 11.8 69.36 19.06 71.12 29.31 61.92 24.47" fill="#d88727" fill-rule="evenodd"/><polygon points="61.92 23.47 53.89 27.69 55.42 18.75 48.93 12.42 57.9 11.11 61.92 2.98 65.93 11.11 74.91 12.42 68.41 18.75 69.95 27.69 61.92 23.47" fill-rule="evenodd" fill="url(#linear-gradient)"/><polygon points="92.48 24.47 83.28 29.31 85.03 19.06 77.59 11.8 87.88 10.3 92.48 0.98 97.08 10.3 107.37 11.8 99.92 19.06 101.68 29.31 92.48 24.47" fill="#d88727" fill-rule="evenodd"/><polygon points="92.48 23.47 84.45 27.69 85.98 18.75 79.49 12.42 88.47 11.11 92.48 2.98 96.49 11.11 105.47 12.42 98.97 18.75 100.51 27.69 92.48 23.47" fill-rule="evenodd" fill="url(#linear-gradient-2)"/><polygon points="123.04 24.47 113.84 29.31 115.6 19.06 108.15 11.8 118.44 10.3 123.04 0.98 127.64 10.3 137.93 11.8 130.49 19.06 132.25 29.31 123.04 24.47" fill="#d88727" fill-rule="evenodd"/><polygon points="123.04 23.47 115.01 27.69 116.55 18.75 110.05 12.42 119.03 11.11 123.04 2.98 127.06 11.11 136.03 12.42 129.54 18.75 131.07 27.69 123.04 23.47" fill-rule="evenodd" fill="url(#linear-gradient-3)"/><polygon points="153.6 24.47 144.4 29.31 146.16 19.06 138.71 11.8 149 10.3 153.6 0.98 158.21 10.3 168.5 11.8 161.05 19.06 162.81 29.31 153.6 24.47" fill="#d88727" fill-rule="evenodd"/><polygon points="153.6 23.47 145.57 27.69 147.11 18.75 140.61 12.42 149.59 11.11 153.6 2.98 157.62 11.11 166.59 12.42 160.1 18.75 161.63 27.69 153.6 23.47" fill-rule="evenodd" fill="url(#linear-gradient-4)"/><path d="M199.06,11.8l-10.29-1.5L184.17,1l-4.61,9.32-10.29,1.5,7.45,7.26L175,29.31l9.21-4.84,9.2,4.84-1.76-10.25ZM192.2,27.69l-8-4.22-8,4.22,1.53-8.94-6.49-6.33,9-1.31,4-8.13,4,8.13,9,1.31-6.5,6.33Z" fill="#d88727"/><polygon points="180.15 11.11 171.18 12.42 177.67 18.75 176.14 27.69 184.17 23.47 184.17 2.98 180.15 11.11" fill="#d88727"/><polygon points="180.15 11.11 171.18 12.42 177.67 18.75 176.14 27.69 184.17 23.47 184.17 2.98 180.15 11.11" fill="url(#linear-gradient-5)"/></svg>