<?xml version="1.0" encoding="UTF-8"?><svg id="a" xmlns="http://www.w3.org/2000/svg" width="20" height="13" viewBox="0 0 20 13"><rect x="1.5" y="-1.49" width="7" height="10" transform="translate(1.5 8.51) rotate(-90)" fill="#143c7f"/><rect x="10" width="10" height="1" fill="#d10a2c"/><rect x="10" y="1" width="10" height="1" fill="#fff"/><rect x="10" y="2" width="10" height="1" fill="#d10a2c"/><rect x="10" y="3" width="10" height="1" fill="#fff"/><rect x="10" y="4" width="10" height="1" fill="#d10a2c"/><rect x="10" y="5" width="10" height="1" fill="#fff"/><rect x="10" y="6" width="10" height="1" fill="#d10a2c"/><rect y="8" width="20" height="1" fill="#d10a2c"/><rect y="9" width="20" height="1" fill="#fff"/><rect y="7" width="20" height="1" fill="#fff"/><rect y="10" width="20" height="1" fill="#d10a2c"/><rect y="11" width="20" height="1" fill="#fff"/><rect y="12" width="20" height="1" fill="#d10a2c"/><g><g><polygon points="1.07 .41 1.15 .65 1.4 .65 1.2 .8 1.28 1.04 1.07 .89 .86 1.04 .94 .8 .74 .65 .99 .65 1.07 .41" fill="#fff"/><polygon points="2.64 .41 2.72 .65 2.98 .65 2.77 .8 2.85 1.04 2.64 .89 2.44 1.04 2.52 .8 2.31 .65 2.56 .65 2.64 .41" fill="#fff"/><polygon points="4.22 .41 4.29 .65 4.55 .65 4.34 .8 4.42 1.04 4.22 .89 4.01 1.04 4.09 .8 3.88 .65 4.14 .65 4.22 .41" fill="#fff"/><polygon points="5.79 .41 5.87 .65 6.12 .65 5.92 .8 6 1.04 5.79 .89 5.58 1.04 5.66 .8 5.46 .65 5.71 .65 5.79 .41" fill="#fff"/><polygon points="7.36 .41 7.44 .65 7.7 .65 7.49 .8 7.57 1.04 7.36 .89 7.16 1.04 7.24 .8 7.03 .65 7.28 .65 7.36 .41" fill="#fff"/><polygon points="8.94 .41 9.01 .65 9.27 .65 9.06 .8 9.14 1.04 8.94 .89 8.73 1.04 8.81 .8 8.6 .65 8.86 .65 8.94 .41" fill="#fff"/></g><g><polygon points="1.9 1.09 1.97 1.33 2.23 1.33 2.02 1.48 2.1 1.72 1.9 1.57 1.69 1.72 1.77 1.48 1.56 1.33 1.82 1.33 1.9 1.09" fill="#fff"/><polygon points="3.47 1.09 3.55 1.33 3.8 1.33 3.6 1.48 3.68 1.72 3.47 1.57 3.26 1.72 3.34 1.48 3.14 1.33 3.39 1.33 3.47 1.09" fill="#fff"/><polygon points="5.04 1.09 5.12 1.33 5.38 1.33 5.17 1.48 5.25 1.72 5.04 1.57 4.84 1.72 4.92 1.48 4.71 1.33 4.96 1.33 5.04 1.09" fill="#fff"/><polygon points="6.62 1.09 6.69 1.33 6.95 1.33 6.74 1.48 6.82 1.72 6.62 1.57 6.41 1.72 6.49 1.48 6.28 1.33 6.54 1.33 6.62 1.09" fill="#fff"/><polygon points="8.19 1.09 8.27 1.33 8.52 1.33 8.32 1.48 8.4 1.72 8.19 1.57 7.98 1.72 8.06 1.48 7.86 1.33 8.11 1.33 8.19 1.09" fill="#fff"/></g><g><polygon points="1.07 1.75 1.15 1.99 1.4 1.99 1.2 2.14 1.28 2.39 1.07 2.24 .86 2.39 .94 2.14 .74 1.99 .99 1.99 1.07 1.75" fill="#fff"/><polygon points="2.64 1.75 2.72 1.99 2.98 1.99 2.77 2.14 2.85 2.39 2.64 2.24 2.44 2.39 2.52 2.14 2.31 1.99 2.56 1.99 2.64 1.75" fill="#fff"/><polygon points="4.22 1.75 4.29 1.99 4.55 1.99 4.34 2.14 4.42 2.39 4.22 2.24 4.01 2.39 4.09 2.14 3.88 1.99 4.14 1.99 4.22 1.75" fill="#fff"/><polygon points="5.79 1.75 5.87 1.99 6.12 1.99 5.92 2.14 6 2.39 5.79 2.24 5.58 2.39 5.66 2.14 5.46 1.99 5.71 1.99 5.79 1.75" fill="#fff"/><polygon points="7.36 1.75 7.44 1.99 7.7 1.99 7.49 2.14 7.57 2.39 7.36 2.24 7.16 2.39 7.24 2.14 7.03 1.99 7.28 1.99 7.36 1.75" fill="#fff"/><polygon points="8.94 1.75 9.01 1.99 9.27 1.99 9.06 2.14 9.14 2.39 8.94 2.24 8.73 2.39 8.81 2.14 8.6 1.99 8.86 1.99 8.94 1.75" fill="#fff"/></g><g><polygon points="1.9 2.43 1.97 2.67 2.23 2.67 2.02 2.82 2.1 3.07 1.9 2.92 1.69 3.07 1.77 2.82 1.56 2.67 1.82 2.67 1.9 2.43" fill="#fff"/><polygon points="3.47 2.43 3.55 2.67 3.8 2.67 3.6 2.82 3.68 3.07 3.47 2.92 3.26 3.07 3.34 2.82 3.14 2.67 3.39 2.67 3.47 2.43" fill="#fff"/><polygon points="5.04 2.43 5.12 2.67 5.38 2.67 5.17 2.82 5.25 3.07 5.04 2.92 4.84 3.07 4.92 2.82 4.71 2.67 4.96 2.67 5.04 2.43" fill="#fff"/><polygon points="6.62 2.43 6.69 2.67 6.95 2.67 6.74 2.82 6.82 3.07 6.62 2.92 6.41 3.07 6.49 2.82 6.28 2.67 6.54 2.67 6.62 2.43" fill="#fff"/><polygon points="8.19 2.43 8.27 2.67 8.52 2.67 8.32 2.82 8.4 3.07 8.19 2.92 7.98 3.07 8.06 2.82 7.86 2.67 8.11 2.67 8.19 2.43" fill="#fff"/></g><g><polygon points="1.07 3.1 1.15 3.34 1.4 3.34 1.2 3.49 1.28 3.73 1.07 3.58 .86 3.73 .94 3.49 .74 3.34 .99 3.34 1.07 3.1" fill="#fff"/><polygon points="2.64 3.1 2.72 3.34 2.98 3.34 2.77 3.49 2.85 3.73 2.64 3.58 2.44 3.73 2.52 3.49 2.31 3.34 2.56 3.34 2.64 3.1" fill="#fff"/><polygon points="4.22 3.1 4.29 3.34 4.55 3.34 4.34 3.49 4.42 3.73 4.22 3.58 4.01 3.73 4.09 3.49 3.88 3.34 4.14 3.34 4.22 3.1" fill="#fff"/><polygon points="5.79 3.1 5.87 3.34 6.12 3.34 5.92 3.49 6 3.73 5.79 3.58 5.58 3.73 5.66 3.49 5.46 3.34 5.71 3.34 5.79 3.1" fill="#fff"/><polygon points="7.36 3.1 7.44 3.34 7.7 3.34 7.49 3.49 7.57 3.73 7.36 3.58 7.16 3.73 7.24 3.49 7.03 3.34 7.28 3.34 7.36 3.1" fill="#fff"/><polygon points="8.94 3.1 9.01 3.34 9.27 3.34 9.06 3.49 9.14 3.73 8.94 3.58 8.73 3.73 8.81 3.49 8.6 3.34 8.86 3.34 8.94 3.1" fill="#fff"/></g><g><polygon points="1.9 3.78 1.97 4.02 2.23 4.02 2.02 4.17 2.1 4.41 1.9 4.26 1.69 4.41 1.77 4.17 1.56 4.02 1.82 4.02 1.9 3.78" fill="#fff"/><polygon points="3.47 3.78 3.55 4.02 3.8 4.02 3.6 4.17 3.68 4.41 3.47 4.26 3.26 4.41 3.34 4.17 3.14 4.02 3.39 4.02 3.47 3.78" fill="#fff"/><polygon points="5.04 3.78 5.12 4.02 5.38 4.02 5.17 4.17 5.25 4.41 5.04 4.26 4.84 4.41 4.92 4.17 4.71 4.02 4.96 4.02 5.04 3.78" fill="#fff"/><polygon points="6.62 3.78 6.69 4.02 6.95 4.02 6.74 4.17 6.82 4.41 6.62 4.26 6.41 4.41 6.49 4.17 6.28 4.02 6.54 4.02 6.62 3.78" fill="#fff"/><polygon points="8.19 3.78 8.27 4.02 8.52 4.02 8.32 4.17 8.4 4.41 8.19 4.26 7.98 4.41 8.06 4.17 7.86 4.02 8.11 4.02 8.19 3.78" fill="#fff"/></g><g><polygon points="1.07 4.45 1.15 4.69 1.4 4.69 1.2 4.84 1.28 5.08 1.07 4.93 .86 5.08 .94 4.84 .74 4.69 .99 4.69 1.07 4.45" fill="#fff"/><polygon points="2.64 4.45 2.72 4.69 2.98 4.69 2.77 4.84 2.85 5.08 2.64 4.93 2.44 5.08 2.52 4.84 2.31 4.69 2.56 4.69 2.64 4.45" fill="#fff"/><polygon points="4.22 4.45 4.29 4.69 4.55 4.69 4.34 4.84 4.42 5.08 4.22 4.93 4.01 5.08 4.09 4.84 3.88 4.69 4.14 4.69 4.22 4.45" fill="#fff"/><polygon points="5.79 4.45 5.87 4.69 6.12 4.69 5.92 4.84 6 5.08 5.79 4.93 5.58 5.08 5.66 4.84 5.46 4.69 5.71 4.69 5.79 4.45" fill="#fff"/><polygon points="7.36 4.45 7.44 4.69 7.7 4.69 7.49 4.84 7.57 5.08 7.36 4.93 7.16 5.08 7.24 4.84 7.03 4.69 7.28 4.69 7.36 4.45" fill="#fff"/><polygon points="8.94 4.45 9.01 4.69 9.27 4.69 9.06 4.84 9.14 5.08 8.94 4.93 8.73 5.08 8.81 4.84 8.6 4.69 8.86 4.69 8.94 4.45" fill="#fff"/></g><g><polygon points="1.9 5.13 1.97 5.37 2.23 5.37 2.02 5.52 2.1 5.76 1.9 5.61 1.69 5.76 1.77 5.52 1.56 5.37 1.82 5.37 1.9 5.13" fill="#fff"/><polygon points="3.47 5.13 3.55 5.37 3.8 5.37 3.6 5.52 3.68 5.76 3.47 5.61 3.26 5.76 3.34 5.52 3.14 5.37 3.39 5.37 3.47 5.13" fill="#fff"/><polygon points="5.04 5.13 5.12 5.37 5.38 5.37 5.17 5.52 5.25 5.76 5.04 5.61 4.84 5.76 4.92 5.52 4.71 5.37 4.96 5.37 5.04 5.13" fill="#fff"/><polygon points="6.62 5.13 6.69 5.37 6.95 5.37 6.74 5.52 6.82 5.76 6.62 5.61 6.41 5.76 6.49 5.52 6.28 5.37 6.54 5.37 6.62 5.13" fill="#fff"/><polygon points="8.19 5.13 8.27 5.37 8.52 5.37 8.32 5.52 8.4 5.76 8.19 5.61 7.98 5.76 8.06 5.52 7.86 5.37 8.11 5.37 8.19 5.13" fill="#fff"/></g><g><polygon points="1.07 5.79 1.15 6.03 1.4 6.03 1.2 6.18 1.28 6.43 1.07 6.28 .86 6.43 .94 6.18 .74 6.03 .99 6.03 1.07 5.79" fill="#fff"/><polygon points="2.64 5.79 2.72 6.03 2.98 6.03 2.77 6.18 2.85 6.43 2.64 6.28 2.44 6.43 2.52 6.18 2.31 6.03 2.56 6.03 2.64 5.79" fill="#fff"/><polygon points="4.22 5.79 4.29 6.03 4.55 6.03 4.34 6.18 4.42 6.43 4.22 6.28 4.01 6.43 4.09 6.18 3.88 6.03 4.14 6.03 4.22 5.79" fill="#fff"/><polygon points="5.79 5.79 5.87 6.03 6.12 6.03 5.92 6.18 6 6.43 5.79 6.28 5.58 6.43 5.66 6.18 5.46 6.03 5.71 6.03 5.79 5.79" fill="#fff"/><polygon points="7.36 5.79 7.44 6.03 7.7 6.03 7.49 6.18 7.57 6.43 7.36 6.28 7.16 6.43 7.24 6.18 7.03 6.03 7.28 6.03 7.36 5.79" fill="#fff"/><polygon points="8.94 5.79 9.01 6.03 9.27 6.03 9.06 6.18 9.14 6.43 8.94 6.28 8.73 6.43 8.81 6.18 8.6 6.03 8.86 6.03 8.94 5.79" fill="#fff"/></g></g></svg>