<?xml version="1.0" encoding="UTF-8" standalone="no"?>
<svg xmlns:sketch="http://www.bohemiancoding.com/sketch/ns" xmlns="http://www.w3.org/2000/svg" height="49px" width="421px" version="1.1" xmlns:xlink="http://www.w3.org/1999/xlink" viewBox="0 0 421 49"><!-- Generator: Sketch 3.5.2 (25235) - http://www.bohemiancoding.com/sketch -->
 <title>footer-slogan</title>
 <desc>Created with Sketch.</desc>
 <g id="Page-1" fill-rule="evenodd" sketch:type="MSPage" fill="none">
  <g id="footer-slogan" sketch:type="MSLayerGroup">
   <path id="Fill-1" sketch:type="MSShapeGroup" fill="#8E8F8F" d="m7.5006 13.608v-4.2553h4.3724c1.566 0 2.351 0.7063 2.351 2.1163 0 0.657-0.193 1.18-0.575 1.563-0.385 0.384-0.977 0.576-1.776 0.576h-4.3724zm0-7.1696v-3.1031h4.1844c0.721 0 1.237 0.1316 1.551 0.3959 0.314 0.2653 0.471 0.6541 0.471 1.1674 0 0.451-0.138 0.8204-0.411 1.1081-0.275 0.2878-0.757 0.4317-1.446 0.4317h-4.3494zm4.3254-6.1592h-7.5458v16.455h7.4758c0.877 0 1.676-0.113 2.397-0.341 0.721-0.226 1.336-0.564 1.846-1.011 0.509-0.447 0.905-1.002 1.186-1.668 0.283-0.666 0.424-1.43 0.424-2.292 0-0.909-0.22-1.6612-0.658-2.2571-0.439-0.5949-0.987-1.0418-1.645-1.3398 0.548-0.3286 0.975-0.7684 1.28-1.3163 0.306-0.548 0.458-1.1755 0.458-1.8806 0-1.4102-0.47-2.4878-1.41-3.2327-0.941-0.74387-2.209-1.1163-3.808-1.1163v-0.00002z"/>
   <path id="Fill-3" sketch:type="MSShapeGroup" fill="#8E8F8F" d="m19.325 0.27878v16.455h11.753v-3.22h-8.486v-3.973h4.726v-3.2204h-4.726v-2.8214h8.134v-3.2204l-11.401-0.00002z"/>
   <path id="Fill-4" sketch:type="MSShapeGroup" fill="#8E8F8F" d="m38.46 0.020306c-1.082 0-2.068 0.20816-2.962 0.62347-0.893 0.41432-1.66 0.99492-2.303 1.7398-0.643 0.7438-1.144 1.6367-1.505 2.6796-0.361 1.0418-0.541 2.1898-0.541 3.4438 0 1.3011 0.173 2.472 0.517 3.514 0.345 1.042 0.835 1.932 1.47 2.669 0.634 0.736 1.39 1.304 2.269 1.704 0.877 0.399 1.857 0.599 2.938 0.599 1.504 0 2.754-0.325 3.749-0.976 0.996-0.65 1.775-1.563 2.34-2.739l-2.775-1.644c-0.439 0.736-0.897 1.269-1.374 1.598-0.479 0.329-1.094 0.493-1.846 0.493-0.612 0-1.16-0.132-1.646-0.4-0.486-0.266-0.897-0.634-1.234-1.104s-0.592-1.022-0.763-1.658c-0.174-0.6345-0.259-1.3192-0.259-2.056 0-0.7683 0.085-1.4693 0.259-2.104 0.171-0.6347 0.422-1.1837 0.751-1.646 0.329-0.4622 0.737-0.8224 1.222-1.0816 0.486-0.2582 1.036-0.3877 1.646-0.3877 0.753 0 1.368 0.1571 1.846 0.4704 0.477 0.3142 0.865 0.752 1.163 1.3163l3.056-1.4102c-0.267-0.5327-0.583-1.0225-0.952-1.4694s-0.799-0.8306-1.292-1.152c-0.494-0.32045-1.056-0.57147-1.682-0.75209-0.627-0.17959-1.324-0.2704-2.092-0.2704"/>
   <path id="Fill-6" sketch:type="MSShapeGroup" fill="#8E8F8F" d="m50.425 9.9409l1.057-2.9857c0.174-0.4857 0.334-0.9561 0.483-1.4102 0.149-0.4551 0.262-0.8388 0.341-1.152 0.078 0.3132 0.192 0.6969 0.342 1.152 0.148 0.4541 0.308 0.9245 0.48 1.4102l1.058 2.9857h-3.761zm3.55-9.6622h-3.197l-6.3 16.456h3.526l1.294-3.669h6.017l1.293 3.669h3.62l-6.253-16.456v-0.00033z"/>
   <path id="Fill-8" sketch:type="MSShapeGroup" fill="#8E8F8F" d="m73.439 0.27918h-3.268v9.2388c0 1.332-0.304 2.373-0.911 3.125-0.607 0.754-1.441 1.129-2.497 1.129-1.058 0-1.887-0.384-2.487-1.151-0.599-0.768-0.899-1.818-0.899-3.151v-9.1908l-3.267-0.00002v9.2388c0 1.206 0.16 2.271 0.482 3.197 0.32 0.924 0.771 1.704 1.352 2.339 0.579 0.634 1.28 1.116 2.103 1.446 0.823 0.328 1.728 0.493 2.716 0.493 2.099 0 3.737-0.654 4.913-1.963 1.175-1.308 1.763-3.162 1.763-5.56v-9.1908-0.00002z"/>
   <path id="Fill-10" sketch:type="MSShapeGroup" fill="#8E8F8F" d="m81.149 0.020306c-0.815 0-1.58 0.1102-2.292 0.32959-0.713 0.21939-1.336 0.53673-1.869 0.952-0.533 0.4153-0.952 0.9204-1.257 1.5164-0.307 0.5949-0.459 1.2694-0.459 2.0214 0 0.8153 0.125 1.4969 0.376 2.0449 0.251 0.549 0.603 1.0031 1.058 1.3633 0.454 0.3612 0.999 0.6581 1.634 0.8938 0.634 0.2347 1.327 0.4388 2.08 0.6113 0.768 0.1724 1.395 0.337 1.881 0.493 0.486 0.157 0.858 0.322 1.116 0.494 0.26 0.173 0.435 0.357 0.529 0.553 0.095 0.196 0.142 0.426 0.142 0.693 0 0.626-0.232 1.081-0.694 1.363-0.462 0.283-1.187 0.423-2.175 0.423-0.799 0-1.556-0.145-2.268-0.434-0.713-0.29-1.36-0.772-1.94-1.446l-2.374 2.115c0.626 0.926 1.505 1.654 2.633 2.187 1.128 0.532 2.382 0.799 3.762 0.799 1.127 0 2.095-0.125 2.903-0.376 0.807-0.25 1.476-0.606 2.01-1.067 0.532-0.461 0.924-1.013 1.175-1.654 0.25-0.642 0.376-1.354 0.376-2.137 0-0.891-0.164-1.626-0.494-2.205-0.33-0.5786-0.756-1.0561-1.282-1.4317-0.524-0.3755-1.112-0.6683-1.762-0.8806-0.651-0.2102-1.305-0.3949-1.963-0.551s-1.199-0.2969-1.622-0.4224c-0.423-0.1245-0.76-0.2582-1.011-0.399-0.25-0.1408-0.426-0.301-0.528-0.4806-0.102-0.1806-0.153-0.4031-0.153-0.6694 0-0.1878 0.038-0.3674 0.117-0.5388 0.078-0.1724 0.212-0.3296 0.4-0.4704s0.431-0.2541 0.729-0.3398c0.297-0.0867 0.665-0.1296 1.105-0.1296 0.751 0 1.429 0.1449 2.032 0.4347 0.603 0.2908 1.173 0.7102 1.704 1.2582l2.376-2.3082c-0.785-0.8214-1.658-1.4602-2.622-1.9184-0.964-0.4571-2.088-0.68669-3.373-0.68669"/>
   <path id="Fill-13" sketch:type="MSShapeGroup" fill="#8E8F8F" d="m89.329 0.27878v16.455h11.751v-3.22h-8.483v-3.973h4.724v-3.2204h-4.724v-2.8214h8.133v-3.2204l-11.401-0.00002z"/>
   <path id="Fill-14" sketch:type="MSShapeGroup" fill="#8E8F8F" d="m104.3 13.255c-0.25 0-0.49 0.051-0.71 0.153-0.23 0.102-0.43 0.239-0.59 0.411-0.17 0.173-0.3 0.373-0.4 0.599-0.1 0.228-0.15 0.467-0.15 0.718 0 0.502 0.18 0.937 0.55 1.304 0.37 0.368 0.8 0.553 1.3 0.553s0.94-0.185 1.31-0.553c0.37-0.367 0.55-0.802 0.55-1.304 0-0.251-0.05-0.49-0.15-0.718-0.1-0.226-0.24-0.426-0.4-0.599-0.17-0.172-0.36-0.309-0.59-0.411s-0.47-0.153-0.72-0.153"/>
   <path id="Fill-16" sketch:type="MSShapeGroup" fill="#8E8F8F" d="m109.1 13.255c-0.25 0-0.49 0.051-0.72 0.153s-0.42 0.239-0.59 0.411c-0.16 0.173-0.29 0.373-0.4 0.599-0.1 0.228-0.15 0.467-0.15 0.718 0 0.502 0.19 0.937 0.55 1.304 0.37 0.368 0.81 0.553 1.31 0.553s0.94-0.185 1.3-0.553c0.37-0.367 0.56-0.802 0.56-1.304 0-0.251-0.06-0.49-0.16-0.718-0.1-0.226-0.23-0.426-0.4-0.599-0.16-0.172-0.36-0.309-0.58-0.411-0.23-0.102-0.47-0.153-0.72-0.153"/>
   <path id="Fill-18" sketch:type="MSShapeGroup" fill="#8E8F8F" d="m113.89 13.255c-0.25 0-0.49 0.051-0.71 0.153-0.23 0.102-0.43 0.239-0.59 0.411-0.16 0.173-0.3 0.373-0.4 0.599-0.1 0.228-0.15 0.467-0.15 0.718 0 0.502 0.18 0.937 0.55 1.304 0.37 0.368 0.8 0.553 1.3 0.553 0.51 0 0.94-0.185 1.31-0.553 0.37-0.367 0.55-0.802 0.55-1.304 0-0.251-0.05-0.49-0.15-0.718-0.1-0.226-0.24-0.426-0.4-0.599-0.17-0.172-0.36-0.309-0.59-0.411s-0.47-0.153-0.72-0.153"/>
   <path id="Fill-37" sketch:type="MSShapeGroup" fill="#000" d="m8.5667 32.464h-8.4847l3.9725-13.162h5.0918l-0.5796 13.162z"/>
   <path id="Fill-38" sketch:type="MSShapeGroup" fill="#000" d="m36.134 35.9c0 4.167-1.104 7.347-3.312 9.541-2.207 2.193-5.422 3.29-9.644 3.29-1.987 0-3.802-0.33-5.443-0.993-1.643-0.663-3.05-1.635-4.222-2.918-1.174-1.284-2.084-2.849-2.732-4.698-0.649-1.849-0.9736-3.96-0.9736-6.334 0-2.152 0.2896-4.139 0.8696-5.96 0.579-1.821 1.442-3.394 2.588-4.719 1.144-1.325 2.552-2.365 4.221-3.125 1.669-0.759 3.608-1.138 5.816-1.138 1.822 0 3.38 0.165 4.678 0.497 1.296 0.33 2.406 0.834 3.332 1.511 0.924 0.675 1.71 1.524 2.359 2.545 0.648 1.021 1.234 2.208 1.759 3.56l-7.286 2.856c-0.468-1.242-1.055-2.214-1.758-2.918-0.704-0.704-1.746-1.055-3.125-1.055-0.939 0-1.732 0.2-2.38 0.6-0.649 0.4-1.166 0.952-1.553 1.655-0.386 0.704-0.67 1.538-0.848 2.505-0.18 0.966-0.269 2.027-0.269 3.186 0 2.898 0.462 4.982 1.386 6.25 0.925 1.271 2.325 1.905 4.201 1.905 0.855 0 1.574-0.089 2.153-0.269 0.58-0.179 1.056-0.435 1.428-0.766s0.655-0.71 0.849-1.138c0.193-0.427 0.331-0.89 0.414-1.387h-5.257v-6.002h12.749v3.519z"/>
   <path id="Fill-40" sketch:type="MSShapeGroup" fill="#000" d="m63.577 33.747c0 2.401-0.331 4.533-0.993 6.395-0.662 1.863-1.587 3.43-2.773 4.698-1.188 1.269-2.608 2.236-4.264 2.898-1.655 0.662-3.464 0.993-5.422 0.993-1.96 0-3.761-0.325-5.403-0.973-1.642-0.647-3.056-1.6-4.242-2.856-1.187-1.255-2.105-2.814-2.753-4.677-0.649-1.862-0.972-3.994-0.972-6.395 0-2.4 0.331-4.533 0.993-6.395 0.662-1.863 1.586-3.429 2.773-4.698s2.608-2.236 4.263-2.898c1.657-0.662 3.464-0.993 5.423-0.993 1.96 0 3.76 0.325 5.402 0.973s3.049 1.6 4.222 2.856 2.091 2.814 2.753 4.676c0.662 1.864 0.993 3.995 0.993 6.396m-8.32 0.083c0-2.622-0.448-4.608-1.345-5.96-0.898-1.352-2.16-2.029-3.787-2.029-1.629 0-2.877 0.662-3.746 1.987-0.87 1.324-1.305 3.298-1.305 5.919 0 2.623 0.448 4.609 1.346 5.96 0.896 1.354 2.159 2.029 3.787 2.029s2.876-0.662 3.747-1.987c0.869-1.324 1.303-3.298 1.303-5.919"/>
   <path id="Fill-42" sketch:type="MSShapeGroup" fill="#000" d="m90.896 33.747c0 2.401-0.331 4.533-0.992 6.395-0.663 1.863-1.588 3.43-2.774 4.698-1.188 1.269-2.608 2.236-4.264 2.898-1.655 0.662-3.463 0.993-5.422 0.993-1.96 0-3.761-0.325-5.403-0.973-1.642-0.647-3.056-1.6-4.242-2.856-1.187-1.255-2.105-2.814-2.753-4.677-0.649-1.862-0.972-3.994-0.972-6.395 0-2.4 0.332-4.533 0.993-6.395 0.662-1.863 1.587-3.429 2.773-4.698 1.187-1.269 2.608-2.236 4.264-2.898s3.463-0.993 5.422-0.993c1.96 0 3.76 0.325 5.402 0.973s3.049 1.6 4.223 2.856c1.172 1.256 2.09 2.814 2.753 4.676 0.661 1.864 0.992 3.995 0.992 6.396m-8.32 0.083c0-2.622-0.448-4.608-1.345-5.96s-2.16-2.029-3.787-2.029c-1.629 0-2.877 0.662-3.746 1.987-0.87 1.324-1.305 3.298-1.305 5.919 0 2.623 0.448 4.609 1.346 5.96 0.896 1.354 2.159 2.029 3.787 2.029 1.629 0 2.877-0.662 3.747-1.987 0.869-1.324 1.303-3.298 1.303-5.919"/>
   <path id="Fill-44" sketch:type="MSShapeGroup" fill="#000" d="m116.89 33.623c0 2.731-0.33 5.029-0.99 6.892s-1.66 3.367-2.98 4.512c-1.33 1.145-2.96 1.973-4.91 2.484-1.94 0.51-4.2 0.765-6.76 0.765h-9.402v-28.975h10.142c2.26 0 4.32 0.235 6.17 0.703 1.85 0.47 3.41 1.264 4.7 2.381 1.28 1.117 2.27 2.587 2.98 4.408 0.7 1.822 1.05 4.098 1.05 6.83m-8.24 0.124c0-1.324-0.11-2.469-0.35-3.435-0.23-0.966-0.61-1.752-1.14-2.36-0.52-0.607-1.21-1.056-2.07-1.345-0.85-0.29-1.9-0.435-3.14-0.435h-1.989v15.232h1.739c1.24 0 2.3-0.13 3.19-0.392 0.88-0.263 1.6-0.69 2.17-1.283 0.57-0.594 0.97-1.381 1.22-2.36s0.37-2.187 0.37-3.622"/>
   <path id="Fill-47" sketch:type="MSShapeGroup" fill="#000" d="m129.35 19.301v28.975h22.48v-6.747h-14.53v-4.967h8.57v-6.622h-8.57v-3.892h14.24v-6.747h-22.19z"/>
   <path id="Fill-48" sketch:type="MSShapeGroup" fill="#000" d="m172.4 48.276l-6.92-9.561c-0.33-0.442-0.71-0.987-1.15-1.636-0.45-0.648-0.88-1.297-1.31-1.945-0.43-0.649-0.83-1.263-1.2-1.843-0.37-0.579-0.65-1.034-0.85-1.365 0.06 0.331 0.1 0.794 0.13 1.387 0.02 0.593 0.05 1.242 0.08 1.945 0.03 0.704 0.04 1.428 0.04 2.173v1.987 8.858h-7.7v-28.974h7.08l6.38 8.567c0.33 0.442 0.72 0.994 1.17 1.656 0.46 0.662 0.91 1.324 1.35 1.987 0.44 0.662 0.84 1.283 1.2 1.863 0.36 0.579 0.62 1.02 0.79 1.324-0.06-0.331-0.1-0.793-0.13-1.386s-0.05-1.242-0.08-1.946c-0.03-0.703-0.04-1.428-0.04-2.173v-1.987-7.905h7.7v28.974h-6.54z"/>
   <path id="Fill-50" sketch:type="MSShapeGroup" fill="#000" d="m207.13 33.747c0 2.401-0.34 4.533-1 6.395-0.66 1.863-1.58 3.43-2.77 4.698-1.19 1.269-2.61 2.236-4.26 2.898-1.66 0.662-3.47 0.993-5.43 0.993s-3.76-0.325-5.4-0.973c-1.64-0.647-3.05-1.6-4.24-2.856-1.19-1.255-2.11-2.814-2.75-4.677-0.65-1.862-0.98-3.994-0.98-6.395 0-2.4 0.34-4.533 1-6.395 0.66-1.863 1.58-3.429 2.77-4.698s2.61-2.236 4.26-2.898c1.66-0.662 3.47-0.993 5.43-0.993s3.76 0.325 5.4 0.973 3.05 1.6 4.22 2.856 2.09 2.814 2.75 4.676c0.66 1.864 1 3.995 1 6.396m-8.32 0.083c0-2.622-0.45-4.608-1.35-5.96s-2.16-2.029-3.79-2.029-2.87 0.662-3.74 1.987c-0.87 1.324-1.31 3.298-1.31 5.919 0 2.623 0.45 4.609 1.35 5.96 0.9 1.354 2.16 2.029 3.79 2.029 1.62 0 2.87-0.662 3.74-1.987 0.87-1.324 1.31-3.298 1.31-5.919"/>
   <path id="Fill-52" sketch:type="MSShapeGroup" fill="#000" d="m233.53 35.9c0 2.291-0.32 4.25-0.97 5.877-0.65 1.629-1.54 2.959-2.69 3.995-1.14 1.035-2.5 1.787-4.05 2.256-1.56 0.469-3.25 0.703-5.08 0.703-1.82 0-3.5-0.234-5.05-0.703-1.54-0.469-2.87-1.221-3.99-2.256-1.12-1.036-1.99-2.366-2.63-3.995-0.63-1.627-0.95-3.586-0.95-5.877v-16.598h8.2v16.598c0 1.794 0.36 3.201 1.09 4.222s1.89 1.532 3.46 1.532 2.71-0.511 3.41-1.532c0.71-1.021 1.06-2.428 1.06-4.222v-16.598h8.19v16.598z"/>
   <path id="Fill-54" sketch:type="MSShapeGroup" fill="#000" d="m260.9 35.9c0 4.167-1.11 7.347-3.32 9.541-2.2 2.193-5.42 3.29-9.64 3.29-1.99 0-3.8-0.33-5.44-0.993-1.65-0.663-3.05-1.635-4.23-2.918-1.17-1.284-2.08-2.849-2.73-4.698s-0.97-3.96-0.97-6.334c0-2.152 0.29-4.139 0.87-5.96s1.44-3.394 2.59-4.719c1.14-1.325 2.55-2.365 4.22-3.125 1.67-0.759 3.6-1.138 5.81-1.138 1.82 0 3.38 0.165 4.68 0.497 1.3 0.33 2.41 0.834 3.33 1.511 0.93 0.675 1.71 1.524 2.36 2.545s1.24 2.208 1.76 3.56l-7.28 2.856c-0.47-1.242-1.06-2.214-1.76-2.918-0.71-0.704-1.75-1.055-3.13-1.055-0.94 0-1.73 0.2-2.38 0.6s-1.16 0.952-1.55 1.655c-0.39 0.704-0.67 1.538-0.85 2.505-0.18 0.966-0.27 2.027-0.27 3.186 0 2.898 0.46 4.982 1.39 6.25 0.92 1.271 2.32 1.905 4.2 1.905 0.85 0 1.57-0.089 2.15-0.269 0.58-0.179 1.06-0.435 1.43-0.766s0.66-0.71 0.85-1.138c0.19-0.427 0.33-0.89 0.41-1.387h-5.25v-6.002h12.75v3.519z"/>
   <path id="Fill-57" sketch:type="MSShapeGroup" fill="#000" d="m279.56 19.301v10.556h-9.02v-10.556h-8.2v28.975h8.2v-11.424h9.02v11.424h8.2v-28.975h-8.2z"/>
   <path id="Fill-58" sketch:type="MSShapeGroup" fill="#000" d="m294.96 32.464h-5.09l0.58-13.162h8.48l-3.97 13.162z"/>
   <path id="Fill-59" sketch:type="MSShapeGroup" fill="#221F20" d="m309.98 48.276h8.2v-28.975h-8.2v28.975z"/>
   <path id="Fill-60" sketch:type="MSShapeGroup" fill="#221F20" d="m344.46 39.377c0 1.656-0.29 3.077-0.88 4.263-0.6 1.187-1.43 2.153-2.49 2.898s-2.32 1.297-3.79 1.655c-1.46 0.359-3.06 0.539-4.8 0.539-2.34 0-4.58-0.339-6.72-1.015-2.14-0.675-3.97-1.511-5.49-2.504l3.89-6.292c0.53 0.36 1.14 0.711 1.85 1.056 0.7 0.345 1.43 0.656 2.19 0.931 0.76 0.277 1.52 0.497 2.3 0.662 0.77 0.166 1.49 0.248 2.15 0.248 1.43 0 2.42-0.137 2.96-0.413 0.54-0.275 0.8-0.759 0.8-1.449 0-0.275-0.07-0.523-0.22-0.745-0.16-0.22-0.42-0.434-0.79-0.642-0.37-0.207-0.88-0.413-1.51-0.62s-1.43-0.42-2.4-0.642c-1.74-0.414-3.26-0.855-4.55-1.324-1.3-0.47-2.38-1.055-3.23-1.76-0.86-0.704-1.5-1.553-1.93-2.545-0.43-0.994-0.64-2.221-0.64-3.684 0-1.352 0.27-2.594 0.81-3.726 0.54-1.131 1.3-2.097 2.29-2.898 1-0.8 2.2-1.42 3.61-1.862 1.4-0.441 2.98-0.662 4.72-0.662 2.48 0 4.64 0.29 6.47 0.869 1.84 0.58 3.53 1.407 5.07 2.484l-3.89 6.291c-1.29-0.883-2.59-1.558-3.89-2.028-1.3-0.469-2.69-0.704-4.18-0.704-1.21 0-2.01 0.166-2.4 0.497-0.39 0.332-0.58 0.759-0.58 1.283 0 0.276 0.08 0.518 0.23 0.724 0.15 0.207 0.41 0.401 0.76 0.58 0.36 0.179 0.85 0.359 1.45 0.539 0.61 0.179 1.38 0.379 2.32 0.6 1.82 0.441 3.4 0.924 4.72 1.449 1.33 0.524 2.41 1.144 3.27 1.862 0.85 0.718 1.49 1.572 1.9 2.566 0.42 0.994 0.62 2.166 0.62 3.519"/>
   <path id="Fill-62" sketch:type="MSShapeGroup" fill="#221F20" d="m365.74 48.276l-6.91-9.561c-0.33-0.442-0.72-0.987-1.16-1.636-0.44-0.648-0.88-1.297-1.31-1.945-0.42-0.649-0.82-1.263-1.2-1.843-0.37-0.579-0.65-1.034-0.85-1.365 0.06 0.331 0.1 0.794 0.13 1.387s0.05 1.242 0.08 1.945c0.03 0.704 0.04 1.428 0.04 2.173v1.987 8.858h-7.7v-28.974h7.08l6.38 8.567c0.33 0.442 0.72 0.994 1.18 1.656 0.45 0.662 0.9 1.324 1.34 1.987 0.44 0.662 0.84 1.283 1.2 1.863 0.36 0.579 0.62 1.02 0.79 1.324-0.06-0.331-0.1-0.793-0.12-1.386-0.03-0.593-0.06-1.242-0.09-1.946-0.03-0.703-0.04-1.428-0.04-2.173v-1.987-7.905h7.7v28.974h-6.54z"/>
   <path id="Fill-65" sketch:type="MSShapeGroup" fill="#221F20" d="m379.07 32.464h-5.09l0.58-13.162h8.48l-3.97 13.162z"/>
   <path id="Fill-66" sketch:type="MSShapeGroup" fill="#221F20" d="m384.41 19.301v6.995h8.11v21.98h8.03v-21.98h8.11v-6.995h-24.25z"/>
   <path id="Fill-67" sketch:type="MSShapeGroup" fill="#221F20" d="m415.04 43.971c0 1.381-0.45 2.518-1.35 3.415-0.89 0.896-2.03 1.345-3.41 1.345s-2.52-0.449-3.42-1.345c-0.89-0.897-1.34-2.034-1.34-3.415 0-1.379 0.45-2.504 1.34-3.373 0.9-0.87 2.04-1.304 3.42-1.304s2.52 0.434 3.41 1.304c0.9 0.869 1.35 1.994 1.35 3.373"/>
   <path id="Fill-70" sketch:type="MSShapeGroup" fill="#221F20" d="m420.86 24.572v-5.223h-0.89l-1.16 2.703c-0.06 0.125-0.1 0.248-0.15 0.372-0.04 0.123-0.09 0.238-0.13 0.344-0.05-0.096-0.09-0.212-0.14-0.344s-0.1-0.257-0.14-0.372l-1.17-2.703h-0.89v5.223h0.85v-2.758-0.285c0-0.101 0-0.2-0.01-0.298 0.03 0.071 0.07 0.151 0.1 0.238 0.04 0.088 0.07 0.177 0.11 0.266l1.26 2.996 1.31-2.996c0.04-0.089 0.08-0.178 0.11-0.266 0.03-0.087 0.07-0.172 0.1-0.252v0.597 2.758h0.84zm-5.53-4.348v-0.875h-3.86v0.875h1.49v4.348h0.88v-4.348h1.49z"/>
  </g>
 </g>
</svg>
