<?xml version="1.0" encoding="utf-8"?>
<!-- Generator: Adobe Illustrator 16.2.1, SVG Export Plug-In . SVG Version: 6.00 Build 0)  -->
<!DOCTYPE svg PUBLIC "-//W3C//DTD SVG 1.1//EN" "http://www.w3.org/Graphics/SVG/1.1/DTD/svg11.dtd">
<svg version="1.1" id="Layer_1" xmlns="http://www.w3.org/2000/svg" xmlns:xlink="http://www.w3.org/1999/xlink" x="0px" y="0px"
	 width="31px" height="19.7px" viewBox="17.5 11.1 31 19.7" enable-background="new 17.5 11.1 31 19.7" xml:space="preserve">
<title>GooglePlus-black</title>
<desc>Created with Sketch.</desc>
<g id="Icons">
	<g id="Black" transform="translate(-391.000000, -163.000000)">
		<path id="GooglePlus" fill="#FFFFFF" d="M436.1,182.2v-3.4h-2.4v3.4h-3.5v2.4h3.5v3.5h2.4v-3.5h3.4v-2.4H436.1L436.1,182.2z
			 M418.3,182v3.9c0,0,3.8,0,5.3,0c-0.8,2.5-2.1,3.9-5.3,3.9c-3.2,0-5.8-2.6-5.8-5.9c0-3.2,2.5-5.9,5.8-5.9c1.7,0,2.8,0.6,3.8,1.4
			c0.8-0.8,0.7-0.9,2.8-2.9c-1.7-1.6-4.1-2.6-6.6-2.6c-5.4,0-9.8,4.4-9.8,9.9c0,5.4,4.4,9.9,9.8,9.9c8.1,0,10.1-7.1,9.5-11.8H418.3
			L418.3,182z"/>
	</g>
</g>
</svg>
