<svg xmlns="http://www.w3.org/2000/svg" width="50" height="50" viewBox="0 0 50 50"><g id="Background"><circle cx="25" cy="25" r="25" fill="#4d4d4f"/></g><g id="Art"><path d="M13.65,28.75V20.52a11.41,11.41,0,0,1,22.81,0v9.21a7.61,7.61,0,0,1-7.61,7.6" fill="none" stroke="#fff" stroke-linecap="round" stroke-linejoin="round" stroke-width="2"/><rect x="10.41" y="21.88" width="3.25" height="6.87" fill="none" stroke="#fff" stroke-linecap="round" stroke-linejoin="round" stroke-width="2"/><rect x="36.46" y="21.88" width="3.25" height="6.87" fill="none" stroke="#fff" stroke-linecap="round" stroke-linejoin="round" stroke-width="2"/><rect x="22.17" y="35.28" width="5.76" height="3.64" fill="none" stroke="#fff" stroke-linecap="round" stroke-linejoin="round" stroke-width="2"/><path d="M29.8,33.76a8.51,8.51,0,0,0,3.65-7V24.21A8.51,8.51,0,0,0,32.81,21a10.48,10.48,0,0,1-9.42-.34,10.67,10.67,0,0,1-3.56-3.23,8.49,8.49,0,0,0-3.42,6.81v2.55a8.51,8.51,0,0,0,3.7,7" fill="none" stroke="#fff" stroke-linecap="round" stroke-linejoin="round" stroke-width="2"/></g></svg>