<?xml version="1.0" encoding="UTF-8"?>
<svg width="23px" height="23px" enable-background="new 12.5 12.5 23 23" version="1.1" viewBox="12.5 12.5 23 23" xml:space="preserve" xmlns="http://www.w3.org/2000/svg">
	<g transform="translate(-500 -160)">
		<path d="m524 172.5c-3.1 0-3.5 0-4.7 0.1s-2.1 0.2-2.8 0.5c-0.8 0.3-1.4 0.7-2 1.3s-1 1.3-1.3 2-0.5 1.6-0.5 2.8c-0.1 1.2-0.1 1.6-0.1 4.7s0 3.5 0.1 4.7 0.2 2.1 0.5 2.8c0.3 0.8 0.7 1.4 1.3 2s1.3 1 2 1.3 1.6 0.5 2.8 0.5c1.2 0.1 1.6 0.1 4.7 0.1s3.5 0 4.7-0.1 2.1-0.2 2.8-0.5c0.8-0.3 1.4-0.7 2-1.3s1-1.3 1.3-2 0.5-1.6 0.5-2.8c0.1-1.2 0.1-1.6 0.1-4.7s0-3.5-0.1-4.7-0.2-2.1-0.5-2.8c-0.3-0.8-0.7-1.4-1.3-2s-1.3-1-2-1.3-1.6-0.5-2.8-0.5c-1.2-0.1-1.6-0.1-4.7-0.1zm0 2.1c3.1 0 3.4 0 4.6 0.1 1.1 0.1 1.7 0.2 2.1 0.4 0.5 0.2 0.9 0.5 1.3 0.9s0.7 0.8 0.9 1.3c0.2 0.4 0.3 1 0.4 2.1 0.1 1.2 0.1 1.6 0.1 4.6 0 3.1 0 3.4-0.1 4.6-0.1 1.1-0.2 1.7-0.4 2.1-0.2 0.5-0.5 0.9-0.9 1.3s-0.8 0.7-1.3 0.9c-0.4 0.2-1 0.3-2.1 0.4-1.2 0.1-1.6 0.1-4.6 0.1-3.1 0-3.4 0-4.6-0.1-1.1-0.1-1.7-0.2-2.1-0.4-0.5-0.2-0.9-0.5-1.3-0.9s-0.7-0.8-0.9-1.3c-0.2-0.4-0.3-1-0.4-2.1-0.1-1.2-0.1-1.6-0.1-4.6 0-3.1 0-3.4 0.1-4.6 0.1-1.1 0.2-1.7 0.4-2.1 0.2-0.5 0.5-0.9 0.9-1.3s0.8-0.7 1.3-0.9c0.4-0.2 1-0.3 2.1-0.4 1.2-0.1 1.5-0.1 4.6-0.1zm0 3.5c-3.3 0-5.9 2.6-5.9 5.9s2.6 5.9 5.9 5.9 5.9-2.6 5.9-5.9-2.6-5.9-5.9-5.9zm0 9.7c-2.1 0-3.8-1.7-3.8-3.8s1.7-3.8 3.8-3.8 3.8 1.7 3.8 3.8-1.7 3.8-3.8 3.8zm7.5-9.9c0 0.8-0.6 1.4-1.4 1.4s-1.4-0.6-1.4-1.4 0.6-1.4 1.4-1.4 1.4 0.6 1.4 1.4z" fill="#fff"/>
	</g>
</svg>
