<?xml version="1.0" encoding="UTF-8" standalone="no"?>
<svg xmlns="http://www.w3.org/2000/svg" height="179px" width="700px" version="1.1" xmlns:xlink="http://www.w3.org/1999/xlink" viewBox="0 0 700 179"><!-- Generator: Sketch 41 (35326) - http://www.bohemiancoding.com/sketch -->
 <title>Text</title>
 <desc>Created with Sketch.</desc>
 <g id="Page-1" fill-rule="evenodd" fill="none">
  <g id="Text" fill="#fff" transform="translate(-1)">
   <path id="TO_SWEAT_" d="m87.518 100.66v-24.175h-83.841v24.175h28.042v75.98h27.756v-75.98h28.043zm61.452 46.5c-2.77 4.46-7.71 7.08-12.95 6.87-5.31 0.18-10.3-2.5-13.09-7.01-3.1-4.67-4.65-11.54-4.65-20.6s1.5-15.88 4.5-20.46c2.77-4.45 7.72-7.073 12.95-6.865 5.31-0.173 10.3 2.505 13.09 7.015 3.1 4.67 4.65 11.54 4.65 20.6 0.01 9.06-1.5 15.87-4.5 20.45zm29.83-42.84c-2.02-5.992-5.26-11.497-9.52-16.172-4.06-4.344-9.05-7.718-14.59-9.872-12.07-4.507-25.36-4.482-37.41 0.071-5.6 2.203-10.63 5.624-14.74 10.016-4.283 4.692-7.547 10.221-9.586 16.237-2.397 7.12-3.559 14.59-3.434 22.1-0.124 7.51 1.012 14.98 3.363 22.11 1.984 6 5.227 11.51 9.517 16.16 4.09 4.34 9.1 7.71 14.66 9.87 12.07 4.51 25.36 4.49 37.42-0.07 5.59-2.2 10.62-5.62 14.73-10.01 4.28-4.69 7.55-10.22 9.59-16.24 2.4-7.12 3.56-14.59 3.43-22.1 0.13-7.51-1.03-14.99-3.43-22.11v0.01zm124.32 29.4c-1.44-3.45-3.7-6.5-6.58-8.88-3.4-2.73-7.21-4.9-11.3-6.43-5.31-2.04-10.76-3.72-16.31-5.01-3.24-0.76-5.91-1.46-8.01-2.08-1.72-0.47-3.39-1.09-5.01-1.86-1.02-0.45-1.93-1.13-2.64-2-0.53-0.72-0.81-1.6-0.79-2.5-0.05-1.7 0.69-3.34 2-4.43 1.33-1.146 4.1-1.719 8.3-1.718 4.92-0.039 9.81 0.785 14.45 2.428 4.76 1.77 9.28 4.13 13.45 7.02l13.45-21.752c-5.37-3.735-11.28-6.63-17.53-8.585-7.27-2.13-14.82-3.142-22.39-3-5.52-0.069-11.02 0.703-16.31 2.289-4.52 1.342-8.74 3.521-12.45 6.425-3.37 2.691-6.09 6.116-7.94 10.015-1.88 4.028-2.84 8.428-2.79 12.878-0.13 4.35 0.63 8.68 2.22 12.73 1.47 3.43 3.75 6.45 6.65 8.8 3.35 2.65 7.12 4.71 11.16 6.08 5.16 1.82 10.41 3.35 15.74 4.58 3.34 0.77 6.1 1.51 8.3 2.22 1.8 0.55 3.55 1.27 5.22 2.14 1.06 0.53 1.99 1.29 2.72 2.22 0.52 0.76 0.8 1.66 0.79 2.58 0.17 2.08-0.93 4.06-2.79 5-1.86 0.96-5.27 1.44-10.23 1.44-2.51-0.03-5-0.32-7.44-0.86-2.7-0.58-5.35-1.35-7.94-2.29s-5.12-2.01-7.58-3.22c-2.21-1.06-4.34-2.28-6.37-3.65l-13.45 21.75c12.65 7.92 27.28 12.13 42.2 12.16 5.59 0.05 11.17-0.58 16.6-1.86 4.69-1.08 9.12-3.02 13.09-5.72 3.66-2.56 6.61-6.01 8.59-10.02 2.16-4.6 3.21-9.65 3.07-14.73 0.1-4.16-0.63-8.29-2.15-12.16zm126.48-57.235h-28.33l-2.72 16.74c-0.57 3.533-1.17 7.225-1.79 11.085s-1.19 7.7-1.71 11.52c-0.53 3.82-1.01 7.51-1.43 11.09-0.43 3.57-0.79 6.84-1.08 9.8-0.28-2.96-0.69-6.2-1.21-9.73-0.53-3.53-1.15-7.18-1.86-10.95-0.72-3.76-1.46-7.58-2.22-11.44s-1.48-7.609-2.15-11.232l-3.43-16.883h-25.47l-3.43 16.883c-0.76 3.626-1.5 7.372-2.22 11.232-0.71 3.86-1.43 7.68-2.14 11.44-0.72 3.77-1.34 7.42-1.86 10.95-0.53 3.53-0.93 6.77-1.22 9.73-0.29-2.96-0.64-6.22-1.07-9.8s-0.91-7.28-1.43-11.09c-0.53-3.81-1.1-7.65-1.72-11.52-0.62-3.86-1.22-7.558-1.79-11.085l-2.72-16.74h-28.61l23.89 100.16h25.32l4.58-21.75c0.86-3.81 1.67-7.79 2.44-11.95 0.76-4.15 1.45-8.11 2.07-11.87 0.62-3.77 1.12-7.2 1.5-10.3s0.67-5.56 0.86-7.37c0.09 1.81 0.36 4.27 0.79 7.37s0.95 6.53 1.57 10.3 1.31 7.73 2.07 11.87c0.77 4.15 1.58 8.13 2.44 11.95l4.58 21.75h25.61l23.89-100.16zm83.27 100.16v-23.32h-50.22v-17.17h29.61v-22.89h-29.61v-13.454h49.22v-23.321h-76.69v100.16h77.69zm60.23-39.63h-16.6l1.86-6.59c0.86-3.14 1.62-5.91 2.29-8.3 0.67-2.38 1.26-4.52 1.79-6.43s0.98-3.67 1.36-5.3c0.38-1.62 0.71-3.29 1-5.01 0.29 1.72 0.62 3.37 1 4.94 0.38 1.58 0.84 3.32 1.36 5.22 0.52 1.91 1.12 4.06 1.79 6.44s1.43 5.2 2.29 8.44l1.86 6.59zm42.2 39.63l-36.34-100.15-28.04-0.004-36.34 100.15h29.76l5.44-17.6h30.04l5.44 17.6h30.04zm83.99-75.97v-24.184h-83.84v24.184h28.04v75.97h27.75v-75.98h28.05v0.01z"/>
   <path id="_TIS_THE_SEASON" d="m20.284 1.959h-18.063l-1.234 28.02h10.838l8.459-28.02zm52.779 14.891v-14.891h-51.634v14.891h17.27v46.787h17.094v-46.787h17.27zm21.675 46.787v-61.678h-17.446v61.678h17.446zm54.542-26.434c-0.89-2.123-2.28-3.998-4.05-5.463-2.1-1.684-4.45-3.023-6.97-3.965-3.27-1.256-6.63-2.286-10.04-3.084-2-0.467-3.64-0.893-4.93-1.278-1.06-0.293-2.09-0.676-3.09-1.145-0.63-0.279-1.19-0.701-1.63-1.234-0.32-0.447-0.49-0.989-0.48-1.542-0.03-1.051 0.42-2.058 1.23-2.731 0.82-0.705 2.53-1.057 5.11-1.057 3.03-0.023 6.04 0.485 8.9 1.5 2.93 1.088 5.71 2.538 8.28 4.318l8.29-13.393c-3.31-2.3017-6.95-4.0861-10.8-5.292-4.47-1.3128-9.12-1.9366-13.79-1.85-3.4-0.04258-6.78 0.4329-10.04 1.41-2.78 0.8287-5.38 2.1738-7.67 3.965-2.08 1.6594-3.75 3.771-4.89 6.175-1.16 2.481-1.75 5.191-1.72 7.93-0.08 2.679 0.39 5.347 1.37 7.842 0.91 2.111 2.31 3.971 4.1 5.419 2.06 1.631 4.38 2.898 6.87 3.745 3.18 1.121 6.41 2.062 9.69 2.82 2.06 0.471 3.76 0.926 5.12 1.366 1.11 0.34 2.18 0.783 3.21 1.322 0.65 0.321 1.22 0.785 1.67 1.356 0.32 0.466 0.49 1.02 0.49 1.586 0.1 1.281-0.58 2.5-1.72 3.084-1.15 0.588-3.25 0.882-6.3 0.881-1.54-0.015-3.08-0.192-4.58-0.529-1.66-0.357-3.3-0.828-4.89-1.41-1.59-0.576-3.15-1.238-4.67-1.983-1.36-0.654-2.67-1.405-3.92-2.247l-8.287 13.398c7.797 4.878 16.797 7.473 25.997 7.49 3.44 0.029 6.87-0.355 10.22-1.145 2.88-0.662 5.62-1.858 8.06-3.525 2.25-1.578 4.07-3.699 5.29-6.168 1.33-2.836 1.98-5.944 1.89-9.076 0.06-2.559-0.39-5.104-1.32-7.489v-0.001zm77.89-20.354v-14.89h-51.64v14.891h17.27v46.787h17.1v-46.787h17.27v-0.001zm57.89 46.788v-61.678h-17.45v22.468h-19.21v-22.468h-17.44v61.678h17.44v-24.319h19.21v24.319h17.45zm54.19 0v-14.362h-30.93v-10.573h18.24v-14.1h-18.24v-8.281h30.31v-14.362h-47.23v61.678h47.85zm75.42-26.434c-0.89-2.125-2.28-4.001-4.06-5.466-2.09-1.684-4.44-3.023-6.96-3.965-3.27-1.254-6.62-2.284-10.04-3.08-2-0.467-3.64-0.893-4.93-1.278-1.06-0.293-2.09-0.676-3.09-1.145-0.63-0.278-1.19-0.7-1.63-1.232-0.32-0.447-0.49-0.989-0.48-1.542-0.03-1.051 0.42-2.058 1.23-2.731 0.82-0.705 2.53-1.057 5.11-1.057 3.03-0.023 6.05 0.485 8.9 1.5 2.93 1.088 5.72 2.538 8.28 4.318l8.29-13.393c-3.31-2.3031-6.95-4.0886-10.8-5.295-4.47-1.3127-9.12-1.9366-13.79-1.85-3.4-0.04258-6.78 0.4329-10.04 1.41-2.78 0.8287-5.38 2.1738-7.67 3.965-2.08 1.658-3.75 3.767-4.89 6.168-1.16 2.481-1.75 5.191-1.72 7.93-0.08 2.679 0.39 5.347 1.37 7.842 0.91 2.112 2.31 3.971 4.1 5.419 2.06 1.631 4.39 2.898 6.87 3.745 3.18 1.121 6.41 2.062 9.7 2.82 2.05 0.471 3.75 0.926 5.11 1.366 1.11 0.341 2.18 0.783 3.21 1.322 0.65 0.324 1.22 0.79 1.67 1.363 0.32 0.466 0.49 1.02 0.49 1.586 0.1 1.282-0.58 2.5-1.72 3.084-1.15 0.588-3.25 0.882-6.3 0.881-1.54-0.015-3.08-0.192-4.58-0.529-1.66-0.357-3.3-0.828-4.89-1.41-1.6-0.576-3.15-1.238-4.67-1.983-1.36-0.652-2.68-1.401-3.93-2.242l-8.28 13.393c7.8 4.878 16.8 7.473 26 7.49 3.44 0.029 6.87-0.355 10.22-1.145 2.88-0.662 5.62-1.858 8.06-3.525 2.26-1.578 4.07-3.699 5.29-6.168 1.33-2.836 1.98-5.944 1.89-9.076 0.06-2.559-0.39-5.104-1.32-7.489v-0.001zm53.75 26.434v-14.362h-30.93v-10.573h18.24v-14.1h-18.24v-8.281h30.31v-14.362h-47.23v61.678h47.85zm37.1-24.407h-10.23l1.15-4.053c0.52-1.939 0.99-3.642 1.41-5.11 0.41-1.468 0.77-2.79 1.1-3.965 0.32-1.175 0.6-2.261 0.83-3.26 0.24-0.999 0.44-2.027 0.62-3.084 0.18 1.057 0.38 2.071 0.62 3.04 0.23 0.969 0.51 2.041 0.83 3.216 0.33 1.176 0.69 2.498 1.1 3.965s0.88 3.201 1.41 5.2l1.16 4.051zm25.98 24.407l-22.38-61.679h-17.27l-22.38 61.679h18.33l3.35-10.838h18.5l3.35 10.838h18.5zm50.4-26.434c-0.88-2.123-2.27-3.998-4.04-5.463-2.1-1.685-4.45-3.023-6.96-3.965-3.28-1.256-6.64-2.287-10.06-3.084-1.98-0.469-3.63-0.895-4.92-1.278-1.06-0.293-2.1-0.676-3.09-1.145-0.63-0.279-1.19-0.701-1.63-1.234-0.32-0.447-0.5-0.989-0.48-1.542-0.03-1.051 0.42-2.058 1.23-2.731 0.82-0.705 2.53-1.057 5.11-1.057 3.03-0.023 6.04 0.484 8.9 1.5 2.93 1.085 5.71 2.536 8.28 4.318l8.28-13.393c-3.3-2.299-6.94-4.0817-10.78-5.287-4.48-1.3121-9.13-1.9359-13.8-1.85-3.4-0.04277-6.79 0.4327-10.04 1.41-2.79 0.8287-5.39 2.1738-7.67 3.965-2.08 1.6576-3.75 3.767-4.89 6.168-1.16 2.481-1.75 5.191-1.72 7.93-0.08 2.679 0.39 5.347 1.37 7.842 0.91 2.111 2.31 3.971 4.1 5.419 2.06 1.631 4.38 2.898 6.87 3.745 3.18 1.121 6.41 2.062 9.69 2.82 2.06 0.471 3.76 0.925 5.12 1.366 1.11 0.34 2.18 0.782 3.21 1.322 0.65 0.324 1.23 0.791 1.68 1.366 0.32 0.467 0.48 1.021 0.48 1.586 0.11 1.282-0.57 2.502-1.72 3.084-1.14 0.588-3.24 0.882-6.3 0.881-1.54-0.015-3.08-0.192-4.58-0.529-1.66-0.357-3.3-0.828-4.89-1.41-1.59-0.576-3.15-1.238-4.67-1.983-1.36-0.654-2.67-1.405-3.92-2.247l-8.29 13.39c7.79 4.878 16.8 7.473 25.99 7.49 3.44 0.03 6.87-0.355 10.22-1.145 2.88-0.662 5.62-1.858 8.06-3.525 2.26-1.577 4.08-3.699 5.29-6.168 1.33-2.837 1.98-5.945 1.89-9.076 0.06-2.559-0.39-5.104-1.32-7.489v-0.001zm39.96 8.283c-1.7 2.74-4.74 4.355-7.96 4.229-3.27 0.108-6.35-1.538-8.08-4.317-1.9-2.877-2.86-7.107-2.86-12.688 0.01-5.581 0.94-9.781 2.78-12.6 1.71-2.742 4.75-4.358 7.98-4.229 3.26-0.107 6.33 1.54 8.06 4.318 1.9 2.879 2.86 7.108 2.86 12.688 0.01 5.58-0.92 9.78-2.78 12.599zm18.38-26.39c-1.25-3.688-3.24-7.079-5.86-9.957-2.5-2.6758-5.57-4.754-8.98-6.08-7.44-2.776-15.63-2.7604-23.06 0.044-3.44 1.3563-6.54 3.4634-9.06 6.168-2.65 2.888-4.66 6.294-5.92 10-1.47 4.384-2.18 8.989-2.1 13.614-0.08 4.622 0.62 9.223 2.06 13.613 1.23 3.699 3.22 7.094 5.86 9.957 2.53 2.669 5.61 4.746 9.04 6.08 3.66 1.411 7.57 2.114 11.5 2.071 3.94 0.042 7.86-0.676 11.54-2.115 3.44-1.356 6.54-3.463 9.08-6.168 2.63-2.891 4.64-6.296 5.9-10 1.47-4.383 2.19-8.988 2.12-13.613 0.07-4.626-0.65-9.23-2.13-13.613l0.01-0.001zm60 44.541v-61.678h-16.39v21.059c0 1.586 0.03 3.128 0.09 4.626 0.05 1.5 0.11 2.879 0.17 4.141 0.04 0.988 0.13 1.974 0.27 2.952-0.36-0.646-0.92-1.586-1.68-2.82s-1.61-2.556-2.55-3.965c-0.94-1.41-1.89-2.82-2.87-4.229-0.97-1.41-1.8-2.584-2.51-3.525l-13.57-18.239h-15.06v61.678h16.38v-23.085c0-1.586-0.03-3.128-0.08-4.626s-0.12-2.877-0.18-4.141c-0.03-0.988-0.12-1.973-0.26-2.952 0.41 0.705 1.01 1.674 1.8 2.908s1.65 2.542 2.56 3.921 1.83 2.762 2.77 4.141 1.77 2.541 2.47 3.481l14.71 20.353h13.93z"/>
  </g>
 </g>
</svg>
