<svg id="Layer_1" data-name="Layer 1" xmlns="http://www.w3.org/2000/svg" viewBox="0 0 532.8 129.97"><defs><style>.cls-1{fill:#d10a2c;}.cls-2{fill:#231f20;}.cls-3{fill:#636466;}.cls-4{fill:#a7a9ac;}</style></defs><title>16KSP058_Keiser_PowerED_logo_RGB_final</title><path class="cls-1" d="M35.31,37,40.43,8h8.84L47.32,19,57.08,8H68.7l-11,12.47L64.77,37H55.29s-3.84-8.94-4.2-9.79A2,2,0,0,0,49.23,26H46.09L44.15,37Z" transform="translate(-21.6 -8.02)"/><path class="cls-1" d="M98.51,8H76.32a7.26,7.26,0,0,0-7.14,6c-.58,3.31-1.57,8.91-2.56,14.5A7.11,7.11,0,0,0,73.76,37H93.39l1.23-7h-17a2,2,0,0,1-2-2.38L75.9,26H95.34l1.23-7H77.13s.28-1.28.42-2.38a2,2,0,0,1,2-1.68H97.28l1.23-7Z" transform="translate(-21.6 -8.02)"/><polygon class="cls-1" points="90.22 0 81.39 0 76.27 29.01 85.11 29.01 90.22 0 90.22 0"/><path class="cls-1" d="M143.52,8h-21.6a7.39,7.39,0,0,0-7.14,6l-.61,3.48c-.94,5.33,3.71,8.51,7.14,8.51h8.38c1.79,0,2,2,2,2s-.18,2-2,2H112.53l-1.23,7h21.6A7.29,7.29,0,0,0,140,31c.36-2.05-.33,2.08.61-3.48A7.17,7.17,0,0,0,133.52,19h-8.38c-1.87,0-2-2-2-2a2.07,2.07,0,0,1,2-2h17.15l1.23-7Z" transform="translate(-21.6 -8.02)"/><path class="cls-1" d="M176,8H153.83a7.26,7.26,0,0,0-7.14,6c-.58,3.31-1.57,8.91-2.56,14.5A7.11,7.11,0,0,0,151.27,37h19.63l1.23-7h-17a2,2,0,0,1-2-2.38l.3-1.68h19.44l1.23-7H154.64s.28-1.28.42-2.38a2,2,0,0,1,2-1.68h17.74L176,8Z" transform="translate(-21.6 -8.02)"/><path class="cls-1" d="M196.3,19h-8.9l.71-4.06h8.19s2.1.14,2,2a2.08,2.08,0,0,1-2,2m3.84-11H180.51l-5.12,29h8.84l1.94-11h3.13a2,2,0,0,1,1.87,1.23L195.38,37h9.47L199.7,25c2.06.07,6.44-1.53,7.14-6,.32-1.79.36-2,.44-2.51.45-2.94-1.35-8.51-7.14-8.51" transform="translate(-21.6 -8.02)"/><path class="cls-1" d="M211.41,13.27a2.38,2.38,0,1,1,2.34-2.38,2.36,2.36,0,0,1-2.34,2.38m0-5.26a2.88,2.88,0,1,0,2.88,2.88A2.88,2.88,0,0,0,211.41,8" transform="translate(-21.6 -8.02)"/><path class="cls-1" d="M211.41,10.69h-.75v-.9h.84s.57,0,.53.44-.62.46-.62.46m.78.81a2.2,2.2,0,0,0-.32-.4l-.2-.12a.76.76,0,0,0,.74-.76c0-.69-.55-.75-.94-.75h-1.22v2.8h.4V11h.53c.18,0,.41.24.66.67l.35.59h.45l-.46-.77Z" transform="translate(-21.6 -8.02)"/><path class="cls-1" d="M544.72,43.57v-1h-6.53v1h2.7V51.9H542V43.57Zm9.68,8.32v-9.3h-1.19L551,48.17q-.16.42-.34.91c-.12.33-.21.59-.27.79q-.09-.3-.27-.79c-.12-.33-.24-.63-.36-.91l-2.19-5.57h-1.21v9.3h1.05V44.72q.07.28.23.73t.33.83l2.38,5.88,2.45-5.88q.16-.4.33-.84a7.41,7.41,0,0,0,.23-.72V51.9Z" transform="translate(-21.6 -8.02)"/><path class="cls-1" d="M469.51,42.21H419.6a16.33,16.33,0,0,0-16.06,13.48c-1.31,7.44-3.54,20-5.75,32.62a16,16,0,0,0,16.06,19.14H458l2.76-15.66H422.49a4.56,4.56,0,0,1-4.5-5.36l.66-3.77h43.72L465.14,67H421.42s.64-2.89.95-5.36a4.6,4.6,0,0,1,4.49-3.77h39.89l2.76-15.66Z" transform="translate(-21.6 -8.02)"/><path class="cls-1" d="M520.44,42.21H476.29l-11.5,65.24h49.91A16.33,16.33,0,0,0,530.76,94c1.31-7.44,3.54-20,5.75-32.62a16,16,0,0,0-16.06-19.14Zm-4.14,21L515.63,67l-2.76,15.66s-.64,2.89-.95,5.36a4.6,4.6,0,0,1-4.5,3.77H487.52l5.86-33.92H511.8a4.56,4.56,0,0,1,4.5,5.36Z" transform="translate(-21.6 -8.02)"/><path class="cls-2" d="M327.2,42.21H277.29a16.33,16.33,0,0,0-16.06,13.48c-1.31,7.44-3.54,20-5.75,32.62a16,16,0,0,0,16.06,19.14H315.7l2.76-15.66H280.18a4.56,4.56,0,0,1-4.5-5.36l.67-3.77h43.72L322.83,67H279.11s.64-2.89.95-5.36a4.6,4.6,0,0,1,4.5-3.77h39.89l2.76-15.66Z" transform="translate(-21.6 -8.02)"/><path class="cls-2" d="M256.15,42.15l-8.93,51.25c-1.48,8.47-10,14-19.25,14H187.28c-13.23,0-22.22-9.51-20.39-20l7.9-45.34h19.53l-7.23,44.05c-.67,3.87,3.44,5.59,5.71,5.59h4.71l8.21-49.64h19.53s-6.67,40.72-7.18,44.35,3.12,5.29,5.66,5.29c1.43.15,4.72,0,4.72,0l8.19-49.68Z" transform="translate(-21.6 -8.02)"/><path class="cls-2" d="M371.24,67h-20l1.61-9.13h18.41s4.73.31,4.57,4.57c-.18,4.45-4.57,4.57-4.57,4.57m8.64-24.79H335.72l-11.5,65.24h19.87l4.37-24.79h7a4.6,4.6,0,0,1,4.2,2.76l9.46,22h21.3l-11.58-27c4.64.17,14.48-3.43,16.06-13.48.73-4,.8-4.39,1-5.65,1-6.61-3-19.14-16.06-19.14" transform="translate(-21.6 -8.02)"/><path class="cls-2" d="M68.62,67h-20l1.61-9.13H68.62s4.73.31,4.57,4.57C73,66.88,68.62,67,68.62,67m8.64-24.79H33.1L21.6,107.44H41.47l4.37-24.79,29.65.08c7.74,0,15.25-5.7,16.83-15.74.73-4,.81-4.39,1-5.65,1-6.61-3-19.14-16.06-19.14" transform="translate(-21.6 -8.02)"/><path class="cls-2" d="M149,42.14H115.24A16.33,16.33,0,0,0,99.18,55.61c-1.31,7.44-3.54,20-5.75,32.62a16,16,0,0,0,16.06,19.14H143.2A16.33,16.33,0,0,0,159.27,93.9c1.31-7.44,3.54-20,5.75-32.62A16,16,0,0,0,149,42.14Zm-4.14,21c-.35,2-4.06,22.32-4.37,24.79a4.6,4.6,0,0,1-4.5,3.77H118.13a4.56,4.56,0,0,1-4.5-5.36c.35-2,4.06-22.32,4.37-24.79a4.6,4.6,0,0,1,4.5-3.77h17.82a4.56,4.56,0,0,1,4.5,5.36Z" transform="translate(-21.6 -8.02)"/><path class="cls-3" d="M408.08,119.64v-1.78H395.83v1.78H401v15.73h2V119.64Zm16.28,5.69a4.34,4.34,0,0,1-2.89.81h-4.65v-6.5h4.9a3.9,3.9,0,0,1,2.66.81,3.68,3.68,0,0,1,0,4.88Zm2.46-4.72a4.39,4.39,0,0,0-1.15-1.54,4.77,4.77,0,0,0-1.72-.91,7.45,7.45,0,0,0-2.15-.3h-6.92v17.5h1.95v-7.45H421l3.75,7.45H427l-3.85-7.6a5.42,5.42,0,0,0,3-1.65,4.74,4.74,0,0,0,1.13-3.3,5.24,5.24,0,0,0-.43-2.2Zm16.93,8.52h-6l1.93-5.7.32-1q.17-.51.32-1t.26-.87l.19-.68.19.69q.11.41.26.88l.31,1c.11.33.21.64.31.92l1.93,5.75Zm4.15,6.23-6.08-17.5h-2.15l-6.08,17.5h2l1.52-4.45h7.23l1.5,4.45Zm8.84,0v-17.5h-2v17.5Zm20.77,0v-17.5h-1.9v14.4a4.32,4.32,0,0,0-.24-.45l-.34-.59-.35-.63q-.17-.31-.32-.54l-7.55-12.2h-1.9v17.5h1.88V121.19a3.94,3.94,0,0,0,.24.45l.34.59.35.63q.17.31.32.54l7.63,12Zm10.11,0v-17.5h-1.95v17.5Zm20.77,0v-17.5h-1.9v14.4a4.51,4.51,0,0,0-.24-.45l-.34-.59-.35-.63q-.18-.31-.32-.54l-7.55-12.2h-1.9v17.5h1.88V121.19a4.12,4.12,0,0,0,.24.45l.34.59.35.63q.18.31.33.54l7.63,12Zm20.88-8.65h-5.05v1.78h3.15v.15a5.75,5.75,0,0,1-1.16,3.9,4.23,4.23,0,0,1-3.36,1.33,4.09,4.09,0,0,1-2-.54,5.07,5.07,0,0,1-1.64-1.5,7.72,7.72,0,0,1-1.09-2.3,10.2,10.2,0,0,1-.4-2.94,10.38,10.38,0,0,1,.39-2.93,7.56,7.56,0,0,1,1.06-2.27,5,5,0,0,1,1.63-1.49,4.14,4.14,0,0,1,2.08-.54,4.57,4.57,0,0,1,2.33.53,6.07,6.07,0,0,1,1.75,1.68l1.55-1.18a6.51,6.51,0,0,0-5.58-2.8,6.2,6.2,0,0,0-2.9.69,6.85,6.85,0,0,0-2.26,1.89,9,9,0,0,0-1.46,2.86,12,12,0,0,0-.52,3.61,12.28,12.28,0,0,0,.5,3.58,8.78,8.78,0,0,0,1.42,2.85,6.76,6.76,0,0,0,2.24,1.89,6.17,6.17,0,0,0,2.91.69,7.2,7.2,0,0,0,2.56-.45,5.55,5.55,0,0,0,2.06-1.36,6.29,6.29,0,0,0,1.36-2.27,9.32,9.32,0,0,0,.49-3.15v-1.7Z" transform="translate(-21.6 -8.02)"/><polygon class="cls-4" points="356.94 129.97 356.94 107.35 355.13 107.35 355.13 129.97 356.94 129.97 356.94 129.97"/><path class="cls-3" d="M228.56,131.56a6.61,6.61,0,0,1-1.87,1.7,4.77,4.77,0,0,1-2.45.6,4.09,4.09,0,0,1-2-.54,5.19,5.19,0,0,1-1.65-1.5,7.33,7.33,0,0,1-1.09-2.3,10.53,10.53,0,0,1-.39-2.94,10.42,10.42,0,0,1,.39-2.93,7.56,7.56,0,0,1,1.06-2.27,5,5,0,0,1,1.62-1.49,4.14,4.14,0,0,1,2.08-.54,4.57,4.57,0,0,1,2.33.53,6.07,6.07,0,0,1,1.75,1.68l1.55-1.18a6.51,6.51,0,0,0-5.57-2.8,6.2,6.2,0,0,0-2.9.69,6.85,6.85,0,0,0-2.26,1.89,9,9,0,0,0-1.46,2.86,12,12,0,0,0-.52,3.61,12.25,12.25,0,0,0,.5,3.58,8.78,8.78,0,0,0,1.43,2.85,6.74,6.74,0,0,0,2.24,1.89,6.17,6.17,0,0,0,2.91.69,6.74,6.74,0,0,0,3.35-.8,7.38,7.38,0,0,0,2.38-2.1l-1.35-1.18Zm19.27-1.94a7.2,7.2,0,0,1-1.1,2.28,4.94,4.94,0,0,1-1.68,1.45,4.44,4.44,0,0,1-2.1.51,4.5,4.5,0,0,1-2.12-.51,5,5,0,0,1-1.69-1.48,7.58,7.58,0,0,1-1.12-2.3,10.11,10.11,0,0,1-.41-3,10.44,10.44,0,0,1,.4-3,7.26,7.26,0,0,1,1.1-2.27,5,5,0,0,1,1.66-1.45,4.38,4.38,0,0,1,2.09-.51,4.5,4.5,0,0,1,2.13.51,5.1,5.1,0,0,1,1.7,1.48,7.42,7.42,0,0,1,1.14,2.3,10.12,10.12,0,0,1,.41,3,10.39,10.39,0,0,1-.4,3Zm1.83-6.66a8.86,8.86,0,0,0-1.48-2.85,6.67,6.67,0,0,0-2.29-1.86,6.93,6.93,0,0,0-5.94,0,6.76,6.76,0,0,0-2.3,1.88,8.86,8.86,0,0,0-1.48,2.86,12,12,0,0,0-.53,3.64,12.16,12.16,0,0,0,.51,3.63,8.69,8.69,0,0,0,1.46,2.85,6.66,6.66,0,0,0,2.29,1.86,6.92,6.92,0,0,0,5.94,0,6.88,6.88,0,0,0,2.31-1.87,8.72,8.72,0,0,0,1.49-2.86,12.82,12.82,0,0,0,0-7.26Zm16.07,6.18h-6l1.93-5.7.32-1q.18-.51.33-1t.26-.87l.19-.68.19.69q.11.41.26.88l.31,1q.16.5.31.92l1.93,5.75Zm4.15,6.23-6.08-17.5h-2.15l-6.08,17.5h2l1.52-4.45h7.23l1.5,4.45Zm16.85-3.8a6.61,6.61,0,0,1-1.87,1.7,4.77,4.77,0,0,1-2.45.6,4.09,4.09,0,0,1-2.05-.54,5.19,5.19,0,0,1-1.65-1.5,7.35,7.35,0,0,1-1.09-2.3,10.53,10.53,0,0,1-.39-2.94,10.42,10.42,0,0,1,.39-2.93,7.59,7.59,0,0,1,1.06-2.27,5,5,0,0,1,1.63-1.49,4.14,4.14,0,0,1,2.07-.54,4.57,4.57,0,0,1,2.33.53,6.07,6.07,0,0,1,1.75,1.68l1.55-1.18a6.51,6.51,0,0,0-5.57-2.8,6.2,6.2,0,0,0-2.9.69,6.85,6.85,0,0,0-2.26,1.89,9,9,0,0,0-1.46,2.86,11.94,11.94,0,0,0-.53,3.61,12.25,12.25,0,0,0,.5,3.58,8.78,8.78,0,0,0,1.42,2.85,6.74,6.74,0,0,0,2.24,1.89,6.17,6.17,0,0,0,2.91.69,6.74,6.74,0,0,0,3.35-.8,7.38,7.38,0,0,0,2.38-2.1l-1.35-1.18Zm20.8,3.8v-17.5h-1.95v7.48h-8.7v-7.48h-2v17.5h2v-8.25h8.7v8.25Zm10.11,0v-17.5h-2v17.5Zm20.77,0v-17.5h-1.9v14.4a4.32,4.32,0,0,0-.24-.45l-.34-.59-.35-.63q-.17-.31-.32-.54l-7.55-12.2h-1.9v17.5h1.88V121.19a4.12,4.12,0,0,0,.24.45l.34.59.35.63q.18.31.32.54l7.63,12Zm20.88-8.65h-5.05v1.78h3.15v.15a5.75,5.75,0,0,1-1.16,3.9,4.23,4.23,0,0,1-3.36,1.33,4.09,4.09,0,0,1-2-.54,5.07,5.07,0,0,1-1.64-1.5,7.7,7.7,0,0,1-1.09-2.3,10.2,10.2,0,0,1-.4-2.94,10.38,10.38,0,0,1,.39-2.93,7.56,7.56,0,0,1,1.06-2.27,5,5,0,0,1,1.63-1.49,4.14,4.14,0,0,1,2.07-.54,4.57,4.57,0,0,1,2.32.53,6.07,6.07,0,0,1,1.75,1.68l1.55-1.18a6.51,6.51,0,0,0-5.57-2.8,6.2,6.2,0,0,0-2.9.69,6.84,6.84,0,0,0-2.26,1.89,9,9,0,0,0-1.46,2.86,12,12,0,0,0-.53,3.61,12.25,12.25,0,0,0,.5,3.58,8.78,8.78,0,0,0,1.42,2.85,6.75,6.75,0,0,0,2.24,1.89,6.17,6.17,0,0,0,2.91.69,7.2,7.2,0,0,0,2.56-.45,5.56,5.56,0,0,0,2.06-1.36,6.29,6.29,0,0,0,1.36-2.27,9.33,9.33,0,0,0,.49-3.15v-1.7Z" transform="translate(-21.6 -8.02)"/><polygon class="cls-4" points="177.89 129.97 177.89 107.35 176.09 107.35 176.09 129.97 177.89 129.97 177.89 129.97"/><path class="cls-3" d="M33.18,135.36v-1.77h-9v-6.68h5v-1.77h-5v-5.5h8.62v-1.78H22.23v17.5Zm17.12-5.59A5.62,5.62,0,0,1,49.07,132a4.7,4.7,0,0,1-1.93,1.24,7.79,7.79,0,0,1-2.55.39H42v-14h2.52a5.83,5.83,0,0,1,4.6,1.77,7.53,7.53,0,0,1,1.57,5.15,10.68,10.68,0,0,1-.43,3.21Zm1.78-7.16a7.32,7.32,0,0,0-1.66-2.69,6.49,6.49,0,0,0-2.52-1.56,9.8,9.8,0,0,0-3.19-.5H40.07v17.5h4.27a10.7,10.7,0,0,0,3.28-.49,6.74,6.74,0,0,0,2.65-1.56A7.33,7.33,0,0,0,52,130.55a11.52,11.52,0,0,0,.64-4.06,11.2,11.2,0,0,0-.6-3.87Zm20.37-4.75H70.49v10.4a7.35,7.35,0,0,1-1,4.22,3.71,3.71,0,0,1-3.25,1.38q-4.48,0-4.48-5.65V117.86h-2v10.4a8.3,8.3,0,0,0,1.59,5.51,5.88,5.88,0,0,0,4.74,1.86,5.76,5.76,0,0,0,4.73-1.89,8.55,8.55,0,0,0,1.55-5.54V117.86Zm18.62,13.7a6.61,6.61,0,0,1-1.87,1.7,4.77,4.77,0,0,1-2.45.6,4.09,4.09,0,0,1-2.05-.54,5.19,5.19,0,0,1-1.65-1.5,7.35,7.35,0,0,1-1.09-2.3,10.53,10.53,0,0,1-.39-2.94,10.42,10.42,0,0,1,.39-2.93A7.59,7.59,0,0,1,83,121.39a5,5,0,0,1,1.62-1.49,4.14,4.14,0,0,1,2.07-.54,4.57,4.57,0,0,1,2.32.53,6.07,6.07,0,0,1,1.75,1.68l1.55-1.18a6.51,6.51,0,0,0-5.57-2.8,6.2,6.2,0,0,0-2.9.69,6.85,6.85,0,0,0-2.26,1.89A9,9,0,0,0,80.13,123a12,12,0,0,0-.52,3.61,12.25,12.25,0,0,0,.5,3.58,8.78,8.78,0,0,0,1.43,2.85,6.74,6.74,0,0,0,2.24,1.89,6.17,6.17,0,0,0,2.91.69,6.74,6.74,0,0,0,3.35-.8,7.38,7.38,0,0,0,2.37-2.1l-1.35-1.18Zm17.48-2.42h-6l1.93-5.7.32-1q.18-.51.33-1t.26-.87l.19-.68.19.69q.11.41.26.88l.31,1q.16.5.31.92l1.93,5.75Zm4.15,6.23-6.08-17.5h-2.15l-6.07,17.5h2l1.52-4.45h7.23l1.5,4.45Zm15.93-15.73v-1.78H116.37v1.78h5.15v15.73h1.95V119.64Zm8.81,15.73v-17.5h-2v17.5ZM157,129.62a7.25,7.25,0,0,1-1.1,2.28,5,5,0,0,1-1.68,1.45,4.44,4.44,0,0,1-2.1.51,4.49,4.49,0,0,1-2.12-.51,5,5,0,0,1-1.69-1.48,7.58,7.58,0,0,1-1.12-2.3,10.11,10.11,0,0,1-.41-3,10.4,10.4,0,0,1,.4-3,7.21,7.21,0,0,1,1.1-2.27,5,5,0,0,1,1.66-1.45,4.38,4.38,0,0,1,2.09-.51,4.51,4.51,0,0,1,2.13.51,5.11,5.11,0,0,1,1.7,1.48,7.44,7.44,0,0,1,1.14,2.3,10.12,10.12,0,0,1,.41,3,10.43,10.43,0,0,1-.4,3Zm1.82-6.66a8.88,8.88,0,0,0-1.48-2.85,6.67,6.67,0,0,0-2.29-1.86,6.93,6.93,0,0,0-5.94,0,6.75,6.75,0,0,0-2.3,1.88,8.84,8.84,0,0,0-1.48,2.86,12,12,0,0,0-.52,3.64,12.2,12.2,0,0,0,.51,3.63,8.69,8.69,0,0,0,1.46,2.85,6.65,6.65,0,0,0,2.29,1.86,6.92,6.92,0,0,0,5.94,0,6.87,6.87,0,0,0,2.31-1.87,8.71,8.71,0,0,0,1.49-2.86,12.82,12.82,0,0,0,0-7.26Zm20.45,12.4v-17.5h-1.9v14.4a4.32,4.32,0,0,0-.24-.45l-.34-.59-.35-.63q-.17-.31-.32-.54l-7.55-12.2h-1.9v17.5h1.88V121.19a3.8,3.8,0,0,0,.24.45l.34.59.35.63c.12.21.22.39.32.54l7.63,12Z" transform="translate(-21.6 -8.02)"/></svg>