<?xml version="1.0" encoding="utf-8"?>
<!-- Generator: Adobe Illustrator 19.1.0, SVG Export Plug-In . SVG Version: 6.00 Build 0)  -->
<svg version="1.1" id="Layer_1" xmlns="http://www.w3.org/2000/svg" xmlns:xlink="http://www.w3.org/1999/xlink" x="0px" y="0px"
	 viewBox="0 0 516 89" enable-background="new 0 0 516 89" xml:space="preserve">
<g>
	<g>
		<path fill="#FFFFFF" d="M42.2,22.5c0,4.3-0.5,7.9-1.6,10.8s-2.6,5.3-4.7,7.1c-2.1,1.8-4.7,3.1-7.7,3.9c-3.1,0.8-6.6,1.2-10.6,1.2
			H2.9V0h15.9c3.6,0,6.8,0.4,9.7,1.1c2.9,0.7,5.4,2,7.4,3.7c2,1.8,3.6,4.1,4.7,6.9C41.7,14.6,42.2,18.2,42.2,22.5z M29.3,22.7
			c0-2.1-0.2-3.9-0.6-5.4c-0.4-1.5-1-2.8-1.8-3.7c-0.8-1-1.9-1.7-3.3-2.1c-1.3-0.5-3-0.7-4.9-0.7h-3.1v23.9h2.7c2,0,3.6-0.2,5-0.6
			c1.4-0.4,2.5-1.1,3.4-2c0.9-0.9,1.5-2.2,1.9-3.7C29.1,26.9,29.3,25,29.3,22.7z"/>
		<path fill="#FFFFFF" d="M45.4,45.5V0h12.9v45.5H45.4z"/>
		<path fill="#FFFFFF" d="M102.7,22.5c0,4.3-0.5,7.9-1.6,10.8c-1,2.9-2.6,5.3-4.7,7.1c-2.1,1.8-4.7,3.1-7.7,3.9
			c-3.1,0.8-6.6,1.2-10.6,1.2H63.3V0h15.9c3.6,0,6.8,0.4,9.7,1.1c2.9,0.7,5.4,2,7.4,3.7c2,1.8,3.6,4.1,4.7,6.9
			C102.1,14.6,102.7,18.2,102.7,22.5z M89.7,22.7c0-2.1-0.2-3.9-0.6-5.4c-0.4-1.5-1-2.8-1.8-3.7c-0.8-1-1.9-1.7-3.3-2.1
			c-1.3-0.5-3-0.7-4.9-0.7h-3.1v23.9h2.7c2,0,3.6-0.2,5-0.6c1.4-0.4,2.5-1.1,3.4-2c0.9-0.9,1.5-2.2,1.9-3.7
			C89.5,26.9,89.7,25,89.7,22.7z"/>
	</g>
	<g>
		<path fill="#FFFFFF" d="M23.7,73.8v13.6H13.5V74L0,50.9h11.7l2.8,5.5c1,1.9,1.8,3.7,2.6,5.3c0.7,1.6,1.3,3,1.6,4.1
			c0.3-1.1,0.9-2.4,1.6-4.1c0.7-1.6,1.6-3.4,2.6-5.3l2.8-5.5h11.6L23.7,73.8z"/>
		<path fill="#FFFFFF" d="M67.6,69.1c0,3-0.4,5.7-1.3,8c-0.8,2.3-2,4.3-3.5,5.9c-1.5,1.6-3.3,2.8-5.4,3.6c-2.1,0.8-4.4,1.2-6.8,1.2
			c-2.5,0-4.7-0.4-6.8-1.2c-2.1-0.8-3.8-2-5.3-3.6c-1.5-1.6-2.6-3.5-3.5-5.9c-0.8-2.3-1.2-5-1.2-8s0.4-5.7,1.3-8
			c0.8-2.3,2-4.3,3.5-5.9c1.5-1.6,3.3-2.8,5.4-3.6c2.1-0.8,4.4-1.3,6.8-1.3c2.5,0,4.7,0.4,6.8,1.2c2.1,0.8,3.8,2,5.3,3.6
			c1.5,1.6,2.6,3.5,3.5,5.9C67.2,63.4,67.6,66.1,67.6,69.1z M57.1,69.2c0-3.3-0.6-5.8-1.7-7.5c-1.1-1.7-2.7-2.6-4.8-2.6
			c-2,0-3.6,0.8-4.7,2.5c-1.1,1.7-1.6,4.2-1.6,7.4c0,3.3,0.6,5.8,1.7,7.5c1.1,1.7,2.7,2.6,4.8,2.6c2,0,3.6-0.8,4.7-2.5
			C56.6,75,57.1,72.5,57.1,69.2z"/>
		<path fill="#FFFFFF" d="M101.4,71.8c0,2.9-0.4,5.3-1.2,7.4c-0.8,2-1.9,3.7-3.4,5c-1.4,1.3-3.1,2.2-5.1,2.8c-2,0.6-4.1,0.9-6.4,0.9
			c-2.3,0-4.4-0.3-6.4-0.9c-1.9-0.6-3.6-1.5-5-2.8c-1.4-1.3-2.5-3-3.3-5c-0.8-2-1.2-4.5-1.2-7.4V50.9h10.3v20.9c0,2.3,0.5,4,1.4,5.3
			c0.9,1.3,2.4,1.9,4.3,1.9c2,0,3.4-0.6,4.3-1.9c0.9-1.3,1.3-3.1,1.3-5.3V50.9h10.3V71.8z"/>
	</g>
	<g>
		<path fill="#FFFFFF" d="M164.4,87.7l-17.6-35.9l-8.7,10.5v25.4h-23.8V3.5h23.8v9.9c0,3.6,0,7.2-0.1,10.8c0,3.6-0.1,6.9-0.3,10
			c0.9-1.4,2-3,3.2-4.8c1.3-1.8,2.7-3.8,4.2-5.8c1.5-2,3-4,4.5-6c1.5-2,3-3.9,4.3-5.5l6.7-8.5h28.4l-25.4,29.7l28.3,54.5H164.4z"/>
		<path fill="#FFFFFF" d="M248.6,87.7l-20.1-27.8c-1-1.3-2.1-2.9-3.4-4.8c-1.3-1.9-2.5-3.8-3.8-5.7c-1.2-1.9-2.4-3.7-3.5-5.4
			c-1.1-1.7-1.9-3-2.5-4c0.2,1,0.3,2.3,0.4,4c0.1,1.7,0.2,3.6,0.2,5.7c0.1,2,0.1,4.2,0.1,6.3c0,2.2,0,4.1,0,5.8v25.8h-22.4V3.5h20.6
			l18.5,24.9c1,1.3,2.1,2.9,3.4,4.8c1.3,1.9,2.6,3.9,3.9,5.8c1.3,1.9,2.4,3.7,3.5,5.4c1,1.7,1.8,3,2.3,3.9c-0.2-1-0.3-2.3-0.4-4
			c-0.1-1.7-0.2-3.6-0.2-5.7c-0.1-2-0.1-4.2-0.1-6.3s0-4.1,0-5.8v-23h22.4v84.2H248.6z"/>
		<path fill="#FFFFFF" d="M350.8,45.5c0,7-1,13.2-2.9,18.6c-1.9,5.4-4.6,10-8.1,13.7c-3.5,3.7-7.6,6.5-12.4,8.4
			c-4.8,1.9-10.1,2.9-15.8,2.9c-5.7,0-10.9-0.9-15.7-2.8c-4.8-1.9-8.9-4.7-12.3-8.3c-3.5-3.7-6.1-8.2-8-13.6
			c-1.9-5.4-2.8-11.6-2.8-18.6s1-13.2,2.9-18.6c1.9-5.4,4.6-10,8.1-13.7c3.4-3.7,7.6-6.5,12.4-8.4s10.1-2.9,15.8-2.9
			c5.7,0,10.9,0.9,15.7,2.8c4.8,1.9,8.9,4.7,12.3,8.3c3.4,3.7,6.1,8.2,8,13.6C349.9,32.3,350.8,38.5,350.8,45.5z M326.6,45.7
			c0-7.6-1.3-13.4-3.9-17.3c-2.6-3.9-6.3-5.9-11-5.9c-4.7,0-8.4,1.9-10.9,5.8c-2.5,3.9-3.8,9.6-3.8,17.2c0,7.6,1.3,13.4,3.9,17.3
			c2.6,3.9,6.3,5.9,11,5.9c4.7,0,8.4-1.9,10.9-5.8S326.6,53.3,326.6,45.7z"/>
		<path fill="#FFFFFF" d="M430.7,87.7h-21.5l-3.9-18.3c-0.7-3.2-1.4-6.6-2-10c-0.6-3.5-1.2-6.8-1.7-10c-0.5-3.2-1-6.1-1.3-8.7
			c-0.4-2.6-0.6-4.7-0.7-6.2c-0.2,1.5-0.4,3.6-0.7,6.2c-0.3,2.6-0.7,5.5-1.3,8.7c-0.5,3.2-1.1,6.5-1.7,10c-0.6,3.5-1.3,6.8-2,10
			l-3.9,18.3h-21.3L348.5,3.5h24.1l2.3,14.1c0.5,3,1,6.1,1.5,9.3c0.5,3.2,1,6.5,1.4,9.7c0.4,3.2,0.8,6.3,1.2,9.3
			c0.4,3,0.7,5.8,0.9,8.2c0.2-2.5,0.6-5.2,1-8.2c0.4-3,1-6,1.6-9.2c0.6-3.2,1.2-6.4,1.8-9.6c0.6-3.2,1.2-6.4,1.9-9.4L389,3.5h21.4
			l2.9,14.2c0.6,3,1.2,6.2,1.8,9.4c0.6,3.2,1.3,6.5,1.9,9.6c0.6,3.2,1.1,6.2,1.6,9.2c0.4,3,0.8,5.7,1,8.2c0.2-2.5,0.5-5.2,0.9-8.2
			c0.4-3,0.8-6.1,1.2-9.3c0.4-3.2,0.9-6.4,1.4-9.7c0.5-3.2,1-6.4,1.5-9.3l2.3-14.1h23.8L430.7,87.7z"/>
	</g>
	<path fill="#FFFFFF" d="M516,25.2c0,4.8-1.2,8.7-3.6,11.7c-2.4,3-6.2,5.7-11.3,8.2c-3.5,1.7-5.9,3.5-7.3,5.4
		c-1.4,1.9-2.2,4.3-2.2,7.2H470c0-2.6,0.2-4.9,0.7-7c0.5-2.1,1.3-4.1,2.5-6c1.2-1.8,2.8-3.5,4.8-5.1c2-1.6,4.5-3.1,7.6-4.5
		c2.6-1.2,4.5-2.3,5.7-3.4c1.2-1,1.8-2.4,1.8-4.1c0-1.8-0.7-3.3-2.2-4.3c-1.5-1-3.9-1.5-7.2-1.5c-4.3,0-8.4,0.7-12.2,2.2
		c-3.8,1.5-7.5,3.4-11,5.7l-10.7-17.2c5.1-3.2,10.4-5.7,15.9-7.6c5.5-1.8,11.7-2.8,18.4-2.8c4.9,0,9.3,0.5,13.2,1.4
		c3.9,1,7.3,2.4,10,4.3c2.8,1.9,4.9,4.3,6.4,7.2C515.2,18,516,21.4,516,25.2z M493.1,76.5c0,1.8-0.3,3.4-1,4.9
		c-0.6,1.5-1.5,2.8-2.6,4c-1.1,1.1-2.4,2-4,2.6c-1.6,0.6-3.2,1-5,1c-1.8,0-3.5-0.3-5.1-1c-1.5-0.6-2.8-1.5-3.9-2.6
		c-1.1-1.1-1.9-2.4-2.6-4c-0.6-1.5-1-3.2-1-4.9c0-3.6,1.2-6.6,3.5-8.8c2.4-2.3,5.4-3.4,9-3.4c3.6,0,6.6,1.1,9,3.4
		C491.9,69.9,493.1,72.9,493.1,76.5z"/>
</g>
</svg>
