<?xml version="1.0" encoding="UTF-8" standalone="no"?>
<svg xmlns="http://www.w3.org/2000/svg" version="1.1" xmlns:xlink="http://www.w3.org/1999/xlink" viewBox="0 0 100 17">
 <title>Keiser Logo</title>
 <defs>
  <path id="path-1" d="m99.758 16.17h-99.758v-16.17l99.758 0.000078329v16.17z"/>
 </defs>
 <g id="Page-1" fill-rule="evenodd" fill="none">
  <g id="Keiser-Logo" fill="#d10a2c">
   <mask id="mask-2" fill="white">
    <use xlink:href="#path-1"/>
   </mask>
   <path id="Fill-1" mask="url(#mask-2)" d="m0 16.17l2.8509-16.168 4.9251-0.000094-1.0833 6.1436 5.4403-6.1436 6.478 0.000006-6.152 6.9483 3.958 9.2198h-5.278s-2.1377-4.985-2.3437-5.459c-0.2063-0.473-0.6538-0.685-1.0399-0.685h-1.747l-1.0831 6.144h-4.9253z"/>
   <path id="Fill-3" mask="url(#mask-2)" d="m35.225 0.0018016h-12.368c-2.046 0-3.656 1.4971-3.981 3.3399-0.325 1.8431-0.877 4.9643-1.425 8.0843-0.462 2.629 1.459 4.743 3.98 4.743h10.944l0.684-3.88h-9.487c-0.934 0-1.194-0.878-1.114-1.328 0.085-0.485 0.165-0.935 0.165-0.935h10.835l0.684-3.8803h-10.835s0.158-0.7165 0.234-1.3285c0.076-0.6117 0.684-0.9352 1.114-0.9352h9.886l0.684-3.8802z"/>
   <path id="Fill-4" mask="url(#mask-2)" d="m42.646 0.0018016h-4.925l-2.851 16.167h4.925l2.851-16.167z"/>
   <path id="Fill-5" mask="url(#mask-2)" d="m60.311 0.0018016h-12.041c-2.452 0-3.75 2.0355-3.98 3.3399-0.108 0.6113-0.204 1.158-0.342 1.9403-0.525 2.9733 2.067 4.744 3.98 4.744h4.67c0.995 0 1.132 1.132 1.132 1.132s-0.1 1.131-1.132 1.131h-9.558l-0.684 3.88h12.041c2.641 0 3.778-2.195 3.98-3.34 0.202-1.144-0.181 1.16 0.342-1.94 0.524-3.0989-2.028-4.7433-3.98-4.7433h-4.67c-1.042 0-1.131-1.1319-1.131-1.1319s0.048-1.1318 1.131-1.1318h9.558l0.684-3.8802z"/>
   <path id="Fill-6" mask="url(#mask-2)" d="m78.429 0.0018016h-12.369c-2.045 0-3.655 1.4971-3.98 3.3399-0.325 1.8431-0.877 4.9643-1.426 8.0843-0.462 2.629 1.459 4.743 3.981 4.743h10.943l0.685-3.88h-9.487c-0.934 0-1.194-0.878-1.114-1.328 0.085-0.485 0.164-0.935 0.164-0.935h10.836l0.684-3.8803h-10.835s0.157-0.7165 0.234-1.3285c0.076-0.6117 0.683-0.9352 1.115-0.9352h9.885l0.684-3.8802z"/>
   <path id="Fill-7" mask="url(#mask-2)" d="m89.733 6.1456h-4.96l0.399-2.2635h4.561s1.174 0.077 1.132 1.1319c-0.044 1.1015-1.132 1.1316-1.132 1.1316m2.141-6.1439h-10.943l-2.851 16.168h4.925l1.084-6.144h1.746c0.521 0 0.893 0.343 1.04 0.685s2.344 5.459 2.344 5.459h5.278l-2.87-6.6845c1.151 0.0407 3.588-0.8512 3.981-3.3399 0.181-0.9974 0.199-1.0875 0.247-1.4 0.251-1.6389-0.752-4.7439-3.981-4.7439"/>
   <path id="Fill-8" mask="url(#mask-2)" d="m98.153 2.9308c-0.721 0-1.306-0.5935-1.306-1.3256 0-0.73212 0.585-1.3258 1.306-1.3258 0.722-0.00005 1.307 0.59368 1.307 1.3258 0 0.7321-0.585 1.3256-1.307 1.3256m0-2.9308c-0.886 0-1.605 0.71854-1.605 1.6052 0 0.8864 0.719 1.605 1.605 1.605 0.887 0 1.605-0.7186 1.605-1.605 0-0.88669-0.718-1.6052-1.605-1.6052"/>
   <path id="Fill-9" mask="url(#mask-2)" d="m98.156 1.4901h-0.418v-0.50104h0.466s0.316-0.01279 0.295 0.24594c-0.022 0.2765-0.343 0.2551-0.343 0.2551zm0.435 0.4501s-0.107-0.171-0.175-0.2229c-0.057-0.0442-0.111-0.0669-0.111-0.0669s0.415-0.0151 0.415-0.4201c0-0.38406-0.309-0.42166-0.524-0.42166h-0.679v1.5632h0.221v-0.7013h0.15l0.145 0.0003c0.103 0 0.227 0.1337 0.367 0.371 0.155 0.2629 0.195 0.33 0.195 0.33h0.253l-0.257-0.4316z"/>
  </g>
 </g>
</svg>
