<svg xmlns="http://www.w3.org/2000/svg" viewBox="0 0 663.22 663.22"><defs><style>.cls-1{fill:#fff;}.cls-2{fill:#cc162c;}.cls-3{fill:#04267d;}</style></defs><title>Asset 1</title><g id="Layer_2" data-name="Layer 2"><g id="_ÎÓÈ_1" data-name="—ÎÓÈ_1"><circle class="cls-1" cx="331.61" cy="331.61" r="331.61"/><path class="cls-2" d="M195.13,249,47.62,160.32a329.14,329.14,0,0,0-16.13,30.12L128.86,249Z"/><path class="cls-2" d="M473.47,249,617,162.7a333.55,333.55,0,0,0-18.91-28.46L407.2,249Z"/><path class="cls-2" d="M189.75,414.26,46.21,500.52A329.47,329.47,0,0,0,65.12,529L256,414.26Z"/><path class="cls-2" d="M374.68,2.78a335,335,0,0,0-86.14,0v279H3.72a335.2,335.2,0,0,0,0,99.6H288.54v279a335,335,0,0,0,86.14,0v-279H659.49a334.31,334.31,0,0,0,0-99.6H374.68Z"/><path class="cls-2" d="M468.09,414.26,615.6,502.9a329.14,329.14,0,0,0,16.13-30.12l-97.38-58.52Z"/><path class="cls-3" d="M581,113A331.39,331.39,0,0,0,407.2,8.66V217.43Z"/><path class="cls-3" d="M256,8.66A331.47,331.47,0,0,0,82.26,113L256,217.43Z"/><path class="cls-3" d="M20.88,215.6A326.34,326.34,0,0,0,10.39,249h66Z"/><path class="cls-3" d="M652.83,249a331.39,331.39,0,0,0-10.49-33.36L586.82,249Z"/><path class="cls-3" d="M82.26,550.2A331.39,331.39,0,0,0,256,654.55V445.79Z"/><path class="cls-3" d="M10.39,414.26a326.34,326.34,0,0,0,10.49,33.36l55.51-33.36Z"/><path class="cls-3" d="M407.2,654.55A331.31,331.31,0,0,0,581,550.2L407.2,445.79Z"/><path class="cls-3" d="M642.34,447.62a331.39,331.39,0,0,0,10.49-33.36h-66Z"/></g></g></svg>