<?xml version="1.0" encoding="UTF-8"?>
<svg width="48px" height="34px" viewBox="0 0 48 34" version="1.1" xmlns="http://www.w3.org/2000/svg" xmlns:xlink="http://www.w3.org/1999/xlink">
    <g id="Page-1" stroke="none" stroke-width="1" fill="none" fill-rule="evenodd">
        <g id="Group">
            <path d="M47.52,7.3341 C47.52,7.3341 47.0505,4.00314 45.612,2.5363 C43.7865,0.61023 41.7405,0.60117 40.803,0.48938 C34.086,-6.8e-05 24.0105,-6.8e-05 24.0105,-6.8e-05 L23.9895,-6.8e-05 C23.9895,-6.8e-05 13.914,-6.8e-05 7.197,0.48938 C6.258,0.601167 4.2135,0.610231 2.3865,2.5363 C0.948,4.00313 0.48,7.3341 0.48,7.3341 C0.48,7.3341 -4.6629367e-15,11.24666 -4.6629367e-15,15.15771 L-4.6629367e-15,18.82555 C-4.6629367e-15,22.73811 0.48,26.64916 0.48,26.64916 C0.48,26.64916 0.948,29.98012 2.3865,31.44696 C4.2135,33.37303 6.612,33.3126 7.68,33.51352 C11.52,33.885137 24,33.999946 24,33.999946 C24,33.999946 34.086,33.98484 40.803,33.495392 C41.7405,33.382094 43.7865,33.37303 45.612,31.446962 C47.0505,29.980132 47.52,26.649162 47.52,26.649162 C47.52,26.649162 48,22.738112 48,18.825552 L48,15.157712 C48,11.246662 47.52,7.334102 47.52,7.334102 L47.52,7.334102 L47.52,7.3341 Z" id="Shape" fill="#CE1312"></path>
            <polygon id="Triangle" fill="#FFFFFF" points="32 16.5 19 23.75 19 9.25"></polygon>
        </g>
    </g>
</svg>