<?xml version="1.0" encoding="UTF-8" standalone="no"?>
<svg width="24" xmlns="http://www.w3.org/2000/svg" viewBox="0 0 24 24" height="24">
 <path d="m20.063 4h-16.125c-2.171 0-3.938 1.768-3.938 3.939v9.121c0 2.172 1.767 3.94 3.938 3.94h16.125c2.17 0 3.937-1.768 3.937-3.939v-9.122c0-2.171-1.767-3.939-3.937-3.939zm-3.525 8.531l-6.768 4.331c-0.082 0.052-0.176 0.079-0.27 0.079-0.083 0-0.165-0.021-0.24-0.063-0.16-0.086-0.26-0.255-0.26-0.437v-8.662c0-0.183 0.1-0.351 0.26-0.439 0.161-0.087 0.356-0.08 0.51 0.018l6.769 4.332c0.144 0.092 0.23 0.25 0.23 0.421s-0.087 0.328-0.231 0.42z" fill="#fff"/>
</svg>
