<?xml version="1.0" encoding="UTF-8"?>
<svg width="948px" height="287px" viewBox="0 0 948 287" version="1.1" xmlns="http://www.w3.org/2000/svg" xmlns:xlink="http://www.w3.org/1999/xlink">
    <!-- Generator: Sketch 52.3 (67297) - http://www.bohemiancoding.com/sketch -->
    <title>white_logo-solid_bg</title>
    <desc>Created with Sketch.</desc>
    <defs>
        <polygon id="path-1" points="139 277 808.139 277 808.139 10 139 10"></polygon>
    </defs>
    <g id="white_logo-solid_bg" stroke="none" stroke-width="1" fill="none" fill-rule="evenodd">
        <path d="M182.8804,254.0067 C174.6124,254.0067 170.4724,249.9297 170.4724,243.2217 C170.4724,230.7837 184.3914,226.5377 209.7934,223.8367 C209.7934,240.4767 198.5434,254.0067 182.8804,254.0067 M193.8344,160.3907 C175.6854,160.3907 154.7994,168.9427 143.4644,177.9777 L153.8184,199.7667 C162.9104,191.4517 177.6084,184.3387 190.8674,184.3387 C203.4664,184.3387 210.4224,188.5517 210.4224,197.0347 C210.4224,202.7447 205.8124,205.6317 197.1004,206.7627 C164.5414,210.9877 139.0004,219.9767 139.0004,245.0707 C139.0004,264.9687 153.1704,276.9997 175.2994,276.9997 C191.0864,276.9997 205.1474,268.2237 211.8314,256.6447 L211.8314,273.7617 L241.2654,273.7617 L241.2654,202.0367 C241.2654,172.4217 220.6734,160.3907 193.8344,160.3907" id="Fill-1" fill="#FFFFFF"></path>
        <path d="M489.3716,163.6287 L489.3716,273.7617 L520.8726,273.7617 L520.8726,220.6917 C520.8726,195.4737 536.1426,188.0697 546.7866,188.0697 C550.9506,188.0697 556.5526,189.2747 560.2546,192.0517 L565.9906,162.9357 C561.1306,160.8527 556.0406,160.3907 551.8756,160.3907 C535.6806,160.3907 525.4996,167.5637 518.7896,182.1397 L518.7896,163.6287 L489.3716,163.6287 Z" id="Fill-3" fill="#FFFFFF"></path>
        <path d="M712.0371,160.3905 C695.3791,160.3905 682.9241,170.2405 676.4461,179.7265 C670.4311,167.4635 657.6791,160.3905 642.4081,160.3905 C625.7501,160.3905 614.2181,169.6455 608.8961,180.2875 L608.8961,163.6285 L578.5371,163.6285 L578.5371,273.7615 L610.0541,273.7615 L610.0541,217.0765 C610.0541,196.7155 620.7141,186.9545 630.6631,186.9545 C639.6661,186.9545 647.9431,192.7825 647.9431,207.8205 L647.9431,273.7615 L679.4211,273.7615 L679.4211,217.0765 C679.4211,196.4845 689.8261,186.9545 700.2381,186.9545 C708.5661,186.9545 717.3531,193.0125 717.3531,207.5895 L717.3531,273.7615 L748.8251,273.7615 L748.8251,197.6405 C748.8251,172.8835 732.1661,160.3905 712.0371,160.3905" id="Fill-5" fill="#FFFFFF"></path>
        <path d="M412.6895,163.6287 L384.1495,163.6287 L384.1495,152.4307 C384.1495,137.8557 392.4685,133.6907 399.6415,133.6907 C407.5685,133.6907 413.7445,137.2067 413.7445,137.2067 L423.4565,114.9967 C423.4565,114.9967 413.6155,108.5637 395.7075,108.5637 C375.5785,108.5637 352.6725,119.9007 352.6725,155.5307 L352.6725,163.6287 L304.8975,163.6287 L304.8975,152.4307 C304.8975,137.8557 313.2155,133.6907 320.3885,133.6907 C324.4625,133.6907 329.9455,134.6337 334.4915,137.2067 L344.2035,114.9967 C338.4045,111.5987 329.0875,108.5637 316.4545,108.5637 C296.3255,108.5637 273.4195,119.9007 273.4195,155.5307 L273.4195,163.6287 L255.1425,163.6287 L255.1425,187.9227 L273.4195,187.9227 L273.4195,273.7617 L304.8975,273.7617 L304.8975,187.9227 L352.6725,187.9227 L352.6725,273.7617 L384.1495,273.7617 L384.1495,187.9227 L412.6895,187.9227 L412.6895,163.6287 Z" id="Fill-7" fill="#FFFFFF"></path>
        <mask id="mask-2" fill="white">
            <use xlink:href="#path-1"></use>
        </mask>
        <g id="Clip-10"></g>
        <polygon id="Fill-9" fill="#FFFFFF" mask="url(#mask-2)" points="431.478 273.762 462.925 273.762 462.925 163.629 431.478 163.629"></polygon>
        <path d="M614.9443,9.9998 C529.9133,9.9998 454.1423,69.0188 432.6383,144.9018 L463.4483,144.9018 C481.4173,88.4028 542.3973,38.7938 614.9443,38.7938 C703.1363,38.7938 779.3443,105.9288 779.3443,210.4488 C779.3443,233.9038 776.3103,255.0708 770.5483,273.7618 L800.4483,273.7618 L800.7443,272.7318 C805.6503,253.4498 808.1393,232.4998 808.1393,210.4488 C808.1393,93.8928 723.2083,9.9998 614.9443,9.9998" id="Fill-11" fill="#FFFFFF" mask="url(#mask-2)"></path>
    </g>
</svg>