<svg height="68" viewBox="0 0 68 68" width="68" xmlns="http://www.w3.org/2000/svg"><circle cx="34" cy="34" fill="#d10a2c" r="34"/><g fill="none" stroke="#fff" stroke-linecap="round" stroke-linejoin="round" stroke-width="2"><path d="m18.09 40.69v-11.43a15.84 15.84 0 1 1 31.67 0v12.79a10.56 10.56 0 0 1 -10.56 10.57"/><path d="m13.58 31.16h4.51v9.54h-4.51z"/><path d="m49.76 31.16h4.51v9.54h-4.51z"/><path d="m29.93 49.76h8v5.06h-8z"/><path d="m40.51 47.65a11.82 11.82 0 0 0 5.08-9.72v-3.54a11.84 11.84 0 0 0 -.89-4.5 14.51 14.51 0 0 1 -18-5 11.83 11.83 0 0 0 -4.75 9.46v3.54a11.83 11.83 0 0 0 5.13 9.75"/></g></svg>