<svg xmlns="http://www.w3.org/2000/svg" viewBox="0 0 79.58 79.58"><defs><style>.cls-1,.cls-2,.cls-4{fill:#d1202e;}.cls-1{stroke:#d1202e;stroke-width:0.63px;}.cls-1,.cls-2{stroke-miterlimit:10;}.cls-2{stroke:#fff;stroke-width:2px;}.cls-3{fill:#fff;}</style></defs><title>KSR_Commercial_Sales_Icon_Red</title><g id="Layer_2" data-name="Layer 2"><g id="Layer_1-2" data-name="Layer 1"><circle class="cls-1" cx="39.79" cy="39.79" r="39.47"/><path class="cls-2" d="M22.32,34.4H61.48a0,0,0,0,1,0,0V56.34a1.38,1.38,0,0,1-1.38,1.38H22.32a1.38,1.38,0,0,1-1.38-1.38V35.78A1.38,1.38,0,0,1,22.32,34.4Z"/><path class="cls-2" d="M50.44,39.79h5.11a1.38,1.38,0,0,1,1.38,1.38V57.72a0,0,0,0,1,0,0H49.05a0,0,0,0,1,0,0V41.17A1.38,1.38,0,0,1,50.44,39.79Z"/><rect class="cls-2" x="37.22" y="39.69" width="7.88" height="12.54" rx="1.38" ry="1.38"/><rect class="cls-2" x="25.55" y="39.69" width="7.88" height="12.54" rx="1.38" ry="1.38"/><rect class="cls-2" x="17.49" y="28.4" width="47.45" height="6" rx="1.38" ry="1.38"/><path class="cls-3" d="M19.06,46a1.88,1.88,0,0,1-1.88-1.88V42.78a17.48,17.48,0,0,1-2.79-.83,19.68,19.68,0,0,1-2.15-1,1.88,1.88,0,0,1-.68-2.66l1.88-2.95a1.87,1.87,0,0,1,2.5-.63l.6.31a14.86,14.86,0,0,0,1.5.64,11.78,11.78,0,0,0,1.55.45,6.62,6.62,0,0,0,1.36.16,4.31,4.31,0,0,0,1.7-.19s0-.05,0-.16a2.08,2.08,0,0,0-.23-.14,5.56,5.56,0,0,0-.93-.38c-.42-.14-1-.29-1.67-.44a31.89,31.89,0,0,1-3.44-1,9,9,0,0,1-2.65-1.45,5.87,5.87,0,0,1-1.69-2.24,7.82,7.82,0,0,1-.55-3.09,6.79,6.79,0,0,1,1.74-4.74,8.24,8.24,0,0,1,3.88-2.3V18.67a1.88,1.88,0,0,1,1.88-1.88H23a1.88,1.88,0,0,1,1.88,1.88V20a12.78,12.78,0,0,1,2.36.72,13.9,13.9,0,0,1,1.91,1,1.88,1.88,0,0,1,.6,2.62l-1.92,3a1.87,1.87,0,0,1-1.58.86,1.89,1.89,0,0,1-1-.27,11.39,11.39,0,0,0-2-.94,8,8,0,0,0-2.72-.45,2.6,2.6,0,0,0-1.12.14.16.16,0,0,0-.05.13l.17.09a5.65,5.65,0,0,0,.89.33c.43.13,1,.27,1.64.42a28,28,0,0,1,3.59,1.1,9.81,9.81,0,0,1,2.68,1.52,5.91,5.91,0,0,1,1.68,2.26,7.66,7.66,0,0,1,.53,3,8,8,0,0,1-.48,2.87,6.39,6.39,0,0,1-1.38,2.22,7.2,7.2,0,0,1-2.1,1.49,10,10,0,0,1-1.78.64v1.43A1.88,1.88,0,0,1,23,46Z"/><path class="cls-4" d="M23,17.79a.88.88,0,0,1,.88.88v2.2a12.38,12.38,0,0,1,3,.8,13,13,0,0,1,1.78.91.88.88,0,0,1,.28,1.23l-1.91,3a.88.88,0,0,1-1.19.28,12.31,12.31,0,0,0-2.13-1,9,9,0,0,0-3.06-.51,2.9,2.9,0,0,0-1.75.36,1.18,1.18,0,0,0-.42.94.87.87,0,0,0,.17.53,1.53,1.53,0,0,0,.56.42,6.69,6.69,0,0,0,1.06.39c.44.13,1,.28,1.69.44a27,27,0,0,1,3.46,1.06A8.76,8.76,0,0,1,27.75,31a4.89,4.89,0,0,1,1.4,1.88,6.65,6.65,0,0,1,.46,2.57A7,7,0,0,1,29.19,38,5.39,5.39,0,0,1,28,39.87a6.18,6.18,0,0,1-1.81,1.28,9.48,9.48,0,0,1-2.36.74v2.24A.88.88,0,0,1,23,45H19.06a.88.88,0,0,1-.88-.88V42A16.63,16.63,0,0,1,14.76,41a18.18,18.18,0,0,1-2-.95.88.88,0,0,1-.32-1.25l1.89-2.95a.88.88,0,0,1,.74-.41.86.86,0,0,1,.42.11l.65.34a15.93,15.93,0,0,0,1.6.68,12.75,12.75,0,0,0,1.68.48,7.55,7.55,0,0,0,1.57.18,5.26,5.26,0,0,0,2.16-.3,1.09,1.09,0,0,0,.59-1.06,1,1,0,0,0-.16-.54,1.67,1.67,0,0,0-.58-.47,6.48,6.48,0,0,0-1.1-.45c-.46-.15-1-.31-1.75-.47a30.56,30.56,0,0,1-3.33-1,7.91,7.91,0,0,1-2.36-1.29A4.85,4.85,0,0,1,13,29.86a6.79,6.79,0,0,1-.47-2.69A5.79,5.79,0,0,1,14,23.1a7.61,7.61,0,0,1,4.14-2.19V18.67a.88.88,0,0,1,.88-.88H23m0-2H19.06a2.88,2.88,0,0,0-2.88,2.88v.73a8.94,8.94,0,0,0-3.62,2.35,7.76,7.76,0,0,0-2,5.42,8.78,8.78,0,0,0,.63,3.48,6.85,6.85,0,0,0,2,2.61q.31.25.65.48a2.88,2.88,0,0,0-1.2,1.06l-1.89,2.95a2.88,2.88,0,0,0,1,4.08A20.25,20.25,0,0,0,14,42.87a18,18,0,0,0,2.15.7v.55A2.88,2.88,0,0,0,19.06,47H23a2.88,2.88,0,0,0,2.88-2.88v-.68A10.51,10.51,0,0,0,27.08,43a8.2,8.2,0,0,0,2.39-1.7,7.4,7.4,0,0,0,1.6-2.56,9.06,9.06,0,0,0,.54-3.21A8.65,8.65,0,0,0,31,32.14a6.9,6.9,0,0,0-2-2.64,9.2,9.2,0,0,0-1.16-.82,2.88,2.88,0,0,0,.78-.81l1.91-3a2.9,2.9,0,0,0,.39-2.2,2.85,2.85,0,0,0-1.3-1.81,15.07,15.07,0,0,0-2-1.05,13.26,13.26,0,0,0-1.75-.59v-.57A2.88,2.88,0,0,0,23,15.79Z"/></g></g></svg>