<svg xmlns="http://www.w3.org/2000/svg" width="50" height="50" viewBox="0 0 50 50"><g id="Background"><circle cx="25" cy="25" r="25" fill="#e1233b"/></g><g id="Art"><path d="M12.33,30.25V21.11a12.67,12.67,0,0,1,25.34,0V31.34a8.45,8.45,0,0,1-8.45,8.45" fill="none" stroke="#fff" stroke-linecap="round" stroke-linejoin="round" stroke-width="2"/><rect x="8.72" y="22.63" width="3.61" height="7.63" fill="none" stroke="#fff" stroke-linecap="round" stroke-linejoin="round" stroke-width="2"/><rect x="37.67" y="22.63" width="3.61" height="7.63" fill="none" stroke="#fff" stroke-linecap="round" stroke-linejoin="round" stroke-width="2"/><rect x="21.8" y="37.51" width="6.4" height="4.05" fill="none" stroke="#fff" stroke-linecap="round" stroke-linejoin="round" stroke-width="2"/><path d="M30.27,35.82A9.48,9.48,0,0,0,34.33,28V25.21a9.39,9.39,0,0,0-.71-3.6,11.66,11.66,0,0,1-10.47-.38,11.5,11.5,0,0,1-3.95-3.59,9.43,9.43,0,0,0-3.8,7.57V28a9.46,9.46,0,0,0,4.1,7.81" fill="none" stroke="#fff" stroke-linecap="round" stroke-linejoin="round" stroke-width="2"/></g></svg>