<svg height="68" viewBox="0 0 68 68" width="68" xmlns="http://www.w3.org/2000/svg"><circle cx="34" cy="34" fill="#d10a2c" r="34"/><g fill="none" stroke="#fff" stroke-linecap="round" stroke-linejoin="round" stroke-width="2"><path d="m54.1 20.49a7.12 7.12 0 0 1 -3 .38c-1.07-.18-6.48-1.3-9.49-1.82s-6.7 0-9.1 2-4.54 3.84-4.54 3.84-1.2 7.6-1.38 8.23 4.22 2.12 5.72-1.38a17.32 17.32 0 0 0 1.57-5.28"/><path d="m58.49 37.63s-4.24.23-6.57-.83l-12.26-8.53c-1.34-1.06-2.41-.43-3.3 0s-3.36 1.73-3.36 1.73"/><path d="m14.24 22s2 .66 7.59-.63 7.67-3.27 10.53-3.28a11.28 11.28 0 0 1 4.56.79"/><path d="m41.73 48.05a2.81 2.81 0 0 0 2.8-2.83 2.63 2.63 0 0 0 -.05-.49 2.8 2.8 0 0 0 4.28-2.41 2.91 2.91 0 0 0 -.21-1 2.81 2.81 0 1 0 3.37-4.49"/><path d="m39.48 35.95 9.07 5.34"/><path d="m36.45 40 8.03 4.73"/><path d="m36.01 44.68 5.72 3.37"/><path d="m32.87 47.46 4.71 2.77a2.81 2.81 0 0 0 2.79-2.83"/><path d="m11.76 40.09a2.63 2.63 0 0 0 4.24 3.19l2.6-3.41a2.63 2.63 0 1 0 -4.19-3.19z"/><path d="m16 43.28a2.64 2.64 0 0 0 4.2 3.2l5.09-6.69a2.64 2.64 0 0 0 -4.29-3.19z"/><path d="m21.37 44.86a2.64 2.64 0 0 0 4.2 3.19l3.67-4.82a2.64 2.64 0 0 0 -4.24-3.23z"/><path d="m26.81 46.41a2.64 2.64 0 0 0 4.2 3.2l2.42-3.19a2.63 2.63 0 1 0 -4.19-3.19z"/><path d="m12.28 39-3.9-1.77"/></g></svg>