<svg xmlns="http://www.w3.org/2000/svg" viewBox="0 0 79.58 79.58"><defs><style>.cls-1,.cls-2{fill:#d1202e;}.cls-1{stroke:#d1202e;stroke-miterlimit:10;stroke-width:0.63px;}.cls-3{fill:#fff;}</style></defs><title>KSR_Customer_Sales_Icon_Red</title><g id="Layer_2" data-name="Layer 2"><g id="Layer_1-2" data-name="Layer 1"><circle class="cls-1" cx="39.79" cy="39.79" r="39.47"/><path class="cls-2" d="M25.82,61.31a3.11,3.11,0,0,1-3.11-3.11V53.52a17.34,17.34,0,0,1,34.68,0V58.2a3.11,3.11,0,0,1-3.11,3.11Z"/><path class="cls-3" d="M40.05,37.18A16.39,16.39,0,0,1,56.39,53.52V58.2a2.11,2.11,0,0,1-2.11,2.11H25.82a2.11,2.11,0,0,1-2.11-2.11V53.52A16.39,16.39,0,0,1,40.05,37.18m0-2A18.36,18.36,0,0,0,21.71,53.52V58.2a4.11,4.11,0,0,0,4.11,4.11H54.29a4.11,4.11,0,0,0,4.11-4.11V53.52A18.36,18.36,0,0,0,40.05,35.18Z"/><path class="cls-2" d="M40.42,33.82A10.44,10.44,0,1,1,50.86,23.38,10.45,10.45,0,0,1,40.42,33.82Z"/><path class="cls-3" d="M40.42,13.94A9.44,9.44,0,1,1,31,23.38a9.44,9.44,0,0,1,9.44-9.44m0-2A11.44,11.44,0,1,0,51.86,23.38,11.45,11.45,0,0,0,40.42,11.94Z"/></g></g></svg>