<svg xmlns="http://www.w3.org/2000/svg" width="50" height="50" viewBox="0 0 50 50"><g id="Background"><circle cx="25" cy="25" r="25" fill="#e1233b"/></g><g id="Art"><circle cx="38.42" cy="32.71" r="2.7" fill="none" stroke="#fff" stroke-linecap="round" stroke-linejoin="round" stroke-width="2"/><circle cx="19.34" cy="32.71" r="2.7" fill="none" stroke="#fff" stroke-linecap="round" stroke-linejoin="round" stroke-width="2"/><polyline points="16.21 31.71 11.8 31.71 11.8 15.59 31.41 15.59 31.41 31.71 22.64 31.71" fill="none" stroke="#fff" stroke-linecap="round" stroke-linejoin="round" stroke-width="2"/><polyline points="41.59 31.71 43.21 31.71 43.21 26.55 37.48 19.78 31.41 19.78 31.41 31.71 35.21 31.71" fill="none" stroke="#fff" stroke-linecap="round" stroke-linejoin="round" stroke-width="2"/><line x1="8.84" y1="21.24" x2="5.91" y2="21.24" fill="none" stroke="#fff" stroke-linecap="round" stroke-linejoin="round" stroke-width="2"/><line x1="8.84" y1="25" x2="4.04" y2="25" fill="none" stroke="#fff" stroke-linecap="round" stroke-linejoin="round" stroke-width="2"/><line x1="8.84" y1="28.76" x2="5.91" y2="28.76" fill="none" stroke="#fff" stroke-linecap="round" stroke-linejoin="round" stroke-width="2"/><path d="M20.38,25.41v-.17a4.72,4.72,0,0,1,.15-1.33A2,2,0,0,1,21,23.1a3.83,3.83,0,0,1,.68-.56,3.83,3.83,0,0,0,.53-.39,1.64,1.64,0,0,0,.38-.46,1.19,1.19,0,0,0,.14-.56,1.09,1.09,0,0,0-.16-.58,1.08,1.08,0,0,0-.43-.39,1.24,1.24,0,0,0-.58-.13,1.31,1.31,0,0,0-.59.13,1.21,1.21,0,0,0-.46.41,1.2,1.2,0,0,0-.19.66h-2a2.9,2.9,0,0,1,.46-1.59,2.72,2.72,0,0,1,1.16-.93,3.92,3.92,0,0,1,1.59-.31,4.2,4.2,0,0,1,1.68.31,2.65,2.65,0,0,1,1.16.91,2.48,2.48,0,0,1,.41,1.43,2.59,2.59,0,0,1-.18,1,2.68,2.68,0,0,1-.52.77,4,4,0,0,1-.78.6,2.87,2.87,0,0,0-.62.47,1.58,1.58,0,0,0-.36.56,2.3,2.3,0,0,0-.12.79v.17Zm.95,3.07a1.15,1.15,0,0,1-.82-.34,1.13,1.13,0,0,1-.33-.81,1.1,1.1,0,0,1,.33-.81,1.13,1.13,0,0,1,1.62,0,1.08,1.08,0,0,1,.35.81,1.11,1.11,0,0,1-.16.57,1.21,1.21,0,0,1-.42.42A1.17,1.17,0,0,1,21.33,28.48Z" fill="#fff"/></g></svg>