<svg height="68" viewBox="0 0 68 68" width="68" xmlns="http://www.w3.org/2000/svg"><circle cx="34" cy="34" fill="#d10a2c" r="34"/><g fill="none" stroke="#fff" stroke-linecap="round" stroke-linejoin="round" stroke-width="2"><circle cx="51.5" cy="43.51" r="3.37"/><circle cx="27.64" cy="43.51" r="3.37"/><path d="m23.67 42.27h-5.45v-20.16h24.51v20.16h-10.96"/><path d="m55.45 42.27h2.03v-6.46l-7.16-8.46h-7.59v14.92h4.83"/><path d="m14.51 29.17h-3.65"/><path d="m14.51 33.88h-5.99"/><path d="m14.51 38.58h-3.65"/></g><path d="m28.94 34.38v-.2a6.55 6.55 0 0 1 .19-1.67 2.44 2.44 0 0 1 .54-1 4.2 4.2 0 0 1 .85-.69 6.15 6.15 0 0 0 .67-.5 2.06 2.06 0 0 0 .46-.57 1.41 1.41 0 0 0 .18-.71 1.34 1.34 0 0 0 -.2-.72 1.29 1.29 0 0 0 -.53-.48 1.64 1.64 0 0 0 -.74-.17 1.66 1.66 0 0 0 -.73.17 1.52 1.52 0 0 0 -.57.5 1.56 1.56 0 0 0 -.24.83h-2.45a3.49 3.49 0 0 1 .58-2 3.32 3.32 0 0 1 1.44-1.17 4.94 4.94 0 0 1 2-.39 5.19 5.19 0 0 1 2.11.4 3.25 3.25 0 0 1 1.43 1.13 3 3 0 0 1 .53 1.79 3.1 3.1 0 0 1 -.24 1.25 2.94 2.94 0 0 1 -.64 1 5.5 5.5 0 0 1 -1 .75 3.77 3.77 0 0 0 -.77.58 2 2 0 0 0 -.45.71 2.87 2.87 0 0 0 -.15 1v.2zm1.19 3.84a1.44 1.44 0 0 1 -1-2.45 1.42 1.42 0 0 1 2 0 1.36 1.36 0 0 1 .44 1 1.29 1.29 0 0 1 -.21.72 1.52 1.52 0 0 1 -.52.52 1.36 1.36 0 0 1 -.71.21z" fill="#fff"/></svg>