<?xml version="1.0" encoding="UTF-8" standalone="no"?>
<svg xmlns:rdf="http://www.w3.org/1999/02/22-rdf-syntax-ns#" xmlns="http://www.w3.org/2000/svg" version="1.1" xmlns:cc="http://creativecommons.org/ns#" xmlns:dc="http://purl.org/dc/elements/1.1/" viewBox="0 0 79.58 79.58">
 <metadata>
  <rdf:RDF>
   <cc:Work rdf:about="">
    <dc:format>image/svg+xml</dc:format>
    <dc:type rdf:resource="http://purl.org/dc/dcmitype/StillImage"/>
    <dc:title>KSR_Customer_Support_Icon_Red</dc:title>
   </cc:Work>
  </rdf:RDF>
 </metadata>
 <defs>
  <style>.cls-1{fill:#d1202e;stroke:#d1202e;stroke-miterlimit:10;stroke-width:.63px}.cls-2{fill:#fff}</style>
 </defs>
 <title>KSR_Customer_Support_Icon_Red</title>
 <path fill="#d1202e" d="m78.945 40.105a39.47 39.47 0 0 1 -39.47 39.47 39.47 39.47 0 0 1 -39.47 -39.47 39.47 39.47 0 0 1 39.47 -39.47 39.47 39.47 0 0 1 39.47 39.47z"/>
 <g fill="#fff">
  <path d="m51.768 48.323-1.491-1.468-0.829-0.817-0.829-0.817-0.212-0.21-0.844-0.83-0.147-0.144c-0.24592-0.24239-0.50292-0.46955-0.7673-0.6861-1.9651-1.6083-4.4071-2.4851-6.9823-2.4851-2.5787 0-5.0163 0.87511-6.9815 2.4818-0.29806 0.24331-0.58643 0.50215-0.86096 0.77791l-0.05137 0.05198-0.82482 0.83036-0.53091 0.53522-0.83943 0.84512-0.83974 0.84512-2.7562 2.7754-7.271 7.3197h42.202z"/>
  <path d="m25.457 48.179 0.89741-0.90341 0.83974-0.84604 0.83989-0.84589 1.1643-1.1719-6.0638-4.3416-5.7804-4.1383-1.253-0.89757v22.335h0.22747z"/>
  <path d="m63.288 35.238-8.2939 5.9008-4.7341 3.3682 0.68533 0.67394 0.8282 0.81682 0.82805 0.8159 1.0008 0.98462 9.7181 9.5712h0.26269v-22.341z"/>
  <path d="m39.661 18.256c-5.777 0.17441-19.994 8.4677-22.223 9.7893l-1.2275 5.0237 6.1882 4.4308-1.1893-4.1541 29.163-8.3494 4.1364 14.449 8.9354-6.3566-1.5386-5.0289c-2.147-1.276-16.446-9.63-22.243-9.804z"/>
 </g>
</svg>
