<svg id="Keiser_Ultimate" data-name="Keiser Ultimate" xmlns="http://www.w3.org/2000/svg" viewBox="0 0 461.85 168.4"><title>heading-ultimate</title><path d="M.36,175.21V126.86H14v48.35Z" transform="translate(0.02 -7.57)" fill="#d10a2c"/><path d="M55.69,175.21l-11.53-16c-.56-.74-1.2-1.65-1.94-2.73s-1.46-2.17-2.17-3.25-1.38-2.11-2-3.07-1.09-1.73-1.41-2.28a20,20,0,0,1,.2,2.31c.05,1,.1,2.07.14,3.25s.07,2.38.07,3.62v18.1H24.19V126.86H36l10.63,14.3c.56.73,1.21,1.65,2,2.76s1.51,2.21,2.25,3.31,1.4,2.15,2,3.11,1,1.71,1.31,2.21a20,20,0,0,1-.2-2.31c0-1-.1-2.07-.14-3.25s-.07-2.38-.07-3.62V126.86H66.61v48.35Z" transform="translate(0.02 -7.57)" fill="#d10a2c"/><path d="M118.21,150.76a34.48,34.48,0,0,1-1.66,11.5,17.37,17.37,0,0,1-5,7.53,20.08,20.08,0,0,1-8.19,4.14,44.3,44.3,0,0,1-11.29,1.28H76.42V126.86H93.34A41.94,41.94,0,0,1,103.63,128a18.83,18.83,0,0,1,7.85,4,18.38,18.38,0,0,1,5,7.36A32,32,0,0,1,118.21,150.76Zm-13.75.21a24.64,24.64,0,0,0-.58-5.74,9.48,9.48,0,0,0-1.9-3.94,7.75,7.75,0,0,0-3.46-2.24,16.62,16.62,0,0,0-5.25-.73H90v25.43h2.9a18.8,18.8,0,0,0,5.32-.66A8.06,8.06,0,0,0,101.8,161a8.55,8.55,0,0,0,2-3.94A24.71,24.71,0,0,0,104.46,151Z" transform="translate(0.02 -7.57)" fill="#d10a2c"/><path d="M169.05,151a31.66,31.66,0,0,1-1.66,10.67,22.11,22.11,0,0,1-4.62,7.84,19.49,19.49,0,0,1-7.12,4.83A24,24,0,0,1,146.6,176a24.35,24.35,0,0,1-9-1.62,19.36,19.36,0,0,1-7.08-4.77,21.21,21.21,0,0,1-4.6-7.8,32.48,32.48,0,0,1-1.62-10.68A31.66,31.66,0,0,1,126,140.43a22.11,22.11,0,0,1,4.62-7.84,19.63,19.63,0,0,1,7.12-4.84,25.75,25.75,0,0,1,18.06,0,19.08,19.08,0,0,1,7.05,4.77,21.9,21.9,0,0,1,4.59,7.8A31.68,31.68,0,0,1,169.05,151Zm-13.88.13q0-6.56-2.25-9.94a7.15,7.15,0,0,0-6.32-3.39,7,7,0,0,0-6.25,3.32q-2.17,3.32-2.18,9.88t2.25,9.94a7.15,7.15,0,0,0,6.32,3.39A7,7,0,0,0,153,161Q155.17,157.67,155.17,151.1Z" transform="translate(0.02 -7.57)" fill="#d10a2c"/><path d="M219.62,151A31.66,31.66,0,0,1,218,161.64a22.27,22.27,0,0,1-4.63,7.84,19.45,19.45,0,0,1-7.11,4.83,24.08,24.08,0,0,1-9.05,1.66,24.4,24.4,0,0,1-9-1.62,19.36,19.36,0,0,1-7.08-4.77,21.33,21.33,0,0,1-4.59-7.8,32.47,32.47,0,0,1-1.63-10.68,31.91,31.91,0,0,1,1.66-10.67,22.27,22.27,0,0,1,4.63-7.84,19.55,19.55,0,0,1,7.12-4.84,25.75,25.75,0,0,1,18.06,0,19.08,19.08,0,0,1,7.05,4.77,22.2,22.2,0,0,1,4.59,7.8A31.68,31.68,0,0,1,219.62,151Zm-13.89.13q0-6.56-2.24-9.94a7.17,7.17,0,0,0-6.32-3.39,7,7,0,0,0-6.25,3.32q-2.19,3.32-2.18,9.88t2.24,9.94a7.17,7.17,0,0,0,6.33,3.39,7,7,0,0,0,6.25-3.32Q205.74,157.67,205.73,151.1Z" transform="translate(0.02 -7.57)" fill="#d10a2c"/><path d="M253.85,175.21l-7.9-16.3h-5.4v16.3H227.42V126.86h21.63a32.41,32.41,0,0,1,7.7.86,16.49,16.49,0,0,1,6,2.73,12.14,12.14,0,0,1,3.84,4.87,17.7,17.7,0,0,1,1.35,7.29,15.49,15.49,0,0,1-2.36,8.91,14.9,14.9,0,0,1-6.37,5.25l9.69,18.44Zm.72-32.26a5.26,5.26,0,0,0-1.35-3.73c-.9-1-2.42-1.45-4.55-1.45h-8.12v10.57h7.91c2.22,0,3.8-.46,4.72-1.38A5.4,5.4,0,0,0,254.57,143Z" transform="translate(0.02 -7.57)" fill="#d10a2c"/><path d="M341.06,159.63q0,7.44-4.49,11.51c-3,2.72-7.55,4.07-13.68,4.07H299.68V126.86H323q9,0,13,3.25t4,9.34a9.36,9.36,0,0,1-1.69,6,14.85,14.85,0,0,1-4.11,3.46,11.36,11.36,0,0,1,5.11,4A11.56,11.56,0,0,1,341.06,159.63Zm-14.23-18.37a4.21,4.21,0,0,0-.9-2.72c-.6-.74-1.7-1.11-3.32-1.11H312.53v7.66h10.08a4.27,4.27,0,0,0,3.29-1A4.05,4.05,0,0,0,326.83,141.26Zm1.1,18.62a4.22,4.22,0,0,0-4.76-4.63H312.53v9.39H323.1a4.62,4.62,0,0,0,3.66-1.34A5,5,0,0,0,327.93,159.88Z" transform="translate(0.02 -7.57)" fill="#d10a2c"/><path d="M349.56,175.21V126.86h13.67v48.35Z" transform="translate(0.02 -7.57)" fill="#d10a2c"/><path d="M402.12,175.21,392,154.63l-5,6v14.57H373.39V126.86h13.68v5.66c0,2.07,0,4.15,0,6.22s-.08,4-.17,5.73c.5-.78,1.13-1.7,1.86-2.76s1.53-2.17,2.39-3.32,1.71-2.3,2.59-3.45,1.7-2.21,2.48-3.18l3.87-4.9h16.31l-14.58,17.06L418,175.21Z" transform="translate(0.02 -7.57)" fill="#d10a2c"/><path d="M424.09,175.21V126.86h37v11.26H437.35v6.49h14.3v11h-14.3V164H461.6v11.26Z" transform="translate(0.02 -7.57)" fill="#d10a2c"/><path d="M33.77,65.71,22.28,42.27l-5.66,6.84v16.6H1V10.64H16.62v6.45c0,2.36,0,4.72,0,7.08s-.09,4.54-.2,6.53c.58-.89,1.29-1.94,2.12-3.15s1.75-2.46,2.72-3.77,2-2.63,3-3.94,1.94-2.51,2.83-3.62l4.41-5.58H50L33.37,30.07,51.86,65.71Z" transform="translate(0.02 -7.57)" fill="#fff"/><path d="M58.79,65.71V10.64H101V23.46H73.89v7.4H90.18V43.45H73.89v9.44h27.62V65.71Z" transform="translate(0.02 -7.57)" fill="#fff"/><path d="M111.66,65.71V10.64h15.57V65.71Z" transform="translate(0.02 -7.57)" fill="#fff"/><path d="M182.62,48.8a17.93,17.93,0,0,1-1.69,8.1,14.66,14.66,0,0,1-4.72,5.51,21.29,21.29,0,0,1-7.2,3.14,38.36,38.36,0,0,1-9.13,1,42.26,42.26,0,0,1-12.78-1.93,42.37,42.37,0,0,1-10.43-4.76l7.4-12a28.29,28.29,0,0,0,3.5,2q2,1,4.17,1.77A32.81,32.81,0,0,0,156.11,53a19.21,19.21,0,0,0,4.09.48c2.72,0,4.6-.26,5.62-.79a2.81,2.81,0,0,0,1.54-2.75,2.44,2.44,0,0,0-.44-1.42,4.18,4.18,0,0,0-1.49-1.22,17.06,17.06,0,0,0-2.87-1.18c-1.21-.39-2.73-.8-4.57-1.22a79.85,79.85,0,0,1-8.65-2.52A20.53,20.53,0,0,1,143.2,39a12.71,12.71,0,0,1-3.65-4.84,17.6,17.6,0,0,1-1.22-7,16.31,16.31,0,0,1,1.53-7.08,15.56,15.56,0,0,1,4.37-5.51A20.6,20.6,0,0,1,151.07,11a29.91,29.91,0,0,1,9-1.26,41.08,41.08,0,0,1,12.31,1.65A35.59,35.59,0,0,1,182,16.15l-7.39,12a33.84,33.84,0,0,0-7.4-3.85,23.24,23.24,0,0,0-7.95-1.34c-2.31,0-3.83.32-4.56.94a3.09,3.09,0,0,0-1.1,2.44,2.24,2.24,0,0,0,.43,1.38,4,4,0,0,0,1.46,1.1,17.35,17.35,0,0,0,2.75,1c1.15.35,2.62.73,4.41,1.15a68.24,68.24,0,0,1,9,2.75,22.81,22.81,0,0,1,6.21,3.54,12.61,12.61,0,0,1,3.62,4.88A17.28,17.28,0,0,1,182.62,48.8Z" transform="translate(0.02 -7.57)" fill="#fff"/><path d="M192.22,65.71V10.64h42.17V23.46H207.32v7.4h16.29V43.45H207.32v9.44h27.62V65.71Z" transform="translate(0.02 -7.57)" fill="#fff"/><path d="M274.79,65.71l-9-18.57h-6.15V65.71H244.69V10.64h24.63a36.79,36.79,0,0,1,8.77,1,18.72,18.72,0,0,1,6.81,3.11,13.9,13.9,0,0,1,4.36,5.55,20.07,20.07,0,0,1,1.54,8.3,17.62,17.62,0,0,1-2.69,10.14,16.8,16.8,0,0,1-7.25,6l11,21ZM275.61,29a6,6,0,0,0-1.54-4.25c-1-1.1-2.75-1.65-5.18-1.65h-9.25v12h9q3.81,0,5.38-1.58A6.14,6.14,0,0,0,275.61,29Z" transform="translate(0.02 -7.57)" fill="#fff"/><path d="M367.82,65.71V52.57c0-2.72,0-5.31.08-7.75s.13-4.73.23-6.88c-.41,1.05-.88,2.2-1.41,3.46s-1.07,2.53-1.64,3.82-1.15,2.54-1.72,3.77-1.09,2.35-1.56,3.35L354.6,67.6l-7.2-15.26c-.46-1-1-2.11-1.56-3.35s-1.15-2.49-1.72-3.77-1.12-2.56-1.64-3.82-1-2.41-1.41-3.46q.15,3.23.23,6.88c.06,2.44.08,5,.08,7.75V65.71H327V10.64h14l6.77,14.71c.78,1.78,1.56,3.5,2.32,5.15s1.44,3.2,2,4.65,1.13,2.74,1.58,3.89a30.2,30.2,0,0,1,1,2.91,70.1,70.1,0,0,1,2.52-6.65q1.8-4.29,4.4-9.95l6.77-14.71h13.85V65.71Z" transform="translate(0.02 -7.57)" fill="#fff"/><path d="M438.15,48.24a18.66,18.66,0,0,1-1.69,8.27,15.23,15.23,0,0,1-4.8,5.7,21.08,21.08,0,0,1-7.59,3.3A43.69,43.69,0,0,1,414,66.58a35.51,35.51,0,0,1-12.9-2.25,34,34,0,0,1-10.31-6.17l7.87-9.92a30.51,30.51,0,0,0,7.24,4.17A22,22,0,0,0,414.32,54q4.79,0,6.92-1.38a4.68,4.68,0,0,0,2.12-4.21c0-1.94-.59-3.3-1.77-4.09s-3.18-1.18-6-1.18h-7.94V31.25h7.08c2.41,0,4.08-.31,5-.94s1.38-1.86,1.38-3.7a3.72,3.72,0,0,0-1.77-3.34c-1.18-.76-3.13-1.15-5.86-1.15a20.4,20.4,0,0,0-7.24,1.22,29.26,29.26,0,0,0-6.45,3.5l-7.24-9.91a35,35,0,0,1,4.13-2.79,32.17,32.17,0,0,1,4.84-2.28,31.68,31.68,0,0,1,5.67-1.54,38.5,38.5,0,0,1,6.68-.55,45.23,45.23,0,0,1,9,.83,20,20,0,0,1,7,2.71,12.86,12.86,0,0,1,4.49,4.92,15.79,15.79,0,0,1,1.57,7.36,11.37,11.37,0,0,1-.63,4,11.54,11.54,0,0,1-1.61,3,9.89,9.89,0,0,1-2.32,2.2,23.2,23.2,0,0,1-2.75,1.61,17.76,17.76,0,0,1,3.65,1.38,10.33,10.33,0,0,1,3.07,2.36,11.34,11.34,0,0,1,2.09,3.5A13,13,0,0,1,438.15,48.24Z" transform="translate(0.02 -7.57)" fill="#fff"/><path d="M461.84,14.41a6.27,6.27,0,0,1-2.29,5.16,9.21,9.21,0,0,1-6,1.85,9,9,0,0,1-5.82-1.85,6.27,6.27,0,0,1-2.28-5.16,6.14,6.14,0,0,1,2.28-4.91,8.68,8.68,0,0,1,5.82-1.93,8.92,8.92,0,0,1,6,1.93A6.15,6.15,0,0,1,461.84,14.41Zm-15.35,51.3V24.41h14.09v41.3Z" transform="translate(0.02 -7.57)" fill="#fff"/><path d="M23.47,86.22v32H11.79v-32H0V76H35.27V86.22Z" transform="translate(0.02 -7.57)" fill="#8a8a8d"/><path d="M67.13,118.2V101.58H54V118.2H42.08V76H54V91.4H67.13V76H79.06V118.2Z" transform="translate(0.02 -7.57)" fill="#8a8a8d"/><path d="M87.61,118.2V76h32.28v9.82H99.17v5.66h12.47v9.64H99.17v7.22h21.14v9.82Z" transform="translate(0.02 -7.57)" fill="#8a8a8d"/><path d="M184.39,100.19a23.11,23.11,0,0,1-1.42,8.55,14.71,14.71,0,0,1-9.82,9.1,27.06,27.06,0,0,1-14.72,0,14.68,14.68,0,0,1-5.81-3.28,15.48,15.48,0,0,1-3.83-5.82,23.57,23.57,0,0,1-1.38-8.55V76h11.92v24.15a10.37,10.37,0,0,0,1.6,6.15,5.77,5.77,0,0,0,5,2.22,5.62,5.62,0,0,0,5-2.22,10.76,10.76,0,0,0,1.53-6.15V76h11.93Z" transform="translate(0.02 -7.57)" fill="#8a8a8d"/><path d="M192.7,118.2V76h11.8v32h18.67V118.2Z" transform="translate(0.02 -7.57)" fill="#8a8a8d"/><path d="M251.47,86.22v32H239.79v-32H228V76h35.29V86.22Z" transform="translate(0.02 -7.57)" fill="#8a8a8d"/><path d="M270.38,118.2V76h11.93V118.2Z" transform="translate(0.02 -7.57)" fill="#8a8a8d"/><path d="M322.42,118.2V108.14c0-2.08,0-4.06.06-5.93s.1-3.62.18-5.27c-.32.8-.68,1.69-1.08,2.65s-.82,1.94-1.26,2.92-.88,1.95-1.32,2.89-.83,1.8-1.19,2.56l-5.51,11.69L306.79,108c-.36-.76-.76-1.61-1.2-2.56s-.88-1.9-1.31-2.89-.86-2-1.26-2.92-.76-1.85-1.08-2.65c.08,1.65.14,3.4.18,5.27s.06,3.85.06,5.93V118.2h-11V76h10.72l5.18,11.27c.6,1.36,1.19,2.67,1.78,3.94s1.1,2.45,1.56,3.55.86,2.1,1.21,3a23.36,23.36,0,0,1,.75,2.23,53,53,0,0,1,1.93-5.09q1.38-3.27,3.37-7.61L322.84,76h10.6V118.2Z" transform="translate(0.02 -7.57)" fill="#8a8a8d"/><path d="M369.21,118.2l-2.29-7.41H354.27L352,118.2H339.46L354.76,76h11.8l15.3,42.16Zm-5.9-19.45c-.36-1.37-.69-2.55-1-3.56s-.53-1.9-.75-2.71-.41-1.53-.57-2.19-.3-1.36-.42-2.08c-.12.72-.26,1.42-.42,2.11s-.36,1.42-.58,2.22-.47,1.71-.75,2.71-.6,2.17-1,3.5l-.79,2.77h7Z" transform="translate(0.02 -7.57)" fill="#8a8a8d"/><path d="M409.62,86.22v32H397.94v-32H386.13V76h35.29V86.22Z" transform="translate(0.02 -7.57)" fill="#8a8a8d"/><path d="M428.23,118.2V76h32.28v9.82H439.79v5.66h12.47v9.64H439.79v7.22h21.14v9.82Z" transform="translate(0.02 -7.57)" fill="#8a8a8d"/></svg>