<svg id="P11_THE_FIRST_DRIVE-TRAIN_copy" data-name="P11 THE FIRST DRIVE-TRAIN copy" xmlns="http://www.w3.org/2000/svg" viewBox="0 0 1084.57 199.23"><title>crank-arms</title><path d="M101.73,89.79a83,83,0,0,1-7,11.2,44.21,44.21,0,0,1-9.71,9.54,49.18,49.18,0,0,1-13.53,6.73,57.94,57.94,0,0,1-18.09,2.57,53.74,53.74,0,0,1-22.82-4.57A47.34,47.34,0,0,1,14,102.73,53.41,53.41,0,0,1,3.89,83.81a80.17,80.17,0,0,1-3.4-23.9,75.45,75.45,0,0,1,3.9-25.06A53.84,53.84,0,0,1,15.34,16,48,48,0,0,1,32.1,4.15,54.12,54.12,0,0,1,53.6,0,66.35,66.35,0,0,1,71.93,2.24,38.36,38.36,0,0,1,85.21,8.88a39.3,39.3,0,0,1,9.38,10.79,86.61,86.61,0,0,1,6.8,14.52L72.18,45.64A74,74,0,0,0,69,38.34a22.4,22.4,0,0,0-3.82-5.56,15.69,15.69,0,0,0-5-3.49,16.79,16.79,0,0,0-6.8-1.24,15.27,15.27,0,0,0-8.63,2.41,18.89,18.89,0,0,0-6.06,6.63,32,32,0,0,0-3.48,10,70.2,70.2,0,0,0-1.08,12.78,68.07,68.07,0,0,0,1.08,12.45,32.93,32.93,0,0,0,3.48,10.13,19.56,19.56,0,0,0,6.06,6.8,15.52,15.52,0,0,0,9,2.49,19.78,19.78,0,0,0,6.64-1,15.16,15.16,0,0,0,5.14-3.07A29.68,29.68,0,0,0,70,82.57c1.43-2,2.93-4.45,4.48-7.22Z" fill="#d10a2c"/><path d="M176,118,157,78.83h-13V118H112.51V1.83h52A77.23,77.23,0,0,1,183,3.9a39.48,39.48,0,0,1,14.35,6.56,29.17,29.17,0,0,1,9.21,11.7q3.24,7.22,3.24,17.51,0,13.11-5.66,21.41a35.76,35.76,0,0,1-15.3,12.61L212.09,118Zm1.75-77.5a12.66,12.66,0,0,0-3.25-9q-3.26-3.48-10.93-3.48H144.05V53.44h19c5.34,0,9.11-1.1,11.34-3.32S177.74,44.7,177.74,40.5Z" fill="#d10a2c"/><path d="M299.72,118l-6.31-20.41H258.56L252.25,118H217.73L259.89,1.83h32.53L334.57,118ZM283.46,64.4q-1.5-5.64-2.66-9.8c-.77-2.76-1.47-5.25-2.07-7.47s-1.14-4.23-1.58-6.05-.83-3.74-1.16-5.73q-.5,3-1.16,5.81c-.45,1.88-1,3.93-1.58,6.14s-1.3,4.7-2.08,7.47-1.65,6-2.65,9.63L266.36,72h19.25Z" fill="#d10a2c"/><path d="M420.21,118,392.5,79.66c-1.33-1.76-2.88-4-4.65-6.55s-3.52-5.2-5.23-7.8-3.32-5.06-4.81-7.39-2.63-4.15-3.4-5.47A50.28,50.28,0,0,1,374.9,58c.11,2.38.22,5,.34,7.8s.16,5.72.16,8.71V118H344.53V1.83h28.38l25.56,34.35q2,2.66,4.73,6.64t5.39,8q2.66,4,4.82,7.46c1.43,2.33,2.49,4.1,3.15,5.32a50.07,50.07,0,0,1-.5-5.56q-.17-3.57-.33-7.8c-.11-2.83-.16-5.73-.16-8.72V1.83h30.87V118Z" fill="#d10a2c"/><path d="M532.41,118,508.17,68.54,496.22,83v35H463.36V1.83h32.86V15.44q0,7.46-.08,14.93t-.41,13.78c1.21-1.88,2.71-4.09,4.48-6.64s3.68-5.2,5.72-8,4.12-5.53,6.23-8.3,4.09-5.31,6-7.63l9.3-11.78H566.6l-35,41,39,75.18Z" fill="#d10a2c"/><path d="M701.69,118l-6.31-20.41H660.53L654.22,118H619.7L661.86,1.83h32.53L736.54,118ZM685.42,64.4q-1.49-5.64-2.65-9.8t-2.08-7.47q-.91-3.32-1.57-6.05c-.45-1.83-.83-3.74-1.16-5.73q-.51,3-1.17,5.81c-.44,1.88-1,3.93-1.57,6.14s-1.3,4.7-2.08,7.47-1.66,6-2.65,9.63L668.33,72h19.25Z" fill="#d10a2c"/><path d="M810,118,791,78.83H778V118H746.5V1.83h52A77.2,77.2,0,0,1,817,3.9a39.53,39.53,0,0,1,14.36,6.56,29.25,29.25,0,0,1,9.21,11.7q3.24,7.22,3.24,17.51,0,13.11-5.66,21.41a35.79,35.79,0,0,1-15.31,12.61L846.08,118Zm1.74-77.5a12.62,12.62,0,0,0-3.25-9q-3.26-3.48-10.92-3.48H778V53.44h19q8,0,11.34-3.32T811.72,40.5Z" fill="#d10a2c"/><path d="M944.83,118V90.29q0-8.64.16-16.35t.5-14.52q-1.32,3.31-3,7.3c-1.1,2.65-2.26,5.34-3.46,8s-2.43,5.37-3.63,8-2.31,5-3.3,7.06L917,122l-15.18-32.2q-1.5-3.15-3.31-7.06c-1.2-2.59-2.42-5.25-3.62-8s-2.37-5.4-3.47-8-2.09-5.09-3-7.3q.33,6.8.5,14.52t.16,16.35V118H858.69V1.83h29.54l14.28,31Q905,38.5,907.4,43.73c1.61,3.49,3,6.75,4.32,9.79s2.38,5.79,3.32,8.22a60.82,60.82,0,0,1,2.07,6.14q1.5-5,5.31-14t9.3-21L946,1.83H975.2V118Z" fill="#d10a2c"/><path d="M1084.57,82.32A37.79,37.79,0,0,1,1081,99.41a30.82,30.82,0,0,1-10,11.62,44.86,44.86,0,0,1-15.19,6.64,80.69,80.69,0,0,1-19.25,2.16,88.92,88.92,0,0,1-27-4.07,89,89,0,0,1-22-10l15.6-25.23a60,60,0,0,0,7.38,4.24,88.67,88.67,0,0,0,8.8,3.73,69.8,69.8,0,0,0,9.21,2.66,41.64,41.64,0,0,0,8.63,1q8.63,0,11.87-1.66c2.16-1.1,3.23-3,3.23-5.81a5.12,5.12,0,0,0-.91-3,9.14,9.14,0,0,0-3.15-2.58,35.84,35.84,0,0,0-6.06-2.49c-2.55-.83-5.75-1.68-9.63-2.57a170.05,170.05,0,0,1-18.25-5.31,43.52,43.52,0,0,1-13-7,26.85,26.85,0,0,1-7.72-10.21,37.48,37.48,0,0,1-2.57-14.77,34.33,34.33,0,0,1,3.24-14.94,33,33,0,0,1,9.21-11.62A43.65,43.65,0,0,1,1018,2.66,63,63,0,0,1,1036.94,0q14.94,0,26,3.49a74.62,74.62,0,0,1,20.33,10l-15.6,25.23a70.27,70.27,0,0,0-15.6-8.13,48.94,48.94,0,0,0-16.76-2.82q-7.3,0-9.63,2a6.45,6.45,0,0,0-2.32,5.14,4.78,4.78,0,0,0,.91,2.91,8.39,8.39,0,0,0,3.07,2.32,36.72,36.72,0,0,0,5.81,2.16q3.64,1.08,9.3,2.41a145.21,145.21,0,0,1,18.92,5.8,47.81,47.81,0,0,1,13.11,7.47,26.72,26.72,0,0,1,7.63,10.29A36.57,36.57,0,0,1,1084.57,82.32Z" fill="#d10a2c"/><path d="M46.72,171a38.61,38.61,0,0,1-1.85,12.86,19.54,19.54,0,0,1-5.56,8.42A22.5,22.5,0,0,1,30.16,197a50.13,50.13,0,0,1-12.63,1.43H0V144.32H18.92a47.1,47.1,0,0,1,11.51,1.31,21,21,0,0,1,8.76,4.44,20.37,20.37,0,0,1,5.56,8.23A35.45,35.45,0,0,1,46.72,171Zm-15.36.23a27.35,27.35,0,0,0-.66-6.41,10.46,10.46,0,0,0-2.12-4.4A8.67,8.67,0,0,0,24.71,158a18.44,18.44,0,0,0-5.87-.81h-3.7v28.42h3.24a21.08,21.08,0,0,0,5.95-.73,9,9,0,0,0,4.05-2.4,9.56,9.56,0,0,0,2.28-4.4A28.13,28.13,0,0,0,31.36,171.27Z" fill="#fff"/><path d="M52.67,198.38V144.32H94.06v12.59H67.5v7.26h16v12.35h-16v9.27H94.6v12.59Z" fill="#fff"/><path d="M144.11,181.78a17.57,17.57,0,0,1-1.66,7.95,14.31,14.31,0,0,1-4.64,5.41,20.77,20.77,0,0,1-7.06,3.09,38.11,38.11,0,0,1-9,1A43.07,43.07,0,0,1,99,192.67l7.26-11.74a27.89,27.89,0,0,0,3.43,2,41.63,41.63,0,0,0,4.1,1.73,31.55,31.55,0,0,0,4.28,1.24,19.15,19.15,0,0,0,4,.46c2.68,0,4.52-.25,5.52-.77a2.78,2.78,0,0,0,1.51-2.7,2.41,2.41,0,0,0-.43-1.39,4.26,4.26,0,0,0-1.47-1.2,16.31,16.31,0,0,0-2.81-1.16c-1.19-.38-2.68-.78-4.48-1.2a77.18,77.18,0,0,1-8.5-2.47,20.08,20.08,0,0,1-6-3.28,12.27,12.27,0,0,1-3.59-4.75,17.33,17.33,0,0,1-1.2-6.87,16,16,0,0,1,1.5-6.95,15.52,15.52,0,0,1,4.29-5.41,20.15,20.15,0,0,1,6.72-3.47,29.15,29.15,0,0,1,8.8-1.24A40.3,40.3,0,0,1,134,145.09a34.7,34.7,0,0,1,9.46,4.64l-7.26,11.73a33.22,33.22,0,0,0-7.26-3.78,22.89,22.89,0,0,0-7.8-1.31c-2.26,0-3.76.31-4.48.92a3,3,0,0,0-1.08,2.4A2.2,2.2,0,0,0,116,161a3.82,3.82,0,0,0,1.42,1.08,16,16,0,0,0,2.71,1c1.13.34,2.57.71,4.32,1.12A67.7,67.7,0,0,1,133.3,167a22.15,22.15,0,0,1,6.1,3.47,12.49,12.49,0,0,1,3.55,4.79A17,17,0,0,1,144.11,181.78Z" fill="#fff"/><path d="M150.83,198.38V144.32h15.29v54.06Z" fill="#fff"/><path d="M221.26,175.29q0,11.66-6.18,17.8t-18,6.14a27,27,0,0,1-10.16-1.85,21.39,21.39,0,0,1-7.88-5.45,25,25,0,0,1-5.09-8.76,35.61,35.61,0,0,1-1.82-11.82,36.53,36.53,0,0,1,1.62-11.12,24.77,24.77,0,0,1,4.83-8.81,22.71,22.71,0,0,1,7.88-5.83,26.06,26.06,0,0,1,10.85-2.12,35.65,35.65,0,0,1,8.73.93,17.64,17.64,0,0,1,6.21,2.82,17.13,17.13,0,0,1,4.4,4.75,38,38,0,0,1,3.29,6.64l-13.6,5.33a15,15,0,0,0-3.28-5.45q-2-2-5.83-2a8.36,8.36,0,0,0-4.44,1.12,8.22,8.22,0,0,0-2.9,3.09,15.73,15.73,0,0,0-1.58,4.67,33.2,33.2,0,0,0-.5,5.95q0,8.11,2.59,11.66t7.84,3.55a13.57,13.57,0,0,0,4-.5,7.09,7.09,0,0,0,2.67-1.43,6.23,6.23,0,0,0,1.58-2.12,10.25,10.25,0,0,0,.77-2.59h-9.81v-11.2h23.79Z" fill="#fff"/><path d="M262.19,198.38l-12.9-17.84c-.61-.82-1.34-1.84-2.16-3s-1.63-2.42-2.43-3.63-1.55-2.36-2.24-3.44-1.22-1.93-1.58-2.55a23.74,23.74,0,0,1,.23,2.59q.07,1.66.15,3.63c.05,1.31.08,2.67.08,4.06v20.23H227V144.32h13.21l11.89,16c.62.82,1.36,1.85,2.21,3.09l2.51,3.7c.82,1.24,1.56,2.4,2.23,3.48s1.16,1.9,1.47,2.47a23.74,23.74,0,0,1-.23-2.59c-.05-1.11-.1-2.31-.15-3.63s-.08-2.66-.08-4.05V144.32h14.36v54.06Z" fill="#fff"/><path d="M282.27,198.38V144.32h41.4v12.59H297.1v7.26h16v12.35h-16v9.27h27.11v12.59Z" fill="#fff"/><path d="M377.42,171a38.59,38.59,0,0,1-1.86,12.86,19.45,19.45,0,0,1-5.56,8.42,22.5,22.5,0,0,1-9.15,4.63,50.13,50.13,0,0,1-12.63,1.43H330.69V144.32h18.92a47.1,47.1,0,0,1,11.51,1.31,21.12,21.12,0,0,1,8.77,4.44,20.58,20.58,0,0,1,5.56,8.23A35.67,35.67,0,0,1,377.42,171Zm-15.37.23a27.35,27.35,0,0,0-.66-6.41,10.34,10.34,0,0,0-2.12-4.4,8.69,8.69,0,0,0-3.86-2.51,18.52,18.52,0,0,0-5.87-.81h-3.71v28.42h3.24a21.08,21.08,0,0,0,5.95-.73,9,9,0,0,0,4.05-2.4,9.56,9.56,0,0,0,2.28-4.4A27.63,27.63,0,0,0,362.05,171.27Z" fill="#fff"/><path d="M433.64,157.37v41h-15v-41H403.52V144.32h45.26v13.05Z" fill="#fff"/><path d="M502.22,171.27a35.37,35.37,0,0,1-1.86,11.93,24.77,24.77,0,0,1-5.17,8.77,21.92,21.92,0,0,1-7.95,5.41,28.71,28.71,0,0,1-20.2,0,21.71,21.71,0,0,1-7.92-5.32,24.15,24.15,0,0,1-5.13-8.73,36.2,36.2,0,0,1-1.82-11.93A35.37,35.37,0,0,1,454,159.5a24.77,24.77,0,0,1,5.17-8.77,21.87,21.87,0,0,1,8-5.41,27.06,27.06,0,0,1,10.11-1.85,27.38,27.38,0,0,1,10.08,1.81,21.58,21.58,0,0,1,7.88,5.33,24.73,24.73,0,0,1,5.13,8.73A35.41,35.41,0,0,1,502.22,171.27Zm-15.53.16q0-7.34-2.51-11.12a8,8,0,0,0-7.06-3.79,7.86,7.86,0,0,0-7,3.71q-2.43,3.71-2.43,11t2.51,11.12a8,8,0,0,0,7.06,3.79,7.86,7.86,0,0,0,7-3.71Q486.69,178.77,486.69,171.43Z" fill="#fff"/><path d="M545.16,157.06v7.49h16.91v12.67H545.16v21.16H530.25V144.32H573v12.74Z" fill="#fff"/><path d="M578.36,198.38V144.32h15.3v54.06Z" fill="#fff"/><path d="M629.8,157.37v41h-15v-41H599.68V144.32h45.25v13.05Z" fill="#fff"/><path d="M707.88,198.38l-2.94-9.5H688.72l-2.93,9.5H669.72l19.62-54.06h15.14l19.61,54.06Zm-7.57-24.94c-.47-1.75-.88-3.27-1.24-4.56s-.68-2.45-1-3.48-.53-2-.74-2.82-.38-1.73-.54-2.66q-.23,1.4-.54,2.7c-.2.88-.45,1.83-.73,2.86s-.61,2.19-1,3.48-.77,2.78-1.23,4.48l-1,3.55h9Z" fill="#fff"/><path d="M763.94,198.38l-12.89-17.84c-.62-.82-1.34-1.84-2.17-3s-1.63-2.42-2.43-3.63-1.54-2.36-2.24-3.44-1.22-1.93-1.58-2.55a23.74,23.74,0,0,1,.23,2.59q.07,1.66.15,3.63c0,1.31.08,2.67.08,4.06v20.23H728.73V144.32h13.2l11.9,16c.61.82,1.35,1.85,2.2,3.09s1.68,2.47,2.51,3.7,1.57,2.4,2.24,3.48,1.16,1.9,1.46,2.47a23.74,23.74,0,0,1-.23-2.59c0-1.11-.1-2.31-.15-3.63s-.08-2.66-.08-4.05V144.32h14.37v54.06Z" fill="#fff"/><path d="M814.92,178.22v20.16H799.78V178.45l-20-34.13h17.3l4.17,8.19q2.16,4.25,3.78,7.91a65,65,0,0,1,2.39,6.06q.78-2.39,2.4-6.06t3.78-7.91l4.17-8.19h17.15Z" fill="#fff"/><path d="M890.48,198.38l-8.83-18.23h-6v18.23H860.94V144.32h24.17a36.11,36.11,0,0,1,8.62,1,18.41,18.41,0,0,1,6.68,3.06,13.6,13.6,0,0,1,4.28,5.44,19.77,19.77,0,0,1,1.51,8.15,17.35,17.35,0,0,1-2.63,10,16.61,16.61,0,0,1-7.13,5.87l10.84,20.62Zm.81-36.07a5.87,5.87,0,0,0-1.51-4.17q-1.51-1.62-5.08-1.62h-9.08v11.82h8.84c2.49,0,4.24-.52,5.28-1.55A6,6,0,0,0,891.29,162.31Z" fill="#fff"/><path d="M913.53,198.38V144.32h15.3v54.06Z" fill="#fff"/><path d="M983.81,171A38.61,38.61,0,0,1,982,183.9a19.54,19.54,0,0,1-5.56,8.42,22.5,22.5,0,0,1-9.15,4.63,50.13,50.13,0,0,1-12.63,1.43H937.09V144.32H956a47.1,47.1,0,0,1,11.51,1.31,21,21,0,0,1,8.76,4.44,20.37,20.37,0,0,1,5.56,8.23A35.45,35.45,0,0,1,983.81,171Zm-15.37.23a27.39,27.39,0,0,0-.65-6.41,10.35,10.35,0,0,0-2.13-4.4A8.58,8.58,0,0,0,961.8,158a18.44,18.44,0,0,0-5.87-.81h-3.7v28.42h3.24a21.08,21.08,0,0,0,5.95-.73,9,9,0,0,0,4.05-2.4,9.56,9.56,0,0,0,2.28-4.4A28.18,28.18,0,0,0,968.44,171.27Z" fill="#fff"/><path d="M989.76,198.38V144.32h41.39v12.59h-26.56v7.26h16v12.35h-16v9.27h27.1v12.59Z" fill="#fff"/><path d="M1067.72,198.38l-8.83-18.23h-6v18.23h-14.67V144.32h24.17a36.17,36.17,0,0,1,8.62,1,18.41,18.41,0,0,1,6.68,3.06,13.6,13.6,0,0,1,4.28,5.44,19.77,19.77,0,0,1,1.51,8.15,17.35,17.35,0,0,1-2.63,10,16.61,16.61,0,0,1-7.13,5.87l10.84,20.62Zm.81-36.07a5.87,5.87,0,0,0-1.51-4.17c-1-1.08-2.71-1.62-5.08-1.62h-9.09v11.82h8.85c2.49,0,4.24-.52,5.28-1.55A6,6,0,0,0,1068.53,162.31Z" fill="#fff"/></svg>