<svg id="P22_GREATER_COMFORT" data-name="P22 GREATER COMFORT" xmlns="http://www.w3.org/2000/svg" viewBox="0 0 1084.81 141.54"><title>greater-comfort</title><path d="M71.89,46.29q0,17-9,25.9T36.72,81.12A39.27,39.27,0,0,1,22,78.43,31,31,0,0,1,10.49,70.5,36.42,36.42,0,0,1,3.07,57.75,51.81,51.81,0,0,1,.43,40.56,53.25,53.25,0,0,1,2.79,24.38a36,36,0,0,1,7-12.81A33,33,0,0,1,21.27,3.09,37.83,37.83,0,0,1,37.06,0a52,52,0,0,1,12.7,1.35,26,26,0,0,1,9,4.1,25.23,25.23,0,0,1,6.4,6.91A55,55,0,0,1,70,22L50.2,29.77a22,22,0,0,0-4.77-7.92Q42.57,19,37,19a12,12,0,0,0-6.46,1.63,11.86,11.86,0,0,0-4.22,4.49,22.74,22.74,0,0,0-2.3,6.8,47.16,47.16,0,0,0-.73,8.65q0,11.8,3.76,17T38.41,62.7A19.86,19.86,0,0,0,44.25,62a10.34,10.34,0,0,0,3.88-2.07,9.25,9.25,0,0,0,2.3-3.09A15.15,15.15,0,0,0,51.55,53H37.28V36.74H71.89Z" fill="#d10a2c"/><path d="M123.18,79.89,110.34,53.37h-8.79V79.89H80.2V1.24h35.17a52,52,0,0,1,12.53,1.4,26.83,26.83,0,0,1,9.72,4.44A19.85,19.85,0,0,1,143.85,15,28.89,28.89,0,0,1,146,26.85q0,8.88-3.83,14.5a24.2,24.2,0,0,1-10.36,8.54l15.77,30Zm1.18-52.47a8.52,8.52,0,0,0-2.2-6.07c-1.47-1.58-3.94-2.36-7.4-2.36H101.55V36.18h12.87c3.62,0,6.17-.75,7.68-2.25S124.36,30.26,124.36,27.42Z" fill="#d10a2c"/><path d="M156.16,79.89V1.24h60.22V19.55H177.73V30.11H201v18H177.73V61.57h39.44V79.89Z" fill="#d10a2c"/><path d="M277.39,79.89l-4.27-13.82h-23.6l-4.27,13.82H221.88L250.42,1.24h22L301,79.89Zm-11-36.3q-1-3.81-1.8-6.62c-.53-1.88-1-3.56-1.41-5.06s-.76-2.87-1.06-4.1-.56-2.53-.79-3.88c-.22,1.35-.49,2.66-.79,3.93s-.65,2.66-1.06,4.16-.88,3.19-1.41,5.06-1.12,4-1.8,6.51l-1.46,5.17h13Z" fill="#d10a2c"/><path d="M348.28,20.22V79.89H326.49V20.22h-22v-19h65.84v19Z" fill="#d10a2c"/><path d="M378.51,79.89V1.24h60.22V19.55H400.08V30.11h23.26v18H400.08V61.57h39.44V79.89Z" fill="#d10a2c"/><path d="M491.93,79.89,479.09,53.37H470.3V79.89H449V1.24h35.16a52,52,0,0,1,12.53,1.4,26.83,26.83,0,0,1,9.72,4.44A19.78,19.78,0,0,1,512.61,15a28.89,28.89,0,0,1,2.19,11.85q0,8.88-3.83,14.5a24.28,24.28,0,0,1-10.37,8.54l15.77,30Zm1.18-52.47a8.52,8.52,0,0,0-2.2-6.07C489.44,19.77,487,19,483.51,19H470.3V36.18h12.88q5.42,0,7.67-2.25T493.11,27.42Z" fill="#d10a2c"/><path d="M622.77,60.79a55.18,55.18,0,0,1-4.72,7.58,30.08,30.08,0,0,1-6.57,6.46,33.37,33.37,0,0,1-9.16,4.55,39.15,39.15,0,0,1-12.25,1.74A36.48,36.48,0,0,1,574.62,78a32.17,32.17,0,0,1-11.23-8.48,36.35,36.35,0,0,1-6.86-12.81,54.49,54.49,0,0,1-2.3-16.18,51.1,51.1,0,0,1,2.64-17,36.6,36.6,0,0,1,7.42-12.75,32.38,32.38,0,0,1,11.35-8A36.69,36.69,0,0,1,590.19,0,44.85,44.85,0,0,1,602.6,1.52a26.09,26.09,0,0,1,9,4.49,26.83,26.83,0,0,1,6.35,7.3,58.35,58.35,0,0,1,4.6,9.84L602.77,30.9A50.34,50.34,0,0,0,600.63,26a15.09,15.09,0,0,0-2.58-3.76,10.54,10.54,0,0,0-3.37-2.36,11.44,11.44,0,0,0-4.61-.84,10.36,10.36,0,0,0-5.84,1.63,12.74,12.74,0,0,0-4.1,4.49,21.7,21.7,0,0,0-2.36,6.8,47.16,47.16,0,0,0-.73,8.65,45.87,45.87,0,0,0,.73,8.43,22.38,22.38,0,0,0,2.36,6.85,13.24,13.24,0,0,0,4.1,4.61,10.55,10.55,0,0,0,6.07,1.68,13.47,13.47,0,0,0,4.49-.67,10.27,10.27,0,0,0,3.48-2.08,20.82,20.82,0,0,0,3-3.48q1.46-2.09,3-4.89Z" fill="#d10a2c"/><path d="M699.62,40.45a51.66,51.66,0,0,1-2.7,17.36,36,36,0,0,1-7.52,12.75,31.83,31.83,0,0,1-11.58,7.87,41.82,41.82,0,0,1-29.38,0,31.52,31.52,0,0,1-11.51-7.75A34.77,34.77,0,0,1,629.45,58a52.65,52.65,0,0,1-2.64-17.36,51.66,51.66,0,0,1,2.7-17.36A36.24,36.24,0,0,1,637,10.56,31.76,31.76,0,0,1,648.61,2.7,41.75,41.75,0,0,1,678,2.64a31.13,31.13,0,0,1,11.46,7.75,35.75,35.75,0,0,1,7.47,12.7A51.62,51.62,0,0,1,699.62,40.45ZM677,40.67q0-10.66-3.65-16.18A11.66,11.66,0,0,0,663.1,19a11.43,11.43,0,0,0-10.16,5.39q-3.54,5.4-3.54,16.07t3.65,16.18a11.64,11.64,0,0,0,10.28,5.5,11.43,11.43,0,0,0,10.17-5.39Q677,51.34,677,40.67Z" fill="#d10a2c"/><path d="M766.14,79.89V61.12c0-3.89,0-7.58.11-11.07s.18-6.75.33-9.83q-.89,2.25-2,5t-2.34,5.45Q761,53.37,759.77,56l-2.23,4.78L747.26,82.58,737,60.79c-.67-1.43-1.42-3-2.23-4.78s-1.64-3.56-2.46-5.39-1.6-3.66-2.35-5.45-1.41-3.45-2-5c.15,3.08.26,6.35.34,9.83s.11,7.18.11,11.07V79.89H707.82V1.24h20l9.66,21c1.13,2.54,2.23,5,3.32,7.36s2.06,4.57,2.92,6.62,1.61,3.92,2.25,5.57,1.1,3,1.4,4.15c.68-2.24,1.87-5.41,3.6-9.49s3.82-8.82,6.29-14.21l9.66-21H786.7V79.89Z" fill="#d10a2c"/><path d="M819.84,19.77v10.9h24.61V49.1H819.84V79.89H798.16V1.24H860.4V19.77Z" fill="#d10a2c"/><path d="M937.14,40.45a51.66,51.66,0,0,1-2.7,17.36,36,36,0,0,1-7.52,12.75,31.83,31.83,0,0,1-11.58,7.87,41.82,41.82,0,0,1-29.38,0,31.61,31.61,0,0,1-11.51-7.75A34.77,34.77,0,0,1,867,58a52.65,52.65,0,0,1-2.64-17.36A51.66,51.66,0,0,1,867,23.31a36.24,36.24,0,0,1,7.53-12.75A31.76,31.76,0,0,1,886.13,2.7a41.75,41.75,0,0,1,29.38-.06A31.13,31.13,0,0,1,927,10.39a35.75,35.75,0,0,1,7.47,12.7A51.62,51.62,0,0,1,937.14,40.45Zm-22.58.22q0-10.66-3.65-16.18A11.66,11.66,0,0,0,900.63,19a11.44,11.44,0,0,0-10.17,5.39q-3.54,5.4-3.54,16.07t3.65,16.18a11.64,11.64,0,0,0,10.28,5.5A11.43,11.43,0,0,0,911,56.74Q914.56,51.34,914.56,40.67Z" fill="#d10a2c"/><path d="M988.32,79.89,975.48,53.37h-8.79V79.89H945.34V1.24h35.17A52,52,0,0,1,993,2.64a26.83,26.83,0,0,1,9.72,4.44A19.85,19.85,0,0,1,1009,15a28.89,28.89,0,0,1,2.19,11.85q0,8.88-3.83,14.5A24.2,24.2,0,0,1,997,49.89l15.77,30Zm1.18-52.47a8.52,8.52,0,0,0-2.2-6.07c-1.47-1.58-3.94-2.36-7.4-2.36H966.69V36.18h12.87c3.62,0,6.17-.75,7.68-2.25S989.5,30.26,989.5,27.42Z" fill="#d10a2c"/><path d="M1061.86,20.22V79.89h-21.8V20.22h-22v-19h65.84v19Z" fill="#d10a2c"/><path d="M0,134.05V91.78H11.84v32.06H30.56v10.21Z" fill="#fff"/><path d="M34.73,134.05V91.78H67.1v9.84H46.32v5.68h12.5V117H46.32v7.25h21.2v9.84Z" fill="#fff"/><path d="M106.23,121.07a13.73,13.73,0,0,1-1.3,6.22,11.15,11.15,0,0,1-3.62,4.22,16.21,16.21,0,0,1-5.53,2.42,29.54,29.54,0,0,1-7,.78A33.73,33.73,0,0,1,71,129.58l5.68-9.18a21.65,21.65,0,0,0,2.68,1.54,31.36,31.36,0,0,0,3.2,1.36,27.27,27.27,0,0,0,3.36,1,15.06,15.06,0,0,0,3.14.36,10.43,10.43,0,0,0,4.32-.61,2.16,2.16,0,0,0,1.17-2.11,1.92,1.92,0,0,0-.33-1.09,3.26,3.26,0,0,0-1.15-.93,12.88,12.88,0,0,0-2.2-.91c-.93-.3-2.1-.61-3.5-.93a62.27,62.27,0,0,1-6.65-1.94A15.91,15.91,0,0,1,76,113.55a9.83,9.83,0,0,1-2.81-3.72,13.68,13.68,0,0,1-.93-5.37A12.45,12.45,0,0,1,73.41,99a11.94,11.94,0,0,1,3.35-4.23A15.9,15.9,0,0,1,82,92.08a22.76,22.76,0,0,1,6.89-1,31.37,31.37,0,0,1,9.45,1.27,27.22,27.22,0,0,1,7.4,3.62l-5.68,9.18a25.77,25.77,0,0,0-5.68-3,17.87,17.87,0,0,0-6.1-1c-1.77,0-2.94.24-3.5.72a2.37,2.37,0,0,0-.85,1.87,1.68,1.68,0,0,0,.34,1.06,3.16,3.16,0,0,0,1.11.85,13.54,13.54,0,0,0,2.12.78c.88.26,2,.56,3.38.88a52.32,52.32,0,0,1,6.88,2.11,17.08,17.08,0,0,1,4.77,2.72,9.66,9.66,0,0,1,2.78,3.74A13.19,13.19,0,0,1,106.23,121.07Z" fill="#fff"/><path d="M144.82,121.07a13.73,13.73,0,0,1-1.3,6.22,11.15,11.15,0,0,1-3.62,4.22,16.21,16.21,0,0,1-5.53,2.42,29.54,29.54,0,0,1-7,.78,33.73,33.73,0,0,1-17.82-5.13l5.68-9.18a21.65,21.65,0,0,0,2.68,1.54,31.36,31.36,0,0,0,3.2,1.36,27.27,27.27,0,0,0,3.36,1,15.06,15.06,0,0,0,3.14.36,10.43,10.43,0,0,0,4.32-.61,2.16,2.16,0,0,0,1.17-2.11,1.92,1.92,0,0,0-.33-1.09,3.26,3.26,0,0,0-1.15-.93,12.88,12.88,0,0,0-2.2-.91c-.93-.3-2.1-.61-3.5-.93a62.27,62.27,0,0,1-6.65-1.94,15.91,15.91,0,0,1-4.71-2.56,9.83,9.83,0,0,1-2.81-3.72,13.68,13.68,0,0,1-.93-5.37A12.45,12.45,0,0,1,112,99a11.94,11.94,0,0,1,3.35-4.23,15.9,15.9,0,0,1,5.25-2.71,22.76,22.76,0,0,1,6.89-1,31.37,31.37,0,0,1,9.45,1.27,27.22,27.22,0,0,1,7.4,3.62l-5.68,9.18a25.77,25.77,0,0,0-5.68-3,17.87,17.87,0,0,0-6.1-1c-1.77,0-2.94.24-3.5.72a2.37,2.37,0,0,0-.85,1.87,1.68,1.68,0,0,0,.34,1.06,3.16,3.16,0,0,0,1.11.85,13.54,13.54,0,0,0,2.12.78c.88.26,2,.56,3.38.88a52.32,52.32,0,0,1,6.88,2.11,17.08,17.08,0,0,1,4.77,2.72,9.66,9.66,0,0,1,2.78,3.74A13.19,13.19,0,0,1,144.82,121.07Z" fill="#fff"/><path d="M198.63,134.05V124q0-3.13.06-5.94c0-1.88.1-3.64.18-5.29-.32.81-.68,1.69-1.08,2.66s-.82,1.94-1.26,2.93-.89,2-1.32,2.9-.84,1.8-1.21,2.56l-5.52,11.72L183,123.78l-1.2-2.56c-.44-1-.88-1.92-1.32-2.9s-.87-2-1.27-2.93-.76-1.85-1.08-2.66c.08,1.65.14,3.41.18,5.29s.06,3.85.06,5.94v10.09H167.28V91.78H178l5.2,11.29c.6,1.37,1.19,2.69,1.78,4s1.1,2.46,1.57,3.57.86,2.1,1.21,3a22.46,22.46,0,0,1,.75,2.23c.36-1.21,1-2.91,1.93-5.1s2.06-4.74,3.39-7.64l5.19-11.29h10.63v42.27Z" fill="#fff"/><path d="M243.14,134.05l-2.3-7.43H228.16l-2.3,7.43H213.3l15.34-42.27h11.84l15.34,42.27Zm-5.92-19.51c-.37-1.37-.69-2.55-1-3.56s-.53-1.91-.75-2.72-.42-1.54-.58-2.2-.3-1.36-.42-2.09c-.12.73-.26,1.43-.42,2.12s-.36,1.43-.58,2.23S233,110,232.75,111s-.61,2.17-1,3.5l-.78,2.78h7Z" fill="#fff"/><path d="M259.74,134.05V91.78h12v42.27Z" fill="#fff"/><path d="M305.7,134.05l-10.08-14c-.49-.64-1.05-1.44-1.7-2.39s-1.27-1.89-1.9-2.83l-1.75-2.69c-.54-.85-1-1.51-1.24-2a18.05,18.05,0,0,1,.18,2c0,.86.08,1.81.12,2.84s.07,2.08.07,3.17v15.82H278.16V91.78h10.33l9.3,12.5c.48.64,1.06,1.45,1.72,2.41s1.32,1.93,2,2.9,1.23,1.87,1.76,2.72.9,1.49,1.14,1.93a18.29,18.29,0,0,1-.18-2c0-.87-.08-1.81-.12-2.84s-.06-2.08-.06-3.17V91.78h11.23v42.27Z" fill="#fff"/><path d="M343.2,102v32.07H331.49V102H319.65V91.78H355V102Z" fill="#fff"/><path d="M359.45,134.05V91.78h32.37v9.84H371v5.68h12.51V117H371v7.25h21.2v9.84Z" fill="#fff"/><path d="M424.85,134.05l-10.08-14c-.48-.64-1-1.44-1.69-2.39s-1.28-1.89-1.9-2.83-1.21-1.85-1.76-2.69-.95-1.51-1.23-2a18.05,18.05,0,0,1,.18,2c0,.86.08,1.81.12,2.84s.06,2.08.06,3.17v15.82H397.31V91.78h10.33l9.3,12.5c.49.64,1.06,1.45,1.72,2.41s1.32,1.93,2,2.9,1.22,1.87,1.75,2.72.9,1.49,1.15,1.93a15.78,15.78,0,0,1-.19-2c0-.87-.08-1.81-.12-2.84s-.06-2.08-.06-3.17V91.78H434.4v42.27Z" fill="#fff"/><path d="M467.85,134.05l-2.29-7.43H452.88l-2.3,7.43H438l15.34-42.27H465.2l15.34,42.27Zm-5.92-19.51c-.36-1.37-.68-2.55-1-3.56s-.54-1.91-.76-2.72-.41-1.54-.57-2.2-.3-1.36-.42-2.09c-.12.73-.27,1.43-.43,2.12s-.35,1.43-.57,2.23-.47,1.71-.75,2.72-.61,2.17-1,3.5l-.79,2.78h7Z" fill="#fff"/><path d="M511.7,134.05l-10.09-14c-.48-.64-1.05-1.44-1.69-2.39s-1.28-1.89-1.9-2.83-1.21-1.85-1.75-2.69-1-1.51-1.24-2a18.05,18.05,0,0,1,.18,2c0,.86.08,1.81.12,2.84s.06,2.08.06,3.17v15.82H484.16V91.78h10.33l9.3,12.5c.48.64,1,1.45,1.72,2.41s1.32,1.93,2,2.9,1.23,1.87,1.75,2.72.91,1.49,1.15,1.93a18.29,18.29,0,0,1-.18-2c0-.87-.08-1.81-.12-2.84s-.06-2.08-.06-3.17V91.78h11.23v42.27Z" fill="#fff"/><path d="M562.49,123.78a30.05,30.05,0,0,1-2.54,4.08,15.94,15.94,0,0,1-3.53,3.47,18,18,0,0,1-4.92,2.45,21.22,21.22,0,0,1-6.59.93,19.52,19.52,0,0,1-8.3-1.66,17,17,0,0,1-6-4.56,19.36,19.36,0,0,1-3.68-6.88,29.08,29.08,0,0,1-1.24-8.7,27.36,27.36,0,0,1,1.42-9.12,19.6,19.6,0,0,1,4-6.85,17.58,17.58,0,0,1,6.1-4.32A19.83,19.83,0,0,1,545,91.11a23.92,23.92,0,0,1,6.68.82,14,14,0,0,1,4.83,2.41,14.4,14.4,0,0,1,3.41,3.93,32.38,32.38,0,0,1,2.48,5.28l-10.63,4.17c-.37-1-.75-1.85-1.15-2.66a8.17,8.17,0,0,0-1.39-2,5.71,5.71,0,0,0-1.81-1.27,6.17,6.17,0,0,0-2.48-.45,5.61,5.61,0,0,0-3.14.87,7,7,0,0,0-2.2,2.42,11.46,11.46,0,0,0-1.27,3.65,25.7,25.7,0,0,0-.39,4.65,25,25,0,0,0,.39,4.53,11.88,11.88,0,0,0,1.27,3.69,7.15,7.15,0,0,0,2.2,2.47,5.61,5.61,0,0,0,3.26.91,7.34,7.34,0,0,0,2.42-.36,5.79,5.79,0,0,0,1.87-1.12,10.93,10.93,0,0,0,1.63-1.87,30.91,30.91,0,0,0,1.63-2.63Z" fill="#fff"/><path d="M566.41,134.05V91.78h32.37v9.84H578v5.68h12.5V117H578v7.25H599.2v9.84Z" fill="#fff"/><path d="M610.86,141.54h-7.43l.85-20.11h12.38Z" fill="#fff"/><path d="M638.34,134.05V91.78h32.37v9.84H649.93v5.68h12.5V117h-12.5v7.25h21.2v9.84Z" fill="#fff"/><path d="M703.5,134.05l-2.29-7.43H688.52l-2.29,7.43H673.67L689,91.78h11.83l15.34,42.27Zm-5.92-19.51c-.36-1.37-.68-2.55-1-3.56s-.54-1.91-.76-2.72-.41-1.54-.57-2.2-.31-1.36-.43-2.09c-.12.73-.26,1.43-.42,2.12s-.35,1.43-.57,2.23-.48,1.71-.76,2.72-.6,2.17-1,3.5l-.79,2.78h7Z" fill="#fff"/><path d="M753.44,121.07a13.86,13.86,0,0,1-1.29,6.22,11.17,11.17,0,0,1-3.63,4.22,16.16,16.16,0,0,1-5.52,2.42,29.62,29.62,0,0,1-7,.78,33.73,33.73,0,0,1-17.81-5.13l5.67-9.18a21.82,21.82,0,0,0,2.69,1.54,30.43,30.43,0,0,0,3.2,1.36,27.12,27.12,0,0,0,3.35,1,15.21,15.21,0,0,0,3.14.36,10.37,10.37,0,0,0,4.32-.61,2.16,2.16,0,0,0,1.18-2.11,1.92,1.92,0,0,0-.33-1.09,3.46,3.46,0,0,0-1.15-.93A12.69,12.69,0,0,0,738,119c-.92-.3-2.09-.61-3.5-.93a62,62,0,0,1-6.64-1.94,15.91,15.91,0,0,1-4.71-2.56,9.73,9.73,0,0,1-2.81-3.72,13.67,13.67,0,0,1-.94-5.37A12.59,12.59,0,0,1,720.62,99,12.05,12.05,0,0,1,724,94.79a15.85,15.85,0,0,1,5.26-2.71,22.74,22.74,0,0,1,6.88-1,31.33,31.33,0,0,1,9.45,1.27A26.94,26.94,0,0,1,753,96l-5.68,9.18a25.71,25.71,0,0,0-5.67-3,18,18,0,0,0-6.1-1c-1.77,0-2.94.24-3.5.72a2.33,2.33,0,0,0-.85,1.87,1.74,1.74,0,0,0,.33,1.06,3.21,3.21,0,0,0,1.12.85,13.37,13.37,0,0,0,2.11.78c.89.26,2,.56,3.38.88a52.5,52.5,0,0,1,6.89,2.11,17.37,17.37,0,0,1,4.77,2.72,9.76,9.76,0,0,1,2.78,3.74A13.38,13.38,0,0,1,753.44,121.07Z" fill="#fff"/><path d="M758.7,134.05V91.78h11.95v42.27Z" fill="#fff"/><path d="M777.12,134.05V91.78h32.37v9.84H788.71v5.68h12.5V117h-12.5v7.25h21.2v9.84Z" fill="#fff"/><path d="M838.08,134.05l-6.9-14.25h-4.72v14.25H815V91.78h18.9a28.27,28.27,0,0,1,6.74.75,14.25,14.25,0,0,1,5.22,2.39,10.55,10.55,0,0,1,3.35,4.25,15.45,15.45,0,0,1,1.18,6.37,13.55,13.55,0,0,1-2.06,7.79,12.9,12.9,0,0,1-5.57,4.59l8.48,16.13Zm.64-28.2a4.57,4.57,0,0,0-1.19-3.26c-.79-.85-2.11-1.27-4-1.27h-7.1v9.24h6.91c2,0,3.32-.4,4.13-1.21A4.73,4.73,0,0,0,838.72,105.85Z" fill="#fff"/><path d="M895.12,102v32.07H883.4V102H871.57V91.78H907V102Z" fill="#fff"/><path d="M948.75,112.85a27.7,27.7,0,0,1-1.45,9.33,19.47,19.47,0,0,1-4,6.86,17,17,0,0,1-6.22,4.22,22.44,22.44,0,0,1-15.79,0,16.88,16.88,0,0,1-6.19-4.16,18.82,18.82,0,0,1-4-6.83,28.41,28.41,0,0,1-1.42-9.33,28,28,0,0,1,1.45-9.33,19.43,19.43,0,0,1,4.05-6.85,17.2,17.2,0,0,1,6.22-4.23,22.44,22.44,0,0,1,15.79,0,16.74,16.74,0,0,1,6.16,4.17,19.35,19.35,0,0,1,4,6.82A27.7,27.7,0,0,1,948.75,112.85Zm-12.14.12q0-5.73-2-8.69a6.25,6.25,0,0,0-5.53-3,6.12,6.12,0,0,0-5.46,2.9q-1.9,2.9-1.91,8.63t2,8.7a6.25,6.25,0,0,0,5.52,3,6.16,6.16,0,0,0,5.47-2.9Q936.62,118.72,936.61,113Z" fill="#fff"/><path d="M1007.51,116a23.14,23.14,0,0,1-1.42,8.58,14.77,14.77,0,0,1-9.84,9.12,25.75,25.75,0,0,1-7.4,1,25.45,25.45,0,0,1-7.37-1,14.85,14.85,0,0,1-5.83-3.29,15.4,15.4,0,0,1-3.83-5.83,23.59,23.59,0,0,1-1.39-8.58V91.78h12V116a10.39,10.39,0,0,0,1.6,6.16,5.77,5.77,0,0,0,5,2.24,5.6,5.6,0,0,0,5-2.24,10.69,10.69,0,0,0,1.54-6.16V91.78h12Z" fill="#fff"/><path d="M1047.07,121.07a13.86,13.86,0,0,1-1.3,6.22,11.17,11.17,0,0,1-3.63,4.22,16.16,16.16,0,0,1-5.52,2.42,29.62,29.62,0,0,1-7,.78,33.73,33.73,0,0,1-17.81-5.13l5.67-9.18a22.59,22.59,0,0,0,2.69,1.54,30.43,30.43,0,0,0,3.2,1.36,27.63,27.63,0,0,0,3.35,1,15.21,15.21,0,0,0,3.14.36,10.37,10.37,0,0,0,4.32-.61,2.16,2.16,0,0,0,1.18-2.11,1.92,1.92,0,0,0-.33-1.09,3.36,3.36,0,0,0-1.15-.93,12.88,12.88,0,0,0-2.2-.91q-1.39-.45-3.51-.93a62,62,0,0,1-6.64-1.94,15.91,15.91,0,0,1-4.71-2.56,9.83,9.83,0,0,1-2.81-3.72,13.68,13.68,0,0,1-.93-5.37,12.59,12.59,0,0,1,1.17-5.44,12.08,12.08,0,0,1,3.36-4.23,15.8,15.8,0,0,1,5.25-2.71,22.74,22.74,0,0,1,6.88-1,31.4,31.4,0,0,1,9.46,1.27,27,27,0,0,1,7.39,3.62l-5.67,9.18a26,26,0,0,0-5.68-3,17.91,17.91,0,0,0-6.1-1c-1.77,0-2.94.24-3.5.72a2.33,2.33,0,0,0-.85,1.87,1.74,1.74,0,0,0,.33,1.06,3.21,3.21,0,0,0,1.12.85,13.16,13.16,0,0,0,2.12.78c.88.26,2,.56,3.38.88a52.79,52.79,0,0,1,6.88,2.11,17.37,17.37,0,0,1,4.77,2.72,9.66,9.66,0,0,1,2.78,3.74A13.38,13.38,0,0,1,1047.07,121.07Z" fill="#fff"/><path d="M1052,134.05V91.78h32.37v9.84h-20.78v5.68h12.5V117h-12.5v7.25h21.2v9.84Z" fill="#fff"/></svg>