<svg id="P7_GUARANTEED_ACCURACY" data-name="P7 GUARANTEED ACCURACY" xmlns="http://www.w3.org/2000/svg" viewBox="0 0 1086.24 124.37"><title>guaranteed-accuracy</title><path d="M55.11,35.7q0,13.1-6.93,20T28,62.57a30.36,30.36,0,0,1-11.4-2.08,24.05,24.05,0,0,1-8.83-6.11A28.08,28.08,0,0,1,2,44.54,39.88,39.88,0,0,1,0,31.28,41.14,41.14,0,0,1,1.82,18.8,27.66,27.66,0,0,1,7.24,8.93a25.25,25.25,0,0,1,8.84-6.55A29.11,29.11,0,0,1,28.25,0,40.18,40.18,0,0,1,38,1,20.17,20.17,0,0,1,45,4.2,19.71,19.71,0,0,1,50,9.53,43.82,43.82,0,0,1,53.64,17L38.39,23a17.09,17.09,0,0,0-3.68-6.11q-2.22-2.21-6.55-2.2a8.76,8.76,0,0,0-8.23,4.72,17.54,17.54,0,0,0-1.78,5.24,37.15,37.15,0,0,0-.56,6.67q0,9.11,2.9,13.09t8.8,4a15.36,15.36,0,0,0,4.51-.56,8,8,0,0,0,3-1.6,7,7,0,0,0,1.77-2.38,11.43,11.43,0,0,0,.87-2.91h-11V28.34H55.11Z" fill="#d10a2c"/><path d="M114.39,35.7a33.22,33.22,0,0,1-2,12.31,22.16,22.16,0,0,1-5.63,8.36,21.84,21.84,0,0,1-8.49,4.72,36.49,36.49,0,0,1-10.62,1.48A36,36,0,0,1,77,61.09a21,21,0,0,1-8.36-4.72A22.16,22.16,0,0,1,63.17,48a33.9,33.9,0,0,1-2-12.31V1H78.34V35.7q0,5.64,2.29,8.84c1.53,2.14,4,3.21,7.24,3.21s5.68-1.07,7.15-3.21,2.21-5.08,2.21-8.84V1h17.16Z" fill="#d10a2c"/><path d="M162.05,61.61,158.75,51H140.56l-3.3,10.65h-18L141.25,1h17l22,60.66Zm-8.49-28c-.52-2-1-3.66-1.39-5.11s-.77-2.74-1.08-3.9-.6-2.21-.83-3.16-.43-1.95-.6-3c-.18,1-.38,2.05-.61,3s-.51,2.05-.82,3.21-.68,2.45-1.09,3.9-.86,3.12-1.38,5l-1.13,4h10.05Z" fill="#d10a2c"/><path d="M218.59,61.61l-9.9-20.45h-6.78V61.61H185.45V1h27.12A39.83,39.83,0,0,1,222.23,2a20.53,20.53,0,0,1,7.5,3.42,15.36,15.36,0,0,1,4.81,6.11,22.36,22.36,0,0,1,1.69,9.14q0,6.86-3,11.18a18.71,18.71,0,0,1-8,6.59l12.16,23.13Zm.91-40.47a6.58,6.58,0,0,0-1.7-4.68q-1.7-1.82-5.7-1.81H201.91V27.9h9.93c2.78,0,4.76-.57,5.92-1.73A6.78,6.78,0,0,0,219.5,21.14Z" fill="#d10a2c"/><path d="M283.19,61.61,279.9,51H261.7l-3.29,10.65h-18L262.4,1h17l22,60.66Zm-8.49-28q-.78-2.94-1.39-5.11l-1.08-3.9c-.32-1.15-.59-2.21-.82-3.16s-.43-1.95-.61-3q-.26,1.56-.6,3c-.24,1-.51,2.05-.83,3.21l-1.08,3.9c-.41,1.44-.87,3.12-1.39,5l-1.12,4h10.05Z" fill="#d10a2c"/><path d="M346.11,61.61l-14.47-20c-.7-.93-1.51-2.07-2.43-3.43s-1.84-2.71-2.73-4.07-1.73-2.64-2.51-3.86-1.38-2.16-1.78-2.86a28.55,28.55,0,0,1,.26,2.91c.06,1.24.11,2.6.17,4.07s.09,3,.09,4.55v22.7H306.59V1h14.82l13.34,17.94c.7.93,1.52,2.08,2.47,3.47s1.9,2.77,2.82,4.16,1.76,2.68,2.51,3.9,1.3,2.14,1.65,2.77a25.47,25.47,0,0,1-.26-2.9c-.06-1.24-.12-2.6-.17-4.08s-.09-3-.09-4.55V1H359.8V61.61Z" fill="#d10a2c"/><path d="M399.92,15.6v46H383.11v-46h-17V1h50.79V15.6Z" fill="#d10a2c"/><path d="M423.23,61.61V1h46.45V15.08H439.87v8.14h17.94V37.09H439.87v10.4h30.42V61.61Z" fill="#d10a2c"/><path d="M477.57,61.61V1H524V15.08H494.2v8.14h17.94V37.09H494.2v10.4h30.42V61.61Z" fill="#d10a2c"/><path d="M584.33,30.94a43.34,43.34,0,0,1-2.08,14.43A21.92,21.92,0,0,1,576,54.81,25.2,25.2,0,0,1,565.74,60a56.08,56.08,0,0,1-14.17,1.6H531.9V1h21.23A52.1,52.1,0,0,1,566,2.43a23.52,23.52,0,0,1,9.84,5,22.88,22.88,0,0,1,6.24,9.23A40,40,0,0,1,584.33,30.94Zm-17.25.26a30.94,30.94,0,0,0-.73-7.2A11.77,11.77,0,0,0,564,19.06a9.59,9.59,0,0,0-4.33-2.81,20.63,20.63,0,0,0-6.59-.91h-4.15V47.23h3.63a23.68,23.68,0,0,0,6.68-.82,10.18,10.18,0,0,0,4.55-2.69,10.9,10.9,0,0,0,2.55-4.94A31.37,31.37,0,0,0,567.08,31.2Z" fill="#d10a2c"/><path d="M655.3,61.61,652,51H633.81l-3.3,10.65h-18L634.5,1h17l22,60.66Zm-8.5-28c-.51-2-1-3.66-1.38-5.11s-.77-2.74-1.09-3.9-.59-2.21-.82-3.16-.43-1.95-.6-3c-.18,1-.38,2.05-.61,3s-.51,2.05-.82,3.21-.68,2.45-1.09,3.9-.86,3.12-1.38,5l-1.13,4h10Z" fill="#d10a2c"/><path d="M729,46.88a42.7,42.7,0,0,1-3.64,5.85,22.63,22.63,0,0,1-5.07,5,25.19,25.19,0,0,1-7.06,3.51,30,30,0,0,1-9.44,1.35,28.12,28.12,0,0,1-11.92-2.39,24.68,24.68,0,0,1-8.67-6.54A27.82,27.82,0,0,1,678,43.76a41.68,41.68,0,0,1-1.78-12.48,39.29,39.29,0,0,1,2-13.08,28.23,28.23,0,0,1,5.72-9.84,25,25,0,0,1,8.75-6.19A28.17,28.17,0,0,1,703.91,0a34.62,34.62,0,0,1,9.58,1.17,20.15,20.15,0,0,1,6.93,3.47,20.5,20.5,0,0,1,4.9,5.63,45.61,45.61,0,0,1,3.55,7.58l-15.25,6A38.18,38.18,0,0,0,712,20a11.91,11.91,0,0,0-2-2.91,8.07,8.07,0,0,0-2.6-1.81,8.66,8.66,0,0,0-3.55-.65,8,8,0,0,0-4.51,1.25,9.93,9.93,0,0,0-3.16,3.47,16.5,16.5,0,0,0-1.82,5.24,36.21,36.21,0,0,0-.57,6.67,35.18,35.18,0,0,0,.57,6.5,17,17,0,0,0,1.82,5.29,10.12,10.12,0,0,0,3.16,3.55,8.08,8.08,0,0,0,4.68,1.3,10.28,10.28,0,0,0,3.46-.52,7.88,7.88,0,0,0,2.69-1.6,15.43,15.43,0,0,0,2.34-2.69,43.79,43.79,0,0,0,2.34-3.77Z" fill="#d10a2c"/><path d="M785,46.88a42.7,42.7,0,0,1-3.64,5.85,22.63,22.63,0,0,1-5.07,5,25.19,25.19,0,0,1-7.06,3.51,30,30,0,0,1-9.44,1.35,28.12,28.12,0,0,1-11.92-2.39,24.68,24.68,0,0,1-8.67-6.54,27.82,27.82,0,0,1-5.28-9.88,41.68,41.68,0,0,1-1.78-12.48,39.29,39.29,0,0,1,2-13.08,28.23,28.23,0,0,1,5.72-9.84,25,25,0,0,1,8.75-6.19A28.17,28.17,0,0,1,759.89,0a34.62,34.62,0,0,1,9.58,1.17,20.15,20.15,0,0,1,6.93,3.47,20.5,20.5,0,0,1,4.9,5.63,45.61,45.61,0,0,1,3.55,7.58l-15.25,6A38.18,38.18,0,0,0,768,20a11.91,11.91,0,0,0-2-2.91,8.07,8.07,0,0,0-2.6-1.81,8.66,8.66,0,0,0-3.55-.65,8,8,0,0,0-4.51,1.25,9.93,9.93,0,0,0-3.16,3.47,16.5,16.5,0,0,0-1.82,5.24,36.21,36.21,0,0,0-.57,6.67,35.18,35.18,0,0,0,.57,6.5,17,17,0,0,0,1.82,5.29,10.12,10.12,0,0,0,3.16,3.55,8.08,8.08,0,0,0,4.68,1.3,10.39,10.39,0,0,0,3.47-.52,7.93,7.93,0,0,0,2.68-1.6,15.43,15.43,0,0,0,2.34-2.69,43.79,43.79,0,0,0,2.34-3.77Z" fill="#d10a2c"/><path d="M843.52,35.7a33.22,33.22,0,0,1-2,12.31,22.16,22.16,0,0,1-5.63,8.36,21.81,21.81,0,0,1-8.5,4.72,36.38,36.38,0,0,1-10.61,1.48,36,36,0,0,1-10.57-1.48,21.09,21.09,0,0,1-8.37-4.72A22.14,22.14,0,0,1,792.3,48a33.9,33.9,0,0,1-2-12.31V1h17.16V35.7q0,5.64,2.29,8.84c1.53,2.14,4,3.21,7.24,3.21s5.67-1.07,7.15-3.21,2.21-5.08,2.21-8.84V1h17.16Z" fill="#d10a2c"/><path d="M885.15,61.61l-9.9-20.45h-6.78V61.61H852V1h27.12A39.77,39.77,0,0,1,888.79,2a20.53,20.53,0,0,1,7.5,3.42,15.36,15.36,0,0,1,4.81,6.11,22.2,22.2,0,0,1,1.69,9.14q0,6.86-3,11.18a18.65,18.65,0,0,1-8,6.59L904,61.61Zm.91-40.47a6.61,6.61,0,0,0-1.69-4.68q-1.71-1.82-5.71-1.81H868.47V27.9h9.93c2.79,0,4.76-.57,5.92-1.73A6.78,6.78,0,0,0,886.06,21.14Z" fill="#d10a2c"/><path d="M949.76,61.61,946.46,51h-18.2L925,61.61H907L929,1h17l22,60.66Zm-8.5-28q-.78-2.94-1.38-5.11c-.41-1.44-.77-2.74-1.09-3.9s-.59-2.21-.82-3.16-.43-1.95-.61-3q-.25,1.56-.6,3c-.23,1-.51,2.05-.83,3.21s-.68,2.45-1.08,3.9-.87,3.12-1.39,5l-1.12,4h10Z" fill="#d10a2c"/><path d="M1023.5,46.88a42.7,42.7,0,0,1-3.64,5.85,23.06,23.06,0,0,1-5.07,5,25.33,25.33,0,0,1-7.06,3.51,30.09,30.09,0,0,1-9.45,1.35,28.07,28.07,0,0,1-11.91-2.39,24.68,24.68,0,0,1-8.67-6.54,27.82,27.82,0,0,1-5.28-9.88,41.68,41.68,0,0,1-1.78-12.48,39.55,39.55,0,0,1,2-13.08,28.39,28.39,0,0,1,5.72-9.84,25.13,25.13,0,0,1,8.76-6.19A28.17,28.17,0,0,1,998.37,0,34.62,34.62,0,0,1,1008,1.17a20.15,20.15,0,0,1,6.93,3.47,20.64,20.64,0,0,1,4.89,5.63,44.83,44.83,0,0,1,3.56,7.58l-15.25,6q-.8-2.08-1.65-3.81a11.91,11.91,0,0,0-2-2.91,8.18,8.18,0,0,0-2.6-1.81,8.71,8.71,0,0,0-3.56-.65,8,8,0,0,0-4.5,1.25,10,10,0,0,0-3.17,3.47,17,17,0,0,0-1.82,5.24,37.15,37.15,0,0,0-.56,6.67,36.1,36.1,0,0,0,.56,6.5,17.52,17.52,0,0,0,1.82,5.29,10.14,10.14,0,0,0,3.17,3.55,8.08,8.08,0,0,0,4.68,1.3,10.32,10.32,0,0,0,3.46-.52,8,8,0,0,0,2.69-1.6,15.43,15.43,0,0,0,2.34-2.69,43.79,43.79,0,0,0,2.34-3.77Z" fill="#d10a2c"/><path d="M1063.79,39V61.61h-17V39.26L1024.37,1h19.41l4.68,9.19q2.41,4.77,4.24,8.88a72.72,72.72,0,0,1,2.69,6.8,72.72,72.72,0,0,1,2.69-6.8q1.82-4.11,4.24-8.88L1067,1h19.24Z" fill="#d10a2c"/><path d="M43.61,107.68q0,7.6-4.58,11.76t-14,4.15H1.37V74.22H25.21q9.16,0,13.22,3.32t4.06,9.54a9.53,9.53,0,0,1-1.73,6.15,15,15,0,0,1-4.2,3.53,11.55,11.55,0,0,1,5.22,4A11.82,11.82,0,0,1,43.61,107.68ZM29.09,88.93a4.31,4.31,0,0,0-.92-2.78Q27.25,85,24.78,85H14.49v7.83H24.78a4.3,4.3,0,0,0,3.35-1.07A4.09,4.09,0,0,0,29.09,88.93Zm1.12,19a4.81,4.81,0,0,0-1.2-3.45,4.8,4.8,0,0,0-3.66-1.27H14.49v9.59H25.28A4.71,4.71,0,0,0,29,111.43,5.15,5.15,0,0,0,30.21,107.93Z" fill="#fff"/><path d="M49.47,123.59V74.22h14v49.37Z" fill="#fff"/><path d="M100.32,123.59l-10.3-21-5.08,6.14v14.88H71V74.22h14V80c0,2.11,0,4.23,0,6.34s-.09,4.07-.18,5.86c.52-.8,1.15-1.74,1.91-2.82S88.2,87.18,89.07,86s1.75-2.35,2.64-3.53,1.74-2.25,2.54-3.24l4-5h16.65L100,91.64l16.57,32Z" fill="#fff"/><path d="M119.92,123.59V74.22h37.81v11.5H133.47v6.63h14.59v11.28H133.47v8.47h24.75v11.49Z" fill="#fff"/><path d="M216.48,123.59l-2.68-8.67H199l-2.68,8.67H181.63l17.92-49.37h13.82l17.92,49.37Zm-6.92-22.78c-.42-1.6-.8-3-1.12-4.16s-.63-2.23-.89-3.17-.48-1.8-.67-2.58-.35-1.59-.49-2.43c-.14.84-.31,1.67-.49,2.47s-.42,1.67-.67,2.61-.56,2-.89,3.17-.7,2.54-1.12,4.09l-.92,3.25h8.18Z" fill="#fff"/><path d="M249.13,85.86V92.7h15.44v11.57H249.13v19.32H235.52V74.22h39.07V85.86Z" fill="#fff"/><path d="M304.56,86.14v37.45H290.88V86.14H277.06V74.22h41.33V86.14Z" fill="#fff"/><path d="M323.54,123.59V74.22h37.8v11.5H337.08v6.63h14.6v11.28h-14.6v8.47h24.75v11.49Z" fill="#fff"/><path d="M394.73,123.59,386.67,107h-5.51v16.64h-13.4V74.22h22.07a33.05,33.05,0,0,1,7.86.88,16.84,16.84,0,0,1,6.11,2.79,12.53,12.53,0,0,1,3.91,5,18.11,18.11,0,0,1,1.37,7.44,15.84,15.84,0,0,1-2.4,9.1,15.17,15.17,0,0,1-6.5,5.36l9.89,18.83Zm.74-32.94a5.33,5.33,0,0,0-1.38-3.8q-1.38-1.48-4.64-1.49h-8.29v10.8h8.08c2.26,0,3.87-.47,4.81-1.41A5.52,5.52,0,0,0,395.47,90.65Z" fill="#fff"/><path d="M478.13,107.68q0,7.6-4.58,11.76t-14,4.15h-23.7V74.22h23.84q9.16,0,13.23,3.32T477,87.08c0,2.69-.57,4.74-1.73,6.15a15,15,0,0,1-4.19,3.53,11.65,11.65,0,0,1,5.22,4A11.82,11.82,0,0,1,478.13,107.68ZM463.6,88.93a4.31,4.31,0,0,0-.92-2.78c-.61-.76-1.74-1.14-3.38-1.14H449v7.83h10.3a4.31,4.31,0,0,0,3.35-1.07A4.13,4.13,0,0,0,463.6,88.93Zm1.13,19a4.32,4.32,0,0,0-4.87-4.72H449v9.59h10.79a4.72,4.72,0,0,0,3.74-1.37A5.15,5.15,0,0,0,464.73,107.93Z" fill="#fff"/><path d="M484,123.59V74.22h14v49.37Z" fill="#fff"/><path d="M534.83,123.59l-10.29-21-5.08,6.14v14.88h-14V74.22h14V80c0,2.11,0,4.23,0,6.34s-.08,4.07-.17,5.86c.51-.8,1.15-1.74,1.9-2.82s1.56-2.21,2.43-3.39,1.76-2.35,2.65-3.53,1.74-2.25,2.54-3.24l4-5h16.64L534.48,91.64l16.57,32Z" fill="#fff"/><path d="M554.44,123.59V74.22h37.8v11.5H568v6.63h14.6v11.28H568v8.47h24.76v11.49Z" fill="#fff"/><path d="M651,123.59l-2.68-8.67H633.5l-2.68,8.67H616.15l17.91-49.37h13.83l17.91,49.37Zm-6.91-22.78c-.42-1.6-.8-3-1.13-4.16s-.62-2.23-.88-3.17-.48-1.8-.67-2.58-.35-1.59-.49-2.43c-.15.84-.31,1.67-.5,2.47s-.41,1.67-.67,2.61-.55,2-.88,3.17-.7,2.54-1.13,4.09l-.91,3.25H645Z" fill="#fff"/><path d="M683.65,85.86V92.7h15.44v11.57H683.65v19.32H670V74.22h39.08V85.86Z" fill="#fff"/><path d="M739.08,86.14v37.45H725.4V86.14H711.57V74.22H752.9V86.14Z" fill="#fff"/><path d="M758.05,123.59V74.22h37.8v11.5H771.59v6.63h14.6v11.28h-14.6v8.47h24.76v11.49Z" fill="#fff"/><path d="M829.25,123.59,821.19,107h-5.52v16.64h-13.4V74.22h22.08a33.11,33.11,0,0,1,7.86.88,16.79,16.79,0,0,1,6.1,2.79,12.55,12.55,0,0,1,3.92,5,18.27,18.27,0,0,1,1.37,7.44,15.84,15.84,0,0,1-2.4,9.1,15.2,15.2,0,0,1-6.51,5.36l9.9,18.83ZM830,90.65a5.33,5.33,0,0,0-1.38-3.8q-1.38-1.48-4.65-1.49h-8.29v10.8h8.08q3.4,0,4.82-1.41A5.52,5.52,0,0,0,830,90.65Z" fill="#fff"/><path d="M912.65,107.68q0,7.6-4.59,11.76t-14,4.15H870.4V74.22h23.84q9.16,0,13.22,3.32t4.06,9.54a9.53,9.53,0,0,1-1.73,6.15,14.85,14.85,0,0,1-4.2,3.53,11.55,11.55,0,0,1,5.22,4A11.74,11.74,0,0,1,912.65,107.68ZM898.12,88.93a4.31,4.31,0,0,0-.92-2.78c-.61-.76-1.74-1.14-3.38-1.14h-10.3v7.83h10.3a4.33,4.33,0,0,0,3.35-1.07A4.13,4.13,0,0,0,898.12,88.93Zm1.13,19a4.32,4.32,0,0,0-4.87-4.72H883.52v9.59h10.79a4.73,4.73,0,0,0,3.74-1.37A5.15,5.15,0,0,0,899.25,107.93Z" fill="#fff"/><path d="M918.5,123.59V74.22h14v49.37Z" fill="#fff"/><path d="M969.35,123.59l-10.3-21L954,108.71v14.88H940V74.22h14V80c0,2.11,0,4.23,0,6.34s-.08,4.07-.18,5.86c.52-.8,1.16-1.74,1.91-2.82s1.56-2.21,2.43-3.39,1.75-2.35,2.65-3.53,1.74-2.25,2.54-3.24l4-5h16.64L969,91.64l16.57,32Z" fill="#fff"/><path d="M989,123.59V74.22h37.8v11.5H1002.5v6.63h14.6v11.28h-14.6v8.47h24.75v11.49Z" fill="#fff"/><path d="M1047.35,116.26a8.11,8.11,0,1,1-16.22,0,7.68,7.68,0,0,1,2.29-5.75,8.74,8.74,0,0,1,11.64,0A7.65,7.65,0,0,1,1047.35,116.26Z" fill="#fff"/><path d="M1066.68,116.26a8.11,8.11,0,1,1-16.22,0,7.65,7.65,0,0,1,2.29-5.75,8.74,8.74,0,0,1,11.64,0A7.68,7.68,0,0,1,1066.68,116.26Z" fill="#fff"/><path d="M1086,116.26a8.11,8.11,0,1,1-16.22,0,7.65,7.65,0,0,1,2.29-5.75,8.74,8.74,0,0,1,11.64,0A7.65,7.65,0,0,1,1086,116.26Z" fill="#fff"/></svg>