<svg id="P17_KEISER_M_SERIES_PEDAL" data-name="P17 KEISER M SERIES PEDAL" xmlns="http://www.w3.org/2000/svg" viewBox="0 0 1086.42 66.87"><title>keiser-m-series-pedal</title><path d="M37.85,64.69,24.57,37.58,18,45.49v19.2H0V1H18V8.46q0,4.09,0,8.19t-.23,7.55q1-1.54,2.46-3.64c1-1.39,2-2.85,3.14-4.37s2.26-3,3.41-4.54S29,8.73,30,7.46L35.12,1H56.59L37.39,23.47,58.78,64.69Z" fill="#d10a2c"/><path d="M63.14,64.69V1h48.77V15.83H80.61v8.55H99.45V38.94H80.61V49.86h31.94V64.69Z" fill="#d10a2c"/><path d="M120.64,64.69V1h18V64.69Z" fill="#d10a2c"/><path d="M199.07,45.13a20.67,20.67,0,0,1-2,9.37,16.84,16.84,0,0,1-5.45,6.37,24.53,24.53,0,0,1-8.33,3.64,44.66,44.66,0,0,1-10.55,1.18A50.79,50.79,0,0,1,145.94,58l8.55-13.83a32.24,32.24,0,0,0,4,2.32,46.15,46.15,0,0,0,4.82,2,37.11,37.11,0,0,0,5,1.46,23,23,0,0,0,4.73.55c3.15,0,5.32-.31,6.51-.91a3.28,3.28,0,0,0,1.77-3.19,2.88,2.88,0,0,0-.5-1.64,5.09,5.09,0,0,0-1.73-1.41A19.66,19.66,0,0,0,175.87,42c-1.4-.46-3.15-.93-5.28-1.41a94.21,94.21,0,0,1-10-2.91,23.71,23.71,0,0,1-7.09-3.87,14.71,14.71,0,0,1-4.23-5.59,20.55,20.55,0,0,1-1.41-8.1,18.88,18.88,0,0,1,1.77-8.19,18,18,0,0,1,5-6.37,23.74,23.74,0,0,1,7.92-4.09A34.55,34.55,0,0,1,173,0,47.61,47.61,0,0,1,187.2,1.91a40.65,40.65,0,0,1,11.14,5.46L189.79,21.2a38.53,38.53,0,0,0-8.55-4.46,26.87,26.87,0,0,0-9.19-1.55q-4,0-5.28,1.1a3.53,3.53,0,0,0-1.27,2.82,2.6,2.6,0,0,0,.5,1.59A4.55,4.55,0,0,0,167.68,22a19.88,19.88,0,0,0,3.19,1.19q2,.59,5.09,1.31a81,81,0,0,1,10.37,3.19,26.15,26.15,0,0,1,7.19,4.09,14.69,14.69,0,0,1,4.19,5.64A20.09,20.09,0,0,1,199.07,45.13Z" fill="#d10a2c"/><path d="M206.53,64.69V1H255.3V15.83H224v8.55h18.83V38.94H224V49.86h31.93V64.69Z" fill="#d10a2c"/><path d="M298.38,64.69,288,43.22h-7.12V64.69H263.58V1h28.47A42.15,42.15,0,0,1,302.2,2.14a21.58,21.58,0,0,1,7.87,3.59,16.1,16.1,0,0,1,5.05,6.42,23.38,23.38,0,0,1,1.77,9.6q0,7.18-3.1,11.73a19.56,19.56,0,0,1-8.39,6.92l12.77,24.29Zm.95-42.49a6.89,6.89,0,0,0-1.78-4.91c-1.19-1.28-3.19-1.91-6-1.91h-10.7V29.3h10.43q4.38,0,6.21-1.82A7.13,7.13,0,0,0,299.33,22.2Z" fill="#d10a2c"/><path d="M398.69,64.69V49.5q0-4.74.09-9t.27-8c-.48,1.22-1,2.55-1.63,4s-1.24,2.92-1.9,4.41-1.33,2.94-2,4.37-1.26,2.71-1.81,3.86L383.4,66.87l-8.32-17.65c-.55-1.15-1.15-2.44-1.81-3.86s-1.33-2.88-2-4.37-1.3-3-1.9-4.41-1.15-2.79-1.63-4q.18,3.74.27,8t.09,9V64.69H351.46V1h16.2l7.82,17c.91,2.07,1.81,4,2.69,6s1.67,3.7,2.36,5.37,1.31,3.17,1.82,4.51a31.91,31.91,0,0,1,1.14,3.36q.83-2.73,2.91-7.69T391.5,18l7.82-17h16V64.69Z" fill="#d10a2c"/><path d="M501.68,45.13a20.8,20.8,0,0,1-2,9.37,16.78,16.78,0,0,1-5.46,6.37,24.47,24.47,0,0,1-8.32,3.64,44.81,44.81,0,0,1-10.56,1.18,48.63,48.63,0,0,1-14.78-2.23A48.84,48.84,0,0,1,448.54,58l8.56-13.83a32.8,32.8,0,0,0,4,2.32,47.25,47.25,0,0,0,4.83,2A36.71,36.71,0,0,0,471,50a22.85,22.85,0,0,0,4.73.55c3.15,0,5.32-.31,6.5-.91A3.27,3.27,0,0,0,484,46.4a2.88,2.88,0,0,0-.5-1.64,5.19,5.19,0,0,0-1.73-1.41A19.66,19.66,0,0,0,478.48,42q-2.1-.69-5.28-1.41a93.52,93.52,0,0,1-10-2.91,23.77,23.77,0,0,1-7.1-3.87,14.71,14.71,0,0,1-4.23-5.59,20.55,20.55,0,0,1-1.41-8.1,18.74,18.74,0,0,1,1.78-8.19,17.93,17.93,0,0,1,5-6.37,23.78,23.78,0,0,1,7.91-4.09A34.6,34.6,0,0,1,475.56,0,47.56,47.56,0,0,1,489.8,1.91,40.71,40.71,0,0,1,501,7.37L492.4,21.2a38.59,38.59,0,0,0-8.56-4.46,26.81,26.81,0,0,0-9.18-1.55q-4,0-5.28,1.1a3.54,3.54,0,0,0-1.28,2.82,2.66,2.66,0,0,0,.5,1.59A4.68,4.68,0,0,0,470.29,22a20.09,20.09,0,0,0,3.18,1.19c1.34.39,3,.83,5.1,1.31a81,81,0,0,1,10.37,3.19,26.15,26.15,0,0,1,7.19,4.09,14.67,14.67,0,0,1,4.18,5.64A20.08,20.08,0,0,1,501.68,45.13Z" fill="#d10a2c"/><path d="M509.14,64.69V1h48.77V15.83h-31.3v8.55h18.83V38.94H526.61V49.86h31.93V64.69Z" fill="#d10a2c"/><path d="M601,64.69,590.59,43.22h-7.12V64.69H566.18V1h28.48a42.21,42.21,0,0,1,10.15,1.14,21.66,21.66,0,0,1,7.87,3.59,16.18,16.18,0,0,1,5.05,6.42,23.38,23.38,0,0,1,1.77,9.6q0,7.18-3.1,11.73A19.62,19.62,0,0,1,608,40.4l12.76,24.29Zm1-42.49a6.89,6.89,0,0,0-1.78-4.91c-1.19-1.28-3.19-1.91-6-1.91h-10.7V29.3h10.42q4.4,0,6.22-1.82A7.13,7.13,0,0,0,601.94,22.2Z" fill="#d10a2c"/><path d="M628.14,64.69V1h18V64.69Z" fill="#d10a2c"/><path d="M655.89,64.69V1h48.77V15.83h-31.3v8.55H692.2V38.94H673.36V49.86H705.3V64.69Z" fill="#d10a2c"/><path d="M763.62,45.13a20.8,20.8,0,0,1-2,9.37,16.78,16.78,0,0,1-5.46,6.37,24.47,24.47,0,0,1-8.32,3.64,44.81,44.81,0,0,1-10.56,1.18,48.63,48.63,0,0,1-14.78-2.23A48.84,48.84,0,0,1,710.48,58L719,44.13a33.74,33.74,0,0,0,4.05,2.32,47.25,47.25,0,0,0,4.83,2A36.71,36.71,0,0,0,733,50a22.85,22.85,0,0,0,4.73.55c3.15,0,5.32-.31,6.5-.91A3.29,3.29,0,0,0,746,46.4a2.82,2.82,0,0,0-.51-1.64,5,5,0,0,0-1.72-1.41A19.66,19.66,0,0,0,740.42,42q-2.1-.69-5.28-1.41a93.52,93.52,0,0,1-10-2.91A23.77,23.77,0,0,1,718,33.8a14.71,14.71,0,0,1-4.23-5.59,20.55,20.55,0,0,1-1.41-8.1,18.74,18.74,0,0,1,1.78-8.19,17.93,17.93,0,0,1,5.05-6.37,23.78,23.78,0,0,1,7.91-4.09A34.6,34.6,0,0,1,737.5,0a47.56,47.56,0,0,1,14.24,1.91,40.71,40.71,0,0,1,11.15,5.46L754.34,21.2a38.81,38.81,0,0,0-8.56-4.46,26.82,26.82,0,0,0-9.19-1.55c-2.67,0-4.42.37-5.27,1.1A3.54,3.54,0,0,0,730,19.11a2.66,2.66,0,0,0,.5,1.59A4.68,4.68,0,0,0,732.23,22a19.71,19.71,0,0,0,3.18,1.19c1.34.39,3,.83,5.1,1.31a81,81,0,0,1,10.37,3.19,26.15,26.15,0,0,1,7.19,4.09,14.67,14.67,0,0,1,4.18,5.64A20.08,20.08,0,0,1,763.62,45.13Z" fill="#d10a2c"/><path d="M849.69,22.11a24.6,24.6,0,0,1-1.92,10.28,17.31,17.31,0,0,1-5.38,6.78,22.18,22.18,0,0,1-8.26,3.73A45.44,45.44,0,0,1,823.6,44h-8.85V64.69H797.46V1h27.39A42.07,42.07,0,0,1,835,2.14a21.16,21.16,0,0,1,7.87,3.64,16.22,16.22,0,0,1,5,6.55A24.34,24.34,0,0,1,849.69,22.11Zm-17.56.27a7.26,7.26,0,0,0-1.74-5.09c-1.16-1.28-3.17-1.91-6-1.91h-9.6V29.66h9.33c2.92,0,5-.6,6.22-1.82A7.38,7.38,0,0,0,832.13,22.38Z" fill="#d10a2c"/><path d="M855.6,64.69V1h48.77V15.83h-31.3v8.55H891.9V38.94H873.07V49.86H905V64.69Z" fill="#d10a2c"/><path d="M967.69,32.48a45.71,45.71,0,0,1-2.18,15.15A23.07,23.07,0,0,1,959,57.55,26.73,26.73,0,0,1,948.17,63a58.94,58.94,0,0,1-14.87,1.68H912.64V1h22.3a55.14,55.14,0,0,1,13.55,1.55,24.6,24.6,0,0,1,10.33,5.23,24.15,24.15,0,0,1,6.55,9.69A41.89,41.89,0,0,1,967.69,32.48Zm-18.11.27a32.14,32.14,0,0,0-.77-7.55,12.24,12.24,0,0,0-2.5-5.18,10.15,10.15,0,0,0-4.55-3,21.67,21.67,0,0,0-6.92-1h-4.36V49.59h3.82a24.63,24.63,0,0,0,7-.87,10.46,10.46,0,0,0,4.78-2.82,11.36,11.36,0,0,0,2.68-5.18A32.82,32.82,0,0,0,949.58,32.75Z" fill="#d10a2c"/><path d="M1015.82,64.69l-3.46-11.19h-19.1L989.8,64.69H970.87L994,1h17.84l23.11,63.69ZM1006.9,35.3c-.54-2.06-1-3.85-1.45-5.37s-.81-2.88-1.14-4.09-.62-2.32-.86-3.32-.46-2.05-.64-3.14c-.18,1.09-.4,2.15-.64,3.18s-.53,2.16-.86,3.37L1000.17,30q-.63,2.28-1.46,5.28l-1.18,4.19h10.56Z" fill="#d10a2c"/><path d="M1040.38,64.69V1h17.84V49.31h28.2V64.69Z" fill="#d10a2c"/></svg>