<svg id="P19_KEISER_S_DIGITAL_SYSTEM" data-name="P19 KEISER’S DIGITAL SYSTEM" xmlns="http://www.w3.org/2000/svg" viewBox="0 0 1084.65 129.5"><title>keisers-digital-system</title><path d="M47.2,90.11a22.35,22.35,0,0,1-1.73,9.3,15.61,15.61,0,0,1-4.86,6.12,19.83,19.83,0,0,1-7.47,3.37,40.92,40.92,0,0,1-9.52,1h-8V128.6H0V71H24.75a38.42,38.42,0,0,1,9.17,1A19.28,19.28,0,0,1,41,75.35a14.7,14.7,0,0,1,4.57,5.92A22,22,0,0,1,47.2,90.11Zm-15.87.25a6.55,6.55,0,0,0-1.57-4.6C28.71,84.6,26.89,84,24.3,84H15.62V96.94h8.44c2.64,0,4.52-.55,5.62-1.65A6.67,6.67,0,0,0,31.33,90.36Z" fill="#d10a2c"/><path d="M103.45,99.73a38,38,0,0,1-2,12.71A26.57,26.57,0,0,1,96,121.77a23.32,23.32,0,0,1-8.47,5.76,30.63,30.63,0,0,1-21.51,0,23.25,23.25,0,0,1-8.43-5.67,25.61,25.61,0,0,1-5.47-9.3,38.74,38.74,0,0,1-1.93-12.7,38,38,0,0,1,2-12.71,26.57,26.57,0,0,1,5.51-9.33,23.45,23.45,0,0,1,8.47-5.76,30.63,30.63,0,0,1,21.51,0A22.75,22.75,0,0,1,96,77.74,26.34,26.34,0,0,1,101.48,87,38,38,0,0,1,103.45,99.73Zm-16.53.17q0-7.82-2.67-11.84a8.52,8.52,0,0,0-7.53-4,8.36,8.36,0,0,0-7.44,4q-2.59,3.94-2.59,11.75t2.67,11.85a8.54,8.54,0,0,0,7.53,4,8.38,8.38,0,0,0,7.44-4Q86.93,107.72,86.92,99.9Z" fill="#d10a2c"/><path d="M162.9,128.6H148.18l-2.63-12.5q-.74-3.28-1.4-6.87c-.43-2.38-.83-4.66-1.19-6.82s-.66-4.14-.9-5.92-.4-3.2-.45-4.24c-.12,1-.28,2.46-.5,4.24s-.51,3.75-.86,5.92-.76,4.44-1.19,6.82-.91,4.68-1.4,6.87L135,128.6H120.47L106.74,71h16.45l1.56,9.62q.5,3,1,6.37t1,6.62c.3,2.19.58,4.32.82,6.37s.46,3.94.62,5.64q.26-2.55.7-5.6T130,93.77c.41-2.16.82-4.36,1.23-6.58s.84-4.37,1.28-6.45l2-9.7h14.64l2,9.7q.58,3.12,1.24,6.45c.43,2.22.86,4.42,1.27,6.58s.77,4.27,1.07,6.29.53,3.9.7,5.6q.24-2.55.62-5.64c.24-2,.52-4.18.82-6.37s.63-4.4,1-6.62.7-4.34,1-6.37L160.35,71h16.29Z" fill="#d10a2c"/><path d="M182.31,128.6V71h44.08v13.4H198.1v7.73h17v13.16h-17v9.87H227v13.4Z" fill="#d10a2c"/><path d="M265.32,128.6l-9.39-19.41h-6.44V128.6H233.87V71h25.74a38.48,38.48,0,0,1,9.17,1,19.55,19.55,0,0,1,7.11,3.25,14.46,14.46,0,0,1,4.57,5.8,21.27,21.27,0,0,1,1.6,8.67q0,6.51-2.8,10.61a17.69,17.69,0,0,1-7.59,6.25l11.54,22Zm.87-38.4a6.26,6.26,0,0,0-1.61-4.44C263.5,84.6,261.7,84,259.16,84h-9.67V96.61h9.43q4,0,5.61-1.64A6.42,6.42,0,0,0,266.19,90.2Z" fill="#d10a2c"/><path d="M335.26,110.92a18.88,18.88,0,0,1-1.76,8.47,15.25,15.25,0,0,1-4.94,5.76,22.32,22.32,0,0,1-7.52,3.28,39.7,39.7,0,0,1-9.54,1.07,45.73,45.73,0,0,1-24.26-7L295,110a27.72,27.72,0,0,0,3.66,2.1A43.54,43.54,0,0,0,303,114a34.24,34.24,0,0,0,4.56,1.32,20.37,20.37,0,0,0,4.28.49q4.28,0,5.88-.82a3,3,0,0,0,1.6-2.88,2.56,2.56,0,0,0-.45-1.48,4.47,4.47,0,0,0-1.56-1.27,16.87,16.87,0,0,0-3-1.24q-1.89-.61-4.77-1.27a86.13,86.13,0,0,1-9-2.63,21.69,21.69,0,0,1-6.42-3.5,13.23,13.23,0,0,1-3.82-5.06A18.51,18.51,0,0,1,289,88.3a17,17,0,0,1,1.6-7.4,16.39,16.39,0,0,1,4.56-5.75,21.47,21.47,0,0,1,7.16-3.7,31.1,31.1,0,0,1,9.37-1.32,42.88,42.88,0,0,1,12.87,1.73,37,37,0,0,1,10.08,4.93l-7.73,12.5a35.16,35.16,0,0,0-7.73-4,24.32,24.32,0,0,0-8.31-1.4q-3.61,0-4.77,1a3.2,3.2,0,0,0-1.15,2.55,2.37,2.37,0,0,0,.45,1.44A4.21,4.21,0,0,0,306.89,90a17.87,17.87,0,0,0,2.88,1.07c1.21.36,2.74.75,4.61,1.19a72.4,72.4,0,0,1,9.37,2.88,23.65,23.65,0,0,1,6.5,3.7,13.25,13.25,0,0,1,3.78,5.1A18.12,18.12,0,0,1,335.26,110.92Z" fill="#d10a2c"/><path d="M366.26,128.6V71h16.29V128.6Z" fill="#d10a2c"/><path d="M441.1,99.49a41.06,41.06,0,0,1-2,13.69,20.68,20.68,0,0,1-5.92,9,24,24,0,0,1-9.74,4.94A53.5,53.5,0,0,1,410,128.6H391.34V71h20.15a49.88,49.88,0,0,1,12.25,1.39,22.4,22.4,0,0,1,9.34,4.73A21.75,21.75,0,0,1,439,85.92,37.89,37.89,0,0,1,441.1,99.49Zm-16.37.24a29,29,0,0,0-.7-6.82,11,11,0,0,0-2.26-4.69,9.26,9.26,0,0,0-4.11-2.67,19.52,19.52,0,0,0-6.25-.86h-4V115h3.46a22.52,22.52,0,0,0,6.33-.78,9.56,9.56,0,0,0,4.31-2.55,10.23,10.23,0,0,0,2.43-4.69A29.9,29.9,0,0,0,424.73,99.73Z" fill="#d10a2c"/><path d="M447.43,128.6V71H491.5v13.4H463.22v7.73h17v13.16h-17v9.87h28.86v13.4Z" fill="#d10a2c"/><path d="M536.16,128.6,533,118.48H515.76l-3.12,10.12H495.53L516.42,71h16.12l20.89,57.56ZM528.1,102c-.5-1.87-.94-3.48-1.32-4.85s-.73-2.61-1-3.7-.56-2.1-.78-3-.41-1.85-.57-2.83c-.17,1-.36,1.94-.58,2.87s-.48,2-.78,3-.65,2.33-1,3.7-.82,3-1.31,4.77l-1.07,3.78h9.54Z" fill="#d10a2c"/><path d="M558.36,128.6V71h16.12V114.7H600v13.9Z" fill="#d10a2c"/><path d="M682.94,128.6H668.22l-2.63-12.5q-.74-3.28-1.4-6.87c-.44-2.38-.84-4.66-1.19-6.82s-.66-4.14-.91-5.92-.39-3.2-.45-4.24c-.11,1-.27,2.46-.49,4.24s-.51,3.75-.87,5.92-.75,4.44-1.19,6.82-.9,4.68-1.4,6.87l-2.63,12.5H640.51L626.77,71h16.45l1.56,9.62q.5,3,1,6.37t1,6.62c.3,2.19.57,4.32.82,6.37s.45,3.94.62,5.64c.16-1.7.4-3.57.7-5.6s.65-4.12,1.07-6.29.82-4.36,1.23-6.58.83-4.37,1.27-6.45l2-9.7h14.64l2,9.7q.57,3.12,1.23,6.45c.44,2.22.87,4.42,1.28,6.58s.76,4.27,1.07,6.29.53,3.9.69,5.6c.17-1.7.37-3.58.62-5.64s.52-4.18.82-6.37.63-4.4,1-6.62.7-4.34,1-6.37L680.39,71h16.28Z" fill="#d10a2c"/><path d="M753.25,99.73a38,38,0,0,1-2,12.71,26.57,26.57,0,0,1-5.51,9.33,23.24,23.24,0,0,1-8.47,5.76,30.63,30.63,0,0,1-21.51,0,23.25,23.25,0,0,1-8.43-5.67,25.59,25.59,0,0,1-5.46-9.3A38.47,38.47,0,0,1,700,99.9a37.77,37.77,0,0,1,2-12.71,26.27,26.27,0,0,1,5.51-9.33,23.28,23.28,0,0,1,8.47-5.76,30.61,30.61,0,0,1,21.5,0,22.75,22.75,0,0,1,8.39,5.68A26.34,26.34,0,0,1,751.28,87,38,38,0,0,1,753.25,99.73Zm-16.53.17q0-7.82-2.67-11.84a8.52,8.52,0,0,0-7.53-4,8.36,8.36,0,0,0-7.44,4q-2.58,3.94-2.59,11.75t2.67,11.85a8.55,8.55,0,0,0,7.53,4,8.38,8.38,0,0,0,7.44-4Q736.73,107.72,736.72,99.9Z" fill="#d10a2c"/><path d="M790.71,128.6l-9.4-19.41h-6.43V128.6H759.25V71H785a38.42,38.42,0,0,1,9.17,1,19.55,19.55,0,0,1,7.11,3.25,14.46,14.46,0,0,1,4.57,5.8,21.11,21.11,0,0,1,1.6,8.67q0,6.51-2.8,10.61a17.72,17.72,0,0,1-7.58,6.25l11.53,22Zm.86-38.4A6.26,6.26,0,0,0,790,85.76c-1.07-1.16-2.88-1.73-5.41-1.73h-9.67V96.61h9.42q4,0,5.62-1.64A6.46,6.46,0,0,0,791.57,90.2Z" fill="#d10a2c"/><path d="M849.05,128.6l-12-24.51-5.93,7.16V128.6H814.84V71h16.28v6.74c0,2.47,0,4.93,0,7.4s-.09,4.74-.2,6.82c.6-.93,1.34-2,2.22-3.28s1.82-2.58,2.84-4S838,82,839,80.66s2-2.63,3-3.79l4.6-5.83H866L848.64,91.35,868,128.6Z" fill="#d10a2c"/><path d="M922.81,99.73a37.74,37.74,0,0,1-2,12.71,26.27,26.27,0,0,1-5.51,9.33,23.24,23.24,0,0,1-8.47,5.76,30.61,30.61,0,0,1-21.5,0,23.16,23.16,0,0,1-8.43-5.67,25.61,25.61,0,0,1-5.47-9.3,38.47,38.47,0,0,1-1.93-12.7,38,38,0,0,1,2-12.71A26.42,26.42,0,0,1,877,77.86a23.36,23.36,0,0,1,8.47-5.76,30.61,30.61,0,0,1,21.5,0,22.67,22.67,0,0,1,8.39,5.68A26.2,26.2,0,0,1,920.84,87,37.72,37.72,0,0,1,922.81,99.73Zm-16.52.17q0-7.82-2.68-11.84a8.51,8.51,0,0,0-7.52-4,8.34,8.34,0,0,0-7.44,4q-2.6,3.94-2.59,11.75t2.67,11.85a8.53,8.53,0,0,0,7.52,4,8.39,8.39,0,0,0,7.45-4Q906.28,107.72,906.29,99.9Z" fill="#d10a2c"/><path d="M979,104a31.56,31.56,0,0,1-1.93,11.68,20.22,20.22,0,0,1-13.41,12.42,34.82,34.82,0,0,1-10.07,1.39,34.45,34.45,0,0,1-10-1.39,20.16,20.16,0,0,1-7.94-4.49,21,21,0,0,1-5.22-7.93A32.24,32.24,0,0,1,928.49,104V71h16.28v33c0,3.57.73,6.36,2.18,8.39s3.74,3,6.87,3,5.38-1,6.78-3,2.1-4.82,2.1-8.39V71H979Z" fill="#d10a2c"/><path d="M1016.72,84.93V128.6h-16V84.93H984.65V71h48.19V84.93Z" fill="#d10a2c"/><path d="M1084.65,110.92a18.74,18.74,0,0,1-1.77,8.47,15.22,15.22,0,0,1-4.93,5.76,22.28,22.28,0,0,1-7.53,3.28,39.58,39.58,0,0,1-9.54,1.07,45.8,45.8,0,0,1-24.26-7l7.73-12.5a29.08,29.08,0,0,0,3.66,2.1,43.54,43.54,0,0,0,4.36,1.85,34.37,34.37,0,0,0,4.57,1.32,20.35,20.35,0,0,0,4.27.49q4.27,0,5.88-.82a3,3,0,0,0,1.61-2.88,2.57,2.57,0,0,0-.46-1.48,4.47,4.47,0,0,0-1.56-1.27,16.73,16.73,0,0,0-3-1.24q-1.89-.61-4.77-1.27a87.09,87.09,0,0,1-9.05-2.63,21.75,21.75,0,0,1-6.41-3.5,13.23,13.23,0,0,1-3.82-5.06,18.5,18.5,0,0,1-1.28-7.32,17,17,0,0,1,1.61-7.4,16.28,16.28,0,0,1,4.56-5.75,21.42,21.42,0,0,1,7.15-3.7,31.17,31.17,0,0,1,9.38-1.32,43,43,0,0,1,12.87,1.73A37,37,0,0,1,1084,76.79l-7.73,12.5a34.94,34.94,0,0,0-7.73-4,24.27,24.27,0,0,0-8.3-1.4q-3.63,0-4.77,1a3.2,3.2,0,0,0-1.15,2.55,2.37,2.37,0,0,0,.45,1.44,4.13,4.13,0,0,0,1.52,1.15,17.87,17.87,0,0,0,2.88,1.07c1.2.36,2.74.75,4.6,1.19a72.1,72.1,0,0,1,9.38,2.88,23.59,23.59,0,0,1,6.49,3.7,13.38,13.38,0,0,1,3.79,5.1A18.12,18.12,0,0,1,1084.65,110.92Z" fill="#d10a2c"/><path d="M37.84,59.39,25.64,34.5l-6,7.26V59.39H3.09V.92H19.63V7.77c0,2.5,0,5,0,7.51s-.1,4.82-.21,6.94c.61-.95,1.36-2.06,2.26-3.34s1.85-2.62,2.88-4,2.07-2.79,3.13-4.18,2.06-2.67,3-3.84L35.33.92H55L37.42,21.55,57.05,59.39Z" fill="#fff"/><path d="M61.06,59.39V.92h44.77V14.53H77.1v7.85H94.38V35.75H77.1v10h29.31V59.39Z" fill="#fff"/><path d="M113.85,59.39V.92h16.53V59.39Z" fill="#fff"/><path d="M185.84,41.43a19.12,19.12,0,0,1-1.79,8.6,15.54,15.54,0,0,1-5,5.85,22.6,22.6,0,0,1-7.65,3.34,40.84,40.84,0,0,1-9.69,1.08,44.91,44.91,0,0,1-13.57-2,45.44,45.44,0,0,1-11.07-5l7.86-12.7a30.21,30.21,0,0,0,3.71,2.13,45,45,0,0,0,4.43,1.88,33.9,33.9,0,0,0,4.64,1.33,20.35,20.35,0,0,0,4.34.51q4.34,0,6-.84a3,3,0,0,0,1.63-2.92,2.59,2.59,0,0,0-.46-1.51,4.76,4.76,0,0,0-1.59-1.29,17.06,17.06,0,0,0-3.05-1.25q-1.92-.63-4.84-1.3a83.7,83.7,0,0,1-9.19-2.67A21.82,21.82,0,0,1,144,31a13.49,13.49,0,0,1-3.89-5.14,18.85,18.85,0,0,1-1.29-7.43,17.25,17.25,0,0,1,1.63-7.52,16.62,16.62,0,0,1,4.63-5.85,22,22,0,0,1,7.27-3.75A31.74,31.74,0,0,1,161.87,0a43.53,43.53,0,0,1,13.07,1.75,37.18,37.18,0,0,1,10.23,5l-7.85,12.69a35.36,35.36,0,0,0-7.85-4.09A24.54,24.54,0,0,0,161,14c-2.45,0-4.07.33-4.85,1A3.25,3.25,0,0,0,155,17.54a2.44,2.44,0,0,0,.46,1.46A4.18,4.18,0,0,0,157,20.17,18.32,18.32,0,0,0,160,21.26c1.22.36,2.78.76,4.68,1.21a72.27,72.27,0,0,1,9.52,2.92,24,24,0,0,1,6.6,3.76,13.51,13.51,0,0,1,3.84,5.18A18.28,18.28,0,0,1,185.84,41.43Z" fill="#fff"/><path d="M192.69,59.39V.92h44.77V14.53H208.73v7.85H226V35.75H208.73v10H238V59.39Z" fill="#fff"/><path d="M277,59.39l-9.55-19.72h-6.53V59.39H245.06V.92H271.2a39.16,39.16,0,0,1,9.32,1,19.91,19.91,0,0,1,7.22,3.3,14.81,14.81,0,0,1,4.64,5.89A21.55,21.55,0,0,1,294,20q0,6.6-2.85,10.78a18,18,0,0,1-7.7,6.34l11.71,22.31Zm.88-39a6.35,6.35,0,0,0-1.64-4.51c-1.09-1.17-2.93-1.75-5.5-1.75h-9.82V26.89h9.57c2.68,0,4.59-.55,5.71-1.67A6.52,6.52,0,0,0,277.89,20.38Z" fill="#fff"/><path d="M311.21,27.48H300.94L302.11.92h17.12Z" fill="#fff"/><path d="M371.77,41.43A19,19,0,0,1,370,50a15.54,15.54,0,0,1-5,5.85,22.55,22.55,0,0,1-7.64,3.34,41,41,0,0,1-9.69,1.08,44.92,44.92,0,0,1-13.58-2,45.19,45.19,0,0,1-11.06-5l7.85-12.7a31.16,31.16,0,0,0,3.72,2.13A44.77,44.77,0,0,0,339,44.52a33.9,33.9,0,0,0,4.64,1.33,20.42,20.42,0,0,0,4.34.51q4.35,0,6-.84a3,3,0,0,0,1.63-2.92,2.59,2.59,0,0,0-.46-1.51,4.61,4.61,0,0,0-1.58-1.29,17.38,17.38,0,0,0-3-1.25q-1.92-.63-4.85-1.3a83.7,83.7,0,0,1-9.19-2.67A22.07,22.07,0,0,1,329.92,31,13.36,13.36,0,0,1,326,25.89a18.66,18.66,0,0,1-1.3-7.43,17.25,17.25,0,0,1,1.63-7.52A16.64,16.64,0,0,1,331,5.09a21.87,21.87,0,0,1,7.26-3.75A31.78,31.78,0,0,1,347.79,0a43.6,43.6,0,0,1,13.08,1.75,37.46,37.46,0,0,1,10.23,5l-7.85,12.69a35.64,35.64,0,0,0-7.86-4.09A24.46,24.46,0,0,0,347,14c-2.45,0-4.07.33-4.85,1a3.25,3.25,0,0,0-1.17,2.59A2.44,2.44,0,0,0,341.4,19,4.27,4.27,0,0,0,343,20.17a18.32,18.32,0,0,0,2.92,1.09c1.23.36,2.79.76,4.68,1.21a71.8,71.8,0,0,1,9.52,2.92,24,24,0,0,1,6.6,3.76,13.32,13.32,0,0,1,3.84,5.18A18.27,18.27,0,0,1,371.77,41.43Z" fill="#fff"/><path d="M453.37,29.82a41.78,41.78,0,0,1-2,13.91,21.08,21.08,0,0,1-6,9.1,24.27,24.27,0,0,1-9.9,5,54.12,54.12,0,0,1-13.66,1.55h-19V.92H423.3a50.45,50.45,0,0,1,12.44,1.42,22.77,22.77,0,0,1,9.48,4.8,22.11,22.11,0,0,1,6,8.9A38.51,38.51,0,0,1,453.37,29.82Zm-16.62.25a29.85,29.85,0,0,0-.71-6.93,11.21,11.21,0,0,0-2.3-4.76,9.35,9.35,0,0,0-4.18-2.72,20.05,20.05,0,0,0-6.35-.88h-4V45.52h3.5a22.73,22.73,0,0,0,6.43-.79,9.7,9.7,0,0,0,4.39-2.59A10.52,10.52,0,0,0,436,37.38,30.32,30.32,0,0,0,436.75,30.07Z" fill="#fff"/><path d="M460.21,59.39V.92h16.54V59.39Z" fill="#fff"/><path d="M536.39,34.41q0,12.62-6.68,19.25T510.24,60.3a29,29,0,0,1-11-2,23.18,23.18,0,0,1-8.52-5.89,27.16,27.16,0,0,1-5.51-9.48,38.46,38.46,0,0,1-2-12.78,39.52,39.52,0,0,1,1.75-12,26.89,26.89,0,0,1,5.22-9.52,24.48,24.48,0,0,1,8.52-6.3A28.12,28.12,0,0,1,510.49,0a38.53,38.53,0,0,1,9.44,1,19.54,19.54,0,0,1,6.73,3.05,18.91,18.91,0,0,1,4.76,5.14A41.05,41.05,0,0,1,535,16.37l-14.7,5.76a16.46,16.46,0,0,0-3.55-5.88c-1.42-1.42-3.53-2.13-6.31-2.13a9,9,0,0,0-4.8,1.21,8.77,8.77,0,0,0-3.13,3.34,17,17,0,0,0-1.72,5,35.47,35.47,0,0,0-.54,6.43q0,8.77,2.8,12.61t8.48,3.85a14.6,14.6,0,0,0,4.34-.55,7.61,7.61,0,0,0,2.88-1.54,6.78,6.78,0,0,0,1.71-2.3,11.27,11.27,0,0,0,.84-2.8H510.66V27.31h25.73Z" fill="#fff"/><path d="M543,59.39V.92h16.54V59.39Z" fill="#fff"/><path d="M598.61,15V59.39h-16.2V15H566V.92H615V15Z" fill="#fff"/><path d="M658.83,59.39l-3.17-10.28H638.12l-3.18,10.28H617.57L638.79.92h16.37l21.21,58.47Zm-8.18-27c-.5-1.89-.95-3.54-1.34-4.93s-.74-2.64-1-3.76-.58-2.13-.8-3-.41-1.88-.58-2.88c-.17,1-.36,2-.59,2.92s-.48,2-.79,3.09-.66,2.37-1,3.76-.84,3-1.34,4.85L642,36.25h9.69Z" fill="#fff"/><path d="M681.38,59.39V.92h16.37V45.27h25.9V59.39Z" fill="#fff"/><path d="M800.15,41.43a19.12,19.12,0,0,1-1.79,8.6,15.54,15.54,0,0,1-5,5.85,22.6,22.6,0,0,1-7.65,3.34A40.84,40.84,0,0,1,776,60.3a44.91,44.91,0,0,1-13.57-2,45.44,45.44,0,0,1-11.07-5l7.86-12.7a30.21,30.21,0,0,0,3.71,2.13,45,45,0,0,0,4.43,1.88A33.9,33.9,0,0,0,772,45.85a20.35,20.35,0,0,0,4.34.51q4.33,0,6-.84A3,3,0,0,0,784,42.6a2.59,2.59,0,0,0-.46-1.51,4.76,4.76,0,0,0-1.59-1.29,17.06,17.06,0,0,0-3-1.25q-1.92-.63-4.84-1.3a83.7,83.7,0,0,1-9.19-2.67A21.82,21.82,0,0,1,758.31,31a13.49,13.49,0,0,1-3.89-5.14,18.85,18.85,0,0,1-1.29-7.43,17.25,17.25,0,0,1,1.63-7.52,16.62,16.62,0,0,1,4.63-5.85,22,22,0,0,1,7.27-3.75A31.74,31.74,0,0,1,776.18,0a43.53,43.53,0,0,1,13.07,1.75,37.18,37.18,0,0,1,10.23,5l-7.85,12.69a35.36,35.36,0,0,0-7.85-4.09A24.54,24.54,0,0,0,775.35,14c-2.45,0-4.07.33-4.85,1a3.25,3.25,0,0,0-1.17,2.59,2.38,2.38,0,0,0,.46,1.46,4.18,4.18,0,0,0,1.55,1.17,18,18,0,0,0,2.92,1.09c1.22.36,2.78.76,4.68,1.21a72.27,72.27,0,0,1,9.52,2.92,24,24,0,0,1,6.6,3.76,13.51,13.51,0,0,1,3.84,5.18A18.28,18.28,0,0,1,800.15,41.43Z" fill="#fff"/><path d="M840.41,37.59v21.8H824V37.84L802.41.92h18.71l4.51,8.85q2.34,4.59,4.09,8.56t2.59,6.56a69.6,69.6,0,0,1,2.59-6.56q1.76-4,4.09-8.56L843.5.92H862Z" fill="#fff"/><path d="M912.49,41.43A19.12,19.12,0,0,1,910.7,50a15.54,15.54,0,0,1-5,5.85A22.6,22.6,0,0,1,898,59.22a40.84,40.84,0,0,1-9.69,1.08,44.91,44.91,0,0,1-13.57-2,45.09,45.09,0,0,1-11.07-5l7.85-12.7a31.16,31.16,0,0,0,3.72,2.13,45,45,0,0,0,4.43,1.88,33.77,33.77,0,0,0,4.63,1.33,20.51,20.51,0,0,0,4.35.51q4.34,0,6-.84a3,3,0,0,0,1.63-2.92,2.66,2.66,0,0,0-.46-1.51,4.76,4.76,0,0,0-1.59-1.29,17.06,17.06,0,0,0-3-1.25q-1.92-.63-4.84-1.3a83.7,83.7,0,0,1-9.19-2.67A21.82,21.82,0,0,1,870.65,31a13.39,13.39,0,0,1-3.89-5.14,18.85,18.85,0,0,1-1.29-7.43,17.25,17.25,0,0,1,1.63-7.52,16.62,16.62,0,0,1,4.63-5.85A22,22,0,0,1,879,1.34,31.74,31.74,0,0,1,888.52,0a43.53,43.53,0,0,1,13.07,1.75,37.46,37.46,0,0,1,10.23,5L904,19.46a35.58,35.58,0,0,0-7.85-4.09A24.54,24.54,0,0,0,887.69,14c-2.46,0-4.07.33-4.85,1a3.25,3.25,0,0,0-1.17,2.59,2.38,2.38,0,0,0,.46,1.46,4.18,4.18,0,0,0,1.55,1.17,18,18,0,0,0,2.92,1.09c1.22.36,2.78.76,4.68,1.21a72.27,72.27,0,0,1,9.52,2.92,24,24,0,0,1,6.6,3.76,13.51,13.51,0,0,1,3.84,5.18A18.46,18.46,0,0,1,912.49,41.43Z" fill="#fff"/><path d="M949.49,15V59.39h-16.2V15H916.92V.92h48.94V15Z" fill="#fff"/><path d="M972,59.39V.92h44.77V14.53H988v7.85h17.29V35.75H988v10h29.31V59.39Z" fill="#fff"/><path d="M1067.68,59.39v-14c0-2.9,0-5.64.08-8.23s.14-5,.25-7.31c-.44,1.12-.94,2.34-1.49,3.68s-1.14,2.68-1.75,4.05-1.22,2.7-1.83,4-1.16,2.49-1.65,3.55l-7.64,16.2L1046,45.19c-.5-1.06-1.06-2.24-1.67-3.55s-1.21-2.65-1.82-4-1.19-2.72-1.75-4.05-1-2.56-1.49-3.68c.11,2.29.19,4.72.25,7.31s.08,5.33.08,8.23v14h-15.28V.92h14.87l7.18,15.62q1.24,2.84,2.46,5.47c.81,1.75,1.53,3.4,2.17,4.93s1.2,2.91,1.68,4.13a32.06,32.06,0,0,1,1,3.09q.75-2.5,2.67-7.06t4.68-10.56L1068.26.92H1083V59.39Z" fill="#fff"/></svg>