<svg id="P4_REAR-WHEEL_DESIGN:" data-name="P4 REAR-WHEEL DESIGN:" xmlns="http://www.w3.org/2000/svg" viewBox="0 0 1085.75 124.32"><title>rear-wheel-design</title><path d="M38.74,72,27.17,48.11H19.25V72H0V1.11H31.71A47.22,47.22,0,0,1,43,2.38a24.18,24.18,0,0,1,8.76,4,17.79,17.79,0,0,1,5.62,7.14,26,26,0,0,1,2,10.69q0,8-3.46,13.07A21.76,21.76,0,0,1,46.56,45L60.78,72Zm1.07-47.3a7.66,7.66,0,0,0-2-5.47q-2-2.13-6.66-2.13H19.25v15.5h11.6c3.26,0,5.56-.68,6.92-2A7.92,7.92,0,0,0,39.81,24.72Z" fill="#d10a2c"/><path d="M68.47,72V1.11h54.3V17.62H87.92v9.53h21v16.2h-21V55.51h35.56V72Z" fill="#d10a2c"/><path d="M177.77,72l-3.85-12.46H152.65L148.8,72H127.73L153.46,1.11h19.85L199,72ZM167.84,39.3c-.61-2.29-1.15-4.29-1.62-6s-.9-3.21-1.27-4.56-.69-2.59-1-3.7-.5-2.28-.71-3.49c-.2,1.21-.44,2.39-.71,3.54s-.59,2.4-1,3.75-.79,2.87-1.26,4.56-1,3.64-1.62,5.87L157.41,44h11.75Z" fill="#d10a2c"/><path d="M243.86,72,232.28,48.11h-7.92V72H205.12V1.11h31.7a47.25,47.25,0,0,1,11.3,1.27,24.26,24.26,0,0,1,8.76,4,17.88,17.88,0,0,1,5.62,7.14,26,26,0,0,1,2,10.69q0,8-3.45,13.07A21.82,21.82,0,0,1,251.68,45L265.89,72Zm1.06-47.3a7.69,7.69,0,0,0-2-5.47c-1.32-1.42-3.55-2.13-6.67-2.13H224.36v15.5H236q4.88,0,6.92-2A7.92,7.92,0,0,0,244.92,24.72Z" fill="#d10a2c"/><path d="M273.29,45.28v-19h35.25V45.28Z" fill="#d10a2c"/><path d="M384.4,72H366.27L363,56.62q-.91-4-1.72-8.45t-1.47-8.41q-.66-4-1.11-7.3c-.31-2.19-.49-3.93-.56-5.21-.14,1.28-.34,3-.61,5.21s-.62,4.63-1.06,7.3-.93,5.47-1.47,8.41-1.11,5.75-1.72,8.45L350.07,72H332.14L315.22,1.11h20.26L337.4,13q.62,3.74,1.27,7.85c.44,2.73.84,5.45,1.22,8.15s.7,5.32,1,7.85.56,4.85.76,6.94q.3-3.13.86-6.89t1.32-7.75c.5-2.66,1-5.37,1.52-8.1s1-5.39,1.57-7.95l2.43-12h18l2.43,12q.71,3.84,1.52,8c.54,2.73,1.06,5.44,1.57,8.1s.94,5.25,1.31,7.75.66,4.8.87,6.89c.2-2.09.45-4.41.76-6.94s.64-5.15,1-7.85.77-5.42,1.21-8.15.86-5.36,1.27-7.85l1.92-11.86h20.06Z" fill="#d10a2c"/><path d="M450.45,72v-28H428.37V72H408.31V1.11h20.06V26.94h22.08V1.11H470.5V72Z" fill="#d10a2c"/><path d="M480.83,72V1.11h54.3V17.62H500.28v9.53h21v16.2h-21V55.51h35.56V72Z" fill="#d10a2c"/><path d="M544.34,72V1.11h54.3V17.62H563.79v9.53h21v16.2h-21V55.51h35.56V72Z" fill="#d10a2c"/><path d="M607.86,72V1.11h19.85V54.9h31.4V72Z" fill="#d10a2c"/><path d="M756.76,36.16A50.51,50.51,0,0,1,754.32,53a25.6,25.6,0,0,1-7.29,11,29.5,29.5,0,0,1-12,6.08A65.55,65.55,0,0,1,718.47,72h-23V1.11h24.82a61.22,61.22,0,0,1,15.09,1.73,27.42,27.42,0,0,1,11.5,5.82,26.79,26.79,0,0,1,7.29,10.79Q756.75,26.14,756.76,36.16Zm-20.16.31a36.16,36.16,0,0,0-.86-8.41A13.76,13.76,0,0,0,733,22.28,11.36,11.36,0,0,0,727.89,19a24.22,24.22,0,0,0-7.7-1.06h-4.86V55.21h4.25a27.67,27.67,0,0,0,7.8-1,11.79,11.79,0,0,0,5.32-3.14,12.73,12.73,0,0,0,3-5.77A37.08,37.08,0,0,0,736.6,36.47Z" fill="#d10a2c"/><path d="M764.55,72V1.11h54.3V17.62H784v9.53h21v16.2H784V55.51h35.56V72Z" fill="#d10a2c"/><path d="M884.49,50.24a23.11,23.11,0,0,1-2.18,10.43,18.86,18.86,0,0,1-6.08,7.1,27.4,27.4,0,0,1-9.27,4,49.68,49.68,0,0,1-11.75,1.31,56.47,56.47,0,0,1-29.88-8.61l9.52-15.39a35.49,35.49,0,0,0,4.51,2.58A51.51,51.51,0,0,0,844.73,54a40.76,40.76,0,0,0,5.62,1.62,25,25,0,0,0,5.27.61q5.26,0,7.24-1a3.64,3.64,0,0,0,2-3.55,3.15,3.15,0,0,0-.55-1.82,5.54,5.54,0,0,0-1.93-1.57,20.78,20.78,0,0,0-3.69-1.52q-2.34-.77-5.88-1.57a107.26,107.26,0,0,1-11.14-3.24,26.51,26.51,0,0,1-7.9-4.31A16.2,16.2,0,0,1,829,31.4a22.73,22.73,0,0,1-1.57-9,21.06,21.06,0,0,1,2-9.12,20.13,20.13,0,0,1,5.62-7.09,26.58,26.58,0,0,1,8.82-4.56A38.45,38.45,0,0,1,855.41,0a52.85,52.85,0,0,1,15.86,2.13,45.39,45.39,0,0,1,12.4,6.07l-9.52,15.4a42.79,42.79,0,0,0-9.52-5,29.77,29.77,0,0,0-10.23-1.72q-4.46,0-5.87,1.21a3.94,3.94,0,0,0-1.42,3.14,2.83,2.83,0,0,0,.56,1.77,5,5,0,0,0,1.87,1.42,22.45,22.45,0,0,0,3.54,1.32q2.24.66,5.68,1.47a88.63,88.63,0,0,1,11.54,3.54,29.3,29.3,0,0,1,8,4.56A16.43,16.43,0,0,1,883,41.63,22.34,22.34,0,0,1,884.49,50.24Z" fill="#d10a2c"/><path d="M893.3,72V1.11h20.05V72Z" fill="#d10a2c"/><path d="M985.68,41.73q0,15.3-8.11,23.35t-23.6,8a35.33,35.33,0,0,1-13.32-2.43,28,28,0,0,1-10.33-7.14,33,33,0,0,1-6.69-11.5,46.8,46.8,0,0,1-2.38-15.49A47.85,47.85,0,0,1,923.38,22a32.51,32.51,0,0,1,6.33-11.55A29.64,29.64,0,0,1,940,2.79,34.07,34.07,0,0,1,954.28,0a46.29,46.29,0,0,1,11.44,1.22,23.71,23.71,0,0,1,8.16,3.69,22.82,22.82,0,0,1,5.77,6.23,49.78,49.78,0,0,1,4.3,8.71l-17.82,7a19.92,19.92,0,0,0-4.31-7.14q-2.58-2.58-7.65-2.58a10.89,10.89,0,0,0-5.82,1.47,10.75,10.75,0,0,0-3.8,4.05,20.27,20.27,0,0,0-2.08,6.13,42.7,42.7,0,0,0-.65,7.8q0,10.63,3.39,15.29t10.28,4.66a18.05,18.05,0,0,0,5.27-.66A9.3,9.3,0,0,0,964.25,54a8.23,8.23,0,0,0,2.08-2.79,13.5,13.5,0,0,0,1-3.39H954.48V33.12h31.2Z" fill="#d10a2c"/><path d="M1039.36,72l-16.91-23.4c-.82-1.08-1.76-2.41-2.84-4s-2.15-3.17-3.19-4.76-2-3.09-2.94-4.51-1.6-2.53-2.08-3.34a29.62,29.62,0,0,1,.31,3.39c.06,1.45.13,3,.2,4.76s.1,3.5.1,5.32V72H993.17V1.11h17.32l15.6,21q1.22,1.62,2.89,4.05c1.11,1.62,2.21,3.25,3.29,4.87s2.06,3.14,2.94,4.55,1.52,2.5,1.92,3.24a32.34,32.34,0,0,1-.3-3.39c-.07-1.45-.14-3-.2-4.76s-.1-3.49-.1-5.32V1.11h18.84V72Z" fill="#d10a2c"/><path d="M1085.75,28.87a11.58,11.58,0,0,1-.86,4.51,10.84,10.84,0,0,1-6,6,12.26,12.26,0,0,1-9,0,10.78,10.78,0,0,1-3.59-2.38,11,11,0,0,1-2.39-3.59,11.76,11.76,0,0,1-.86-4.51,10.63,10.63,0,0,1,3.25-8,12,12,0,0,1,16.2,0A10.66,10.66,0,0,1,1085.75,28.87Zm0,32.92a11.58,11.58,0,0,1-.86,4.51,10.84,10.84,0,0,1-6,6,11.58,11.58,0,0,1-4.51.86,11.09,11.09,0,0,1-11.35-11.34,10.63,10.63,0,0,1,3.25-8,12,12,0,0,1,16.2,0A10.66,10.66,0,0,1,1085.75,61.79Z" fill="#d10a2c"/><path d="M30.37,123v-9.5c0-2,0-3.84.05-5.6s.1-3.42.17-5c-.3.75-.64,1.59-1,2.5s-.77,1.83-1.18,2.76-.83,1.84-1.25,2.73-.79,1.69-1.13,2.41l-5.2,11-5.2-11c-.34-.72-.72-1.52-1.13-2.41s-.83-1.8-1.25-2.73-.81-1.85-1.18-2.76-.72-1.75-1-2.5c.07,1.55.13,3.21.17,5s.06,3.63.06,5.6V123H.85V83.14H11l4.89,10.64c.57,1.28,1.13,2.53,1.68,3.72s1,2.31,1.48,3.36.81,2,1.14,2.81a21.8,21.8,0,0,1,.71,2.11q.51-1.71,1.82-4.81t3.18-7.19l4.89-10.64h10V123Z" fill="#fff"/><path d="M81.78,103a26.17,26.17,0,0,1-1.37,8.79,18.3,18.3,0,0,1-3.81,6.45,16.15,16.15,0,0,1-5.85,4,21.1,21.1,0,0,1-14.88,0A16.09,16.09,0,0,1,50,118.32a17.7,17.7,0,0,1-3.78-6.43,26.71,26.71,0,0,1-1.33-8.79,26.11,26.11,0,0,1,1.36-8.78,18.26,18.26,0,0,1,3.81-6.46,16.1,16.1,0,0,1,5.86-4,21.08,21.08,0,0,1,14.87,0,15.63,15.63,0,0,1,5.8,3.93,18.14,18.14,0,0,1,3.78,6.42A26.17,26.17,0,0,1,81.78,103Zm-11.43.11q0-5.4-1.85-8.19a5.91,5.91,0,0,0-5.2-2.78,5.79,5.79,0,0,0-5.15,2.73c-1.2,1.82-1.79,4.53-1.79,8.13s.61,6.33,1.85,8.19a5.87,5.87,0,0,0,5.2,2.78,5.79,5.79,0,0,0,5.15-2.72Q70.35,108.51,70.35,103.1Z" fill="#fff"/><path d="M107.68,123l-6.5-13.42H96.74V123H85.93V83.14h17.8a26.57,26.57,0,0,1,6.34.71A13.43,13.43,0,0,1,115,86.1a10,10,0,0,1,3.16,4,14.61,14.61,0,0,1,1.11,6,12.76,12.76,0,0,1-1.94,7.33,12.23,12.23,0,0,1-5.25,4.33l8,15.18Zm.6-26.56a4.34,4.34,0,0,0-1.11-3.07,5,5,0,0,0-3.75-1.19H96.74v8.7h6.51a5.4,5.4,0,0,0,3.89-1.14A4.47,4.47,0,0,0,108.28,96.39Z" fill="#fff"/><path d="M124.38,123V83.14h30.48v9.27H135.3v5.35h11.77v9.1H135.3v6.82h20V123Z" fill="#fff"/><path d="M198.28,123l-6.5-13.42h-4.45V123h-10.8V83.14h17.8a26.57,26.57,0,0,1,6.34.71,13.5,13.5,0,0,1,4.92,2.25,10,10,0,0,1,3.16,4,14.61,14.61,0,0,1,1.11,6,12.76,12.76,0,0,1-1.94,7.33,12.29,12.29,0,0,1-5.25,4.33l8,15.18Zm.6-26.56a4.34,4.34,0,0,0-1.11-3.07A5,5,0,0,0,194,92.13h-6.69v8.7h6.52a5.41,5.41,0,0,0,3.89-1.14A4.47,4.47,0,0,0,198.88,96.39Z" fill="#fff"/><path d="M215,123V83.14h30.49v9.27H225.89v5.35h11.78v9.1H225.89v6.82h20V123Z" fill="#fff"/><path d="M250.63,123V83.14h11.15v30.2h17.63V123Z" fill="#fff"/><path d="M283.62,123V83.14h11.26V123Z" fill="#fff"/><path d="M326.67,123l-2.16-7H312.57l-2.16,7H298.58L313,83.14h11.15L338.62,123Zm-5.57-18.37c-.34-1.29-.65-2.41-.91-3.35s-.5-1.81-.71-2.56-.39-1.45-.54-2.08-.29-1.28-.4-2c-.11.68-.25,1.34-.4,2s-.33,1.34-.54,2.1-.45,1.61-.71,2.56-.57,2-.91,3.3l-.74,2.62h6.6Z" fill="#fff"/><path d="M376.09,110.12q0,6.13-3.69,9.48T361.14,123H342V83.14h19.22q7.39,0,10.66,2.68c2.18,1.78,3.27,4.35,3.27,7.69a7.67,7.67,0,0,1-1.39,5,12.12,12.12,0,0,1-3.38,2.85,9.36,9.36,0,0,1,4.21,3.26A9.57,9.57,0,0,1,376.09,110.12ZM364.38,95a3.47,3.47,0,0,0-.74-2.24,3.35,3.35,0,0,0-2.73-.92H352.6v6.31h8.31a3.47,3.47,0,0,0,2.7-.86A3.3,3.3,0,0,0,364.38,95Zm.91,15.33a3.49,3.49,0,0,0-3.93-3.82H352.6v7.74h8.71a3.78,3.78,0,0,0,3-1.11A4.1,4.1,0,0,0,365.29,110.33Z" fill="#fff"/><path d="M380.53,123V83.14h11.15v30.2h17.63V123Z" fill="#fff"/><path d="M413.23,123V83.14h30.49v9.27H424.15v5.35h11.77v9.1H424.15v6.82h20V123Z" fill="#fff"/><path d="M490.07,123l-2.85-3.24a20.83,20.83,0,0,1-5.74,2.9,21.86,21.86,0,0,1-6.66,1,17.83,17.83,0,0,1-4.74-.6,10.33,10.33,0,0,1-3.82-1.91,8.89,8.89,0,0,1-2.53-3.35,12.12,12.12,0,0,1-.91-4.89,9.45,9.45,0,0,1,.71-3.64,13.11,13.11,0,0,1,1.85-3.13,15.5,15.5,0,0,1,2.65-2.59,26.54,26.54,0,0,1,3.1-2.07l-.34-.4a21.38,21.38,0,0,1-2.53-3.58,8.41,8.41,0,0,1-1.06-4.21,10.17,10.17,0,0,1,1-4.7,9.26,9.26,0,0,1,2.87-3.35,12.78,12.78,0,0,1,4.35-2,21.39,21.39,0,0,1,5.46-.66,24.28,24.28,0,0,1,7.36,1,30.62,30.62,0,0,1,6,2.63l-4.49,8.16a25.23,25.23,0,0,0-4.3-2,14.06,14.06,0,0,0-4.63-.72,3.72,3.72,0,0,0-2.05.49,1.43,1.43,0,0,0-.74,1.23,3,3,0,0,0,.31,1.4,7.63,7.63,0,0,0,1,1.39l8.53,9.94c.53-.87,1.09-1.83,1.68-2.87s1.2-2.17,1.84-3.39l8.31,4.33c-1,1.7-2,3.29-2.9,4.75s-1.92,2.83-2.9,4.12l8.64,10ZM476.19,107.2q-3,2-3,4.26a3.32,3.32,0,0,0,.91,2.42c.61.63,1.75.94,3.41.94a7.54,7.54,0,0,0,4.21-1.31Z" fill="#fff"/><path d="M554.73,110.12q0,6.13-3.7,9.48T539.77,123H520.66V83.14h19.23q7.38,0,10.66,2.68c2.18,1.78,3.27,4.35,3.27,7.69a7.67,7.67,0,0,1-1.39,5,12,12,0,0,1-3.39,2.85,9.36,9.36,0,0,1,4.21,3.26A9.49,9.49,0,0,1,554.73,110.12ZM543,95a3.42,3.42,0,0,0-.74-2.24,3.35,3.35,0,0,0-2.73-.92h-8.3v6.31h8.3a3.51,3.51,0,0,0,2.71-.86A3.3,3.3,0,0,0,543,95Zm.91,15.33a3.48,3.48,0,0,0-3.92-3.82h-8.76v7.74h8.7a3.8,3.8,0,0,0,3-1.11A4.15,4.15,0,0,0,543.92,110.33Z" fill="#fff"/><path d="M559.17,123V83.14h30.48v9.27H570.09v5.35h11.77v9.1H570.09v6.82h20V123Z" fill="#fff"/><path d="M615.36,92.75V123h-11V92.75H593.18V83.14H626.5v9.61Z" fill="#fff"/><path d="M651.19,92.75V123h-11V92.75H629V83.14h33.32v9.61Z" fill="#fff"/><path d="M666.49,123V83.14H697v9.27H677.41v5.35h11.77v9.1H677.41v6.82h20V123Z" fill="#fff"/><path d="M723.9,123l-6.5-13.42H713V123h-10.8V83.14H720a26.63,26.63,0,0,1,6.34.71,13.58,13.58,0,0,1,4.92,2.25,10,10,0,0,1,3.15,4,14.61,14.61,0,0,1,1.11,6,12.69,12.69,0,0,1-1.94,7.33,12.26,12.26,0,0,1-5.24,4.33l8,15.18Zm.6-26.56a4.34,4.34,0,0,0-1.12-3.07,4.92,4.92,0,0,0-3.74-1.19H713v8.7h6.52a5.37,5.37,0,0,0,3.88-1.14A4.43,4.43,0,0,0,724.5,96.39Z" fill="#fff"/><path d="M789.73,96.33a15.35,15.35,0,0,1-1.2,6.43,10.8,10.8,0,0,1-3.36,4.24,13.86,13.86,0,0,1-5.16,2.33,28.76,28.76,0,0,1-6.59.71h-5.53V123H757.08V83.14H774.2a26.57,26.57,0,0,1,6.34.71,13.15,13.15,0,0,1,4.92,2.28,10.1,10.1,0,0,1,3.16,4.09A15.19,15.19,0,0,1,789.73,96.33Zm-11,.17a4.57,4.57,0,0,0-1.08-3.18c-.73-.8-2-1.19-3.78-1.19h-6v8.92h5.83c1.83,0,3.13-.37,3.89-1.13A4.64,4.64,0,0,0,778.75,96.5Z" fill="#fff"/><path d="M815.18,123l-6.5-13.42h-4.45V123H793.42V83.14h17.81a26.63,26.63,0,0,1,6.34.71,13.58,13.58,0,0,1,4.92,2.25,10,10,0,0,1,3.15,4,14.61,14.61,0,0,1,1.11,6,12.69,12.69,0,0,1-1.94,7.33,12.26,12.26,0,0,1-5.24,4.33l8,15.18Zm.6-26.56a4.34,4.34,0,0,0-1.12-3.07,4.92,4.92,0,0,0-3.74-1.19h-6.69v8.7h6.52a5.37,5.37,0,0,0,3.88-1.14A4.47,4.47,0,0,0,815.78,96.39Z" fill="#fff"/><path d="M867.08,103a26.17,26.17,0,0,1-1.37,8.79,18.3,18.3,0,0,1-3.81,6.45,16.1,16.1,0,0,1-5.86,4,21.08,21.08,0,0,1-14.87,0,16,16,0,0,1-5.83-3.92,17.7,17.7,0,0,1-3.78-6.43,26.7,26.7,0,0,1-1.34-8.79,26.1,26.1,0,0,1,1.37-8.78,18.26,18.26,0,0,1,3.81-6.46,16.15,16.15,0,0,1,5.85-4,21.1,21.1,0,0,1,14.88,0,15.71,15.71,0,0,1,5.8,3.93,18.14,18.14,0,0,1,3.78,6.42A26.17,26.17,0,0,1,867.08,103Zm-11.44.11q0-5.4-1.84-8.19a5.92,5.92,0,0,0-5.21-2.78,5.8,5.8,0,0,0-5.15,2.73q-1.79,2.73-1.79,8.13t1.85,8.19a5.89,5.89,0,0,0,5.21,2.78,5.77,5.77,0,0,0,5.14-2.72C855.05,109.42,855.64,106.71,855.64,103.1Z" fill="#fff"/><path d="M891.76,92.75V123h-11V92.75H869.58V83.14h33.33v9.61Z" fill="#fff"/><path d="M907.06,123V83.14h30.48v9.27H918v5.35h11.77v9.1H918v6.82h20V123Z" fill="#fff"/><path d="M975.76,113.28a27.53,27.53,0,0,1-2.39,3.84,15.21,15.21,0,0,1-3.33,3.27,16.71,16.71,0,0,1-4.63,2.31,20,20,0,0,1-6.2.88,18.5,18.5,0,0,1-7.82-1.57,16.22,16.22,0,0,1-5.69-4.29,18.51,18.51,0,0,1-3.47-6.48,27.81,27.81,0,0,1-1.16-8.19,25.86,25.86,0,0,1,1.33-8.59A18.62,18.62,0,0,1,946.16,88a16.32,16.32,0,0,1,5.74-4.06,18.52,18.52,0,0,1,7.37-1.43,22.75,22.75,0,0,1,6.28.77,13.07,13.07,0,0,1,4.55,2.28,13.32,13.32,0,0,1,3.21,3.69,29.52,29.52,0,0,1,2.34,5l-10,3.92c-.34-.91-.71-1.74-1.08-2.5a7.66,7.66,0,0,0-1.31-1.9,5.35,5.35,0,0,0-1.71-1.2,5.81,5.81,0,0,0-2.33-.42,5.26,5.26,0,0,0-3,.82,6.54,6.54,0,0,0-2.07,2.28,11,11,0,0,0-1.2,3.44,24.52,24.52,0,0,0-.37,4.38,24,24,0,0,0,.37,4.26,11.44,11.44,0,0,0,1.2,3.47,6.72,6.72,0,0,0,2.07,2.33,5.33,5.33,0,0,0,3.07.85,6.8,6.8,0,0,0,2.28-.34,5.06,5.06,0,0,0,1.76-1.05,10.48,10.48,0,0,0,1.54-1.76,29,29,0,0,0,1.53-2.48Z" fill="#fff"/><path d="M1000,92.75V123H989V92.75H977.81V83.14h33.33v9.61Z" fill="#fff"/><path d="M1015.29,123V83.14h30.48v9.27h-19.56v5.35H1038v9.1h-11.77v6.82h20V123Z" fill="#fff"/><path d="M1085.36,102.82a28.51,28.51,0,0,1-1.37,9.47,14.38,14.38,0,0,1-4.09,6.2,16.59,16.59,0,0,1-6.74,3.41,37,37,0,0,1-9.3,1H1051V83.14h13.93a34.3,34.3,0,0,1,8.48,1,15.29,15.29,0,0,1,6.45,3.27,15.06,15.06,0,0,1,4.1,6.05A26.43,26.43,0,0,1,1085.36,102.82ZM1074,103a19.78,19.78,0,0,0-.49-4.72A7.55,7.55,0,0,0,1072,95a6.34,6.34,0,0,0-2.84-1.85,13.58,13.58,0,0,0-4.33-.6h-2.73v20.93h2.39a15.5,15.5,0,0,0,4.38-.54,6.67,6.67,0,0,0,3-1.76,7.33,7.33,0,0,0,1.68-3.25A20.58,20.58,0,0,0,1074,103Z" fill="#fff"/></svg>