<svg id="P11_THE_FIRST_DRIVE-TRAIN" data-name="P11 THE FIRST DRIVE-TRAIN" xmlns="http://www.w3.org/2000/svg" viewBox="0 0 1085.41 205.64"><title>the-first-drive-train</title><path d="M52,118A20.33,20.33,0,0,1,50,127.16a16.41,16.41,0,0,1-5.33,6.22,23.92,23.92,0,0,1-8.13,3.55,43.21,43.21,0,0,1-10.31,1.16,47.62,47.62,0,0,1-14.43-2.18A47.57,47.57,0,0,1,.07,130.54L8.42,117a31.35,31.35,0,0,0,3.95,2.27,47.22,47.22,0,0,0,4.71,2A38.3,38.3,0,0,0,22,122.72a22.52,22.52,0,0,0,4.62.53c3.08,0,5.2-.29,6.35-.89a3.18,3.18,0,0,0,1.73-3.11,2.81,2.81,0,0,0-.48-1.6,4.93,4.93,0,0,0-1.69-1.37A18.25,18.25,0,0,0,29.3,115c-1.37-.45-3.08-.91-5.16-1.38a92.74,92.74,0,0,1-9.77-2.84A23.46,23.46,0,0,1,7.44,107a14.31,14.31,0,0,1-4.13-5.46,20,20,0,0,1-1.38-7.91,18.34,18.34,0,0,1,1.74-8A17.57,17.57,0,0,1,8.6,79.36a23.21,23.21,0,0,1,7.72-4A33.74,33.74,0,0,1,26.45,74a46.52,46.52,0,0,1,13.91,1.86,40.32,40.32,0,0,1,10.88,5.33L42.89,94.65a37.82,37.82,0,0,0-8.35-4.36,26.41,26.41,0,0,0-9-1.51q-3.9,0-5.15,1.07a3.45,3.45,0,0,0-1.24,2.75,2.56,2.56,0,0,0,.49,1.56A4.41,4.41,0,0,0,21.3,95.4a19.61,19.61,0,0,0,3.11,1.16q1.95.57,5,1.28A78.26,78.26,0,0,1,39.51,101a25.62,25.62,0,0,1,7,4,14.29,14.29,0,0,1,4.09,5.51A19.52,19.52,0,0,1,52,118Z" fill="#d10a2c"/><path d="M110.23,95.53a24.16,24.16,0,0,1-1.87,10,16.84,16.84,0,0,1-5.26,6.62A21.58,21.58,0,0,1,95,115.83a44.59,44.59,0,0,1-10.29,1.11H76.11v20.17H59.23V74.92H86A41.23,41.23,0,0,1,95.88,76a20.62,20.62,0,0,1,7.68,3.56A15.93,15.93,0,0,1,108.5,86,23.83,23.83,0,0,1,110.23,95.53Zm-17.15.27a7.06,7.06,0,0,0-1.7-5Q89.69,89,85.49,89H76.11v14h9.11q4.29,0,6.07-1.78A7.17,7.17,0,0,0,93.08,95.8Z" fill="#d10a2c"/><path d="M116,137.11V74.92h47.62V89.4H133.06v8.35h18.39V112H133.06v10.66h31.18v14.48Z" fill="#d10a2c"/><path d="M223.32,122a44.17,44.17,0,0,1-3.73,6,23.59,23.59,0,0,1-5.2,5.11,26.35,26.35,0,0,1-7.24,3.6,30.84,30.84,0,0,1-9.68,1.38,29,29,0,0,1-12.22-2.44,25.47,25.47,0,0,1-8.88-6.71A28.67,28.67,0,0,1,171,118.81,42.74,42.74,0,0,1,169.13,106a40.44,40.44,0,0,1,2.08-13.42,28.94,28.94,0,0,1,5.87-10.08,25.56,25.56,0,0,1,9-6.35A29,29,0,0,1,197.56,74a35.37,35.37,0,0,1,9.81,1.2,20.38,20.38,0,0,1,7.11,3.55,21.05,21.05,0,0,1,5,5.77,46,46,0,0,1,3.64,7.78l-15.63,6.13c-.54-1.42-1.1-2.73-1.69-3.91a11.85,11.85,0,0,0-2-3,8.2,8.2,0,0,0-2.66-1.86,8.9,8.9,0,0,0-3.64-.67,8.18,8.18,0,0,0-4.62,1.29,10.15,10.15,0,0,0-3.25,3.55,17.21,17.21,0,0,0-1.86,5.38,37.05,37.05,0,0,0-.58,6.84,36,36,0,0,0,.58,6.66,17.83,17.83,0,0,0,1.86,5.42,10.46,10.46,0,0,0,3.25,3.64,8.28,8.28,0,0,0,4.79,1.33,10.59,10.59,0,0,0,3.56-.53A8.18,8.18,0,0,0,204,120.9a15.86,15.86,0,0,0,2.4-2.76,44.31,44.31,0,0,0,2.4-3.86Z" fill="#d10a2c"/><path d="M229.54,137.11V74.92h17.59v62.19Z" fill="#d10a2c"/><path d="M273.78,89.58V98.2h19.45v14.57H273.78v24.34H256.63V74.92h49.22V89.58Z" fill="#d10a2c"/><path d="M312,137.11V74.92h17.59v62.19Z" fill="#d10a2c"/><path d="M390.69,122a44.17,44.17,0,0,1-3.73,6,23.37,23.37,0,0,1-5.2,5.11,26.35,26.35,0,0,1-7.24,3.6,30.84,30.84,0,0,1-9.68,1.38,29,29,0,0,1-12.22-2.44,25.47,25.47,0,0,1-8.88-6.71,28.67,28.67,0,0,1-5.42-10.13A42.74,42.74,0,0,1,336.5,106a40.17,40.17,0,0,1,2.09-13.42,28.77,28.77,0,0,1,5.86-10.08,25.65,25.65,0,0,1,9-6.35A29,29,0,0,1,364.93,74a35.37,35.37,0,0,1,9.81,1.2,20.3,20.3,0,0,1,7.11,3.55,21.05,21.05,0,0,1,5,5.77,46,46,0,0,1,3.64,7.78l-15.63,6.13c-.54-1.42-1.1-2.73-1.69-3.91a12.1,12.1,0,0,0-2-3,8.24,8.24,0,0,0-2.67-1.86,8.9,8.9,0,0,0-3.64-.67,8.18,8.18,0,0,0-4.62,1.29A10,10,0,0,0,357,93.8a17,17,0,0,0-1.87,5.38,37.05,37.05,0,0,0-.58,6.84,36,36,0,0,0,.58,6.66A17.57,17.57,0,0,0,357,118.1a10.34,10.34,0,0,0,3.24,3.64,8.29,8.29,0,0,0,4.8,1.33,10.57,10.57,0,0,0,3.55-.53,8.08,8.08,0,0,0,2.75-1.64,15.86,15.86,0,0,0,2.4-2.76,44.31,44.31,0,0,0,2.4-3.86Z" fill="#d10a2c"/><path d="M436.62,137.11l-3.38-10.93H414.59l-3.38,10.93H392.73L415.3,74.92h17.41l22.57,62.19Zm-8.71-28.69c-.53-2-1-3.76-1.42-5.25l-1.11-4c-.32-1.19-.61-2.27-.84-3.25s-.45-2-.62-3.06c-.18,1.06-.39,2.1-.63,3.11s-.52,2.1-.84,3.29l-1.11,4q-.63,2.22-1.42,5.16l-1.16,4.08h10.31Z" fill="#d10a2c"/><path d="M460.61,137.11V74.92H478V122.1h27.54v15Z" fill="#d10a2c"/><path d="M511.69,137.11V74.92H529.1V122.1h27.54v15Z" fill="#d10a2c"/><path d="M598.31,113.92v23.19H580.89V114.19l-23-39.27h19.9l4.8,9.42q2.49,4.89,4.35,9.11a72.12,72.12,0,0,1,2.76,7,74.33,74.33,0,0,1,2.75-7q1.88-4.23,4.35-9.11l4.8-9.42h19.73Z" fill="#d10a2c"/><path d="M705,105.66a44.53,44.53,0,0,1-2.13,14.79,22.46,22.46,0,0,1-6.4,9.69,25.84,25.84,0,0,1-10.53,5.33,57.71,57.71,0,0,1-14.52,1.64H651.25V74.92H673a54.11,54.11,0,0,1,13.23,1.51,24.18,24.18,0,0,1,10.09,5.11A23.52,23.52,0,0,1,702.73,91,40.79,40.79,0,0,1,705,105.66Zm-17.68.27a31.83,31.83,0,0,0-.75-7.38,11.92,11.92,0,0,0-2.45-5.06,10,10,0,0,0-4.44-2.89,21.31,21.31,0,0,0-6.75-.93h-4.26v32.69h3.73a24.4,24.4,0,0,0,6.84-.84,10.37,10.37,0,0,0,4.66-2.75,11.22,11.22,0,0,0,2.62-5.07A32.27,32.27,0,0,0,687.32,105.93Z" fill="#d10a2c"/><path d="M711.84,137.11V74.92h47.62V89.4H728.9v8.35h18.39V112H728.9v10.66h31.18v14.48Z" fill="#d10a2c"/><path d="M817,118a20.33,20.33,0,0,1-1.91,9.15,16.49,16.49,0,0,1-5.33,6.22,23.92,23.92,0,0,1-8.13,3.55,43.27,43.27,0,0,1-10.31,1.16,49.73,49.73,0,0,1-26.21-7.55L773.5,117a31.35,31.35,0,0,0,4,2.27,47.22,47.22,0,0,0,4.71,2,38.3,38.3,0,0,0,4.93,1.42,22.52,22.52,0,0,0,4.62.53c3.08,0,5.19-.29,6.35-.89a3.19,3.19,0,0,0,1.73-3.11,2.75,2.75,0,0,0-.49-1.6,4.79,4.79,0,0,0-1.68-1.37,18.39,18.39,0,0,0-3.25-1.33q-2-.67-5.15-1.38a92.74,92.74,0,0,1-9.77-2.84,23.21,23.21,0,0,1-6.93-3.78,14.21,14.21,0,0,1-4.13-5.46A20,20,0,0,1,767,93.58a18.48,18.48,0,0,1,1.73-8,17.8,17.8,0,0,1,4.93-6.22,23.26,23.26,0,0,1,7.73-4A33.69,33.69,0,0,1,791.53,74a46.45,46.45,0,0,1,13.9,1.86,40.24,40.24,0,0,1,10.89,5.33L808,94.65a37.38,37.38,0,0,0-8.35-4.36,26.31,26.31,0,0,0-9-1.51c-2.61,0-4.32.36-5.15,1.07a3.45,3.45,0,0,0-1.24,2.75,2.62,2.62,0,0,0,.48,1.56,4.55,4.55,0,0,0,1.65,1.24,19.24,19.24,0,0,0,3.11,1.16q1.95.57,5,1.28A78.26,78.26,0,0,1,804.59,101a25.62,25.62,0,0,1,7,4,14.27,14.27,0,0,1,4.08,5.51A19.51,19.51,0,0,1,817,118Z" fill="#d10a2c"/><path d="M824.75,137.11V74.92h17.59v62.19Z" fill="#d10a2c"/><path d="M905.78,110.55q0,13.41-7.11,20.48T878,138.09A30.94,30.94,0,0,1,866.29,136a24.6,24.6,0,0,1-9.07-6.27,28.92,28.92,0,0,1-5.86-10.08A41,41,0,0,1,849.27,106a42.16,42.16,0,0,1,1.87-12.8,28.31,28.31,0,0,1,5.55-10.12,26,26,0,0,1,9.06-6.71A29.93,29.93,0,0,1,878.24,74a41.07,41.07,0,0,1,10,1.06,20.66,20.66,0,0,1,7.16,3.24,20.1,20.1,0,0,1,5.06,5.47,44.21,44.21,0,0,1,3.78,7.64l-15.64,6.13a17.44,17.44,0,0,0-3.78-6.26c-1.51-1.52-3.74-2.27-6.7-2.27A9.53,9.53,0,0,0,873,90.25a9.41,9.41,0,0,0-3.33,3.55,18,18,0,0,0-1.83,5.38,38,38,0,0,0-.57,6.84q0,9.33,3,13.41t9,4.09a15.62,15.62,0,0,0,4.62-.58A8.1,8.1,0,0,0,887,121.3a7.3,7.3,0,0,0,1.82-2.45,12.21,12.21,0,0,0,.89-3H878.41V103h27.37Z" fill="#d10a2c"/><path d="M952.86,137.11,938,116.59c-.71-1-1.54-2.12-2.48-3.51s-1.88-2.78-2.8-4.18-1.78-2.71-2.58-4-1.41-2.22-1.82-2.93a26.33,26.33,0,0,1,.27,3c.06,1.27.11,2.66.17,4.17s.09,3.07.09,4.66v23.28H912.35V74.92h15.19l13.68,18.39c.71,1,1.56,2.13,2.53,3.56s1.94,2.84,2.89,4.26,1.81,2.75,2.58,4,1.33,2.19,1.69,2.84a26.34,26.34,0,0,1-.27-3c-.06-1.28-.12-2.67-.18-4.18s-.09-3.07-.09-4.66V74.92H966.9v62.19Z" fill="#d10a2c"/><path d="M976,137.11V74.92h47.62V89.4H993v8.35h18.39V112H993v10.66h31.18v14.48Z" fill="#d10a2c"/><path d="M1085.41,105.66a44.53,44.53,0,0,1-2.13,14.79,22.55,22.55,0,0,1-6.4,9.69,25.84,25.84,0,0,1-10.53,5.33,57.77,57.77,0,0,1-14.52,1.64h-20.17V74.92h21.77a54.16,54.16,0,0,1,13.23,1.51,24.18,24.18,0,0,1,10.09,5.11,23.52,23.52,0,0,1,6.39,9.46A41,41,0,0,1,1085.41,105.66Zm-17.68.27a31.25,31.25,0,0,0-.76-7.38,11.8,11.8,0,0,0-2.44-5.06,10,10,0,0,0-4.44-2.89,21.31,21.31,0,0,0-6.75-.93h-4.27v32.69h3.73a24.3,24.3,0,0,0,6.84-.84,10.4,10.4,0,0,0,4.67-2.75,11.22,11.22,0,0,0,2.62-5.07A32.27,32.27,0,0,0,1067.73,105.93Z" fill="#d10a2c"/><path d="M16.81,161.92v7.59H33.94v12.83H16.81v21.43H1.71V149H45v12.9Z" fill="#fff"/><path d="M98.46,176.31a36,36,0,0,1-1.88,12.09,25,25,0,0,1-5.24,8.87,22.13,22.13,0,0,1-8,5.48A27.4,27.4,0,0,1,73,204.63a27.71,27.71,0,0,1-10.21-1.84,22.08,22.08,0,0,1-8-5.4,24.09,24.09,0,0,1-5.2-8.84,36.51,36.51,0,0,1-1.84-12.08,35.71,35.71,0,0,1,1.88-12.08,25,25,0,0,1,5.24-8.88A22.17,22.17,0,0,1,63,150a29.11,29.11,0,0,1,20.45,0,21.65,21.65,0,0,1,8,5.39,25,25,0,0,1,5.2,8.84A36,36,0,0,1,98.46,176.31Zm-15.72.16q0-7.42-2.54-11.26A8.1,8.1,0,0,0,73,161.38,8,8,0,0,0,66,165.13q-2.46,3.75-2.46,11.18T66,187.58a8.11,8.11,0,0,0,7.16,3.83,7.94,7.94,0,0,0,7.07-3.76Q82.75,183.9,82.74,176.47Z" fill="#fff"/><path d="M134.08,203.77l-8.94-18.46H119v18.46H104.17V149h24.48a35.92,35.92,0,0,1,8.72,1,18.6,18.6,0,0,1,6.76,3.08,13.75,13.75,0,0,1,4.34,5.52,20.05,20.05,0,0,1,1.53,8.25,17.54,17.54,0,0,1-2.67,10.09,16.73,16.73,0,0,1-7.21,5.94l11,20.89Zm.82-36.53a5.93,5.93,0,0,0-1.53-4.22c-1-1.1-2.74-1.64-5.15-1.64H119v12h9q3.77,0,5.34-1.56A6.14,6.14,0,0,0,134.9,167.24Z" fill="#fff"/><path d="M220.31,203.77V190.7q0-4.06.08-7.7t.23-6.84c-.41,1-.88,2.19-1.4,3.44s-1.06,2.51-1.63,3.79-1.14,2.53-1.71,3.76-1.09,2.33-1.56,3.32l-7.15,15.17L200,190.47c-.47-1-1-2.1-1.56-3.32s-1.14-2.48-1.71-3.76-1.11-2.54-1.63-3.79-1-2.4-1.4-3.44q.15,3.21.23,6.84t.08,7.7v13.07H179.72V149h13.92l6.73,14.62c.78,1.78,1.55,3.48,2.3,5.13s1.44,3.18,2,4.61,1.12,2.73,1.56,3.87a30.14,30.14,0,0,1,1,2.9,69.65,69.65,0,0,1,2.5-6.61q1.8-4.26,4.38-9.9L220.86,149h13.76v54.75Z" fill="#fff"/><path d="M278,203.77l-3-9.62H258.55l-3,9.62H239.31L259.18,149h15.33l19.87,54.75Zm-7.66-25.27c-.47-1.77-.89-3.31-1.26-4.61s-.69-2.48-1-3.52-.54-2-.75-2.86-.39-1.76-.54-2.69c-.16.93-.34,1.85-.55,2.73s-.46,1.86-.74,2.9-.62,2.21-1,3.52-.78,2.81-1.25,4.53l-1,3.6h9.07Z" fill="#fff"/><path d="M346.54,180.38q0,11.81-6.25,18t-18.23,6.22a27.26,27.26,0,0,1-10.28-1.88,21.62,21.62,0,0,1-8-5.51,25.4,25.4,0,0,1-5.16-8.88,35.92,35.92,0,0,1-1.84-12,37.09,37.09,0,0,1,1.64-11.26,25.3,25.3,0,0,1,4.89-8.92,22.83,22.83,0,0,1,8-5.9,26.34,26.34,0,0,1,11-2.15,35.87,35.87,0,0,1,8.83.94,18,18,0,0,1,6.3,2.85,17.57,17.57,0,0,1,4.46,4.81,38.71,38.71,0,0,1,3.32,6.73l-13.76,5.39a15.45,15.45,0,0,0-3.33-5.51q-2-2-5.9-2a7.91,7.91,0,0,0-7.43,4.26,15.75,15.75,0,0,0-1.61,4.73,33.92,33.92,0,0,0-.5,6q0,8.22,2.62,11.81c1.74,2.4,4.39,3.6,7.93,3.6a13.88,13.88,0,0,0,4.07-.51,7.1,7.1,0,0,0,2.7-1.45,6.27,6.27,0,0,0,1.6-2.15,10.38,10.38,0,0,0,.79-2.62h-9.94V173.73h24.09Z" fill="#fff"/><path d="M388,203.77,374.93,185.7c-.62-.83-1.35-1.87-2.19-3.09s-1.65-2.45-2.46-3.68-1.57-2.38-2.27-3.48-1.24-1.95-1.6-2.58a24.43,24.43,0,0,1,.23,2.62c.05,1.12.11,2.35.16,3.68s.08,2.7.08,4.1v20.5H352.33V149H365.7l12.05,16.19c.62.83,1.37,1.87,2.23,3.13s1.7,2.5,2.54,3.75,1.59,2.42,2.27,3.52,1.17,1.93,1.48,2.5a24.18,24.18,0,0,1-.23-2.62c-.05-1.12-.11-2.34-.16-3.67s-.08-2.7-.08-4.11V149h14.55v54.75Z" fill="#fff"/><path d="M408.33,203.77V149h41.92v12.75H423.34v7.35h16.19v12.51H423.34V191H450.8v12.75Z" fill="#fff"/><path d="M485.6,162.24v41.53H470.43V162.24H455.1V149h45.83v13.22Z" fill="#fff"/><path d="M507,203.77V149h15.49v54.75Z" fill="#fff"/><path d="M576.32,190.47a37.32,37.32,0,0,1-3.28,5.28,21.05,21.05,0,0,1-4.58,4.5,22.84,22.84,0,0,1-6.37,3.16,27.17,27.17,0,0,1-8.53,1.22,25.44,25.44,0,0,1-10.75-2.15,22.47,22.47,0,0,1-7.82-5.91,25.22,25.22,0,0,1-4.77-8.92,37.73,37.73,0,0,1-1.61-11.26,35.7,35.7,0,0,1,1.84-11.81,25.58,25.58,0,0,1,5.16-8.87,22.69,22.69,0,0,1,7.9-5.6,25.59,25.59,0,0,1,10.13-2,31.45,31.45,0,0,1,8.65,1.05A17.65,17.65,0,0,1,573,157.43a40.24,40.24,0,0,1,3.21,6.84l-13.77,5.4a36.47,36.47,0,0,0-1.48-3.45,11.18,11.18,0,0,0-1.8-2.62,7.38,7.38,0,0,0-2.35-1.64,7.94,7.94,0,0,0-3.21-.58,7.16,7.16,0,0,0-4.06,1.13,9,9,0,0,0-2.86,3.13,15.22,15.22,0,0,0-1.64,4.73,33,33,0,0,0-.51,6,32.08,32.08,0,0,0,.51,5.87,15.85,15.85,0,0,0,1.64,4.77,9.4,9.4,0,0,0,2.86,3.21,7.31,7.31,0,0,0,4.22,1.17,9.5,9.5,0,0,0,3.13-.47,7.16,7.16,0,0,0,2.42-1.45,14.28,14.28,0,0,0,2.12-2.42c.67-1,1.38-2.1,2.11-3.4Z" fill="#fff"/><path d="M634,203.77l-8.94-18.46H619v18.46H604.09V149h24.48a35.92,35.92,0,0,1,8.72,1,18.6,18.6,0,0,1,6.76,3.08,13.75,13.75,0,0,1,4.34,5.52,20.05,20.05,0,0,1,1.53,8.25,17.54,17.54,0,0,1-2.67,10.09,16.73,16.73,0,0,1-7.21,5.94l11,20.89Zm.82-36.53a5.93,5.93,0,0,0-1.53-4.22c-1-1.1-2.74-1.64-5.15-1.64H619v12h9q3.76,0,5.34-1.56A6.14,6.14,0,0,0,634.82,167.24Z" fill="#fff"/><path d="M657,203.77V149h41.92v12.75H672v7.35h16.19v12.51H672V191h27.46v12.75Z" fill="#fff"/><path d="M749.56,187a17.89,17.89,0,0,1-1.68,8.06,14.57,14.57,0,0,1-4.7,5.47,21,21,0,0,1-7.15,3.13,38,38,0,0,1-9.07,1A43.76,43.76,0,0,1,703.88,198l7.35-11.89a28.18,28.18,0,0,0,3.48,2,40.36,40.36,0,0,0,4.15,1.76,32.45,32.45,0,0,0,4.34,1.26,19.67,19.67,0,0,0,4.07.46q4.07,0,5.59-.78a2.8,2.8,0,0,0,1.52-2.74,2.45,2.45,0,0,0-.42-1.4,4.48,4.48,0,0,0-1.49-1.22,17,17,0,0,0-2.86-1.17c-1.2-.39-2.71-.79-4.53-1.21a80.85,80.85,0,0,1-8.61-2.5,20.62,20.62,0,0,1-6.1-3.33,12.56,12.56,0,0,1-3.63-4.81,17.54,17.54,0,0,1-1.21-7,16.15,16.15,0,0,1,1.52-7,15.54,15.54,0,0,1,4.34-5.47,20.51,20.51,0,0,1,6.81-3.52,29.79,29.79,0,0,1,8.91-1.25,41,41,0,0,1,12.24,1.64,35.12,35.12,0,0,1,9.58,4.69l-7.35,11.89a33.2,33.2,0,0,0-7.35-3.83,23,23,0,0,0-7.9-1.33c-2.3,0-3.81.31-4.54.94a3,3,0,0,0-1.09,2.42,2.24,2.24,0,0,0,.43,1.37,3.92,3.92,0,0,0,1.45,1.1,18.16,18.16,0,0,0,2.73,1q1.73.51,4.38,1.14a67.52,67.52,0,0,1,8.92,2.73,22.59,22.59,0,0,1,6.18,3.52,12.61,12.61,0,0,1,3.59,4.85A17.1,17.1,0,0,1,749.56,187Z" fill="#fff"/><path d="M756.36,203.77V149h15.49v54.75Z" fill="#fff"/><path d="M823.78,187A17.89,17.89,0,0,1,822.1,195a14.49,14.49,0,0,1-4.7,5.47,21,21,0,0,1-7.15,3.13,38,38,0,0,1-9.07,1A43.76,43.76,0,0,1,778.1,198l7.36-11.89a27.46,27.46,0,0,0,3.48,2,40.19,40.19,0,0,0,4.14,1.76,32.45,32.45,0,0,0,4.34,1.26,19.67,19.67,0,0,0,4.07.46q4.07,0,5.59-.78a2.81,2.81,0,0,0,1.53-2.74,2.46,2.46,0,0,0-.43-1.4,4.48,4.48,0,0,0-1.49-1.22,16.64,16.64,0,0,0-2.86-1.17c-1.2-.39-2.71-.79-4.53-1.21a80.62,80.62,0,0,1-8.6-2.5,20.56,20.56,0,0,1-6.11-3.33A12.66,12.66,0,0,1,781,172.4a17.54,17.54,0,0,1-1.21-7,16.15,16.15,0,0,1,1.52-7,15.54,15.54,0,0,1,4.34-5.47,20.51,20.51,0,0,1,6.81-3.52,29.83,29.83,0,0,1,8.91-1.25,41,41,0,0,1,12.24,1.64,35.12,35.12,0,0,1,9.58,4.69l-7.35,11.89a33.2,33.2,0,0,0-7.35-3.83,23,23,0,0,0-7.9-1.33c-2.3,0-3.81.31-4.54.94a3,3,0,0,0-1.09,2.42,2.24,2.24,0,0,0,.43,1.37,3.92,3.92,0,0,0,1.45,1.1,18.16,18.16,0,0,0,2.73,1q1.72.51,4.38,1.14a67.52,67.52,0,0,1,8.92,2.73,22.59,22.59,0,0,1,6.18,3.52,12.74,12.74,0,0,1,3.6,4.85A17.29,17.29,0,0,1,823.78,187Z" fill="#fff"/><path d="M858.42,162.24v41.53H843.25V162.24H827.92V149h45.83v13.22Z" fill="#fff"/><path d="M914.82,203.77l-3-9.62H895.42l-3,9.62H876.18L896,149h15.33l19.87,54.75Zm-7.67-25.27c-.47-1.77-.89-3.31-1.25-4.61s-.69-2.48-1-3.52-.53-2-.74-2.86-.39-1.76-.55-2.69c-.16.93-.34,1.85-.55,2.73s-.45,1.86-.74,2.9-.61,2.21-1,3.52-.78,2.81-1.25,4.53l-1,3.6h9.08Z" fill="#fff"/><path d="M971.6,203.77,958.54,185.7c-.63-.83-1.36-1.87-2.2-3.09s-1.65-2.45-2.46-3.68-1.56-2.38-2.27-3.48-1.24-1.95-1.6-2.58a24.43,24.43,0,0,1,.23,2.62c.06,1.12.11,2.35.16,3.68s.08,2.7.08,4.1v20.5H935.93V149h13.38l12,16.19c.63.83,1.37,1.87,2.23,3.13s1.71,2.5,2.54,3.75,1.59,2.42,2.27,3.52,1.17,1.93,1.49,2.5a21.49,21.49,0,0,1-.24-2.62c0-1.12-.1-2.34-.16-3.67s-.07-2.7-.07-4.11V149H984v54.75Z" fill="#fff"/><path d="M1037.37,190.47a38.26,38.26,0,0,1-3.28,5.28,21.05,21.05,0,0,1-4.58,4.5,23,23,0,0,1-6.37,3.16,27.17,27.17,0,0,1-8.53,1.22,25.44,25.44,0,0,1-10.75-2.15,22.47,22.47,0,0,1-7.82-5.91,25.07,25.07,0,0,1-4.77-8.92,37.73,37.73,0,0,1-1.61-11.26,35.7,35.7,0,0,1,1.84-11.81,25.58,25.58,0,0,1,5.16-8.87,22.69,22.69,0,0,1,7.9-5.6,25.59,25.59,0,0,1,10.13-2,31.33,31.33,0,0,1,8.64,1.05,18.22,18.22,0,0,1,6.26,3.13,18.44,18.44,0,0,1,4.42,5.09,40.24,40.24,0,0,1,3.21,6.84l-13.77,5.4a34,34,0,0,0-1.49-3.45,10.86,10.86,0,0,0-1.79-2.62,7.38,7.38,0,0,0-2.35-1.64,8,8,0,0,0-3.21-.58,7.16,7.16,0,0,0-4.06,1.13,9,9,0,0,0-2.86,3.13,15,15,0,0,0-1.64,4.73,33,33,0,0,0-.51,6,32.08,32.08,0,0,0,.51,5.87,15.58,15.58,0,0,0,1.64,4.77,9.4,9.4,0,0,0,2.86,3.21,7.31,7.31,0,0,0,4.22,1.17,9.5,9.5,0,0,0,3.13-.47,7.26,7.26,0,0,0,2.42-1.45,13.82,13.82,0,0,0,2.11-2.42c.68-1,1.39-2.1,2.12-3.4Z" fill="#fff"/><path d="M1042.46,203.77V149h41.92v12.75h-26.91v7.35h16.19v12.51h-16.19V191h27.45v12.75Z" fill="#fff"/><path d="M35.67,16.46V65H17.93V16.46H0V1H53.6V16.46Z" fill="#fff"/><path d="M98.33,65V39.79H78.39V65H60.28V1H78.39V24.33H98.33V1h18.11V65Z" fill="#fff"/><path d="M125.77,65V1h49V15.92H143.34v8.59h18.93V39.15H143.34v11h32.1V65Z" fill="#fff"/><path d="M227.31,16.1V25h20V40h-20V65H209.65V1h50.68V16.1Z" fill="#fff"/><path d="M266.64,65V1h18.11V65Z" fill="#fff"/><path d="M329.52,65,319.07,43.45h-7.15V65H294.54V1h28.63a42.58,42.58,0,0,1,10.2,1.14,21.8,21.8,0,0,1,7.91,3.61,16.17,16.17,0,0,1,5.08,6.45,23.49,23.49,0,0,1,1.78,9.65q0,7.23-3.12,11.8a19.67,19.67,0,0,1-8.43,7L349.42,65Zm1-42.72a6.94,6.94,0,0,0-1.8-4.94q-1.79-1.92-6-1.92H311.92v14H322.4c2.94,0,5-.6,6.25-1.83A7.15,7.15,0,0,0,330.49,22.32Z" fill="#fff"/><path d="M407.32,45.37a20.86,20.86,0,0,1-2,9.42,17.08,17.08,0,0,1-5.49,6.41,24.75,24.75,0,0,1-8.37,3.65A44.19,44.19,0,0,1,380.89,66,48.86,48.86,0,0,1,366,63.8a49.33,49.33,0,0,1-12.12-5.53l8.6-13.91a32,32,0,0,0,4.07,2.34,47.65,47.65,0,0,0,4.85,2,37.56,37.56,0,0,0,5.08,1.47,23.11,23.11,0,0,0,4.75.55q4.75,0,6.54-.92a3.29,3.29,0,0,0,1.79-3.2,2.83,2.83,0,0,0-.51-1.65,5,5,0,0,0-1.73-1.41A19.8,19.8,0,0,0,384,42.21c-1.41-.45-3.17-.92-5.31-1.41a94.38,94.38,0,0,1-10.06-2.93A23.91,23.91,0,0,1,361.49,34a14.78,14.78,0,0,1-4.25-5.62,20.54,20.54,0,0,1-1.42-8.14A18.94,18.94,0,0,1,357.61,12a18.19,18.19,0,0,1,5.07-6.4,24.09,24.09,0,0,1,8-4.12A35,35,0,0,1,381.07,0a47.78,47.78,0,0,1,14.32,1.92,41.23,41.23,0,0,1,11.2,5.49L398,21.31a39,39,0,0,0-8.6-4.48,26.83,26.83,0,0,0-9.24-1.55q-4,0-5.3,1.09a3.56,3.56,0,0,0-1.28,2.84,2.67,2.67,0,0,0,.5,1.6,4.69,4.69,0,0,0,1.69,1.28A20.21,20.21,0,0,0,379,23.28c1.34.4,3,.84,5.12,1.33a78.87,78.87,0,0,1,10.43,3.2,26.37,26.37,0,0,1,7.22,4.11A14.7,14.7,0,0,1,406,37.6,20.17,20.17,0,0,1,407.32,45.37Z" fill="#fff"/><path d="M447.84,16.46V65H430.1V16.46H412.17V1h53.6V16.46Z" fill="#fff"/><path d="M554.32,32.66a46,46,0,0,1-2.2,15.23,23.14,23.14,0,0,1-6.58,10,26.59,26.59,0,0,1-10.84,5.48,59.17,59.17,0,0,1-15,1.7H499V1h22.41A55.32,55.32,0,0,1,535,2.56,24.91,24.91,0,0,1,545.4,7.82,24.21,24.21,0,0,1,552,17.56,42.13,42.13,0,0,1,554.32,32.66Zm-18.21.27a32.92,32.92,0,0,0-.77-7.59,12.31,12.31,0,0,0-2.52-5.22,10.23,10.23,0,0,0-4.57-3,21.89,21.89,0,0,0-7-1H516.9V49.85h3.85a24.93,24.93,0,0,0,7-.87,10.69,10.69,0,0,0,4.8-2.83,11.48,11.48,0,0,0,2.7-5.22A33,33,0,0,0,536.11,32.93Z" fill="#fff"/><path d="M596.34,65,585.89,43.45h-7.15V65H561.36V1H590a42.58,42.58,0,0,1,10.2,1.14,21.73,21.73,0,0,1,7.91,3.61,16.17,16.17,0,0,1,5.08,6.45A23.49,23.49,0,0,1,615,21.86q0,7.23-3.12,11.8a19.67,19.67,0,0,1-8.43,7L616.24,65Zm1-42.72a6.94,6.94,0,0,0-1.8-4.94q-1.78-1.92-6-1.92H578.74v14h10.48c2.94,0,5-.6,6.25-1.83A7.15,7.15,0,0,0,597.31,22.32Z" fill="#fff"/><path d="M623.65,65V1h18.11V65Z" fill="#fff"/><path d="M687.68,65H669.75l-22-64h19.94l4.66,17.19q.83,3,1.79,6.73t1.83,7.5q.86,3.8,1.64,7.18c.52,2.25.93,4.15,1.24,5.67.3-1.52.71-3.42,1.23-5.67l1.65-7.14q.87-3.75,1.83-7.5c.64-2.5,1.23-4.75,1.78-6.77L690,1h19.75Z" fill="#fff"/><path d="M715.21,65V1h49V15.92H732.78v8.59h18.93V39.15H732.78v11h32.1V65Z" fill="#fff"/><path d="M772.29,40.89V23.69h31.83v17.2Z" fill="#fff"/><path d="M846.2,16.46V65H828.45V16.46H810.53V1h53.6V16.46Z" fill="#fff"/><path d="M905.79,65,895.34,43.45h-7.15V65H870.81V1h28.63a42.58,42.58,0,0,1,10.2,1.14,21.88,21.88,0,0,1,7.91,3.61,16.15,16.15,0,0,1,5.07,6.45,23.48,23.48,0,0,1,1.79,9.65q0,7.23-3.12,11.8a19.64,19.64,0,0,1-8.44,7L925.69,65Zm1-42.72A6.93,6.93,0,0,0,905,17.38q-1.79-1.92-6-1.92H888.19v14h10.48c2.94,0,5-.6,6.25-1.83A7.15,7.15,0,0,0,906.75,22.32Z" fill="#fff"/><path d="M974,65l-3.48-11.25H951.3L947.82,65h-19L952,1H970L993.2,65Zm-9-29.55q-.82-3.1-1.46-5.4c-.43-1.52-.81-2.89-1.15-4.11s-.62-2.33-.86-3.34-.46-2.06-.64-3.16c-.19,1.1-.4,2.17-.65,3.21s-.53,2.16-.86,3.38-.72,2.59-1.15,4.12-.91,3.29-1.46,5.3L955.6,39.7h10.61Z" fill="#fff"/><path d="M999.14,65V1h18.11V65Z" fill="#fff"/><path d="M1068.75,65l-15.28-21.13c-.73-1-1.58-2.18-2.56-3.62S1049,37.43,1048,36s-1.83-2.79-2.65-4.07-1.45-2.28-1.88-3a27.43,27.43,0,0,1,.28,3.06c.06,1.31.12,2.74.18,4.3s.09,3.15.09,4.8V65h-17V1h15.64l14.09,18.93q1.1,1.47,2.6,3.66c1,1.46,2,2.93,3,4.39s1.86,2.84,2.65,4.12,1.37,2.25,1.74,2.92a27.43,27.43,0,0,1-.28-3.06c-.06-1.31-.12-2.74-.18-4.3s-.09-3.16-.09-4.8V1h17V65Z" fill="#fff"/></svg>